G04 #@! TF.GenerationSoftware,KiCad,Pcbnew,5.1.4-e60b266~84~ubuntu16.04.1*
G04 #@! TF.CreationDate,2019-11-21T17:23:13+01:00*
G04 #@! TF.ProjectId,SRAM_board,5352414d-5f62-46f6-9172-642e6b696361,rev?*
G04 #@! TF.SameCoordinates,Original*
G04 #@! TF.FileFunction,Legend,Top*
G04 #@! TF.FilePolarity,Positive*
%FSLAX46Y46*%
G04 Gerber Fmt 4.6, Leading zero omitted, Abs format (unit mm)*
G04 Created by KiCad (PCBNEW 5.1.4-e60b266~84~ubuntu16.04.1) date 2019-11-21 17:23:13*
%MOMM*%
%LPD*%
G04 APERTURE LIST*
%ADD10C,0.250000*%
%ADD11C,0.120000*%
%ADD12C,0.150000*%
%ADD13C,0.254000*%
%ADD14C,0.762000*%
%ADD15C,0.050000*%
%ADD16C,0.010000*%
%ADD17C,1.000000*%
%ADD18C,0.500000*%
G04 APERTURE END LIST*
D10*
X8890147Y8449019D02*
X9015147Y9449019D01*
X9396100Y9449019D01*
X9485385Y9401400D01*
X9527052Y9353780D01*
X9562766Y9258542D01*
X9544909Y9115685D01*
X9485385Y9020447D01*
X9431814Y8972828D01*
X9330623Y8925209D01*
X8949671Y8925209D01*
X10461576Y8449019D02*
X10187766Y8925209D01*
X9890147Y8449019D02*
X10015147Y9449019D01*
X10396100Y9449019D01*
X10485385Y9401400D01*
X10527052Y9353780D01*
X10562766Y9258542D01*
X10544909Y9115685D01*
X10485385Y9020447D01*
X10431814Y8972828D01*
X10330623Y8925209D01*
X9949671Y8925209D01*
X10955623Y8972828D02*
X11288957Y8972828D01*
X11366338Y8449019D02*
X10890147Y8449019D01*
X11015147Y9449019D01*
X11491338Y9449019D01*
X11794909Y8449019D02*
X11919909Y9449019D01*
X12158004Y9449019D01*
X12294909Y9401400D01*
X12378242Y9306161D01*
X12413957Y9210923D01*
X12437766Y9020447D01*
X12419909Y8877590D01*
X12348480Y8687114D01*
X12288957Y8591876D01*
X12181814Y8496638D01*
X12033004Y8449019D01*
X11794909Y8449019D01*
X12794909Y8449019D02*
X12919909Y9449019D01*
X13854433Y8544257D02*
X13800861Y8496638D01*
X13652052Y8449019D01*
X13556814Y8449019D01*
X13419909Y8496638D01*
X13336576Y8591876D01*
X13300861Y8687114D01*
X13277052Y8877590D01*
X13294909Y9020447D01*
X13366338Y9210923D01*
X13425861Y9306161D01*
X13533004Y9401400D01*
X13681814Y9449019D01*
X13777052Y9449019D01*
X13913957Y9401400D01*
X13955623Y9353780D01*
X14253242Y9449019D02*
X14824671Y9449019D01*
X14413957Y8449019D02*
X14538957Y9449019D01*
X8890147Y6699019D02*
X9015147Y7699019D01*
X9253242Y7699019D01*
X9390147Y7651400D01*
X9473480Y7556161D01*
X9509195Y7460923D01*
X9533004Y7270447D01*
X9515147Y7127590D01*
X9443719Y6937114D01*
X9384195Y6841876D01*
X9277052Y6746638D01*
X9128242Y6699019D01*
X8890147Y6699019D01*
X9955623Y7222828D02*
X10288957Y7222828D01*
X10366338Y6699019D02*
X9890147Y6699019D01*
X10015147Y7699019D01*
X10491338Y7699019D01*
X10842528Y7079971D02*
X11604433Y7079971D01*
X12556814Y6699019D02*
X11985385Y6699019D01*
X12271100Y6699019D02*
X12396100Y7699019D01*
X12283004Y7556161D01*
X12175861Y7460923D01*
X12074671Y7413304D01*
X13300861Y7699019D02*
X13396100Y7699019D01*
X13485385Y7651400D01*
X13527052Y7603780D01*
X13562766Y7508542D01*
X13586576Y7318066D01*
X13556814Y7079971D01*
X13485385Y6889495D01*
X13425861Y6794257D01*
X13372290Y6746638D01*
X13271100Y6699019D01*
X13175861Y6699019D01*
X13086576Y6746638D01*
X13044909Y6794257D01*
X13009195Y6889495D01*
X12985385Y7079971D01*
X13015147Y7318066D01*
X13086576Y7508542D01*
X13146100Y7603780D01*
X13199671Y7651400D01*
X13300861Y7699019D01*
X14658004Y6746638D02*
X14794909Y6699019D01*
X15033004Y6699019D01*
X15134195Y6746638D01*
X15187766Y6794257D01*
X15247290Y6889495D01*
X15259195Y6984733D01*
X15223480Y7079971D01*
X15181814Y7127590D01*
X15092528Y7175209D01*
X14908004Y7222828D01*
X14818719Y7270447D01*
X14777052Y7318066D01*
X14741338Y7413304D01*
X14753242Y7508542D01*
X14812766Y7603780D01*
X14866338Y7651400D01*
X14967528Y7699019D01*
X15205623Y7699019D01*
X15342528Y7651400D01*
X16223480Y6699019D02*
X15949671Y7175209D01*
X15652052Y6699019D02*
X15777052Y7699019D01*
X16158004Y7699019D01*
X16247290Y7651400D01*
X16288957Y7603780D01*
X16324671Y7508542D01*
X16306814Y7365685D01*
X16247290Y7270447D01*
X16193719Y7222828D01*
X16092528Y7175209D01*
X15711576Y7175209D01*
X16640147Y6984733D02*
X17116338Y6984733D01*
X16509195Y6699019D02*
X16967528Y7699019D01*
X17175861Y6699019D01*
X17509195Y6699019D02*
X17634195Y7699019D01*
X17878242Y6984733D01*
X18300861Y7699019D01*
X18175861Y6699019D01*
X19479433Y7222828D02*
X19812766Y7222828D01*
X19890147Y6699019D02*
X19413957Y6699019D01*
X19538957Y7699019D01*
X20015147Y7699019D01*
X20348480Y7699019D02*
X20890147Y6699019D01*
X21015147Y7699019D02*
X20223480Y6699019D01*
X21271100Y6699019D02*
X21396100Y7699019D01*
X21777052Y7699019D01*
X21866338Y7651400D01*
X21908004Y7603780D01*
X21943719Y7508542D01*
X21925861Y7365685D01*
X21866338Y7270447D01*
X21812766Y7222828D01*
X21711576Y7175209D01*
X21330623Y7175209D01*
X22259195Y6984733D02*
X22735385Y6984733D01*
X22128242Y6699019D02*
X22586576Y7699019D01*
X22794909Y6699019D01*
X23128242Y6699019D02*
X23253242Y7699019D01*
X23699671Y6699019D01*
X23824671Y7699019D01*
X24134195Y6746638D02*
X24271099Y6699019D01*
X24509195Y6699019D01*
X24610385Y6746638D01*
X24663957Y6794257D01*
X24723480Y6889495D01*
X24735385Y6984733D01*
X24699671Y7079971D01*
X24658004Y7127590D01*
X24568719Y7175209D01*
X24384195Y7222828D01*
X24294909Y7270447D01*
X24253242Y7318066D01*
X24217528Y7413304D01*
X24229433Y7508542D01*
X24288957Y7603780D01*
X24342528Y7651400D01*
X24443719Y7699019D01*
X24681814Y7699019D01*
X24818719Y7651400D01*
X25128242Y6699019D02*
X25253242Y7699019D01*
X25919909Y7699019D02*
X26110385Y7699019D01*
X26199671Y7651400D01*
X26283004Y7556161D01*
X26306814Y7365685D01*
X26265147Y7032352D01*
X26193719Y6841876D01*
X26086576Y6746638D01*
X25985385Y6699019D01*
X25794909Y6699019D01*
X25705623Y6746638D01*
X25622290Y6841876D01*
X25598480Y7032352D01*
X25640147Y7365685D01*
X25711576Y7556161D01*
X25818719Y7651400D01*
X25919909Y7699019D01*
X26652052Y6699019D02*
X26777052Y7699019D01*
X27223480Y6699019D01*
X27348480Y7699019D01*
D11*
X97839600Y47067600D02*
X96139000Y47066200D01*
X97828100Y41884600D02*
X95986600Y41884600D01*
D12*
X96566100Y43789695D02*
X96518480Y43694457D01*
X96518480Y43551600D01*
X96566100Y43408742D01*
X96661338Y43313504D01*
X96756576Y43265885D01*
X96947052Y43218266D01*
X97089909Y43218266D01*
X97280385Y43265885D01*
X97375623Y43313504D01*
X97470861Y43408742D01*
X97518480Y43551600D01*
X97518480Y43646838D01*
X97470861Y43789695D01*
X97423242Y43837314D01*
X97089909Y43837314D01*
X97089909Y43646838D01*
X97518480Y44265885D02*
X96518480Y44265885D01*
X97518480Y44837314D01*
X96518480Y44837314D01*
X97518480Y45313504D02*
X96518480Y45313504D01*
X96518480Y45551600D01*
X96566100Y45694457D01*
X96661338Y45789695D01*
X96756576Y45837314D01*
X96947052Y45884933D01*
X97089909Y45884933D01*
X97280385Y45837314D01*
X97375623Y45789695D01*
X97470861Y45694457D01*
X97518480Y45551600D01*
X97518480Y45313504D01*
X13460433Y21239219D02*
X13127100Y21715409D01*
X12889004Y21239219D02*
X12889004Y22239219D01*
X13269957Y22239219D01*
X13365195Y22191600D01*
X13412814Y22143980D01*
X13460433Y22048742D01*
X13460433Y21905885D01*
X13412814Y21810647D01*
X13365195Y21763028D01*
X13269957Y21715409D01*
X12889004Y21715409D01*
X13793766Y22239219D02*
X14460433Y21239219D01*
X14460433Y22239219D02*
X13793766Y21239219D01*
X12992195Y18048219D02*
X13563623Y18048219D01*
X13277909Y17048219D02*
X13277909Y18048219D01*
X13801719Y18048219D02*
X14468385Y17048219D01*
X14468385Y18048219D02*
X13801719Y17048219D01*
X96566100Y29454600D02*
X96518480Y29359361D01*
X96518480Y29216504D01*
X96566100Y29073647D01*
X96661338Y28978409D01*
X96756576Y28930790D01*
X96947052Y28883171D01*
X97089909Y28883171D01*
X97280385Y28930790D01*
X97375623Y28978409D01*
X97470861Y29073647D01*
X97518480Y29216504D01*
X97518480Y29311742D01*
X97470861Y29454600D01*
X97423242Y29502219D01*
X97089909Y29502219D01*
X97089909Y29311742D01*
X97518480Y29930790D02*
X96518480Y29930790D01*
X96518480Y30311742D01*
X96566100Y30406980D01*
X96613719Y30454600D01*
X96708957Y30502219D01*
X96851814Y30502219D01*
X96947052Y30454600D01*
X96994671Y30406980D01*
X97042290Y30311742D01*
X97042290Y29930790D01*
X97518480Y30930790D02*
X96518480Y30930790D01*
X96518480Y31597457D02*
X96518480Y31787933D01*
X96566100Y31883171D01*
X96661338Y31978409D01*
X96851814Y32026028D01*
X97185147Y32026028D01*
X97375623Y31978409D01*
X97470861Y31883171D01*
X97518480Y31787933D01*
X97518480Y31597457D01*
X97470861Y31502219D01*
X97375623Y31406980D01*
X97185147Y31359361D01*
X96851814Y31359361D01*
X96661338Y31406980D01*
X96566100Y31502219D01*
X96518480Y31597457D01*
X97232766Y13143314D02*
X97232766Y13619504D01*
X97518480Y13048076D02*
X96518480Y13381409D01*
X97518480Y13714742D01*
X97518480Y14048076D02*
X96518480Y14048076D01*
X96518480Y14286171D01*
X96566100Y14429028D01*
X96661338Y14524266D01*
X96756576Y14571885D01*
X96947052Y14619504D01*
X97089909Y14619504D01*
X97280385Y14571885D01*
X97375623Y14524266D01*
X97470861Y14429028D01*
X97518480Y14286171D01*
X97518480Y14048076D01*
X97423242Y15619504D02*
X97470861Y15571885D01*
X97518480Y15429028D01*
X97518480Y15333790D01*
X97470861Y15190933D01*
X97375623Y15095695D01*
X97280385Y15048076D01*
X97089909Y15000457D01*
X96947052Y15000457D01*
X96756576Y15048076D01*
X96661338Y15095695D01*
X96566100Y15190933D01*
X96518480Y15333790D01*
X96518480Y15429028D01*
X96566100Y15571885D01*
X96613719Y15619504D01*
X97518480Y16809980D02*
X96518480Y16809980D01*
X96518480Y17190933D01*
X96566100Y17286171D01*
X96613719Y17333790D01*
X96708957Y17381409D01*
X96851814Y17381409D01*
X96947052Y17333790D01*
X96994671Y17286171D01*
X97042290Y17190933D01*
X97042290Y16809980D01*
X97518480Y17809980D02*
X96851814Y17809980D01*
X96518480Y17809980D02*
X96566100Y17762361D01*
X96613719Y17809980D01*
X96566100Y17857600D01*
X96518480Y17809980D01*
X96613719Y17809980D01*
X96851814Y18286171D02*
X97518480Y18286171D01*
X96947052Y18286171D02*
X96899433Y18333790D01*
X96851814Y18429028D01*
X96851814Y18571885D01*
X96899433Y18667123D01*
X96994671Y18714742D01*
X97518480Y18714742D01*
X97470861Y19143314D02*
X97518480Y19238552D01*
X97518480Y19429028D01*
X97470861Y19524266D01*
X97375623Y19571885D01*
X97328004Y19571885D01*
X97232766Y19524266D01*
X97185147Y19429028D01*
X97185147Y19286171D01*
X97137528Y19190933D01*
X97042290Y19143314D01*
X96994671Y19143314D01*
X96899433Y19190933D01*
X96851814Y19286171D01*
X96851814Y19429028D01*
X96899433Y19524266D01*
X68140628Y45794657D02*
X68093009Y45747038D01*
X67950152Y45699419D01*
X67854914Y45699419D01*
X67712057Y45747038D01*
X67616819Y45842276D01*
X67569200Y45937514D01*
X67521580Y46127990D01*
X67521580Y46270847D01*
X67569200Y46461323D01*
X67616819Y46556561D01*
X67712057Y46651800D01*
X67854914Y46699419D01*
X67950152Y46699419D01*
X68093009Y46651800D01*
X68140628Y46604180D01*
X68712057Y45699419D02*
X68616819Y45747038D01*
X68569200Y45794657D01*
X68521580Y45889895D01*
X68521580Y46175609D01*
X68569200Y46270847D01*
X68616819Y46318466D01*
X68712057Y46366085D01*
X68854914Y46366085D01*
X68950152Y46318466D01*
X68997771Y46270847D01*
X69045390Y46175609D01*
X69045390Y45889895D01*
X68997771Y45794657D01*
X68950152Y45747038D01*
X68854914Y45699419D01*
X68712057Y45699419D01*
X69473961Y45699419D02*
X69473961Y46699419D01*
X69807295Y45985133D01*
X70140628Y46699419D01*
X70140628Y45699419D01*
X71331104Y45985133D02*
X71807295Y45985133D01*
X71235866Y45699419D02*
X71569200Y46699419D01*
X71902533Y45699419D01*
X72378723Y45699419D02*
X72283485Y45747038D01*
X72235866Y45842276D01*
X72235866Y46699419D01*
X72759676Y45699419D02*
X72759676Y46366085D01*
X72759676Y46699419D02*
X72712057Y46651800D01*
X72759676Y46604180D01*
X72807295Y46651800D01*
X72759676Y46699419D01*
X72759676Y46604180D01*
X73664438Y46366085D02*
X73664438Y45556561D01*
X73616819Y45461323D01*
X73569200Y45413704D01*
X73473961Y45366085D01*
X73331104Y45366085D01*
X73235866Y45413704D01*
X73664438Y45747038D02*
X73569200Y45699419D01*
X73378723Y45699419D01*
X73283485Y45747038D01*
X73235866Y45794657D01*
X73188247Y45889895D01*
X73188247Y46175609D01*
X73235866Y46270847D01*
X73283485Y46318466D01*
X73378723Y46366085D01*
X73569200Y46366085D01*
X73664438Y46318466D01*
X74140628Y46366085D02*
X74140628Y45699419D01*
X74140628Y46270847D02*
X74188247Y46318466D01*
X74283485Y46366085D01*
X74426342Y46366085D01*
X74521580Y46318466D01*
X74569200Y46223228D01*
X74569200Y45699419D01*
D13*
X75107800Y35001200D02*
X75107800Y10718800D01*
X75107800Y35001200D02*
X75107800Y51943000D01*
X67081400Y35001200D02*
X67081400Y10718800D01*
X67081400Y35001200D02*
X67081400Y52222400D01*
D12*
X92097266Y26557219D02*
X92763933Y26557219D01*
X92097266Y25557219D01*
X92763933Y25557219D01*
X91843266Y34304219D02*
X92509933Y33304219D01*
X92509933Y34304219D02*
X91843266Y33304219D01*
X82778600Y27049409D02*
X82778600Y26573219D01*
X82445266Y27573219D02*
X82778600Y27049409D01*
X83111933Y27573219D01*
D13*
X90652600Y34391600D02*
X91033600Y34010600D01*
X90652600Y34391600D02*
X90271600Y34010600D01*
X90652600Y27001502D02*
X90652600Y34264600D01*
X81635600Y26009600D02*
X82143600Y25628600D01*
X81635600Y26009600D02*
X82143600Y26390600D01*
X89660698Y26009600D02*
X81635600Y26009600D01*
D14*
X90652600Y26009600D02*
G75*
G03X90652600Y26009600I0J0D01*
G01*
D13*
X91644502Y26009600D02*
G75*
G03X91644502Y26009600I-991902J0D01*
G01*
D12*
X33058123Y58704219D02*
X32486695Y58704219D01*
X32772409Y58704219D02*
X32772409Y59704219D01*
X32677171Y59561361D01*
X32581933Y59466123D01*
X32486695Y59418504D01*
X34010504Y58704219D02*
X33439076Y58704219D01*
X33724790Y58704219D02*
X33724790Y59704219D01*
X33629552Y59561361D01*
X33534314Y59466123D01*
X33439076Y59418504D01*
X18294314Y60736219D02*
X17722885Y60736219D01*
X18008600Y60736219D02*
X18008600Y61736219D01*
X17913361Y61593361D01*
X17818123Y61498123D01*
X17722885Y61450504D01*
X70935885Y64196885D02*
X70935885Y63530219D01*
X70697790Y64577838D02*
X70459695Y63863552D01*
X71078742Y63863552D01*
X71650171Y64530219D02*
X71745409Y64530219D01*
X71840647Y64482600D01*
X71888266Y64434980D01*
X71935885Y64339742D01*
X71983504Y64149266D01*
X71983504Y63911171D01*
X71935885Y63720695D01*
X71888266Y63625457D01*
X71840647Y63577838D01*
X71745409Y63530219D01*
X71650171Y63530219D01*
X71554933Y63577838D01*
X71507314Y63625457D01*
X71459695Y63720695D01*
X71412076Y63911171D01*
X71412076Y64149266D01*
X71459695Y64339742D01*
X71507314Y64434980D01*
X71554933Y64482600D01*
X71650171Y64530219D01*
X66808361Y57751647D02*
X66713123Y57799266D01*
X66665504Y57846885D01*
X66617885Y57942123D01*
X66617885Y57989742D01*
X66665504Y58084980D01*
X66713123Y58132600D01*
X66808361Y58180219D01*
X66998838Y58180219D01*
X67094076Y58132600D01*
X67141695Y58084980D01*
X67189314Y57989742D01*
X67189314Y57942123D01*
X67141695Y57846885D01*
X67094076Y57799266D01*
X66998838Y57751647D01*
X66808361Y57751647D01*
X66713123Y57704028D01*
X66665504Y57656409D01*
X66617885Y57561171D01*
X66617885Y57370695D01*
X66665504Y57275457D01*
X66713123Y57227838D01*
X66808361Y57180219D01*
X66998838Y57180219D01*
X67094076Y57227838D01*
X67141695Y57275457D01*
X67189314Y57370695D01*
X67189314Y57561171D01*
X67141695Y57656409D01*
X67094076Y57704028D01*
X66998838Y57751647D01*
X49155314Y57180219D02*
X48583885Y57180219D01*
X48869600Y57180219D02*
X48869600Y58180219D01*
X48774361Y58037361D01*
X48679123Y57942123D01*
X48583885Y57894504D01*
X44488123Y57180219D02*
X43916695Y57180219D01*
X44202409Y57180219D02*
X44202409Y58180219D01*
X44107171Y58037361D01*
X44011933Y57942123D01*
X43916695Y57894504D01*
X45107171Y58180219D02*
X45202409Y58180219D01*
X45297647Y58132600D01*
X45345266Y58084980D01*
X45392885Y57989742D01*
X45440504Y57799266D01*
X45440504Y57561171D01*
X45392885Y57370695D01*
X45345266Y57275457D01*
X45297647Y57227838D01*
X45202409Y57180219D01*
X45107171Y57180219D01*
X45011933Y57227838D01*
X44964314Y57275457D01*
X44916695Y57370695D01*
X44869076Y57561171D01*
X44869076Y57799266D01*
X44916695Y57989742D01*
X44964314Y58084980D01*
X45011933Y58132600D01*
X45107171Y58180219D01*
X21723314Y57180219D02*
X21151885Y57180219D01*
X21437600Y57180219D02*
X21437600Y58180219D01*
X21342361Y58037361D01*
X21247123Y57942123D01*
X21151885Y57894504D01*
D11*
X27787600Y45059600D02*
X27787600Y47218600D01*
X25501600Y45059600D02*
X25501600Y47218600D01*
X22580600Y45059600D02*
X22580600Y47218600D01*
D12*
X28763933Y45877219D02*
X28430600Y46353409D01*
X28192504Y45877219D02*
X28192504Y46877219D01*
X28573457Y46877219D01*
X28668695Y46829600D01*
X28716314Y46781980D01*
X28763933Y46686742D01*
X28763933Y46543885D01*
X28716314Y46448647D01*
X28668695Y46401028D01*
X28573457Y46353409D01*
X28192504Y46353409D01*
X29097266Y46877219D02*
X29763933Y45877219D01*
X29763933Y46877219D02*
X29097266Y45877219D01*
X25755695Y46877219D02*
X26327123Y46877219D01*
X26041409Y45877219D02*
X26041409Y46877219D01*
X26565219Y46877219D02*
X27231885Y45877219D01*
X27231885Y46877219D02*
X26565219Y45877219D01*
X22763314Y45924838D02*
X22906171Y45877219D01*
X23144266Y45877219D01*
X23239504Y45924838D01*
X23287123Y45972457D01*
X23334742Y46067695D01*
X23334742Y46162933D01*
X23287123Y46258171D01*
X23239504Y46305790D01*
X23144266Y46353409D01*
X22953790Y46401028D01*
X22858552Y46448647D01*
X22810933Y46496266D01*
X22763314Y46591504D01*
X22763314Y46686742D01*
X22810933Y46781980D01*
X22858552Y46829600D01*
X22953790Y46877219D01*
X23191885Y46877219D01*
X23334742Y46829600D01*
X23763314Y45877219D02*
X23763314Y46877219D01*
X24001409Y46877219D01*
X24144266Y46829600D01*
X24239504Y46734361D01*
X24287123Y46639123D01*
X24334742Y46448647D01*
X24334742Y46305790D01*
X24287123Y46115314D01*
X24239504Y46020076D01*
X24144266Y45924838D01*
X24001409Y45877219D01*
X23763314Y45877219D01*
X24715695Y46162933D02*
X25191885Y46162933D01*
X24620457Y45877219D02*
X24953790Y46877219D01*
X25287123Y45877219D01*
X19739123Y45924838D02*
X19881980Y45877219D01*
X20120076Y45877219D01*
X20215314Y45924838D01*
X20262933Y45972457D01*
X20310552Y46067695D01*
X20310552Y46162933D01*
X20262933Y46258171D01*
X20215314Y46305790D01*
X20120076Y46353409D01*
X19929600Y46401028D01*
X19834361Y46448647D01*
X19786742Y46496266D01*
X19739123Y46591504D01*
X19739123Y46686742D01*
X19786742Y46781980D01*
X19834361Y46829600D01*
X19929600Y46877219D01*
X20167695Y46877219D01*
X20310552Y46829600D01*
X21310552Y45972457D02*
X21262933Y45924838D01*
X21120076Y45877219D01*
X21024838Y45877219D01*
X20881980Y45924838D01*
X20786742Y46020076D01*
X20739123Y46115314D01*
X20691504Y46305790D01*
X20691504Y46448647D01*
X20739123Y46639123D01*
X20786742Y46734361D01*
X20881980Y46829600D01*
X21024838Y46877219D01*
X21120076Y46877219D01*
X21262933Y46829600D01*
X21310552Y46781980D01*
X22215314Y45877219D02*
X21739123Y45877219D01*
X21739123Y46877219D01*
X72428076Y28763885D02*
X72428076Y28097219D01*
X72189980Y29144838D02*
X71951885Y28430552D01*
X72570933Y28430552D01*
X64776314Y28097219D02*
X64204885Y28097219D01*
X64490600Y28097219D02*
X64490600Y29097219D01*
X64395361Y28954361D01*
X64300123Y28859123D01*
X64204885Y28811504D01*
X55918123Y2189219D02*
X55346695Y2189219D01*
X55632409Y2189219D02*
X55632409Y3189219D01*
X55537171Y3046361D01*
X55441933Y2951123D01*
X55346695Y2903504D01*
X56870504Y2189219D02*
X56299076Y2189219D01*
X56584790Y2189219D02*
X56584790Y3189219D01*
X56489552Y3046361D01*
X56394314Y2951123D01*
X56299076Y2903504D01*
X32486695Y3093980D02*
X32534314Y3141600D01*
X32629552Y3189219D01*
X32867647Y3189219D01*
X32962885Y3141600D01*
X33010504Y3093980D01*
X33058123Y2998742D01*
X33058123Y2903504D01*
X33010504Y2760647D01*
X32439076Y2189219D01*
X33058123Y2189219D01*
X33534314Y2189219D02*
X33724790Y2189219D01*
X33820028Y2236838D01*
X33867647Y2284457D01*
X33962885Y2427314D01*
X34010504Y2617790D01*
X34010504Y2998742D01*
X33962885Y3093980D01*
X33915266Y3141600D01*
X33820028Y3189219D01*
X33629552Y3189219D01*
X33534314Y3141600D01*
X33486695Y3093980D01*
X33439076Y2998742D01*
X33439076Y2760647D01*
X33486695Y2665409D01*
X33534314Y2617790D01*
X33629552Y2570171D01*
X33820028Y2570171D01*
X33915266Y2617790D01*
X33962885Y2665409D01*
X34010504Y2760647D01*
X19739076Y3189219D02*
X20358123Y3189219D01*
X20024790Y2808266D01*
X20167647Y2808266D01*
X20262885Y2760647D01*
X20310504Y2713028D01*
X20358123Y2617790D01*
X20358123Y2379695D01*
X20310504Y2284457D01*
X20262885Y2236838D01*
X20167647Y2189219D01*
X19881933Y2189219D01*
X19786695Y2236838D01*
X19739076Y2284457D01*
X20834314Y2189219D02*
X21024790Y2189219D01*
X21120028Y2236838D01*
X21167647Y2284457D01*
X21262885Y2427314D01*
X21310504Y2617790D01*
X21310504Y2998742D01*
X21262885Y3093980D01*
X21215266Y3141600D01*
X21120028Y3189219D01*
X20929552Y3189219D01*
X20834314Y3141600D01*
X20786695Y3093980D01*
X20739076Y2998742D01*
X20739076Y2760647D01*
X20786695Y2665409D01*
X20834314Y2617790D01*
X20929552Y2570171D01*
X21120028Y2570171D01*
X21215266Y2617790D01*
X21262885Y2665409D01*
X21310504Y2760647D01*
X69221314Y2189219D02*
X68649885Y2189219D01*
X68935600Y2189219D02*
X68935600Y3189219D01*
X68840361Y3046361D01*
X68745123Y2951123D01*
X68649885Y2903504D01*
X66332076Y10047219D02*
X66141600Y10047219D01*
X66046361Y9999600D01*
X65998742Y9951980D01*
X65903504Y9809123D01*
X65855885Y9618647D01*
X65855885Y9237695D01*
X65903504Y9142457D01*
X65951123Y9094838D01*
X66046361Y9047219D01*
X66236838Y9047219D01*
X66332076Y9094838D01*
X66379695Y9142457D01*
X66427314Y9237695D01*
X66427314Y9475790D01*
X66379695Y9571028D01*
X66332076Y9618647D01*
X66236838Y9666266D01*
X66046361Y9666266D01*
X65951123Y9618647D01*
X65903504Y9571028D01*
X65855885Y9475790D01*
X53600314Y9301219D02*
X53028885Y9301219D01*
X53314600Y9301219D02*
X53314600Y10301219D01*
X53219361Y10158361D01*
X53124123Y10063123D01*
X53028885Y10015504D01*
X48266361Y9872647D02*
X48171123Y9920266D01*
X48123504Y9967885D01*
X48075885Y10063123D01*
X48075885Y10110742D01*
X48123504Y10205980D01*
X48171123Y10253600D01*
X48266361Y10301219D01*
X48456838Y10301219D01*
X48552076Y10253600D01*
X48599695Y10205980D01*
X48647314Y10110742D01*
X48647314Y10063123D01*
X48599695Y9967885D01*
X48552076Y9920266D01*
X48456838Y9872647D01*
X48266361Y9872647D01*
X48171123Y9825028D01*
X48123504Y9777409D01*
X48075885Y9682171D01*
X48075885Y9491695D01*
X48123504Y9396457D01*
X48171123Y9348838D01*
X48266361Y9301219D01*
X48456838Y9301219D01*
X48552076Y9348838D01*
X48599695Y9396457D01*
X48647314Y9491695D01*
X48647314Y9682171D01*
X48599695Y9777409D01*
X48552076Y9825028D01*
X48456838Y9872647D01*
X30867314Y9301219D02*
X30295885Y9301219D01*
X30581600Y9301219D02*
X30581600Y10301219D01*
X30486361Y10158361D01*
X30391123Y10063123D01*
X30295885Y10015504D01*
X97320076Y10047219D02*
X97129600Y10047219D01*
X97034361Y9999600D01*
X96986742Y9951980D01*
X96891504Y9809123D01*
X96843885Y9618647D01*
X96843885Y9237695D01*
X96891504Y9142457D01*
X96939123Y9094838D01*
X97034361Y9047219D01*
X97224838Y9047219D01*
X97320076Y9094838D01*
X97367695Y9142457D01*
X97415314Y9237695D01*
X97415314Y9475790D01*
X97367695Y9571028D01*
X97320076Y9618647D01*
X97224838Y9666266D01*
X97034361Y9666266D01*
X96939123Y9618647D01*
X96891504Y9571028D01*
X96843885Y9475790D01*
X97288314Y22255219D02*
X96716885Y22255219D01*
X97002600Y22255219D02*
X97002600Y23255219D01*
X96907361Y23112361D01*
X96812123Y23017123D01*
X96716885Y22969504D01*
X96796266Y41162219D02*
X97462933Y41162219D01*
X97034361Y40162219D01*
X97288314Y24287219D02*
X96716885Y24287219D01*
X97002600Y24287219D02*
X97002600Y25287219D01*
X96907361Y25144361D01*
X96812123Y25049123D01*
X96716885Y25001504D01*
X89406552Y63657219D02*
X88930361Y63657219D01*
X88930361Y64657219D01*
X89739885Y64181028D02*
X90073219Y64181028D01*
X90216076Y63657219D02*
X89739885Y63657219D01*
X89739885Y64657219D01*
X90216076Y64657219D01*
X90644647Y63657219D02*
X90644647Y64657219D01*
X90882742Y64657219D01*
X91025600Y64609600D01*
X91120838Y64514361D01*
X91168457Y64419123D01*
X91216076Y64228647D01*
X91216076Y64085790D01*
X91168457Y63895314D01*
X91120838Y63800076D01*
X91025600Y63704838D01*
X90882742Y63657219D01*
X90644647Y63657219D01*
X92168457Y63657219D02*
X91597028Y63657219D01*
X91882742Y63657219D02*
X91882742Y64657219D01*
X91787504Y64514361D01*
X91692266Y64419123D01*
X91597028Y64371504D01*
X93978552Y63657219D02*
X93502361Y63657219D01*
X93502361Y64657219D01*
X94311885Y64181028D02*
X94645219Y64181028D01*
X94788076Y63657219D02*
X94311885Y63657219D01*
X94311885Y64657219D01*
X94788076Y64657219D01*
X95216647Y63657219D02*
X95216647Y64657219D01*
X95454742Y64657219D01*
X95597600Y64609600D01*
X95692838Y64514361D01*
X95740457Y64419123D01*
X95788076Y64228647D01*
X95788076Y64085790D01*
X95740457Y63895314D01*
X95692838Y63800076D01*
X95597600Y63704838D01*
X95454742Y63657219D01*
X95216647Y63657219D01*
X96407123Y64657219D02*
X96502361Y64657219D01*
X96597600Y64609600D01*
X96645219Y64561980D01*
X96692838Y64466742D01*
X96740457Y64276266D01*
X96740457Y64038171D01*
X96692838Y63847695D01*
X96645219Y63752457D01*
X96597600Y63704838D01*
X96502361Y63657219D01*
X96407123Y63657219D01*
X96311885Y63704838D01*
X96264266Y63752457D01*
X96216647Y63847695D01*
X96169028Y64038171D01*
X96169028Y64276266D01*
X96216647Y64466742D01*
X96264266Y64561980D01*
X96311885Y64609600D01*
X96407123Y64657219D01*
D11*
X15595600Y18834100D02*
X15595600Y20485100D01*
X17119600Y20612100D02*
X17119600Y20358100D01*
X15595600Y19723100D02*
X17119600Y20612100D01*
X17119600Y18834100D02*
X15595600Y19723100D01*
X17119600Y20485100D02*
X17119600Y18834100D01*
X91795600Y62077600D02*
X93319600Y62077600D01*
X93319600Y60807600D02*
X93192600Y60807600D01*
X92557600Y62077600D02*
X93319600Y60807600D01*
X91795600Y60807600D02*
X92557600Y62077600D01*
X91795600Y60807600D02*
X93192600Y60807600D01*
X-1295400Y50012600D02*
X-1295400Y49504600D01*
X-1041400Y49758600D02*
X-279400Y49758600D01*
X-1041400Y50266600D02*
X-1041400Y49758600D01*
X54457600Y18389600D02*
X54457600Y19786600D01*
X52679600Y18389600D02*
X54457600Y18389600D01*
X54203600Y18643600D02*
X54203600Y21183600D01*
X51536600Y18643600D02*
X54203600Y18643600D01*
X24866600Y25120600D02*
X24866600Y26390600D01*
X23469600Y25120600D02*
X24866600Y25120600D01*
X24612600Y25374600D02*
X24612600Y26644600D01*
X22453600Y25374600D02*
X24612600Y25374600D01*
D12*
X84725619Y35571133D02*
X85201809Y35571133D01*
X84630380Y35285419D02*
X84963714Y36285419D01*
X85297047Y35285419D01*
X86058952Y35333038D02*
X85963714Y35285419D01*
X85773238Y35285419D01*
X85678000Y35333038D01*
X85630380Y35380657D01*
X85582761Y35475895D01*
X85582761Y35761609D01*
X85630380Y35856847D01*
X85678000Y35904466D01*
X85773238Y35952085D01*
X85963714Y35952085D01*
X86058952Y35904466D01*
X86916095Y35333038D02*
X86820857Y35285419D01*
X86630380Y35285419D01*
X86535142Y35333038D01*
X86487523Y35380657D01*
X86439904Y35475895D01*
X86439904Y35761609D01*
X86487523Y35856847D01*
X86535142Y35904466D01*
X86630380Y35952085D01*
X86820857Y35952085D01*
X86916095Y35904466D01*
X87725619Y35333038D02*
X87630380Y35285419D01*
X87439904Y35285419D01*
X87344666Y35333038D01*
X87297047Y35428276D01*
X87297047Y35809228D01*
X87344666Y35904466D01*
X87439904Y35952085D01*
X87630380Y35952085D01*
X87725619Y35904466D01*
X87773238Y35809228D01*
X87773238Y35713990D01*
X87297047Y35618752D01*
X88344666Y35285419D02*
X88249428Y35333038D01*
X88201809Y35428276D01*
X88201809Y36285419D01*
X90058952Y35380657D02*
X90011333Y35333038D01*
X89868476Y35285419D01*
X89773238Y35285419D01*
X89630380Y35333038D01*
X89535142Y35428276D01*
X89487523Y35523514D01*
X89439904Y35713990D01*
X89439904Y35856847D01*
X89487523Y36047323D01*
X89535142Y36142561D01*
X89630380Y36237800D01*
X89773238Y36285419D01*
X89868476Y36285419D01*
X90011333Y36237800D01*
X90058952Y36190180D01*
X90868476Y35333038D02*
X90773238Y35285419D01*
X90582761Y35285419D01*
X90487523Y35333038D01*
X90439904Y35428276D01*
X90439904Y35809228D01*
X90487523Y35904466D01*
X90582761Y35952085D01*
X90773238Y35952085D01*
X90868476Y35904466D01*
X90916095Y35809228D01*
X90916095Y35713990D01*
X90439904Y35618752D01*
X91344666Y35952085D02*
X91344666Y35285419D01*
X91344666Y35856847D02*
X91392285Y35904466D01*
X91487523Y35952085D01*
X91630380Y35952085D01*
X91725619Y35904466D01*
X91773238Y35809228D01*
X91773238Y35285419D01*
X92106571Y35952085D02*
X92487523Y35952085D01*
X92249428Y36285419D02*
X92249428Y35428276D01*
X92297047Y35333038D01*
X92392285Y35285419D01*
X92487523Y35285419D01*
X93201809Y35333038D02*
X93106571Y35285419D01*
X92916095Y35285419D01*
X92820857Y35333038D01*
X92773238Y35428276D01*
X92773238Y35809228D01*
X92820857Y35904466D01*
X92916095Y35952085D01*
X93106571Y35952085D01*
X93201809Y35904466D01*
X93249428Y35809228D01*
X93249428Y35713990D01*
X92773238Y35618752D01*
X93678000Y35285419D02*
X93678000Y35952085D01*
X93678000Y35761609D02*
X93725619Y35856847D01*
X93773238Y35904466D01*
X93868476Y35952085D01*
X93963714Y35952085D01*
X94439904Y35285419D02*
X94344666Y35333038D01*
X94297047Y35428276D01*
X94297047Y36285419D01*
X94820857Y35285419D02*
X94820857Y35952085D01*
X94820857Y36285419D02*
X94773238Y36237800D01*
X94820857Y36190180D01*
X94868476Y36237800D01*
X94820857Y36285419D01*
X94820857Y36190180D01*
X95297047Y35952085D02*
X95297047Y35285419D01*
X95297047Y35856847D02*
X95344666Y35904466D01*
X95439904Y35952085D01*
X95582761Y35952085D01*
X95678000Y35904466D01*
X95725619Y35809228D01*
X95725619Y35285419D01*
X96582761Y35333038D02*
X96487523Y35285419D01*
X96297047Y35285419D01*
X96201809Y35333038D01*
X96154190Y35428276D01*
X96154190Y35809228D01*
X96201809Y35904466D01*
X96297047Y35952085D01*
X96487523Y35952085D01*
X96582761Y35904466D01*
X96630380Y35809228D01*
X96630380Y35713990D01*
X96154190Y35618752D01*
D13*
X-3149600Y35001200D02*
X97205800Y35001200D01*
D11*
X-25400Y58140600D02*
X-1041400Y57886600D01*
X4800600Y58140600D02*
X-25400Y58140600D01*
D15*
X104280000Y66110000D02*
X104280000Y66030000D01*
X104280000Y-3885000D02*
X104280000Y-3800000D01*
X-3720000Y-3800000D02*
X-3720000Y-3885000D01*
X-3720000Y66030000D02*
X-3720000Y66110000D01*
X104280000Y-3800000D02*
X104280000Y66030000D01*
X-3720000Y-3885000D02*
X104280000Y-3885000D01*
X-3720000Y66110000D02*
X104280000Y66110000D01*
X-3720000Y-3800000D02*
X-3720000Y66030000D01*
D16*
G36*
X11003988Y11792992D02*
G01*
X11159354Y11689375D01*
X11264455Y11540056D01*
X11313410Y11364162D01*
X11300341Y11180820D01*
X11219367Y11009155D01*
X11094406Y10887858D01*
X10940389Y10827846D01*
X10753075Y10819508D01*
X10574648Y10861285D01*
X10488782Y10910246D01*
X10360533Y11061322D01*
X10305063Y11238741D01*
X10315578Y11422654D01*
X10385284Y11593210D01*
X10507384Y11730557D01*
X10675084Y11814847D01*
X10804236Y11831781D01*
X11003988Y11792992D01*
X11003988Y11792992D01*
G37*
X11003988Y11792992D02*
X11159354Y11689375D01*
X11264455Y11540056D01*
X11313410Y11364162D01*
X11300341Y11180820D01*
X11219367Y11009155D01*
X11094406Y10887858D01*
X10940389Y10827846D01*
X10753075Y10819508D01*
X10574648Y10861285D01*
X10488782Y10910246D01*
X10360533Y11061322D01*
X10305063Y11238741D01*
X10315578Y11422654D01*
X10385284Y11593210D01*
X10507384Y11730557D01*
X10675084Y11814847D01*
X10804236Y11831781D01*
X11003988Y11792992D01*
G36*
X12235219Y12758970D02*
G01*
X12435685Y12598010D01*
X12461281Y12568806D01*
X12559487Y12387382D01*
X12589600Y12178005D01*
X12557117Y11964967D01*
X12467536Y11772557D01*
X12326355Y11625065D01*
X12236345Y11575002D01*
X12064253Y11528924D01*
X11867993Y11512950D01*
X11695476Y11529922D01*
X11658600Y11540730D01*
X11589951Y11584603D01*
X11482046Y11673198D01*
X11381509Y11765366D01*
X11154008Y11949041D01*
X10938799Y12044619D01*
X10725774Y12052223D01*
X10504824Y11971975D01*
X10265842Y11803996D01*
X10236902Y11779196D01*
X10048342Y11670701D01*
X9839617Y11650016D01*
X9625088Y11717109D01*
X9472611Y11841014D01*
X9386019Y12005881D01*
X9363171Y12190193D01*
X9401923Y12372438D01*
X9500134Y12531100D01*
X9655659Y12644666D01*
X9719877Y12668784D01*
X9883083Y12699976D01*
X10029228Y12680391D01*
X10183854Y12602299D01*
X10347424Y12478876D01*
X10491941Y12369772D01*
X10608640Y12313321D01*
X10732339Y12294296D01*
X10771047Y12293600D01*
X11016057Y12330231D01*
X11226233Y12445802D01*
X11335327Y12547706D01*
X11552575Y12728367D01*
X11782449Y12823939D01*
X12013735Y12834209D01*
X12235219Y12758970D01*
X12235219Y12758970D01*
G37*
X12235219Y12758970D02*
X12435685Y12598010D01*
X12461281Y12568806D01*
X12559487Y12387382D01*
X12589600Y12178005D01*
X12557117Y11964967D01*
X12467536Y11772557D01*
X12326355Y11625065D01*
X12236345Y11575002D01*
X12064253Y11528924D01*
X11867993Y11512950D01*
X11695476Y11529922D01*
X11658600Y11540730D01*
X11589951Y11584603D01*
X11482046Y11673198D01*
X11381509Y11765366D01*
X11154008Y11949041D01*
X10938799Y12044619D01*
X10725774Y12052223D01*
X10504824Y11971975D01*
X10265842Y11803996D01*
X10236902Y11779196D01*
X10048342Y11670701D01*
X9839617Y11650016D01*
X9625088Y11717109D01*
X9472611Y11841014D01*
X9386019Y12005881D01*
X9363171Y12190193D01*
X9401923Y12372438D01*
X9500134Y12531100D01*
X9655659Y12644666D01*
X9719877Y12668784D01*
X9883083Y12699976D01*
X10029228Y12680391D01*
X10183854Y12602299D01*
X10347424Y12478876D01*
X10491941Y12369772D01*
X10608640Y12313321D01*
X10732339Y12294296D01*
X10771047Y12293600D01*
X11016057Y12330231D01*
X11226233Y12445802D01*
X11335327Y12547706D01*
X11552575Y12728367D01*
X11782449Y12823939D01*
X12013735Y12834209D01*
X12235219Y12758970D01*
G36*
X18875400Y14550415D02*
G01*
X19028765Y14530189D01*
X19042796Y14527469D01*
X19182196Y14471320D01*
X19291023Y14389722D01*
X19377642Y14313790D01*
X19444804Y14280286D01*
X19446396Y14280216D01*
X19495480Y14241079D01*
X19540541Y14153190D01*
X19561731Y14058792D01*
X19560686Y14036963D01*
X19590608Y14003406D01*
X19601873Y14002327D01*
X19639395Y13963647D01*
X19648055Y13909963D01*
X19635897Y13854563D01*
X19584296Y13826933D01*
X19470554Y13817995D01*
X19417146Y13817600D01*
X19280136Y13821301D01*
X19211786Y13840363D01*
X19188458Y13886723D01*
X19186236Y13934197D01*
X19155632Y14037418D01*
X19059236Y14099194D01*
X18876847Y14159529D01*
X18746351Y14172837D01*
X18638816Y14136787D01*
X18534020Y14056895D01*
X18378055Y13917540D01*
X18378055Y13363290D01*
X18379181Y13126799D01*
X18384663Y12963685D01*
X18397658Y12854968D01*
X18421319Y12781670D01*
X18458802Y12724811D01*
X18490014Y12689866D01*
X18594160Y12607107D01*
X18723221Y12573859D01*
X18805908Y12570690D01*
X18953517Y12583531D01*
X19056849Y12635128D01*
X19131415Y12709236D01*
X19232248Y12802248D01*
X19343752Y12841570D01*
X19455527Y12847781D01*
X19580149Y12844420D01*
X19633809Y12823764D01*
X19637899Y12769956D01*
X19626843Y12720781D01*
X19555335Y12538064D01*
X19429313Y12385404D01*
X19242260Y12247319D01*
X19067918Y12155634D01*
X18903781Y12117277D01*
X18793691Y12113396D01*
X18644700Y12120139D01*
X18527872Y12134127D01*
X18493509Y12142794D01*
X18353240Y12223423D01*
X18199925Y12350666D01*
X18069656Y12492929D01*
X18032408Y12546440D01*
X17993472Y12620428D01*
X17967011Y12706238D01*
X17950722Y12822646D01*
X17942301Y12988425D01*
X17939444Y13222352D01*
X17939327Y13304988D01*
X17945516Y13632568D01*
X17965886Y13880248D01*
X18003141Y14059777D01*
X18059986Y14182903D01*
X18139125Y14261373D01*
X18162726Y14275398D01*
X18274046Y14350486D01*
X18327808Y14397405D01*
X18428708Y14460448D01*
X18493046Y14476808D01*
X18568493Y14497730D01*
X18585873Y14520155D01*
X18627020Y14544966D01*
X18732508Y14555197D01*
X18875400Y14550415D01*
X18875400Y14550415D01*
G37*
X18875400Y14550415D02*
X19028765Y14530189D01*
X19042796Y14527469D01*
X19182196Y14471320D01*
X19291023Y14389722D01*
X19377642Y14313790D01*
X19444804Y14280286D01*
X19446396Y14280216D01*
X19495480Y14241079D01*
X19540541Y14153190D01*
X19561731Y14058792D01*
X19560686Y14036963D01*
X19590608Y14003406D01*
X19601873Y14002327D01*
X19639395Y13963647D01*
X19648055Y13909963D01*
X19635897Y13854563D01*
X19584296Y13826933D01*
X19470554Y13817995D01*
X19417146Y13817600D01*
X19280136Y13821301D01*
X19211786Y13840363D01*
X19188458Y13886723D01*
X19186236Y13934197D01*
X19155632Y14037418D01*
X19059236Y14099194D01*
X18876847Y14159529D01*
X18746351Y14172837D01*
X18638816Y14136787D01*
X18534020Y14056895D01*
X18378055Y13917540D01*
X18378055Y13363290D01*
X18379181Y13126799D01*
X18384663Y12963685D01*
X18397658Y12854968D01*
X18421319Y12781670D01*
X18458802Y12724811D01*
X18490014Y12689866D01*
X18594160Y12607107D01*
X18723221Y12573859D01*
X18805908Y12570690D01*
X18953517Y12583531D01*
X19056849Y12635128D01*
X19131415Y12709236D01*
X19232248Y12802248D01*
X19343752Y12841570D01*
X19455527Y12847781D01*
X19580149Y12844420D01*
X19633809Y12823764D01*
X19637899Y12769956D01*
X19626843Y12720781D01*
X19555335Y12538064D01*
X19429313Y12385404D01*
X19242260Y12247319D01*
X19067918Y12155634D01*
X18903781Y12117277D01*
X18793691Y12113396D01*
X18644700Y12120139D01*
X18527872Y12134127D01*
X18493509Y12142794D01*
X18353240Y12223423D01*
X18199925Y12350666D01*
X18069656Y12492929D01*
X18032408Y12546440D01*
X17993472Y12620428D01*
X17967011Y12706238D01*
X17950722Y12822646D01*
X17942301Y12988425D01*
X17939444Y13222352D01*
X17939327Y13304988D01*
X17945516Y13632568D01*
X17965886Y13880248D01*
X18003141Y14059777D01*
X18059986Y14182903D01*
X18139125Y14261373D01*
X18162726Y14275398D01*
X18274046Y14350486D01*
X18327808Y14397405D01*
X18428708Y14460448D01*
X18493046Y14476808D01*
X18568493Y14497730D01*
X18585873Y14520155D01*
X18627020Y14544966D01*
X18732508Y14555197D01*
X18875400Y14550415D01*
G36*
X24766597Y14540691D02*
G01*
X24941590Y14500181D01*
X25108945Y14444678D01*
X25236866Y14384135D01*
X25283481Y14347191D01*
X25313185Y14285396D01*
X25282182Y14216691D01*
X25238126Y14166168D01*
X25144867Y14094850D01*
X25061368Y14073648D01*
X25058165Y14074321D01*
X24966554Y14098703D01*
X24833040Y14136171D01*
X24794537Y14147239D01*
X24598021Y14174803D01*
X24422437Y14147355D01*
X24285134Y14074223D01*
X24203462Y13964735D01*
X24194767Y13828219D01*
X24195489Y13825143D01*
X24243937Y13708541D01*
X24334108Y13631440D01*
X24484400Y13582875D01*
X24641525Y13559268D01*
X24795144Y13534124D01*
X24875005Y13503365D01*
X24881657Y13481328D01*
X24881972Y13456300D01*
X24908434Y13468549D01*
X25001158Y13477630D01*
X25122949Y13430368D01*
X25243854Y13341465D01*
X25303064Y13274860D01*
X25351345Y13175420D01*
X25389240Y13037294D01*
X25413707Y12886447D01*
X25421704Y12748844D01*
X25410189Y12650449D01*
X25380151Y12616872D01*
X25338821Y12593648D01*
X25339605Y12582236D01*
X25321128Y12512157D01*
X25249493Y12414689D01*
X25146391Y12316558D01*
X25091713Y12276819D01*
X24873183Y12180494D01*
X24607536Y12133012D01*
X24328867Y12139228D01*
X24235128Y12154871D01*
X24017333Y12218939D01*
X23833849Y12307476D01*
X23718913Y12400790D01*
X23695682Y12456042D01*
X23731324Y12519157D01*
X23806162Y12588162D01*
X23901880Y12662768D01*
X23969606Y12682664D01*
X24050915Y12653897D01*
X24096122Y12630350D01*
X24235199Y12582821D01*
X24414497Y12555898D01*
X24602317Y12550363D01*
X24766959Y12566995D01*
X24876724Y12606576D01*
X24882457Y12610982D01*
X24939419Y12708434D01*
X24958964Y12845632D01*
X24947061Y12954763D01*
X24901203Y13032936D01*
X24806168Y13090070D01*
X24646732Y13136083D01*
X24457328Y13172461D01*
X24165730Y13249480D01*
X23954932Y13367628D01*
X23821543Y13530056D01*
X23762167Y13739914D01*
X23758236Y13821485D01*
X23800971Y14056024D01*
X23920668Y14257705D01*
X24104565Y14415592D01*
X24339898Y14518751D01*
X24613907Y14556246D01*
X24615763Y14556251D01*
X24766597Y14540691D01*
X24766597Y14540691D01*
G37*
X24766597Y14540691D02*
X24941590Y14500181D01*
X25108945Y14444678D01*
X25236866Y14384135D01*
X25283481Y14347191D01*
X25313185Y14285396D01*
X25282182Y14216691D01*
X25238126Y14166168D01*
X25144867Y14094850D01*
X25061368Y14073648D01*
X25058165Y14074321D01*
X24966554Y14098703D01*
X24833040Y14136171D01*
X24794537Y14147239D01*
X24598021Y14174803D01*
X24422437Y14147355D01*
X24285134Y14074223D01*
X24203462Y13964735D01*
X24194767Y13828219D01*
X24195489Y13825143D01*
X24243937Y13708541D01*
X24334108Y13631440D01*
X24484400Y13582875D01*
X24641525Y13559268D01*
X24795144Y13534124D01*
X24875005Y13503365D01*
X24881657Y13481328D01*
X24881972Y13456300D01*
X24908434Y13468549D01*
X25001158Y13477630D01*
X25122949Y13430368D01*
X25243854Y13341465D01*
X25303064Y13274860D01*
X25351345Y13175420D01*
X25389240Y13037294D01*
X25413707Y12886447D01*
X25421704Y12748844D01*
X25410189Y12650449D01*
X25380151Y12616872D01*
X25338821Y12593648D01*
X25339605Y12582236D01*
X25321128Y12512157D01*
X25249493Y12414689D01*
X25146391Y12316558D01*
X25091713Y12276819D01*
X24873183Y12180494D01*
X24607536Y12133012D01*
X24328867Y12139228D01*
X24235128Y12154871D01*
X24017333Y12218939D01*
X23833849Y12307476D01*
X23718913Y12400790D01*
X23695682Y12456042D01*
X23731324Y12519157D01*
X23806162Y12588162D01*
X23901880Y12662768D01*
X23969606Y12682664D01*
X24050915Y12653897D01*
X24096122Y12630350D01*
X24235199Y12582821D01*
X24414497Y12555898D01*
X24602317Y12550363D01*
X24766959Y12566995D01*
X24876724Y12606576D01*
X24882457Y12610982D01*
X24939419Y12708434D01*
X24958964Y12845632D01*
X24947061Y12954763D01*
X24901203Y13032936D01*
X24806168Y13090070D01*
X24646732Y13136083D01*
X24457328Y13172461D01*
X24165730Y13249480D01*
X23954932Y13367628D01*
X23821543Y13530056D01*
X23762167Y13739914D01*
X23758236Y13821485D01*
X23800971Y14056024D01*
X23920668Y14257705D01*
X24104565Y14415592D01*
X24339898Y14518751D01*
X24613907Y14556246D01*
X24615763Y14556251D01*
X24766597Y14540691D01*
G36*
X16461509Y14140872D02*
G01*
X15861146Y14140872D01*
X15861146Y12155054D01*
X15399327Y12155054D01*
X15399327Y14140872D01*
X15104918Y14140872D01*
X14945211Y14142725D01*
X14854659Y14155190D01*
X14810052Y14188629D01*
X14788183Y14253402D01*
X14781646Y14285190D01*
X14761349Y14398422D01*
X14752783Y14469538D01*
X14752782Y14469918D01*
X14796566Y14482660D01*
X14918334Y14493752D01*
X15103714Y14502514D01*
X15338331Y14508266D01*
X15607146Y14510327D01*
X16461509Y14510327D01*
X16461509Y14140872D01*
X16461509Y14140872D01*
G37*
X16461509Y14140872D02*
X15861146Y14140872D01*
X15861146Y12155054D01*
X15399327Y12155054D01*
X15399327Y14140872D01*
X15104918Y14140872D01*
X14945211Y14142725D01*
X14854659Y14155190D01*
X14810052Y14188629D01*
X14788183Y14253402D01*
X14781646Y14285190D01*
X14761349Y14398422D01*
X14752783Y14469538D01*
X14752782Y14469918D01*
X14796566Y14482660D01*
X14918334Y14493752D01*
X15103714Y14502514D01*
X15338331Y14508266D01*
X15607146Y14510327D01*
X16461509Y14510327D01*
X16461509Y14140872D01*
G36*
X20796158Y14509077D02*
G01*
X20976959Y14503634D01*
X21102933Y14491453D01*
X21192844Y14469994D01*
X21265452Y14436713D01*
X21315316Y14405497D01*
X21476122Y14252412D01*
X21579744Y14059581D01*
X21625605Y13847445D01*
X21613126Y13636448D01*
X21541729Y13447033D01*
X21410836Y13299642D01*
X21347708Y13260110D01*
X21261777Y13213433D01*
X21224563Y13190368D01*
X21237941Y13146329D01*
X21286577Y13036478D01*
X21362988Y12876882D01*
X21459689Y12683608D01*
X21470195Y12663031D01*
X21732591Y12150051D01*
X21471884Y12160598D01*
X21211177Y12171146D01*
X21029979Y12531529D01*
X20936807Y12727327D01*
X20881858Y12878563D01*
X20855673Y13019778D01*
X20848789Y13185513D01*
X20848782Y13193120D01*
X20852021Y13356805D01*
X20865503Y13448209D01*
X20894877Y13487300D01*
X20933988Y13494327D01*
X21046203Y13536643D01*
X21142421Y13648383D01*
X21195971Y13780639D01*
X21200877Y13888599D01*
X21143156Y13987173D01*
X21109304Y14023094D01*
X21031086Y14088765D01*
X20942973Y14124483D01*
X20814209Y14138871D01*
X20689245Y14140872D01*
X20386964Y14140872D01*
X20386964Y12155054D01*
X19925146Y12155054D01*
X19925146Y14510327D01*
X20541771Y14510327D01*
X20796158Y14509077D01*
X20796158Y14509077D01*
G37*
X20796158Y14509077D02*
X20976959Y14503634D01*
X21102933Y14491453D01*
X21192844Y14469994D01*
X21265452Y14436713D01*
X21315316Y14405497D01*
X21476122Y14252412D01*
X21579744Y14059581D01*
X21625605Y13847445D01*
X21613126Y13636448D01*
X21541729Y13447033D01*
X21410836Y13299642D01*
X21347708Y13260110D01*
X21261777Y13213433D01*
X21224563Y13190368D01*
X21237941Y13146329D01*
X21286577Y13036478D01*
X21362988Y12876882D01*
X21459689Y12683608D01*
X21470195Y12663031D01*
X21732591Y12150051D01*
X21471884Y12160598D01*
X21211177Y12171146D01*
X21029979Y12531529D01*
X20936807Y12727327D01*
X20881858Y12878563D01*
X20855673Y13019778D01*
X20848789Y13185513D01*
X20848782Y13193120D01*
X20852021Y13356805D01*
X20865503Y13448209D01*
X20894877Y13487300D01*
X20933988Y13494327D01*
X21046203Y13536643D01*
X21142421Y13648383D01*
X21195971Y13780639D01*
X21200877Y13888599D01*
X21143156Y13987173D01*
X21109304Y14023094D01*
X21031086Y14088765D01*
X20942973Y14124483D01*
X20814209Y14138871D01*
X20689245Y14140872D01*
X20386964Y14140872D01*
X20386964Y12155054D01*
X19925146Y12155054D01*
X19925146Y14510327D01*
X20541771Y14510327D01*
X20796158Y14509077D01*
G36*
X22620589Y14522472D02*
G01*
X22807538Y14519718D01*
X23573509Y14506018D01*
X23573509Y14143715D01*
X22442055Y14117781D01*
X22442055Y13563600D01*
X22915418Y13550439D01*
X23388782Y13537278D01*
X23388782Y13174285D01*
X22915418Y13161124D01*
X22442055Y13147963D01*
X22442055Y12553017D01*
X23570081Y12567865D01*
X23565938Y12361459D01*
X23561795Y12155054D01*
X22003327Y12155054D01*
X22003327Y13324994D01*
X22004051Y13644058D01*
X22006088Y13931493D01*
X22009236Y14174742D01*
X22013294Y14361251D01*
X22018059Y14478465D01*
X22022447Y14514175D01*
X22072687Y14519795D01*
X22199580Y14523125D01*
X22387442Y14524054D01*
X22620589Y14522472D01*
X22620589Y14522472D01*
G37*
X22620589Y14522472D02*
X22807538Y14519718D01*
X23573509Y14506018D01*
X23573509Y14143715D01*
X22442055Y14117781D01*
X22442055Y13563600D01*
X22915418Y13550439D01*
X23388782Y13537278D01*
X23388782Y13174285D01*
X22915418Y13161124D01*
X22442055Y13147963D01*
X22442055Y12553017D01*
X23570081Y12567865D01*
X23565938Y12361459D01*
X23561795Y12155054D01*
X22003327Y12155054D01*
X22003327Y13324994D01*
X22004051Y13644058D01*
X22006088Y13931493D01*
X22009236Y14174742D01*
X22013294Y14361251D01*
X22018059Y14478465D01*
X22022447Y14514175D01*
X22072687Y14519795D01*
X22199580Y14523125D01*
X22387442Y14524054D01*
X22620589Y14522472D01*
G36*
X27268055Y14140872D02*
G01*
X26621509Y14140872D01*
X26614234Y13205690D01*
X26612109Y12918671D01*
X26610413Y12661709D01*
X26609226Y12449662D01*
X26608629Y12297385D01*
X26608704Y12219734D01*
X26608804Y12214576D01*
X26566782Y12176547D01*
X26442215Y12162484D01*
X26409162Y12162688D01*
X26207676Y12166732D01*
X26195229Y13142257D01*
X26182782Y14117781D01*
X25873977Y14131370D01*
X25565173Y14144959D01*
X25567694Y14327643D01*
X25570216Y14510327D01*
X27268055Y14510327D01*
X27268055Y14140872D01*
X27268055Y14140872D01*
G37*
X27268055Y14140872D02*
X26621509Y14140872D01*
X26614234Y13205690D01*
X26612109Y12918671D01*
X26610413Y12661709D01*
X26609226Y12449662D01*
X26608629Y12297385D01*
X26608704Y12219734D01*
X26608804Y12214576D01*
X26566782Y12176547D01*
X26442215Y12162484D01*
X26409162Y12162688D01*
X26207676Y12166732D01*
X26195229Y13142257D01*
X26182782Y14117781D01*
X25873977Y14131370D01*
X25565173Y14144959D01*
X25567694Y14327643D01*
X25570216Y14510327D01*
X27268055Y14510327D01*
X27268055Y14140872D01*
G36*
X10959929Y13821772D02*
G01*
X11165740Y13718784D01*
X11288325Y13610628D01*
X11385176Y13497611D01*
X11432403Y13392084D01*
X11447540Y13249675D01*
X11448340Y13205645D01*
X11434894Y13017926D01*
X11381858Y12873398D01*
X11340008Y12807920D01*
X11177095Y12649819D01*
X10972087Y12553945D01*
X10751678Y12528637D01*
X10573327Y12568355D01*
X10479921Y12624295D01*
X10366172Y12714389D01*
X10342418Y12735969D01*
X10127317Y12917143D01*
X9940474Y13027074D01*
X9764651Y13074899D01*
X9695873Y13078690D01*
X9586217Y13070790D01*
X9480367Y13040655D01*
X9358642Y12978637D01*
X9201360Y12875086D01*
X9035331Y12754839D01*
X8861667Y12679137D01*
X8673136Y12686798D01*
X8488542Y12775179D01*
X8409505Y12842834D01*
X8311198Y12961538D01*
X8270225Y13083839D01*
X8264236Y13193984D01*
X8300563Y13400672D01*
X8408775Y13549665D01*
X8587722Y13639805D01*
X8733488Y13665611D01*
X8862634Y13671190D01*
X8962652Y13652257D01*
X9067239Y13596840D01*
X9201887Y13499220D01*
X9426177Y13353813D01*
X9627318Y13285389D01*
X9821148Y13295183D01*
X10023508Y13384427D01*
X10250237Y13554357D01*
X10283510Y13583487D01*
X10520542Y13754170D01*
X10745439Y13833583D01*
X10959929Y13821772D01*
X10959929Y13821772D01*
G37*
X10959929Y13821772D02*
X11165740Y13718784D01*
X11288325Y13610628D01*
X11385176Y13497611D01*
X11432403Y13392084D01*
X11447540Y13249675D01*
X11448340Y13205645D01*
X11434894Y13017926D01*
X11381858Y12873398D01*
X11340008Y12807920D01*
X11177095Y12649819D01*
X10972087Y12553945D01*
X10751678Y12528637D01*
X10573327Y12568355D01*
X10479921Y12624295D01*
X10366172Y12714389D01*
X10342418Y12735969D01*
X10127317Y12917143D01*
X9940474Y13027074D01*
X9764651Y13074899D01*
X9695873Y13078690D01*
X9586217Y13070790D01*
X9480367Y13040655D01*
X9358642Y12978637D01*
X9201360Y12875086D01*
X9035331Y12754839D01*
X8861667Y12679137D01*
X8673136Y12686798D01*
X8488542Y12775179D01*
X8409505Y12842834D01*
X8311198Y12961538D01*
X8270225Y13083839D01*
X8264236Y13193984D01*
X8300563Y13400672D01*
X8408775Y13549665D01*
X8587722Y13639805D01*
X8733488Y13665611D01*
X8862634Y13671190D01*
X8962652Y13652257D01*
X9067239Y13596840D01*
X9201887Y13499220D01*
X9426177Y13353813D01*
X9627318Y13285389D01*
X9821148Y13295183D01*
X10023508Y13384427D01*
X10250237Y13554357D01*
X10283510Y13583487D01*
X10520542Y13754170D01*
X10745439Y13833583D01*
X10959929Y13821772D01*
G36*
X13253967Y13773302D02*
G01*
X13431289Y13663023D01*
X13575403Y13481285D01*
X13597459Y13438850D01*
X13662524Y13241582D01*
X13652488Y13054052D01*
X13565179Y12849982D01*
X13546186Y12817805D01*
X13450833Y12711518D01*
X13316234Y12621558D01*
X13166648Y12556922D01*
X13026330Y12526606D01*
X12919538Y12539609D01*
X12881953Y12571444D01*
X12825561Y12597417D01*
X12808281Y12590775D01*
X12754071Y12605559D01*
X12660803Y12672577D01*
X12580563Y12746225D01*
X12472237Y12864371D01*
X12417548Y12962769D01*
X12398866Y13080426D01*
X12397509Y13151218D01*
X12434764Y13388362D01*
X12535758Y13577284D01*
X12684333Y13714113D01*
X12864332Y13794974D01*
X13059595Y13815995D01*
X13253967Y13773302D01*
X13253967Y13773302D01*
G37*
X13253967Y13773302D02*
X13431289Y13663023D01*
X13575403Y13481285D01*
X13597459Y13438850D01*
X13662524Y13241582D01*
X13652488Y13054052D01*
X13565179Y12849982D01*
X13546186Y12817805D01*
X13450833Y12711518D01*
X13316234Y12621558D01*
X13166648Y12556922D01*
X13026330Y12526606D01*
X12919538Y12539609D01*
X12881953Y12571444D01*
X12825561Y12597417D01*
X12808281Y12590775D01*
X12754071Y12605559D01*
X12660803Y12672577D01*
X12580563Y12746225D01*
X12472237Y12864371D01*
X12417548Y12962769D01*
X12398866Y13080426D01*
X12397509Y13151218D01*
X12434764Y13388362D01*
X12535758Y13577284D01*
X12684333Y13714113D01*
X12864332Y13794974D01*
X13059595Y13815995D01*
X13253967Y13773302D01*
G36*
X17708418Y12893963D02*
G01*
X16600055Y12893963D01*
X16600055Y13309600D01*
X17708418Y13309600D01*
X17708418Y12893963D01*
X17708418Y12893963D01*
G37*
X17708418Y12893963D02*
X16600055Y12893963D01*
X16600055Y13309600D01*
X17708418Y13309600D01*
X17708418Y12893963D01*
G36*
X12071345Y14819189D02*
G01*
X12288235Y14714103D01*
X12346934Y14668573D01*
X12496340Y14488371D01*
X12561287Y14276934D01*
X12538554Y14046972D01*
X12519118Y13988923D01*
X12395192Y13778205D01*
X12219371Y13634449D01*
X12008441Y13564557D01*
X11779188Y13575431D01*
X11635509Y13625621D01*
X11487971Y13712582D01*
X11356960Y13816960D01*
X11335327Y13838986D01*
X11126768Y14010970D01*
X10902782Y14093159D01*
X10669364Y14085603D01*
X10432511Y13988352D01*
X10227159Y13829720D01*
X10058417Y13725112D01*
X9868373Y13693418D01*
X9681126Y13730039D01*
X9520773Y13830375D01*
X9413381Y13985039D01*
X9365830Y14199686D01*
X9399853Y14393712D01*
X9505040Y14551415D01*
X9670983Y14657094D01*
X9884010Y14695054D01*
X10031577Y14681333D01*
X10150823Y14627661D01*
X10261467Y14538664D01*
X10490663Y14378062D01*
X10722108Y14309058D01*
X10957710Y14331730D01*
X11199379Y14446157D01*
X11377355Y14584635D01*
X11614622Y14754344D01*
X11846380Y14832566D01*
X12071345Y14819189D01*
X12071345Y14819189D01*
G37*
X12071345Y14819189D02*
X12288235Y14714103D01*
X12346934Y14668573D01*
X12496340Y14488371D01*
X12561287Y14276934D01*
X12538554Y14046972D01*
X12519118Y13988923D01*
X12395192Y13778205D01*
X12219371Y13634449D01*
X12008441Y13564557D01*
X11779188Y13575431D01*
X11635509Y13625621D01*
X11487971Y13712582D01*
X11356960Y13816960D01*
X11335327Y13838986D01*
X11126768Y14010970D01*
X10902782Y14093159D01*
X10669364Y14085603D01*
X10432511Y13988352D01*
X10227159Y13829720D01*
X10058417Y13725112D01*
X9868373Y13693418D01*
X9681126Y13730039D01*
X9520773Y13830375D01*
X9413381Y13985039D01*
X9365830Y14199686D01*
X9399853Y14393712D01*
X9505040Y14551415D01*
X9670983Y14657094D01*
X9884010Y14695054D01*
X10031577Y14681333D01*
X10150823Y14627661D01*
X10261467Y14538664D01*
X10490663Y14378062D01*
X10722108Y14309058D01*
X10957710Y14331730D01*
X11199379Y14446157D01*
X11377355Y14584635D01*
X11614622Y14754344D01*
X11846380Y14832566D01*
X12071345Y14819189D01*
G36*
X10890148Y15589173D02*
G01*
X11022287Y15531043D01*
X11141487Y15454040D01*
X11219489Y15374315D01*
X11258268Y15281771D01*
X11281706Y15155664D01*
X11288361Y15026391D01*
X11276790Y14924353D01*
X11245550Y14879949D01*
X11242964Y14879781D01*
X11200318Y14843169D01*
X11196782Y14820466D01*
X11155785Y14748505D01*
X11051894Y14678639D01*
X10913754Y14625257D01*
X10770013Y14602747D01*
X10763203Y14602690D01*
X10587327Y14640091D01*
X10455680Y14729742D01*
X10344279Y14864716D01*
X10321356Y14949054D01*
X11196782Y14949054D01*
X11219873Y14925963D01*
X11242964Y14949054D01*
X11219873Y14972145D01*
X11196782Y14949054D01*
X10321356Y14949054D01*
X10300047Y15027452D01*
X10298940Y15040097D01*
X10304241Y15211209D01*
X10343346Y15346739D01*
X10407888Y15424111D01*
X10444920Y15433963D01*
X10486744Y15458392D01*
X10480964Y15480145D01*
X10495104Y15516494D01*
X10547511Y15526327D01*
X10624022Y15545169D01*
X10642600Y15572509D01*
X10677655Y15617687D01*
X10767721Y15620647D01*
X10890148Y15589173D01*
X10890148Y15589173D01*
G37*
X10890148Y15589173D02*
X11022287Y15531043D01*
X11141487Y15454040D01*
X11219489Y15374315D01*
X11258268Y15281771D01*
X11281706Y15155664D01*
X11288361Y15026391D01*
X11276790Y14924353D01*
X11245550Y14879949D01*
X11242964Y14879781D01*
X11200318Y14843169D01*
X11196782Y14820466D01*
X11155785Y14748505D01*
X11051894Y14678639D01*
X10913754Y14625257D01*
X10770013Y14602747D01*
X10763203Y14602690D01*
X10587327Y14640091D01*
X10455680Y14729742D01*
X10344279Y14864716D01*
X10321356Y14949054D01*
X11196782Y14949054D01*
X11219873Y14925963D01*
X11242964Y14949054D01*
X11219873Y14972145D01*
X11196782Y14949054D01*
X10321356Y14949054D01*
X10300047Y15027452D01*
X10298940Y15040097D01*
X10304241Y15211209D01*
X10343346Y15346739D01*
X10407888Y15424111D01*
X10444920Y15433963D01*
X10486744Y15458392D01*
X10480964Y15480145D01*
X10495104Y15516494D01*
X10547511Y15526327D01*
X10624022Y15545169D01*
X10642600Y15572509D01*
X10677655Y15617687D01*
X10767721Y15620647D01*
X10890148Y15589173D01*
G36*
X4707468Y5426096D02*
G01*
X4754326Y5383417D01*
X4858795Y5316711D01*
X4998227Y5237795D01*
X5149975Y5158485D01*
X5291391Y5090598D01*
X5399828Y5045950D01*
X5452640Y5036358D01*
X5453335Y5036929D01*
X5481320Y5031722D01*
X5484091Y5011081D01*
X5511181Y4976313D01*
X5530272Y4983018D01*
X5572760Y4977824D01*
X5576454Y4959927D01*
X5603310Y4928457D01*
X5618692Y4934399D01*
X5669837Y4932141D01*
X5676419Y4921739D01*
X5721622Y4882299D01*
X5827338Y4812887D01*
X5972619Y4727066D01*
X6006023Y4708323D01*
X6151853Y4624719D01*
X6257825Y4559112D01*
X6305522Y4523053D01*
X6306205Y4520029D01*
X6262924Y4495377D01*
X6150411Y4434636D01*
X5981281Y4344522D01*
X5768147Y4231752D01*
X5523625Y4103041D01*
X5484169Y4082329D01*
X5233925Y3949278D01*
X5011708Y3827837D01*
X4830614Y3725430D01*
X4703739Y3649485D01*
X4644179Y3607426D01*
X4642058Y3604827D01*
X4612825Y3580037D01*
X4607343Y3612958D01*
X4574483Y3657539D01*
X4549321Y3655428D01*
X4472510Y3668420D01*
X4427912Y3700418D01*
X4345859Y3742959D01*
X4300500Y3740214D01*
X4244611Y3739039D01*
X4237181Y3754061D01*
X4195618Y3783344D01*
X4082200Y3832558D01*
X3913840Y3896104D01*
X3707448Y3968380D01*
X3479936Y4043787D01*
X3248214Y4116724D01*
X3029194Y4181592D01*
X2839787Y4232789D01*
X2696903Y4264716D01*
X2693154Y4265380D01*
X2397621Y4304988D01*
X2113007Y4314546D01*
X1820670Y4291597D01*
X1501963Y4233683D01*
X1138244Y4138348D01*
X715818Y4004792D01*
X490888Y3927004D01*
X300987Y3856591D01*
X161604Y3799669D01*
X88228Y3762354D01*
X80818Y3754061D01*
X47170Y3733305D01*
X17500Y3740214D01*
X-62880Y3730875D01*
X-115548Y3694782D01*
X-183262Y3651640D01*
X-216377Y3656153D01*
X-262672Y3651978D01*
X-285557Y3625637D01*
X-326269Y3594475D01*
X-340774Y3611594D01*
X-385230Y3646744D01*
X-499097Y3716803D01*
X-669621Y3814490D01*
X-884048Y3932524D01*
X-1129626Y4063624D01*
X-1166091Y4082777D01*
X-1414352Y4213209D01*
X-1633149Y4328745D01*
X-1809864Y4422674D01*
X-1931878Y4488284D01*
X-1986574Y4518865D01*
X-1988206Y4520029D01*
X-1957737Y4547012D01*
X-1864446Y4606395D01*
X-1726748Y4686628D01*
X-1688024Y4708323D01*
X-1537122Y4795860D01*
X-1421408Y4869821D01*
X-1361830Y4916644D01*
X-1358420Y4921739D01*
X-1314050Y4940428D01*
X-1300692Y4934399D01*
X-1262150Y4944094D01*
X-1258455Y4964899D01*
X-1240634Y4998604D01*
X-1228106Y4991154D01*
X-1177628Y4999209D01*
X-1064018Y5044286D01*
X-904975Y5118720D01*
X-747517Y5199228D01*
X-297277Y5437651D01*
X-56935Y5337769D01*
X80659Y5286883D01*
X183672Y5260317D01*
X220532Y5260831D01*
X268716Y5252473D01*
X273146Y5244162D01*
X323491Y5205830D01*
X432782Y5154360D01*
X571464Y5100498D01*
X709982Y5054987D01*
X818781Y5028573D01*
X865365Y5028864D01*
X913513Y5019535D01*
X919692Y5007358D01*
X978616Y4958779D01*
X1111320Y4908803D01*
X1299356Y4861058D01*
X1524276Y4819171D01*
X1767633Y4786768D01*
X2010978Y4767478D01*
X2159000Y4763688D01*
X2392580Y4772621D01*
X2638045Y4797000D01*
X2876947Y4833198D01*
X3090839Y4877589D01*
X3261272Y4926545D01*
X3369799Y4976439D01*
X3398308Y5007358D01*
X3440686Y5033865D01*
X3452635Y5028864D01*
X3510540Y5032534D01*
X3624444Y5061851D01*
X3765103Y5106892D01*
X3903273Y5157739D01*
X4009712Y5204472D01*
X4052454Y5232337D01*
X4114835Y5262024D01*
X4121727Y5262685D01*
X4235952Y5283427D01*
X4344935Y5324132D01*
X4413553Y5370106D01*
X4421909Y5388267D01*
X4440386Y5415802D01*
X4449748Y5409300D01*
X4509018Y5402572D01*
X4585216Y5422381D01*
X4671283Y5440404D01*
X4707468Y5426096D01*
X4707468Y5426096D01*
G37*
X4707468Y5426096D02*
X4754326Y5383417D01*
X4858795Y5316711D01*
X4998227Y5237795D01*
X5149975Y5158485D01*
X5291391Y5090598D01*
X5399828Y5045950D01*
X5452640Y5036358D01*
X5453335Y5036929D01*
X5481320Y5031722D01*
X5484091Y5011081D01*
X5511181Y4976313D01*
X5530272Y4983018D01*
X5572760Y4977824D01*
X5576454Y4959927D01*
X5603310Y4928457D01*
X5618692Y4934399D01*
X5669837Y4932141D01*
X5676419Y4921739D01*
X5721622Y4882299D01*
X5827338Y4812887D01*
X5972619Y4727066D01*
X6006023Y4708323D01*
X6151853Y4624719D01*
X6257825Y4559112D01*
X6305522Y4523053D01*
X6306205Y4520029D01*
X6262924Y4495377D01*
X6150411Y4434636D01*
X5981281Y4344522D01*
X5768147Y4231752D01*
X5523625Y4103041D01*
X5484169Y4082329D01*
X5233925Y3949278D01*
X5011708Y3827837D01*
X4830614Y3725430D01*
X4703739Y3649485D01*
X4644179Y3607426D01*
X4642058Y3604827D01*
X4612825Y3580037D01*
X4607343Y3612958D01*
X4574483Y3657539D01*
X4549321Y3655428D01*
X4472510Y3668420D01*
X4427912Y3700418D01*
X4345859Y3742959D01*
X4300500Y3740214D01*
X4244611Y3739039D01*
X4237181Y3754061D01*
X4195618Y3783344D01*
X4082200Y3832558D01*
X3913840Y3896104D01*
X3707448Y3968380D01*
X3479936Y4043787D01*
X3248214Y4116724D01*
X3029194Y4181592D01*
X2839787Y4232789D01*
X2696903Y4264716D01*
X2693154Y4265380D01*
X2397621Y4304988D01*
X2113007Y4314546D01*
X1820670Y4291597D01*
X1501963Y4233683D01*
X1138244Y4138348D01*
X715818Y4004792D01*
X490888Y3927004D01*
X300987Y3856591D01*
X161604Y3799669D01*
X88228Y3762354D01*
X80818Y3754061D01*
X47170Y3733305D01*
X17500Y3740214D01*
X-62880Y3730875D01*
X-115548Y3694782D01*
X-183262Y3651640D01*
X-216377Y3656153D01*
X-262672Y3651978D01*
X-285557Y3625637D01*
X-326269Y3594475D01*
X-340774Y3611594D01*
X-385230Y3646744D01*
X-499097Y3716803D01*
X-669621Y3814490D01*
X-884048Y3932524D01*
X-1129626Y4063624D01*
X-1166091Y4082777D01*
X-1414352Y4213209D01*
X-1633149Y4328745D01*
X-1809864Y4422674D01*
X-1931878Y4488284D01*
X-1986574Y4518865D01*
X-1988206Y4520029D01*
X-1957737Y4547012D01*
X-1864446Y4606395D01*
X-1726748Y4686628D01*
X-1688024Y4708323D01*
X-1537122Y4795860D01*
X-1421408Y4869821D01*
X-1361830Y4916644D01*
X-1358420Y4921739D01*
X-1314050Y4940428D01*
X-1300692Y4934399D01*
X-1262150Y4944094D01*
X-1258455Y4964899D01*
X-1240634Y4998604D01*
X-1228106Y4991154D01*
X-1177628Y4999209D01*
X-1064018Y5044286D01*
X-904975Y5118720D01*
X-747517Y5199228D01*
X-297277Y5437651D01*
X-56935Y5337769D01*
X80659Y5286883D01*
X183672Y5260317D01*
X220532Y5260831D01*
X268716Y5252473D01*
X273146Y5244162D01*
X323491Y5205830D01*
X432782Y5154360D01*
X571464Y5100498D01*
X709982Y5054987D01*
X818781Y5028573D01*
X865365Y5028864D01*
X913513Y5019535D01*
X919692Y5007358D01*
X978616Y4958779D01*
X1111320Y4908803D01*
X1299356Y4861058D01*
X1524276Y4819171D01*
X1767633Y4786768D01*
X2010978Y4767478D01*
X2159000Y4763688D01*
X2392580Y4772621D01*
X2638045Y4797000D01*
X2876947Y4833198D01*
X3090839Y4877589D01*
X3261272Y4926545D01*
X3369799Y4976439D01*
X3398308Y5007358D01*
X3440686Y5033865D01*
X3452635Y5028864D01*
X3510540Y5032534D01*
X3624444Y5061851D01*
X3765103Y5106892D01*
X3903273Y5157739D01*
X4009712Y5204472D01*
X4052454Y5232337D01*
X4114835Y5262024D01*
X4121727Y5262685D01*
X4235952Y5283427D01*
X4344935Y5324132D01*
X4413553Y5370106D01*
X4421909Y5388267D01*
X4440386Y5415802D01*
X4449748Y5409300D01*
X4509018Y5402572D01*
X4585216Y5422381D01*
X4671283Y5440404D01*
X4707468Y5426096D01*
G36*
X4613355Y7755501D02*
G01*
X4755702Y7705113D01*
X4961379Y7613945D01*
X5236224Y7479463D01*
X5475223Y7356990D01*
X5725926Y7226257D01*
X5947832Y7109548D01*
X6128160Y7013667D01*
X6254132Y6945415D01*
X6312969Y6911596D01*
X6315363Y6909772D01*
X6302724Y6877179D01*
X6279902Y6866027D01*
X6198020Y6816669D01*
X6158400Y6782185D01*
X6094215Y6742780D01*
X6066861Y6747823D01*
X6041312Y6739344D01*
X6038272Y6714836D01*
X6021366Y6676834D01*
X6007466Y6684067D01*
X5957327Y6676244D01*
X5848842Y6632200D01*
X5703042Y6562937D01*
X5540961Y6479457D01*
X5383632Y6392761D01*
X5252087Y6313850D01*
X5167358Y6253728D01*
X5149979Y6235538D01*
X5119309Y6208801D01*
X5115343Y6219160D01*
X5078047Y6219301D01*
X4982001Y6183606D01*
X4875626Y6133459D01*
X4733849Y6066074D01*
X4635432Y6038670D01*
X4543185Y6046032D01*
X4448444Y6073579D01*
X4318162Y6110721D01*
X4220679Y6129307D01*
X4202545Y6129775D01*
X4149015Y6147515D01*
X4144818Y6160502D01*
X4103475Y6187044D01*
X3989555Y6236445D01*
X3818224Y6302711D01*
X3604646Y6379848D01*
X3486727Y6420629D01*
X2828636Y6644988D01*
X1489363Y6644988D01*
X831272Y6420629D01*
X602171Y6339780D01*
X407765Y6265945D01*
X263238Y6205307D01*
X183772Y6164049D01*
X173181Y6152646D01*
X145278Y6128631D01*
X131906Y6134532D01*
X66312Y6134654D01*
X-44434Y6102927D01*
X-74429Y6091075D01*
X-201699Y6043378D01*
X-299684Y6030746D01*
X-402869Y6056574D01*
X-545740Y6124260D01*
X-577273Y6140599D01*
X-698200Y6197574D01*
X-778177Y6223815D01*
X-797344Y6219267D01*
X-816640Y6216059D01*
X-831980Y6235538D01*
X-888377Y6283441D01*
X-1001182Y6355148D01*
X-1149362Y6439659D01*
X-1311885Y6525970D01*
X-1467718Y6603081D01*
X-1595828Y6659990D01*
X-1675182Y6685694D01*
X-1689467Y6684067D01*
X-1716938Y6690388D01*
X-1720273Y6714836D01*
X-1736072Y6754066D01*
X-1748862Y6747823D01*
X-1799667Y6751583D01*
X-1840401Y6782185D01*
X-1923894Y6846944D01*
X-1961903Y6866027D01*
X-2001578Y6897970D01*
X-1997364Y6909772D01*
X-1951089Y6937125D01*
X-1835526Y7000055D01*
X-1663456Y7091760D01*
X-1447656Y7205438D01*
X-1200907Y7334286D01*
X-1157224Y7356990D01*
X-830003Y7523593D01*
X-576074Y7645094D01*
X-389598Y7724025D01*
X-264737Y7762919D01*
X-210497Y7767641D01*
X-108263Y7749184D01*
X-57728Y7727580D01*
X3538Y7689831D01*
X121550Y7637726D01*
X269645Y7580809D01*
X421163Y7528622D01*
X549440Y7490710D01*
X627814Y7476614D01*
X637867Y7478609D01*
X677804Y7470232D01*
X681181Y7451530D01*
X714663Y7418326D01*
X750454Y7424264D01*
X809800Y7422907D01*
X819727Y7401173D01*
X853379Y7371531D01*
X889000Y7378082D01*
X948601Y7381738D01*
X958272Y7365603D01*
X1001128Y7327412D01*
X1117137Y7284614D01*
X1287464Y7240898D01*
X1493270Y7199953D01*
X1715720Y7165467D01*
X1935976Y7141130D01*
X2135202Y7130629D01*
X2159000Y7130473D01*
X2354029Y7138865D01*
X2572583Y7161582D01*
X2795824Y7194936D01*
X3004916Y7235238D01*
X3181022Y7278798D01*
X3305305Y7321930D01*
X3358928Y7360943D01*
X3359727Y7365603D01*
X3393805Y7386134D01*
X3429000Y7378082D01*
X3488346Y7379440D01*
X3498272Y7401173D01*
X3531924Y7430815D01*
X3567545Y7424264D01*
X3626788Y7427557D01*
X3636818Y7451530D01*
X3663410Y7484745D01*
X3680132Y7478609D01*
X3737406Y7483287D01*
X3852928Y7514771D01*
X4000037Y7563515D01*
X4152071Y7619977D01*
X4282366Y7674615D01*
X4364262Y7717884D01*
X4375727Y7727580D01*
X4434091Y7751237D01*
X4528496Y7767641D01*
X4613355Y7755501D01*
X4613355Y7755501D01*
G37*
X4613355Y7755501D02*
X4755702Y7705113D01*
X4961379Y7613945D01*
X5236224Y7479463D01*
X5475223Y7356990D01*
X5725926Y7226257D01*
X5947832Y7109548D01*
X6128160Y7013667D01*
X6254132Y6945415D01*
X6312969Y6911596D01*
X6315363Y6909772D01*
X6302724Y6877179D01*
X6279902Y6866027D01*
X6198020Y6816669D01*
X6158400Y6782185D01*
X6094215Y6742780D01*
X6066861Y6747823D01*
X6041312Y6739344D01*
X6038272Y6714836D01*
X6021366Y6676834D01*
X6007466Y6684067D01*
X5957327Y6676244D01*
X5848842Y6632200D01*
X5703042Y6562937D01*
X5540961Y6479457D01*
X5383632Y6392761D01*
X5252087Y6313850D01*
X5167358Y6253728D01*
X5149979Y6235538D01*
X5119309Y6208801D01*
X5115343Y6219160D01*
X5078047Y6219301D01*
X4982001Y6183606D01*
X4875626Y6133459D01*
X4733849Y6066074D01*
X4635432Y6038670D01*
X4543185Y6046032D01*
X4448444Y6073579D01*
X4318162Y6110721D01*
X4220679Y6129307D01*
X4202545Y6129775D01*
X4149015Y6147515D01*
X4144818Y6160502D01*
X4103475Y6187044D01*
X3989555Y6236445D01*
X3818224Y6302711D01*
X3604646Y6379848D01*
X3486727Y6420629D01*
X2828636Y6644988D01*
X1489363Y6644988D01*
X831272Y6420629D01*
X602171Y6339780D01*
X407765Y6265945D01*
X263238Y6205307D01*
X183772Y6164049D01*
X173181Y6152646D01*
X145278Y6128631D01*
X131906Y6134532D01*
X66312Y6134654D01*
X-44434Y6102927D01*
X-74429Y6091075D01*
X-201699Y6043378D01*
X-299684Y6030746D01*
X-402869Y6056574D01*
X-545740Y6124260D01*
X-577273Y6140599D01*
X-698200Y6197574D01*
X-778177Y6223815D01*
X-797344Y6219267D01*
X-816640Y6216059D01*
X-831980Y6235538D01*
X-888377Y6283441D01*
X-1001182Y6355148D01*
X-1149362Y6439659D01*
X-1311885Y6525970D01*
X-1467718Y6603081D01*
X-1595828Y6659990D01*
X-1675182Y6685694D01*
X-1689467Y6684067D01*
X-1716938Y6690388D01*
X-1720273Y6714836D01*
X-1736072Y6754066D01*
X-1748862Y6747823D01*
X-1799667Y6751583D01*
X-1840401Y6782185D01*
X-1923894Y6846944D01*
X-1961903Y6866027D01*
X-2001578Y6897970D01*
X-1997364Y6909772D01*
X-1951089Y6937125D01*
X-1835526Y7000055D01*
X-1663456Y7091760D01*
X-1447656Y7205438D01*
X-1200907Y7334286D01*
X-1157224Y7356990D01*
X-830003Y7523593D01*
X-576074Y7645094D01*
X-389598Y7724025D01*
X-264737Y7762919D01*
X-210497Y7767641D01*
X-108263Y7749184D01*
X-57728Y7727580D01*
X3538Y7689831D01*
X121550Y7637726D01*
X269645Y7580809D01*
X421163Y7528622D01*
X549440Y7490710D01*
X627814Y7476614D01*
X637867Y7478609D01*
X677804Y7470232D01*
X681181Y7451530D01*
X714663Y7418326D01*
X750454Y7424264D01*
X809800Y7422907D01*
X819727Y7401173D01*
X853379Y7371531D01*
X889000Y7378082D01*
X948601Y7381738D01*
X958272Y7365603D01*
X1001128Y7327412D01*
X1117137Y7284614D01*
X1287464Y7240898D01*
X1493270Y7199953D01*
X1715720Y7165467D01*
X1935976Y7141130D01*
X2135202Y7130629D01*
X2159000Y7130473D01*
X2354029Y7138865D01*
X2572583Y7161582D01*
X2795824Y7194936D01*
X3004916Y7235238D01*
X3181022Y7278798D01*
X3305305Y7321930D01*
X3358928Y7360943D01*
X3359727Y7365603D01*
X3393805Y7386134D01*
X3429000Y7378082D01*
X3488346Y7379440D01*
X3498272Y7401173D01*
X3531924Y7430815D01*
X3567545Y7424264D01*
X3626788Y7427557D01*
X3636818Y7451530D01*
X3663410Y7484745D01*
X3680132Y7478609D01*
X3737406Y7483287D01*
X3852928Y7514771D01*
X4000037Y7563515D01*
X4152071Y7619977D01*
X4282366Y7674615D01*
X4364262Y7717884D01*
X4375727Y7727580D01*
X4434091Y7751237D01*
X4528496Y7767641D01*
X4613355Y7755501D01*
G36*
X100198Y10014527D02*
G01*
X281850Y9949895D01*
X431268Y9903743D01*
X527534Y9882173D01*
X550471Y9883133D01*
X585949Y9871593D01*
X588818Y9852985D01*
X622300Y9819781D01*
X658091Y9825719D01*
X717717Y9829881D01*
X727363Y9814296D01*
X768173Y9783038D01*
X873429Y9739521D01*
X1017371Y9691333D01*
X1174241Y9646066D01*
X1318279Y9611308D01*
X1423725Y9594648D01*
X1461227Y9598082D01*
X1511719Y9588761D01*
X1523904Y9566851D01*
X1560246Y9541401D01*
X1656057Y9523891D01*
X1821236Y9513419D01*
X2065682Y9509078D01*
X2159000Y9508836D01*
X2429999Y9511461D01*
X2618667Y9519938D01*
X2734902Y9535172D01*
X2788602Y9558067D01*
X2794096Y9566851D01*
X2836730Y9603933D01*
X2856772Y9598082D01*
X2918658Y9597080D01*
X3037617Y9619622D01*
X3187890Y9658118D01*
X3343719Y9704980D01*
X3479343Y9752617D01*
X3569003Y9793440D01*
X3590636Y9814296D01*
X3624756Y9833916D01*
X3659909Y9825719D01*
X3719152Y9829012D01*
X3729181Y9852985D01*
X3754270Y9887222D01*
X3769773Y9881746D01*
X3828566Y9884599D01*
X3943711Y9914194D01*
X4089406Y9961259D01*
X4239849Y10016524D01*
X4369237Y10070721D01*
X4451768Y10114578D01*
X4468091Y10132632D01*
X4505823Y10156408D01*
X4600480Y10148337D01*
X4724249Y10113330D01*
X4824618Y10069703D01*
X4926253Y10028648D01*
X4989832Y10023892D01*
X4993326Y10026375D01*
X5020673Y10021608D01*
X5022272Y10007602D01*
X5061127Y9970443D01*
X5167929Y9900711D01*
X5328039Y9807188D01*
X5526815Y9698656D01*
X5611091Y9654449D01*
X5826804Y9541967D01*
X6016051Y9442190D01*
X6162218Y9363959D01*
X6248692Y9316114D01*
X6261752Y9308202D01*
X6269880Y9272572D01*
X6209303Y9214732D01*
X6073059Y9128752D01*
X6007752Y9091771D01*
X5856414Y9004009D01*
X5740220Y8929826D01*
X5680048Y8882732D01*
X5676419Y8877389D01*
X5632049Y8858699D01*
X5618692Y8864729D01*
X5579370Y8856201D01*
X5576454Y8839200D01*
X5548322Y8809084D01*
X5530272Y8816109D01*
X5488246Y8808878D01*
X5484091Y8788047D01*
X5466087Y8754543D01*
X5453394Y8762139D01*
X5404279Y8753891D01*
X5297779Y8711074D01*
X5156580Y8645158D01*
X5003369Y8567612D01*
X4860832Y8489907D01*
X4751654Y8423512D01*
X4699088Y8380770D01*
X4647891Y8378992D01*
X4537161Y8408159D01*
X4404867Y8456511D01*
X4261300Y8510063D01*
X4154627Y8541059D01*
X4110733Y8543418D01*
X4064762Y8552649D01*
X4017911Y8590055D01*
X3935003Y8636474D01*
X3884863Y8635487D01*
X3828958Y8633939D01*
X3821545Y8648610D01*
X3781542Y8677015D01*
X3679604Y8720684D01*
X3542834Y8770328D01*
X3398336Y8816657D01*
X3273216Y8850382D01*
X3198091Y8862291D01*
X3130687Y8891308D01*
X3126534Y8896212D01*
X3073026Y8917652D01*
X2948665Y8948678D01*
X2773850Y8984592D01*
X2630080Y9010519D01*
X2408727Y9046385D01*
X2242862Y9064962D01*
X2097241Y9066249D01*
X1936623Y9050246D01*
X1725762Y9016953D01*
X1687919Y9010519D01*
X1489640Y8973986D01*
X1327311Y8939002D01*
X1221330Y8910264D01*
X1191465Y8896212D01*
X1126851Y8862647D01*
X1119909Y8862291D01*
X1030315Y8848681D01*
X906391Y8814853D01*
X778781Y8771309D01*
X678133Y8728554D01*
X635091Y8697089D01*
X635000Y8696102D01*
X600909Y8675856D01*
X565727Y8683954D01*
X506381Y8682596D01*
X496454Y8660863D01*
X463308Y8629951D01*
X433136Y8635487D01*
X352756Y8626148D01*
X300088Y8590055D01*
X235949Y8543245D01*
X208474Y8542210D01*
X157242Y8538768D01*
X46778Y8507475D01*
X-67430Y8466887D01*
X-321450Y8369679D01*
X-712964Y8581367D01*
X-883554Y8669006D01*
X-1023341Y8732224D01*
X-1113258Y8762856D01*
X-1135285Y8762249D01*
X-1163315Y8767405D01*
X-1166091Y8788047D01*
X-1193182Y8822815D01*
X-1212273Y8816109D01*
X-1254760Y8821303D01*
X-1258455Y8839200D01*
X-1285310Y8870671D01*
X-1300692Y8864729D01*
X-1351838Y8866986D01*
X-1358420Y8877389D01*
X-1403622Y8916824D01*
X-1509342Y8986238D01*
X-1654641Y9072073D01*
X-1688195Y9090900D01*
X-1798847Y9150400D01*
X-1880589Y9196910D01*
X-1927004Y9237563D01*
X-1931672Y9279491D01*
X-1888175Y9329826D01*
X-1790095Y9395699D01*
X-1631014Y9484244D01*
X-1404513Y9602592D01*
X-1104173Y9757874D01*
X-1073728Y9773683D01*
X-311728Y10169620D01*
X100198Y10014527D01*
X100198Y10014527D01*
G37*
X100198Y10014527D02*
X281850Y9949895D01*
X431268Y9903743D01*
X527534Y9882173D01*
X550471Y9883133D01*
X585949Y9871593D01*
X588818Y9852985D01*
X622300Y9819781D01*
X658091Y9825719D01*
X717717Y9829881D01*
X727363Y9814296D01*
X768173Y9783038D01*
X873429Y9739521D01*
X1017371Y9691333D01*
X1174241Y9646066D01*
X1318279Y9611308D01*
X1423725Y9594648D01*
X1461227Y9598082D01*
X1511719Y9588761D01*
X1523904Y9566851D01*
X1560246Y9541401D01*
X1656057Y9523891D01*
X1821236Y9513419D01*
X2065682Y9509078D01*
X2159000Y9508836D01*
X2429999Y9511461D01*
X2618667Y9519938D01*
X2734902Y9535172D01*
X2788602Y9558067D01*
X2794096Y9566851D01*
X2836730Y9603933D01*
X2856772Y9598082D01*
X2918658Y9597080D01*
X3037617Y9619622D01*
X3187890Y9658118D01*
X3343719Y9704980D01*
X3479343Y9752617D01*
X3569003Y9793440D01*
X3590636Y9814296D01*
X3624756Y9833916D01*
X3659909Y9825719D01*
X3719152Y9829012D01*
X3729181Y9852985D01*
X3754270Y9887222D01*
X3769773Y9881746D01*
X3828566Y9884599D01*
X3943711Y9914194D01*
X4089406Y9961259D01*
X4239849Y10016524D01*
X4369237Y10070721D01*
X4451768Y10114578D01*
X4468091Y10132632D01*
X4505823Y10156408D01*
X4600480Y10148337D01*
X4724249Y10113330D01*
X4824618Y10069703D01*
X4926253Y10028648D01*
X4989832Y10023892D01*
X4993326Y10026375D01*
X5020673Y10021608D01*
X5022272Y10007602D01*
X5061127Y9970443D01*
X5167929Y9900711D01*
X5328039Y9807188D01*
X5526815Y9698656D01*
X5611091Y9654449D01*
X5826804Y9541967D01*
X6016051Y9442190D01*
X6162218Y9363959D01*
X6248692Y9316114D01*
X6261752Y9308202D01*
X6269880Y9272572D01*
X6209303Y9214732D01*
X6073059Y9128752D01*
X6007752Y9091771D01*
X5856414Y9004009D01*
X5740220Y8929826D01*
X5680048Y8882732D01*
X5676419Y8877389D01*
X5632049Y8858699D01*
X5618692Y8864729D01*
X5579370Y8856201D01*
X5576454Y8839200D01*
X5548322Y8809084D01*
X5530272Y8816109D01*
X5488246Y8808878D01*
X5484091Y8788047D01*
X5466087Y8754543D01*
X5453394Y8762139D01*
X5404279Y8753891D01*
X5297779Y8711074D01*
X5156580Y8645158D01*
X5003369Y8567612D01*
X4860832Y8489907D01*
X4751654Y8423512D01*
X4699088Y8380770D01*
X4647891Y8378992D01*
X4537161Y8408159D01*
X4404867Y8456511D01*
X4261300Y8510063D01*
X4154627Y8541059D01*
X4110733Y8543418D01*
X4064762Y8552649D01*
X4017911Y8590055D01*
X3935003Y8636474D01*
X3884863Y8635487D01*
X3828958Y8633939D01*
X3821545Y8648610D01*
X3781542Y8677015D01*
X3679604Y8720684D01*
X3542834Y8770328D01*
X3398336Y8816657D01*
X3273216Y8850382D01*
X3198091Y8862291D01*
X3130687Y8891308D01*
X3126534Y8896212D01*
X3073026Y8917652D01*
X2948665Y8948678D01*
X2773850Y8984592D01*
X2630080Y9010519D01*
X2408727Y9046385D01*
X2242862Y9064962D01*
X2097241Y9066249D01*
X1936623Y9050246D01*
X1725762Y9016953D01*
X1687919Y9010519D01*
X1489640Y8973986D01*
X1327311Y8939002D01*
X1221330Y8910264D01*
X1191465Y8896212D01*
X1126851Y8862647D01*
X1119909Y8862291D01*
X1030315Y8848681D01*
X906391Y8814853D01*
X778781Y8771309D01*
X678133Y8728554D01*
X635091Y8697089D01*
X635000Y8696102D01*
X600909Y8675856D01*
X565727Y8683954D01*
X506381Y8682596D01*
X496454Y8660863D01*
X463308Y8629951D01*
X433136Y8635487D01*
X352756Y8626148D01*
X300088Y8590055D01*
X235949Y8543245D01*
X208474Y8542210D01*
X157242Y8538768D01*
X46778Y8507475D01*
X-67430Y8466887D01*
X-321450Y8369679D01*
X-712964Y8581367D01*
X-883554Y8669006D01*
X-1023341Y8732224D01*
X-1113258Y8762856D01*
X-1135285Y8762249D01*
X-1163315Y8767405D01*
X-1166091Y8788047D01*
X-1193182Y8822815D01*
X-1212273Y8816109D01*
X-1254760Y8821303D01*
X-1258455Y8839200D01*
X-1285310Y8870671D01*
X-1300692Y8864729D01*
X-1351838Y8866986D01*
X-1358420Y8877389D01*
X-1403622Y8916824D01*
X-1509342Y8986238D01*
X-1654641Y9072073D01*
X-1688195Y9090900D01*
X-1798847Y9150400D01*
X-1880589Y9196910D01*
X-1927004Y9237563D01*
X-1931672Y9279491D01*
X-1888175Y9329826D01*
X-1790095Y9395699D01*
X-1631014Y9484244D01*
X-1404513Y9602592D01*
X-1104173Y9757874D01*
X-1073728Y9773683D01*
X-311728Y10169620D01*
X100198Y10014527D01*
G36*
X5945909Y14241855D02*
G01*
X5944521Y13676858D01*
X5940333Y13202796D01*
X5933309Y12818283D01*
X5923414Y12521930D01*
X5910611Y12312351D01*
X5894864Y12188159D01*
X5892399Y12177414D01*
X5792694Y11953048D01*
X5625901Y11756457D01*
X5417143Y11613928D01*
X5315988Y11574364D01*
X5144808Y11542560D01*
X4919291Y11526418D01*
X4674196Y11525822D01*
X4444283Y11540652D01*
X4264314Y11570793D01*
X4239360Y11578009D01*
X4110810Y11641979D01*
X3968250Y11745634D01*
X3908808Y11799937D01*
X3843679Y11869345D01*
X3789595Y11941504D01*
X3745619Y12025215D01*
X3710810Y12129279D01*
X3684231Y12262496D01*
X3664943Y12433668D01*
X3652006Y12651594D01*
X3644481Y12925076D01*
X3641430Y13262914D01*
X3641914Y13673908D01*
X3644993Y14166861D01*
X3645756Y14265564D01*
X3659909Y16066655D01*
X4306454Y16066655D01*
X4352636Y12263975D01*
X4460924Y12148768D01*
X4627641Y12028079D01*
X4816434Y11997067D01*
X4946474Y12023592D01*
X5013425Y12046540D01*
X5068914Y12072710D01*
X5114132Y12110446D01*
X5150269Y12168091D01*
X5178516Y12253989D01*
X5200063Y12376485D01*
X5216101Y12543921D01*
X5227819Y12764641D01*
X5236410Y13046989D01*
X5243063Y13399309D01*
X5248968Y13829943D01*
X5253181Y14173200D01*
X5276272Y16066655D01*
X5611091Y16080223D01*
X5945909Y16093791D01*
X5945909Y14241855D01*
X5945909Y14241855D01*
G37*
X5945909Y14241855D02*
X5944521Y13676858D01*
X5940333Y13202796D01*
X5933309Y12818283D01*
X5923414Y12521930D01*
X5910611Y12312351D01*
X5894864Y12188159D01*
X5892399Y12177414D01*
X5792694Y11953048D01*
X5625901Y11756457D01*
X5417143Y11613928D01*
X5315988Y11574364D01*
X5144808Y11542560D01*
X4919291Y11526418D01*
X4674196Y11525822D01*
X4444283Y11540652D01*
X4264314Y11570793D01*
X4239360Y11578009D01*
X4110810Y11641979D01*
X3968250Y11745634D01*
X3908808Y11799937D01*
X3843679Y11869345D01*
X3789595Y11941504D01*
X3745619Y12025215D01*
X3710810Y12129279D01*
X3684231Y12262496D01*
X3664943Y12433668D01*
X3652006Y12651594D01*
X3644481Y12925076D01*
X3641430Y13262914D01*
X3641914Y13673908D01*
X3644993Y14166861D01*
X3645756Y14265564D01*
X3659909Y16066655D01*
X4306454Y16066655D01*
X4352636Y12263975D01*
X4460924Y12148768D01*
X4627641Y12028079D01*
X4816434Y11997067D01*
X4946474Y12023592D01*
X5013425Y12046540D01*
X5068914Y12072710D01*
X5114132Y12110446D01*
X5150269Y12168091D01*
X5178516Y12253989D01*
X5200063Y12376485D01*
X5216101Y12543921D01*
X5227819Y12764641D01*
X5236410Y13046989D01*
X5243063Y13399309D01*
X5248968Y13829943D01*
X5253181Y14173200D01*
X5276272Y16066655D01*
X5611091Y16080223D01*
X5945909Y16093791D01*
X5945909Y14241855D01*
G36*
X-865909Y16065847D02*
G01*
X-520960Y16062660D01*
X-253948Y16051799D01*
X-50562Y16030115D01*
X103514Y15994457D01*
X222593Y15941678D01*
X320990Y15868626D01*
X399839Y15787350D01*
X467176Y15705389D01*
X521724Y15621550D01*
X564821Y15525453D01*
X597802Y15406719D01*
X622002Y15254967D01*
X638758Y15059819D01*
X649404Y14810894D01*
X655278Y14497813D01*
X657715Y14110197D01*
X658091Y13780655D01*
X658091Y12325927D01*
X537058Y12067837D01*
X413579Y11858594D01*
X265675Y11717278D01*
X236877Y11698382D01*
X169174Y11659173D01*
X100380Y11630064D01*
X15442Y11609232D01*
X-100694Y11594856D01*
X-263080Y11585115D01*
X-486770Y11578188D01*
X-786817Y11572251D01*
X-808624Y11571869D01*
X-1674974Y11556719D01*
X-1672236Y12071927D01*
X-982475Y12071927D01*
X-678702Y12071927D01*
X-506157Y12079329D01*
X-360210Y12098604D01*
X-281691Y12121826D01*
X-221122Y12161607D01*
X-172451Y12215769D01*
X-134402Y12294024D01*
X-105699Y12406083D01*
X-85066Y12561658D01*
X-71228Y12770459D01*
X-62910Y13042197D01*
X-58835Y13386585D01*
X-57728Y13813333D01*
X-57728Y13826836D01*
X-58457Y14256853D01*
X-61791Y14604036D01*
X-69445Y14877914D01*
X-83139Y15088012D01*
X-104589Y15243857D01*
X-135512Y15354975D01*
X-177626Y15430894D01*
X-232649Y15481140D01*
X-302297Y15515239D01*
X-365876Y15536160D01*
X-529988Y15566617D01*
X-712835Y15575510D01*
X-750455Y15573722D01*
X-958273Y15558655D01*
X-982475Y12071927D01*
X-1672236Y12071927D01*
X-1651000Y16066655D01*
X-865909Y16065847D01*
X-865909Y16065847D01*
G37*
X-865909Y16065847D02*
X-520960Y16062660D01*
X-253948Y16051799D01*
X-50562Y16030115D01*
X103514Y15994457D01*
X222593Y15941678D01*
X320990Y15868626D01*
X399839Y15787350D01*
X467176Y15705389D01*
X521724Y15621550D01*
X564821Y15525453D01*
X597802Y15406719D01*
X622002Y15254967D01*
X638758Y15059819D01*
X649404Y14810894D01*
X655278Y14497813D01*
X657715Y14110197D01*
X658091Y13780655D01*
X658091Y12325927D01*
X537058Y12067837D01*
X413579Y11858594D01*
X265675Y11717278D01*
X236877Y11698382D01*
X169174Y11659173D01*
X100380Y11630064D01*
X15442Y11609232D01*
X-100694Y11594856D01*
X-263080Y11585115D01*
X-486770Y11578188D01*
X-786817Y11572251D01*
X-808624Y11571869D01*
X-1674974Y11556719D01*
X-1672236Y12071927D01*
X-982475Y12071927D01*
X-678702Y12071927D01*
X-506157Y12079329D01*
X-360210Y12098604D01*
X-281691Y12121826D01*
X-221122Y12161607D01*
X-172451Y12215769D01*
X-134402Y12294024D01*
X-105699Y12406083D01*
X-85066Y12561658D01*
X-71228Y12770459D01*
X-62910Y13042197D01*
X-58835Y13386585D01*
X-57728Y13813333D01*
X-57728Y13826836D01*
X-58457Y14256853D01*
X-61791Y14604036D01*
X-69445Y14877914D01*
X-83139Y15088012D01*
X-104589Y15243857D01*
X-135512Y15354975D01*
X-177626Y15430894D01*
X-232649Y15481140D01*
X-302297Y15515239D01*
X-365876Y15536160D01*
X-529988Y15566617D01*
X-712835Y15575510D01*
X-750455Y15573722D01*
X-958273Y15558655D01*
X-982475Y12071927D01*
X-1672236Y12071927D01*
X-1651000Y16066655D01*
X-865909Y16065847D01*
G36*
X2147454Y16079007D02*
G01*
X3290454Y16066655D01*
X3290454Y15558655D01*
X2909454Y15545241D01*
X2528454Y15531828D01*
X2528454Y11563927D01*
X1790537Y11563927D01*
X1778495Y13538200D01*
X1766454Y15512473D01*
X1004454Y15539299D01*
X1004454Y16091358D01*
X2147454Y16079007D01*
X2147454Y16079007D01*
G37*
X2147454Y16079007D02*
X3290454Y16066655D01*
X3290454Y15558655D01*
X2909454Y15545241D01*
X2528454Y15531828D01*
X2528454Y11563927D01*
X1790537Y11563927D01*
X1778495Y13538200D01*
X1766454Y15512473D01*
X1004454Y15539299D01*
X1004454Y16091358D01*
X2147454Y16079007D01*
D11*
X78236400Y35084936D02*
X78236400Y36289064D01*
X80056400Y35084936D02*
X80056400Y36289064D01*
X51566800Y21050720D02*
X51991800Y21050720D01*
X51991800Y21050720D02*
X51991800Y21225720D01*
X38196800Y21050720D02*
X37771800Y21050720D01*
X37771800Y21050720D02*
X37771800Y21225720D01*
X51566800Y41270720D02*
X51991800Y41270720D01*
X51991800Y41270720D02*
X51991800Y41095720D01*
X38196800Y41270720D02*
X37771800Y41270720D01*
X37771800Y41270720D02*
X37771800Y41095720D01*
X51991800Y21225720D02*
X53881800Y21225720D01*
X-592000Y51806400D02*
X-592000Y52306400D01*
X-592000Y52306400D02*
X-92000Y52306400D01*
X-92000Y52306400D02*
X-92000Y52306400D01*
X1108000Y52306400D02*
X1608000Y52306400D01*
X1608000Y52306400D02*
X1608000Y51806400D01*
X1608000Y51806400D02*
X1608000Y51806400D01*
X1608000Y50606400D02*
X1608000Y50106400D01*
X1608000Y50106400D02*
X1108000Y50106400D01*
X1108000Y50106400D02*
X1108000Y50106400D01*
X-592000Y50606400D02*
X-592000Y50106400D01*
X-592000Y50106400D02*
X-592000Y50106400D01*
X48608064Y15854000D02*
X47403936Y15854000D01*
X48608064Y17674000D02*
X47403936Y17674000D01*
X57552000Y39210064D02*
X57552000Y38005936D01*
X55732000Y39210064D02*
X55732000Y38005936D01*
X42512064Y15854000D02*
X41307936Y15854000D01*
X42512064Y17674000D02*
X41307936Y17674000D01*
X32364000Y28099936D02*
X32364000Y29304064D01*
X34184000Y28099936D02*
X34184000Y29304064D01*
X32364000Y39464064D02*
X32364000Y38259936D01*
X34184000Y39464064D02*
X34184000Y38259936D01*
X78149200Y2280600D02*
G75*
G03X78149200Y2280600I-3270000J0D01*
G01*
X78109200Y2280600D02*
X71649200Y2280600D01*
X78109200Y2240600D02*
X71649200Y2240600D01*
X78109200Y2200600D02*
X71649200Y2200600D01*
X78107200Y2160600D02*
X71651200Y2160600D01*
X78106200Y2120600D02*
X71652200Y2120600D01*
X78103200Y2080600D02*
X71655200Y2080600D01*
X78101200Y2040600D02*
X75919200Y2040600D01*
X73839200Y2040600D02*
X71657200Y2040600D01*
X78097200Y2000600D02*
X75919200Y2000600D01*
X73839200Y2000600D02*
X71661200Y2000600D01*
X78094200Y1960600D02*
X75919200Y1960600D01*
X73839200Y1960600D02*
X71664200Y1960600D01*
X78090200Y1920600D02*
X75919200Y1920600D01*
X73839200Y1920600D02*
X71668200Y1920600D01*
X78085200Y1880600D02*
X75919200Y1880600D01*
X73839200Y1880600D02*
X71673200Y1880600D01*
X78080200Y1840600D02*
X75919200Y1840600D01*
X73839200Y1840600D02*
X71678200Y1840600D01*
X78074200Y1800600D02*
X75919200Y1800600D01*
X73839200Y1800600D02*
X71684200Y1800600D01*
X78068200Y1760600D02*
X75919200Y1760600D01*
X73839200Y1760600D02*
X71690200Y1760600D01*
X78061200Y1720600D02*
X75919200Y1720600D01*
X73839200Y1720600D02*
X71697200Y1720600D01*
X78054200Y1680600D02*
X75919200Y1680600D01*
X73839200Y1680600D02*
X71704200Y1680600D01*
X78046200Y1640600D02*
X75919200Y1640600D01*
X73839200Y1640600D02*
X71712200Y1640600D01*
X78038200Y1600600D02*
X75919200Y1600600D01*
X73839200Y1600600D02*
X71720200Y1600600D01*
X78029200Y1559600D02*
X75919200Y1559600D01*
X73839200Y1559600D02*
X71729200Y1559600D01*
X78020200Y1519600D02*
X75919200Y1519600D01*
X73839200Y1519600D02*
X71738200Y1519600D01*
X78010200Y1479600D02*
X75919200Y1479600D01*
X73839200Y1479600D02*
X71748200Y1479600D01*
X78000200Y1439600D02*
X75919200Y1439600D01*
X73839200Y1439600D02*
X71758200Y1439600D01*
X77989200Y1399600D02*
X75919200Y1399600D01*
X73839200Y1399600D02*
X71769200Y1399600D01*
X77977200Y1359600D02*
X75919200Y1359600D01*
X73839200Y1359600D02*
X71781200Y1359600D01*
X77965200Y1319600D02*
X75919200Y1319600D01*
X73839200Y1319600D02*
X71793200Y1319600D01*
X77953200Y1279600D02*
X75919200Y1279600D01*
X73839200Y1279600D02*
X71805200Y1279600D01*
X77940200Y1239600D02*
X75919200Y1239600D01*
X73839200Y1239600D02*
X71818200Y1239600D01*
X77926200Y1199600D02*
X75919200Y1199600D01*
X73839200Y1199600D02*
X71832200Y1199600D01*
X77912200Y1159600D02*
X75919200Y1159600D01*
X73839200Y1159600D02*
X71846200Y1159600D01*
X77897200Y1119600D02*
X75919200Y1119600D01*
X73839200Y1119600D02*
X71861200Y1119600D01*
X77881200Y1079600D02*
X75919200Y1079600D01*
X73839200Y1079600D02*
X71877200Y1079600D01*
X77865200Y1039600D02*
X75919200Y1039600D01*
X73839200Y1039600D02*
X71893200Y1039600D01*
X77849200Y999600D02*
X75919200Y999600D01*
X73839200Y999600D02*
X71909200Y999600D01*
X77831200Y959600D02*
X75919200Y959600D01*
X73839200Y959600D02*
X71927200Y959600D01*
X77813200Y919600D02*
X75919200Y919600D01*
X73839200Y919600D02*
X71945200Y919600D01*
X77795200Y879600D02*
X75919200Y879600D01*
X73839200Y879600D02*
X71963200Y879600D01*
X77775200Y839600D02*
X75919200Y839600D01*
X73839200Y839600D02*
X71983200Y839600D01*
X77755200Y799600D02*
X75919200Y799600D01*
X73839200Y799600D02*
X72003200Y799600D01*
X77735200Y759600D02*
X75919200Y759600D01*
X73839200Y759600D02*
X72023200Y759600D01*
X77713200Y719600D02*
X75919200Y719600D01*
X73839200Y719600D02*
X72045200Y719600D01*
X77691200Y679600D02*
X75919200Y679600D01*
X73839200Y679600D02*
X72067200Y679600D01*
X77669200Y639600D02*
X75919200Y639600D01*
X73839200Y639600D02*
X72089200Y639600D01*
X77645200Y599600D02*
X75919200Y599600D01*
X73839200Y599600D02*
X72113200Y599600D01*
X77621200Y559600D02*
X75919200Y559600D01*
X73839200Y559600D02*
X72137200Y559600D01*
X77595200Y519600D02*
X75919200Y519600D01*
X73839200Y519600D02*
X72163200Y519600D01*
X77569200Y479600D02*
X75919200Y479600D01*
X73839200Y479600D02*
X72189200Y479600D01*
X77543200Y439600D02*
X75919200Y439600D01*
X73839200Y439600D02*
X72215200Y439600D01*
X77515200Y399600D02*
X75919200Y399600D01*
X73839200Y399600D02*
X72243200Y399600D01*
X77486200Y359600D02*
X75919200Y359600D01*
X73839200Y359600D02*
X72272200Y359600D01*
X77457200Y319600D02*
X75919200Y319600D01*
X73839200Y319600D02*
X72301200Y319600D01*
X77427200Y279600D02*
X75919200Y279600D01*
X73839200Y279600D02*
X72331200Y279600D01*
X77395200Y239600D02*
X75919200Y239600D01*
X73839200Y239600D02*
X72363200Y239600D01*
X77363200Y199600D02*
X75919200Y199600D01*
X73839200Y199600D02*
X72395200Y199600D01*
X77329200Y159600D02*
X75919200Y159600D01*
X73839200Y159600D02*
X72429200Y159600D01*
X77295200Y119600D02*
X75919200Y119600D01*
X73839200Y119600D02*
X72463200Y119600D01*
X77259200Y79600D02*
X75919200Y79600D01*
X73839200Y79600D02*
X72499200Y79600D01*
X77222200Y39600D02*
X75919200Y39600D01*
X73839200Y39600D02*
X72536200Y39600D01*
X77184200Y-400D02*
X75919200Y-400D01*
X73839200Y-400D02*
X72574200Y-400D01*
X77144200Y-40400D02*
X72614200Y-40400D01*
X77103200Y-80400D02*
X72655200Y-80400D01*
X77061200Y-120400D02*
X72697200Y-120400D01*
X77016200Y-160400D02*
X72742200Y-160400D01*
X76971200Y-200400D02*
X72787200Y-200400D01*
X76923200Y-240400D02*
X72835200Y-240400D01*
X76874200Y-280400D02*
X72884200Y-280400D01*
X76823200Y-320400D02*
X72935200Y-320400D01*
X76769200Y-360400D02*
X72989200Y-360400D01*
X76713200Y-400400D02*
X73045200Y-400400D01*
X76655200Y-440400D02*
X73103200Y-440400D01*
X76593200Y-480400D02*
X73165200Y-480400D01*
X76529200Y-520400D02*
X73229200Y-520400D01*
X76460200Y-560400D02*
X73298200Y-560400D01*
X76388200Y-600400D02*
X73370200Y-600400D01*
X76311200Y-640400D02*
X73447200Y-640400D01*
X76229200Y-680400D02*
X73529200Y-680400D01*
X76141200Y-720400D02*
X73617200Y-720400D01*
X76044200Y-760400D02*
X73714200Y-760400D01*
X75938200Y-800400D02*
X73820200Y-800400D01*
X75819200Y-840400D02*
X73939200Y-840400D01*
X75681200Y-880400D02*
X74077200Y-880400D01*
X75512200Y-920400D02*
X74246200Y-920400D01*
X75281200Y-960400D02*
X74477200Y-960400D01*
X76718200Y5780841D02*
X76718200Y5150841D01*
X77033200Y5465841D02*
X76403200Y5465841D01*
X84383200Y51325864D02*
X84383200Y50121736D01*
X86203200Y51325864D02*
X86203200Y50121736D01*
X57552000Y27845936D02*
X57552000Y29050064D01*
X55732000Y27845936D02*
X55732000Y29050064D01*
X55732000Y22765936D02*
X55732000Y23970064D01*
X57552000Y22765936D02*
X57552000Y23970064D01*
X72309400Y51224264D02*
X72309400Y50020136D01*
X70489400Y51224264D02*
X70489400Y50020136D01*
X80198560Y-461680D02*
X81398560Y-461680D01*
X84718560Y-461680D02*
X83518560Y-461680D01*
X84718560Y2993883D02*
X84718560Y-461680D01*
X80198560Y2993883D02*
X80198560Y-461680D01*
X81262997Y4058320D02*
X81398560Y4058320D01*
X83654123Y4058320D02*
X83518560Y4058320D01*
X83654123Y4058320D02*
X84718560Y2993883D01*
X81262997Y4058320D02*
X80198560Y2993883D01*
X84018560Y4798320D02*
X84018560Y4298320D01*
X84268560Y4548320D02*
X83768560Y4548320D01*
X34184000Y33179936D02*
X34184000Y34384064D01*
X32364000Y33179936D02*
X32364000Y34384064D01*
X41307936Y46376000D02*
X42512064Y46376000D01*
X41307936Y44556000D02*
X42512064Y44556000D01*
X47149936Y46376000D02*
X48354064Y46376000D01*
X47149936Y44556000D02*
X48354064Y44556000D01*
X83378720Y7617376D02*
X83378720Y8821504D01*
X81558720Y7617376D02*
X81558720Y8821504D01*
X34184000Y23019936D02*
X34184000Y24224064D01*
X32364000Y23019936D02*
X32364000Y24224064D01*
X207600Y54871536D02*
X207600Y56075664D01*
X2027600Y54871536D02*
X2027600Y56075664D01*
X57552000Y32925936D02*
X57552000Y34130064D01*
X55732000Y32925936D02*
X55732000Y34130064D01*
X-2078400Y54871536D02*
X-2078400Y56075664D01*
X-258400Y54871536D02*
X-258400Y56075664D01*
X424264Y49093800D02*
X-779864Y49093800D01*
X424264Y47273800D02*
X-779864Y47273800D01*
X93552600Y45852164D02*
X93552600Y44648036D01*
X95372600Y45852164D02*
X95372600Y44648036D01*
X89514000Y5682064D02*
X89514000Y4477936D01*
X91334000Y5682064D02*
X91334000Y4477936D01*
X4491400Y51747336D02*
X4491400Y52951464D01*
X2671400Y51747336D02*
X2671400Y52951464D01*
X83951841Y13863240D02*
X83951841Y14493240D01*
X84266841Y14178240D02*
X83636841Y14178240D01*
X77525600Y15615240D02*
X77525600Y16419240D01*
X77565600Y15384240D02*
X77565600Y16650240D01*
X77605600Y15215240D02*
X77605600Y16819240D01*
X77645600Y15077240D02*
X77645600Y16957240D01*
X77685600Y14958240D02*
X77685600Y17076240D01*
X77725600Y14852240D02*
X77725600Y17182240D01*
X77765600Y14755240D02*
X77765600Y17279240D01*
X77805600Y14667240D02*
X77805600Y17367240D01*
X77845600Y14585240D02*
X77845600Y17449240D01*
X77885600Y14508240D02*
X77885600Y17526240D01*
X77925600Y14436240D02*
X77925600Y17598240D01*
X77965600Y14367240D02*
X77965600Y17667240D01*
X78005600Y14303240D02*
X78005600Y17731240D01*
X78045600Y14241240D02*
X78045600Y17793240D01*
X78085600Y14183240D02*
X78085600Y17851240D01*
X78125600Y14127240D02*
X78125600Y17907240D01*
X78165600Y14073240D02*
X78165600Y17961240D01*
X78205600Y14022240D02*
X78205600Y18012240D01*
X78245600Y13973240D02*
X78245600Y18061240D01*
X78285600Y13925240D02*
X78285600Y18109240D01*
X78325600Y13880240D02*
X78325600Y18154240D01*
X78365600Y13835240D02*
X78365600Y18199240D01*
X78405600Y13793240D02*
X78405600Y18241240D01*
X78445600Y13752240D02*
X78445600Y18282240D01*
X78485600Y17057240D02*
X78485600Y18322240D01*
X78485600Y13712240D02*
X78485600Y14977240D01*
X78525600Y17057240D02*
X78525600Y18360240D01*
X78525600Y13674240D02*
X78525600Y14977240D01*
X78565600Y17057240D02*
X78565600Y18397240D01*
X78565600Y13637240D02*
X78565600Y14977240D01*
X78605600Y17057240D02*
X78605600Y18433240D01*
X78605600Y13601240D02*
X78605600Y14977240D01*
X78645600Y17057240D02*
X78645600Y18467240D01*
X78645600Y13567240D02*
X78645600Y14977240D01*
X78685600Y17057240D02*
X78685600Y18501240D01*
X78685600Y13533240D02*
X78685600Y14977240D01*
X78725600Y17057240D02*
X78725600Y18533240D01*
X78725600Y13501240D02*
X78725600Y14977240D01*
X78765600Y17057240D02*
X78765600Y18565240D01*
X78765600Y13469240D02*
X78765600Y14977240D01*
X78805600Y17057240D02*
X78805600Y18595240D01*
X78805600Y13439240D02*
X78805600Y14977240D01*
X78845600Y17057240D02*
X78845600Y18624240D01*
X78845600Y13410240D02*
X78845600Y14977240D01*
X78885600Y17057240D02*
X78885600Y18653240D01*
X78885600Y13381240D02*
X78885600Y14977240D01*
X78925600Y17057240D02*
X78925600Y18681240D01*
X78925600Y13353240D02*
X78925600Y14977240D01*
X78965600Y17057240D02*
X78965600Y18707240D01*
X78965600Y13327240D02*
X78965600Y14977240D01*
X79005600Y17057240D02*
X79005600Y18733240D01*
X79005600Y13301240D02*
X79005600Y14977240D01*
X79045600Y17057240D02*
X79045600Y18759240D01*
X79045600Y13275240D02*
X79045600Y14977240D01*
X79085600Y17057240D02*
X79085600Y18783240D01*
X79085600Y13251240D02*
X79085600Y14977240D01*
X79125600Y17057240D02*
X79125600Y18807240D01*
X79125600Y13227240D02*
X79125600Y14977240D01*
X79165600Y17057240D02*
X79165600Y18829240D01*
X79165600Y13205240D02*
X79165600Y14977240D01*
X79205600Y17057240D02*
X79205600Y18851240D01*
X79205600Y13183240D02*
X79205600Y14977240D01*
X79245600Y17057240D02*
X79245600Y18873240D01*
X79245600Y13161240D02*
X79245600Y14977240D01*
X79285600Y17057240D02*
X79285600Y18893240D01*
X79285600Y13141240D02*
X79285600Y14977240D01*
X79325600Y17057240D02*
X79325600Y18913240D01*
X79325600Y13121240D02*
X79325600Y14977240D01*
X79365600Y17057240D02*
X79365600Y18933240D01*
X79365600Y13101240D02*
X79365600Y14977240D01*
X79405600Y17057240D02*
X79405600Y18951240D01*
X79405600Y13083240D02*
X79405600Y14977240D01*
X79445600Y17057240D02*
X79445600Y18969240D01*
X79445600Y13065240D02*
X79445600Y14977240D01*
X79485600Y17057240D02*
X79485600Y18987240D01*
X79485600Y13047240D02*
X79485600Y14977240D01*
X79525600Y17057240D02*
X79525600Y19003240D01*
X79525600Y13031240D02*
X79525600Y14977240D01*
X79565600Y17057240D02*
X79565600Y19019240D01*
X79565600Y13015240D02*
X79565600Y14977240D01*
X79605600Y17057240D02*
X79605600Y19035240D01*
X79605600Y12999240D02*
X79605600Y14977240D01*
X79645600Y17057240D02*
X79645600Y19050240D01*
X79645600Y12984240D02*
X79645600Y14977240D01*
X79685600Y17057240D02*
X79685600Y19064240D01*
X79685600Y12970240D02*
X79685600Y14977240D01*
X79725600Y17057240D02*
X79725600Y19078240D01*
X79725600Y12956240D02*
X79725600Y14977240D01*
X79765600Y17057240D02*
X79765600Y19091240D01*
X79765600Y12943240D02*
X79765600Y14977240D01*
X79805600Y17057240D02*
X79805600Y19103240D01*
X79805600Y12931240D02*
X79805600Y14977240D01*
X79845600Y17057240D02*
X79845600Y19115240D01*
X79845600Y12919240D02*
X79845600Y14977240D01*
X79885600Y17057240D02*
X79885600Y19127240D01*
X79885600Y12907240D02*
X79885600Y14977240D01*
X79925600Y17057240D02*
X79925600Y19138240D01*
X79925600Y12896240D02*
X79925600Y14977240D01*
X79965600Y17057240D02*
X79965600Y19148240D01*
X79965600Y12886240D02*
X79965600Y14977240D01*
X80005600Y17057240D02*
X80005600Y19158240D01*
X80005600Y12876240D02*
X80005600Y14977240D01*
X80045600Y17057240D02*
X80045600Y19167240D01*
X80045600Y12867240D02*
X80045600Y14977240D01*
X80086600Y17057240D02*
X80086600Y19176240D01*
X80086600Y12858240D02*
X80086600Y14977240D01*
X80126600Y17057240D02*
X80126600Y19184240D01*
X80126600Y12850240D02*
X80126600Y14977240D01*
X80166600Y17057240D02*
X80166600Y19192240D01*
X80166600Y12842240D02*
X80166600Y14977240D01*
X80206600Y17057240D02*
X80206600Y19199240D01*
X80206600Y12835240D02*
X80206600Y14977240D01*
X80246600Y17057240D02*
X80246600Y19206240D01*
X80246600Y12828240D02*
X80246600Y14977240D01*
X80286600Y17057240D02*
X80286600Y19212240D01*
X80286600Y12822240D02*
X80286600Y14977240D01*
X80326600Y17057240D02*
X80326600Y19218240D01*
X80326600Y12816240D02*
X80326600Y14977240D01*
X80366600Y17057240D02*
X80366600Y19223240D01*
X80366600Y12811240D02*
X80366600Y14977240D01*
X80406600Y17057240D02*
X80406600Y19228240D01*
X80406600Y12806240D02*
X80406600Y14977240D01*
X80446600Y17057240D02*
X80446600Y19232240D01*
X80446600Y12802240D02*
X80446600Y14977240D01*
X80486600Y17057240D02*
X80486600Y19235240D01*
X80486600Y12799240D02*
X80486600Y14977240D01*
X80526600Y17057240D02*
X80526600Y19239240D01*
X80526600Y12795240D02*
X80526600Y14977240D01*
X80566600Y12793240D02*
X80566600Y19241240D01*
X80606600Y12790240D02*
X80606600Y19244240D01*
X80646600Y12789240D02*
X80646600Y19245240D01*
X80686600Y12787240D02*
X80686600Y19247240D01*
X80726600Y12787240D02*
X80726600Y19247240D01*
X80766600Y12787240D02*
X80766600Y19247240D01*
X84036600Y16017240D02*
G75*
G03X84036600Y16017240I-3270000J0D01*
G01*
X76675680Y15930880D02*
G75*
G03X76675680Y15930880I-3270000J0D01*
G01*
X73405680Y12700880D02*
X73405680Y19160880D01*
X73365680Y12700880D02*
X73365680Y19160880D01*
X73325680Y12700880D02*
X73325680Y19160880D01*
X73285680Y12702880D02*
X73285680Y19158880D01*
X73245680Y12703880D02*
X73245680Y19157880D01*
X73205680Y12706880D02*
X73205680Y19154880D01*
X73165680Y12708880D02*
X73165680Y14890880D01*
X73165680Y16970880D02*
X73165680Y19152880D01*
X73125680Y12712880D02*
X73125680Y14890880D01*
X73125680Y16970880D02*
X73125680Y19148880D01*
X73085680Y12715880D02*
X73085680Y14890880D01*
X73085680Y16970880D02*
X73085680Y19145880D01*
X73045680Y12719880D02*
X73045680Y14890880D01*
X73045680Y16970880D02*
X73045680Y19141880D01*
X73005680Y12724880D02*
X73005680Y14890880D01*
X73005680Y16970880D02*
X73005680Y19136880D01*
X72965680Y12729880D02*
X72965680Y14890880D01*
X72965680Y16970880D02*
X72965680Y19131880D01*
X72925680Y12735880D02*
X72925680Y14890880D01*
X72925680Y16970880D02*
X72925680Y19125880D01*
X72885680Y12741880D02*
X72885680Y14890880D01*
X72885680Y16970880D02*
X72885680Y19119880D01*
X72845680Y12748880D02*
X72845680Y14890880D01*
X72845680Y16970880D02*
X72845680Y19112880D01*
X72805680Y12755880D02*
X72805680Y14890880D01*
X72805680Y16970880D02*
X72805680Y19105880D01*
X72765680Y12763880D02*
X72765680Y14890880D01*
X72765680Y16970880D02*
X72765680Y19097880D01*
X72725680Y12771880D02*
X72725680Y14890880D01*
X72725680Y16970880D02*
X72725680Y19089880D01*
X72684680Y12780880D02*
X72684680Y14890880D01*
X72684680Y16970880D02*
X72684680Y19080880D01*
X72644680Y12789880D02*
X72644680Y14890880D01*
X72644680Y16970880D02*
X72644680Y19071880D01*
X72604680Y12799880D02*
X72604680Y14890880D01*
X72604680Y16970880D02*
X72604680Y19061880D01*
X72564680Y12809880D02*
X72564680Y14890880D01*
X72564680Y16970880D02*
X72564680Y19051880D01*
X72524680Y12820880D02*
X72524680Y14890880D01*
X72524680Y16970880D02*
X72524680Y19040880D01*
X72484680Y12832880D02*
X72484680Y14890880D01*
X72484680Y16970880D02*
X72484680Y19028880D01*
X72444680Y12844880D02*
X72444680Y14890880D01*
X72444680Y16970880D02*
X72444680Y19016880D01*
X72404680Y12856880D02*
X72404680Y14890880D01*
X72404680Y16970880D02*
X72404680Y19004880D01*
X72364680Y12869880D02*
X72364680Y14890880D01*
X72364680Y16970880D02*
X72364680Y18991880D01*
X72324680Y12883880D02*
X72324680Y14890880D01*
X72324680Y16970880D02*
X72324680Y18977880D01*
X72284680Y12897880D02*
X72284680Y14890880D01*
X72284680Y16970880D02*
X72284680Y18963880D01*
X72244680Y12912880D02*
X72244680Y14890880D01*
X72244680Y16970880D02*
X72244680Y18948880D01*
X72204680Y12928880D02*
X72204680Y14890880D01*
X72204680Y16970880D02*
X72204680Y18932880D01*
X72164680Y12944880D02*
X72164680Y14890880D01*
X72164680Y16970880D02*
X72164680Y18916880D01*
X72124680Y12960880D02*
X72124680Y14890880D01*
X72124680Y16970880D02*
X72124680Y18900880D01*
X72084680Y12978880D02*
X72084680Y14890880D01*
X72084680Y16970880D02*
X72084680Y18882880D01*
X72044680Y12996880D02*
X72044680Y14890880D01*
X72044680Y16970880D02*
X72044680Y18864880D01*
X72004680Y13014880D02*
X72004680Y14890880D01*
X72004680Y16970880D02*
X72004680Y18846880D01*
X71964680Y13034880D02*
X71964680Y14890880D01*
X71964680Y16970880D02*
X71964680Y18826880D01*
X71924680Y13054880D02*
X71924680Y14890880D01*
X71924680Y16970880D02*
X71924680Y18806880D01*
X71884680Y13074880D02*
X71884680Y14890880D01*
X71884680Y16970880D02*
X71884680Y18786880D01*
X71844680Y13096880D02*
X71844680Y14890880D01*
X71844680Y16970880D02*
X71844680Y18764880D01*
X71804680Y13118880D02*
X71804680Y14890880D01*
X71804680Y16970880D02*
X71804680Y18742880D01*
X71764680Y13140880D02*
X71764680Y14890880D01*
X71764680Y16970880D02*
X71764680Y18720880D01*
X71724680Y13164880D02*
X71724680Y14890880D01*
X71724680Y16970880D02*
X71724680Y18696880D01*
X71684680Y13188880D02*
X71684680Y14890880D01*
X71684680Y16970880D02*
X71684680Y18672880D01*
X71644680Y13214880D02*
X71644680Y14890880D01*
X71644680Y16970880D02*
X71644680Y18646880D01*
X71604680Y13240880D02*
X71604680Y14890880D01*
X71604680Y16970880D02*
X71604680Y18620880D01*
X71564680Y13266880D02*
X71564680Y14890880D01*
X71564680Y16970880D02*
X71564680Y18594880D01*
X71524680Y13294880D02*
X71524680Y14890880D01*
X71524680Y16970880D02*
X71524680Y18566880D01*
X71484680Y13323880D02*
X71484680Y14890880D01*
X71484680Y16970880D02*
X71484680Y18537880D01*
X71444680Y13352880D02*
X71444680Y14890880D01*
X71444680Y16970880D02*
X71444680Y18508880D01*
X71404680Y13382880D02*
X71404680Y14890880D01*
X71404680Y16970880D02*
X71404680Y18478880D01*
X71364680Y13414880D02*
X71364680Y14890880D01*
X71364680Y16970880D02*
X71364680Y18446880D01*
X71324680Y13446880D02*
X71324680Y14890880D01*
X71324680Y16970880D02*
X71324680Y18414880D01*
X71284680Y13480880D02*
X71284680Y14890880D01*
X71284680Y16970880D02*
X71284680Y18380880D01*
X71244680Y13514880D02*
X71244680Y14890880D01*
X71244680Y16970880D02*
X71244680Y18346880D01*
X71204680Y13550880D02*
X71204680Y14890880D01*
X71204680Y16970880D02*
X71204680Y18310880D01*
X71164680Y13587880D02*
X71164680Y14890880D01*
X71164680Y16970880D02*
X71164680Y18273880D01*
X71124680Y13625880D02*
X71124680Y14890880D01*
X71124680Y16970880D02*
X71124680Y18235880D01*
X71084680Y13665880D02*
X71084680Y18195880D01*
X71044680Y13706880D02*
X71044680Y18154880D01*
X71004680Y13748880D02*
X71004680Y18112880D01*
X70964680Y13793880D02*
X70964680Y18067880D01*
X70924680Y13838880D02*
X70924680Y18022880D01*
X70884680Y13886880D02*
X70884680Y17974880D01*
X70844680Y13935880D02*
X70844680Y17925880D01*
X70804680Y13986880D02*
X70804680Y17874880D01*
X70764680Y14040880D02*
X70764680Y17820880D01*
X70724680Y14096880D02*
X70724680Y17764880D01*
X70684680Y14154880D02*
X70684680Y17706880D01*
X70644680Y14216880D02*
X70644680Y17644880D01*
X70604680Y14280880D02*
X70604680Y17580880D01*
X70564680Y14349880D02*
X70564680Y17511880D01*
X70524680Y14421880D02*
X70524680Y17439880D01*
X70484680Y14498880D02*
X70484680Y17362880D01*
X70444680Y14580880D02*
X70444680Y17280880D01*
X70404680Y14668880D02*
X70404680Y17192880D01*
X70364680Y14765880D02*
X70364680Y17095880D01*
X70324680Y14871880D02*
X70324680Y16989880D01*
X70284680Y14990880D02*
X70284680Y16870880D01*
X70244680Y15128880D02*
X70244680Y16732880D01*
X70204680Y15297880D02*
X70204680Y16563880D01*
X70164680Y15528880D02*
X70164680Y16332880D01*
X76905921Y14091880D02*
X76275921Y14091880D01*
X76590921Y13776880D02*
X76590921Y14406880D01*
X74008064Y20934000D02*
X72803936Y20934000D01*
X74008064Y22754000D02*
X72803936Y22754000D01*
X81374064Y22754000D02*
X80169936Y22754000D01*
X81374064Y20934000D02*
X80169936Y20934000D01*
X75696400Y39606136D02*
X75696400Y40810264D01*
X77516400Y39606136D02*
X77516400Y40810264D01*
X67886664Y37863100D02*
X66682536Y37863100D01*
X67886664Y39683100D02*
X66682536Y39683100D01*
X75103400Y39606136D02*
X75103400Y40810264D01*
X73283400Y39606136D02*
X73283400Y40810264D01*
X67378664Y30433600D02*
X66174536Y30433600D01*
X67378664Y32253600D02*
X66174536Y32253600D01*
X80954200Y34536464D02*
X80954200Y33332336D01*
X82774200Y34536464D02*
X82774200Y33332336D01*
X12082864Y32338600D02*
X10878736Y32338600D01*
X12082864Y34158600D02*
X10878736Y34158600D01*
X12082864Y31618600D02*
X10878736Y31618600D01*
X12082864Y29798600D02*
X10878736Y29798600D01*
X26792600Y29852536D02*
X26792600Y31056664D01*
X24972600Y29852536D02*
X24972600Y31056664D01*
X17848664Y37545600D02*
X16644536Y37545600D01*
X17848664Y39365600D02*
X16644536Y39365600D01*
X93657800Y62150000D02*
X93657800Y58090000D01*
X95927800Y62150000D02*
X93657800Y62150000D01*
X95927800Y58090000D02*
X95927800Y62150000D01*
X91508200Y58090000D02*
X91508200Y62150000D01*
X91508200Y62150000D02*
X89238200Y62150000D01*
X89238200Y62150000D02*
X89238200Y58090000D01*
X19456200Y18597500D02*
X15396200Y18597500D01*
X15396200Y18597500D02*
X15396200Y16327500D01*
X15396200Y16327500D02*
X19456200Y16327500D01*
X15396200Y20645500D02*
X19456200Y20645500D01*
X15396200Y22915500D02*
X15396200Y20645500D01*
X19456200Y22915500D02*
X15396200Y22915500D01*
X10878736Y26614800D02*
X12082864Y26614800D01*
X10878736Y24794800D02*
X12082864Y24794800D01*
X67480000Y53920000D02*
X67480000Y56580000D01*
X49640000Y53920000D02*
X67480000Y53920000D01*
X49640000Y56580000D02*
X67480000Y56580000D01*
X49640000Y53920000D02*
X49640000Y56580000D01*
X48370000Y53920000D02*
X47040000Y53920000D01*
X47040000Y53920000D02*
X47040000Y55250000D01*
X67480000Y5660000D02*
X67480000Y8320000D01*
X54720000Y5660000D02*
X67480000Y5660000D01*
X54720000Y8320000D02*
X67480000Y8320000D01*
X54720000Y5660000D02*
X54720000Y8320000D01*
X53450000Y5660000D02*
X52120000Y5660000D01*
X52120000Y5660000D02*
X52120000Y6990000D01*
X45640000Y53920000D02*
X45640000Y56580000D01*
X22720000Y53920000D02*
X45640000Y53920000D01*
X22720000Y56580000D02*
X45640000Y56580000D01*
X22720000Y53920000D02*
X22720000Y56580000D01*
X21450000Y53920000D02*
X20120000Y53920000D01*
X20120000Y53920000D02*
X20120000Y55250000D01*
X29260000Y5660000D02*
X29260000Y6990000D01*
X30590000Y5660000D02*
X29260000Y5660000D01*
X31860000Y5660000D02*
X31860000Y8320000D01*
X31860000Y8320000D02*
X49700000Y8320000D01*
X31860000Y5660000D02*
X49700000Y5660000D01*
X49700000Y5660000D02*
X49700000Y8320000D01*
X9376100Y53311100D02*
X10706100Y53311100D01*
X9376100Y51981100D02*
X9376100Y53311100D01*
X9376100Y50711100D02*
X12036100Y50711100D01*
X12036100Y50711100D02*
X12036100Y50651100D01*
X9376100Y50711100D02*
X9376100Y50651100D01*
X9376100Y50651100D02*
X12036100Y50651100D01*
X73516800Y24679600D02*
X73516800Y27339600D01*
X65836800Y24679600D02*
X73516800Y24679600D01*
X65836800Y27339600D02*
X73516800Y27339600D01*
X65836800Y24679600D02*
X65836800Y27339600D01*
X64566800Y24679600D02*
X63236800Y24679600D01*
X63236800Y24679600D02*
X63236800Y26009600D01*
X74514400Y24679600D02*
X77174400Y24679600D01*
X74514400Y24739600D02*
X74514400Y24679600D01*
X77174400Y24739600D02*
X77174400Y24679600D01*
X74514400Y24739600D02*
X77174400Y24739600D01*
X74514400Y26009600D02*
X74514400Y27339600D01*
X74514400Y27339600D02*
X75844400Y27339600D01*
X19170000Y60010000D02*
X19170000Y61340000D01*
X20500000Y60010000D02*
X19170000Y60010000D01*
X19170000Y62610000D02*
X19170000Y65210000D01*
X21770000Y62610000D02*
X19170000Y62610000D01*
X21770000Y60010000D02*
X21770000Y62610000D01*
X19170000Y65210000D02*
X70090000Y65210000D01*
X21770000Y60010000D02*
X70090000Y60010000D01*
X70090000Y60010000D02*
X70090000Y65210000D01*
X19170000Y1330000D02*
X19170000Y-3870000D01*
X67490000Y1330000D02*
X19170000Y1330000D01*
X70090000Y-3870000D02*
X19170000Y-3870000D01*
X67490000Y1330000D02*
X67490000Y-1270000D01*
X67490000Y-1270000D02*
X70090000Y-1270000D01*
X70090000Y-1270000D02*
X70090000Y-3870000D01*
X68760000Y1330000D02*
X70090000Y1330000D01*
X70090000Y1330000D02*
X70090000Y0D01*
D12*
X3214000Y33933520D02*
X-3736000Y33933520D01*
X3214000Y24933520D02*
X3214000Y33933520D01*
X-3736000Y24933520D02*
X3214000Y24933520D01*
X-3736000Y33933520D02*
X-3736000Y24933520D01*
D11*
X10878736Y29154800D02*
X12082864Y29154800D01*
X10878736Y27334800D02*
X12082864Y27334800D01*
X20426000Y49943936D02*
X20426000Y51148064D01*
X22246000Y49943936D02*
X22246000Y51148064D01*
X24786000Y49943936D02*
X24786000Y51148064D01*
X22966000Y49943936D02*
X22966000Y51148064D01*
X95702800Y55186664D02*
X95702800Y53982536D01*
X93882800Y55186664D02*
X93882800Y53982536D01*
X89463200Y55186664D02*
X89463200Y53982536D01*
X91283200Y55186664D02*
X91283200Y53982536D01*
X74824000Y51224264D02*
X74824000Y50020136D01*
X73004000Y51224264D02*
X73004000Y50020136D01*
X81868600Y51325864D02*
X81868600Y50121736D01*
X83688600Y51325864D02*
X83688600Y50121736D01*
X76167064Y31745600D02*
X74962936Y31745600D01*
X76167064Y29925600D02*
X74962936Y29925600D01*
X22588136Y18372500D02*
X23792264Y18372500D01*
X22588136Y16552500D02*
X23792264Y16552500D01*
X22588136Y20870500D02*
X23792264Y20870500D01*
X22588136Y22690500D02*
X23792264Y22690500D01*
X23817664Y39895100D02*
X22613536Y39895100D01*
X23817664Y41715100D02*
X22613536Y41715100D01*
X23817664Y37545600D02*
X22613536Y37545600D01*
X23817664Y39365600D02*
X22613536Y39365600D01*
X7830736Y39594200D02*
X9034864Y39594200D01*
X7830736Y37774200D02*
X9034864Y37774200D01*
X7830736Y35259600D02*
X9034864Y35259600D01*
X7830736Y37079600D02*
X9034864Y37079600D01*
X77923800Y59156600D02*
G75*
G03X77923800Y59156600I-1800000J0D01*
G01*
X73123800Y62159400D02*
X73123800Y56159400D01*
X79123800Y62159400D02*
X73123800Y62159400D01*
X79123800Y56159400D02*
X73123800Y56159400D01*
X79123800Y62159400D02*
X79123800Y56159400D01*
X88013800Y62159400D02*
X88013800Y56159400D01*
X88013800Y56159400D02*
X82013800Y56159400D01*
X88013800Y62159400D02*
X82013800Y62159400D01*
X82013800Y62159400D02*
X82013800Y56159400D01*
X86813800Y59156600D02*
G75*
G03X86813800Y59156600I-1800000J0D01*
G01*
X84475320Y20858480D02*
X84475320Y4170680D01*
X85237320Y20858480D02*
X85237320Y19458480D01*
X85237320Y19458480D02*
X85237320Y19436080D01*
X85237320Y19436080D02*
X84957920Y19436080D01*
X84957920Y19436080D02*
X84957920Y10086080D01*
X84957920Y10086080D02*
X89047320Y10086080D01*
X91587320Y10086080D02*
X95651320Y10086080D01*
X95397320Y20934680D02*
X95397320Y19410680D01*
X95397320Y19410680D02*
X95651320Y19410680D01*
X95651320Y19410680D02*
X95651320Y10086080D01*
X85237320Y20858480D02*
X85237320Y20934680D01*
X84475320Y20858480D02*
X84475320Y20934680D01*
X84475320Y20934680D02*
X84475320Y22712680D01*
X84475320Y22712680D02*
X96159320Y22712680D01*
X96159320Y22712680D02*
X96159320Y3916680D01*
X96159320Y3916680D02*
X84475320Y3916680D01*
X84475320Y3916680D02*
X84475320Y4170680D01*
X93000200Y48438700D02*
X93000200Y48938700D01*
X93000200Y48938700D02*
X88000200Y48938700D01*
X88000200Y48938700D02*
X88000200Y47813700D01*
X93000200Y43143700D02*
X93000200Y42018700D01*
X93000200Y42018700D02*
X88000200Y42018700D01*
X88000200Y42018700D02*
X88000200Y42518700D01*
D17*
X94487521Y48993581D02*
G75*
G03X94487521Y48993581I-969801J0D01*
G01*
D11*
X64820800Y32969200D02*
X69900800Y32969200D01*
X69900800Y32969200D02*
X69900800Y37033200D01*
X69900800Y37033200D02*
X64312800Y37033200D01*
X64312800Y37033200D02*
X64312800Y32969200D01*
X64312800Y32969200D02*
X64820800Y32969200D01*
D18*
X64118761Y37855161D02*
G75*
G03X64118761Y37855161I-567961J0D01*
G01*
D11*
X72882401Y36751200D02*
X72882401Y37201199D01*
X72882401Y37201199D02*
X73332400Y37201199D01*
X77282399Y36751200D02*
X77282399Y37201199D01*
X77282399Y37201199D02*
X76832400Y37201199D01*
X77282399Y33251200D02*
X77282399Y32801201D01*
X77282399Y32801201D02*
X76832400Y32801201D01*
X72882401Y33251200D02*
X72882401Y32601201D01*
D18*
X72646160Y32080200D02*
G75*
G03X72646160Y32080200I-500000J0D01*
G01*
D12*
X22433000Y25917000D02*
X22433000Y26492000D01*
X16683000Y25917000D02*
X16683000Y26567000D01*
X16683000Y36567000D02*
X16683000Y35917000D01*
X22433000Y36567000D02*
X22433000Y35917000D01*
X22433000Y25917000D02*
X16683000Y25917000D01*
X22433000Y36567000D02*
X16683000Y36567000D01*
X22433000Y26492000D02*
X24033000Y26492000D01*
D11*
X99439600Y23747600D02*
X103479600Y23747600D01*
X104039600Y23747600D02*
X104039600Y28803600D01*
X97839600Y23747600D02*
X97839600Y28803600D01*
X103479600Y23747600D02*
X104039600Y23747600D01*
X99439600Y23747600D02*
X97839600Y23747600D01*
X97839600Y47067600D02*
X104039600Y47067600D01*
X97839600Y28803600D02*
X97839600Y47067600D01*
X104039600Y28803600D02*
X104039600Y47067600D01*
X102439600Y23509100D02*
X98399600Y23509100D01*
X97839600Y23509100D02*
X97839600Y18453100D01*
X104039600Y23509100D02*
X104039600Y18453100D01*
X98399600Y23509100D02*
X97839600Y23509100D01*
X102439600Y23509100D02*
X104039600Y23509100D01*
X104039600Y7809100D02*
X97839600Y7809100D01*
X104039600Y18453100D02*
X104039600Y7809100D01*
X97839600Y18453100D02*
X97839600Y7809100D01*
X20056800Y42523100D02*
X20056800Y43853100D01*
X21386800Y42523100D02*
X20056800Y42523100D01*
X22656800Y42523100D02*
X22656800Y45183100D01*
X22656800Y45183100D02*
X30336800Y45183100D01*
X22656800Y42523100D02*
X30336800Y42523100D01*
X30336800Y42523100D02*
X30336800Y45183100D01*
D12*
X78605142Y38403257D02*
X78557523Y38355638D01*
X78414666Y38308019D01*
X78319428Y38308019D01*
X78176571Y38355638D01*
X78081333Y38450876D01*
X78033714Y38546114D01*
X77986095Y38736590D01*
X77986095Y38879447D01*
X78033714Y39069923D01*
X78081333Y39165161D01*
X78176571Y39260400D01*
X78319428Y39308019D01*
X78414666Y39308019D01*
X78557523Y39260400D01*
X78605142Y39212780D01*
X78938476Y39308019D02*
X79557523Y39308019D01*
X79224190Y38927066D01*
X79367047Y38927066D01*
X79462285Y38879447D01*
X79509904Y38831828D01*
X79557523Y38736590D01*
X79557523Y38498495D01*
X79509904Y38403257D01*
X79462285Y38355638D01*
X79367047Y38308019D01*
X79081333Y38308019D01*
X78986095Y38355638D01*
X78938476Y38403257D01*
X79938476Y39212780D02*
X79986095Y39260400D01*
X80081333Y39308019D01*
X80319428Y39308019D01*
X80414666Y39260400D01*
X80462285Y39212780D01*
X80509904Y39117542D01*
X80509904Y39022304D01*
X80462285Y38879447D01*
X79890857Y38308019D01*
X80509904Y38308019D01*
X52171695Y20207219D02*
X52171695Y19397695D01*
X52219314Y19302457D01*
X52266933Y19254838D01*
X52362171Y19207219D01*
X52552647Y19207219D01*
X52647885Y19254838D01*
X52695504Y19302457D01*
X52743123Y19397695D01*
X52743123Y20207219D01*
X53647885Y19873885D02*
X53647885Y19207219D01*
X53409790Y20254838D02*
X53171695Y19540552D01*
X53790742Y19540552D01*
X-2844704Y51931819D02*
X-2844704Y51122295D01*
X-2797085Y51027057D01*
X-2749466Y50979438D01*
X-2654228Y50931819D01*
X-2463752Y50931819D01*
X-2368514Y50979438D01*
X-2320895Y51027057D01*
X-2273276Y51122295D01*
X-2273276Y51931819D01*
X-1892323Y51931819D02*
X-1273276Y51931819D01*
X-1606609Y51550866D01*
X-1463752Y51550866D01*
X-1368514Y51503247D01*
X-1320895Y51455628D01*
X-1273276Y51360390D01*
X-1273276Y51122295D01*
X-1320895Y51027057D01*
X-1368514Y50979438D01*
X-1463752Y50931819D01*
X-1749466Y50931819D01*
X-1844704Y50979438D01*
X-1892323Y51027057D01*
X47839333Y14586857D02*
X47791714Y14539238D01*
X47648857Y14491619D01*
X47553619Y14491619D01*
X47410761Y14539238D01*
X47315523Y14634476D01*
X47267904Y14729714D01*
X47220285Y14920190D01*
X47220285Y15063047D01*
X47267904Y15253523D01*
X47315523Y15348761D01*
X47410761Y15444000D01*
X47553619Y15491619D01*
X47648857Y15491619D01*
X47791714Y15444000D01*
X47839333Y15396380D01*
X48791714Y14491619D02*
X48220285Y14491619D01*
X48506000Y14491619D02*
X48506000Y15491619D01*
X48410761Y15348761D01*
X48315523Y15253523D01*
X48220285Y15205904D01*
X58608933Y38250857D02*
X58561314Y38203238D01*
X58418457Y38155619D01*
X58323219Y38155619D01*
X58180361Y38203238D01*
X58085123Y38298476D01*
X58037504Y38393714D01*
X57989885Y38584190D01*
X57989885Y38727047D01*
X58037504Y38917523D01*
X58085123Y39012761D01*
X58180361Y39108000D01*
X58323219Y39155619D01*
X58418457Y39155619D01*
X58561314Y39108000D01*
X58608933Y39060380D01*
X58989885Y39060380D02*
X59037504Y39108000D01*
X59132742Y39155619D01*
X59370838Y39155619D01*
X59466076Y39108000D01*
X59513695Y39060380D01*
X59561314Y38965142D01*
X59561314Y38869904D01*
X59513695Y38727047D01*
X58942266Y38155619D01*
X59561314Y38155619D01*
X41743333Y14586857D02*
X41695714Y14539238D01*
X41552857Y14491619D01*
X41457619Y14491619D01*
X41314761Y14539238D01*
X41219523Y14634476D01*
X41171904Y14729714D01*
X41124285Y14920190D01*
X41124285Y15063047D01*
X41171904Y15253523D01*
X41219523Y15348761D01*
X41314761Y15444000D01*
X41457619Y15491619D01*
X41552857Y15491619D01*
X41695714Y15444000D01*
X41743333Y15396380D01*
X42076666Y15491619D02*
X42695714Y15491619D01*
X42362380Y15110666D01*
X42505238Y15110666D01*
X42600476Y15063047D01*
X42648095Y15015428D01*
X42695714Y14920190D01*
X42695714Y14682095D01*
X42648095Y14586857D01*
X42600476Y14539238D01*
X42505238Y14491619D01*
X42219523Y14491619D01*
X42124285Y14539238D01*
X42076666Y14586857D01*
X30973733Y28319457D02*
X30926114Y28271838D01*
X30783257Y28224219D01*
X30688019Y28224219D01*
X30545161Y28271838D01*
X30449923Y28367076D01*
X30402304Y28462314D01*
X30354685Y28652790D01*
X30354685Y28795647D01*
X30402304Y28986123D01*
X30449923Y29081361D01*
X30545161Y29176600D01*
X30688019Y29224219D01*
X30783257Y29224219D01*
X30926114Y29176600D01*
X30973733Y29128980D01*
X31830876Y28890885D02*
X31830876Y28224219D01*
X31592780Y29271838D02*
X31354685Y28557552D01*
X31973733Y28557552D01*
X33031133Y41552857D02*
X32983514Y41505238D01*
X32840657Y41457619D01*
X32745419Y41457619D01*
X32602561Y41505238D01*
X32507323Y41600476D01*
X32459704Y41695714D01*
X32412085Y41886190D01*
X32412085Y42029047D01*
X32459704Y42219523D01*
X32507323Y42314761D01*
X32602561Y42410000D01*
X32745419Y42457619D01*
X32840657Y42457619D01*
X32983514Y42410000D01*
X33031133Y42362380D01*
X33935895Y42457619D02*
X33459704Y42457619D01*
X33412085Y41981428D01*
X33459704Y42029047D01*
X33554942Y42076666D01*
X33793038Y42076666D01*
X33888276Y42029047D01*
X33935895Y41981428D01*
X33983514Y41886190D01*
X33983514Y41648095D01*
X33935895Y41552857D01*
X33888276Y41505238D01*
X33793038Y41457619D01*
X33554942Y41457619D01*
X33459704Y41505238D01*
X33412085Y41552857D01*
X74687133Y6119857D02*
X74639514Y6072238D01*
X74496657Y6024619D01*
X74401419Y6024619D01*
X74258561Y6072238D01*
X74163323Y6167476D01*
X74115704Y6262714D01*
X74068085Y6453190D01*
X74068085Y6596047D01*
X74115704Y6786523D01*
X74163323Y6881761D01*
X74258561Y6977000D01*
X74401419Y7024619D01*
X74496657Y7024619D01*
X74639514Y6977000D01*
X74687133Y6929380D01*
X75544276Y7024619D02*
X75353800Y7024619D01*
X75258561Y6977000D01*
X75210942Y6929380D01*
X75115704Y6786523D01*
X75068085Y6596047D01*
X75068085Y6215095D01*
X75115704Y6119857D01*
X75163323Y6072238D01*
X75258561Y6024619D01*
X75449038Y6024619D01*
X75544276Y6072238D01*
X75591895Y6119857D01*
X75639514Y6215095D01*
X75639514Y6453190D01*
X75591895Y6548428D01*
X75544276Y6596047D01*
X75449038Y6643666D01*
X75258561Y6643666D01*
X75163323Y6596047D01*
X75115704Y6548428D01*
X75068085Y6453190D01*
X85151933Y53567057D02*
X85104314Y53519438D01*
X84961457Y53471819D01*
X84866219Y53471819D01*
X84723361Y53519438D01*
X84628123Y53614676D01*
X84580504Y53709914D01*
X84532885Y53900390D01*
X84532885Y54043247D01*
X84580504Y54233723D01*
X84628123Y54328961D01*
X84723361Y54424200D01*
X84866219Y54471819D01*
X84961457Y54471819D01*
X85104314Y54424200D01*
X85151933Y54376580D01*
X85485266Y54471819D02*
X86151933Y54471819D01*
X85723361Y53471819D01*
X58634333Y27938457D02*
X58586714Y27890838D01*
X58443857Y27843219D01*
X58348619Y27843219D01*
X58205761Y27890838D01*
X58110523Y27986076D01*
X58062904Y28081314D01*
X58015285Y28271790D01*
X58015285Y28414647D01*
X58062904Y28605123D01*
X58110523Y28700361D01*
X58205761Y28795600D01*
X58348619Y28843219D01*
X58443857Y28843219D01*
X58586714Y28795600D01*
X58634333Y28747980D01*
X59205761Y28414647D02*
X59110523Y28462266D01*
X59062904Y28509885D01*
X59015285Y28605123D01*
X59015285Y28652742D01*
X59062904Y28747980D01*
X59110523Y28795600D01*
X59205761Y28843219D01*
X59396238Y28843219D01*
X59491476Y28795600D01*
X59539095Y28747980D01*
X59586714Y28652742D01*
X59586714Y28605123D01*
X59539095Y28509885D01*
X59491476Y28462266D01*
X59396238Y28414647D01*
X59205761Y28414647D01*
X59110523Y28367028D01*
X59062904Y28319409D01*
X59015285Y28224171D01*
X59015285Y28033695D01*
X59062904Y27938457D01*
X59110523Y27890838D01*
X59205761Y27843219D01*
X59396238Y27843219D01*
X59491476Y27890838D01*
X59539095Y27938457D01*
X59586714Y28033695D01*
X59586714Y28224171D01*
X59539095Y28319409D01*
X59491476Y28367028D01*
X59396238Y28414647D01*
X56322933Y19708857D02*
X56275314Y19661238D01*
X56132457Y19613619D01*
X56037219Y19613619D01*
X55894361Y19661238D01*
X55799123Y19756476D01*
X55751504Y19851714D01*
X55703885Y20042190D01*
X55703885Y20185047D01*
X55751504Y20375523D01*
X55799123Y20470761D01*
X55894361Y20566000D01*
X56037219Y20613619D01*
X56132457Y20613619D01*
X56275314Y20566000D01*
X56322933Y20518380D01*
X56799123Y19613619D02*
X56989600Y19613619D01*
X57084838Y19661238D01*
X57132457Y19708857D01*
X57227695Y19851714D01*
X57275314Y20042190D01*
X57275314Y20423142D01*
X57227695Y20518380D01*
X57180076Y20566000D01*
X57084838Y20613619D01*
X56894361Y20613619D01*
X56799123Y20566000D01*
X56751504Y20518380D01*
X56703885Y20423142D01*
X56703885Y20185047D01*
X56751504Y20089809D01*
X56799123Y20042190D01*
X56894361Y19994571D01*
X57084838Y19994571D01*
X57180076Y20042190D01*
X57227695Y20089809D01*
X57275314Y20185047D01*
X70731142Y53490857D02*
X70683523Y53443238D01*
X70540666Y53395619D01*
X70445428Y53395619D01*
X70302571Y53443238D01*
X70207333Y53538476D01*
X70159714Y53633714D01*
X70112095Y53824190D01*
X70112095Y53967047D01*
X70159714Y54157523D01*
X70207333Y54252761D01*
X70302571Y54348000D01*
X70445428Y54395619D01*
X70540666Y54395619D01*
X70683523Y54348000D01*
X70731142Y54300380D01*
X71683523Y53395619D02*
X71112095Y53395619D01*
X71397809Y53395619D02*
X71397809Y54395619D01*
X71302571Y54252761D01*
X71207333Y54157523D01*
X71112095Y54109904D01*
X72302571Y54395619D02*
X72397809Y54395619D01*
X72493047Y54348000D01*
X72540666Y54300380D01*
X72588285Y54205142D01*
X72635904Y54014666D01*
X72635904Y53776571D01*
X72588285Y53586095D01*
X72540666Y53490857D01*
X72493047Y53443238D01*
X72397809Y53395619D01*
X72302571Y53395619D01*
X72207333Y53443238D01*
X72159714Y53490857D01*
X72112095Y53586095D01*
X72064476Y53776571D01*
X72064476Y54014666D01*
X72112095Y54205142D01*
X72159714Y54300380D01*
X72207333Y54348000D01*
X72302571Y54395619D01*
X81830942Y-2668542D02*
X81783323Y-2716161D01*
X81640466Y-2763780D01*
X81545228Y-2763780D01*
X81402371Y-2716161D01*
X81307133Y-2620923D01*
X81259514Y-2525685D01*
X81211895Y-2335209D01*
X81211895Y-2192352D01*
X81259514Y-2001876D01*
X81307133Y-1906638D01*
X81402371Y-1811400D01*
X81545228Y-1763780D01*
X81640466Y-1763780D01*
X81783323Y-1811400D01*
X81830942Y-1859019D01*
X82783323Y-2763780D02*
X82211895Y-2763780D01*
X82497609Y-2763780D02*
X82497609Y-1763780D01*
X82402371Y-1906638D01*
X82307133Y-2001876D01*
X82211895Y-2049495D01*
X83735704Y-2763780D02*
X83164276Y-2763780D01*
X83449990Y-2763780D02*
X83449990Y-1763780D01*
X83354752Y-1906638D01*
X83259514Y-2001876D01*
X83164276Y-2049495D01*
X29938742Y33424857D02*
X29891123Y33377238D01*
X29748266Y33329619D01*
X29653028Y33329619D01*
X29510171Y33377238D01*
X29414933Y33472476D01*
X29367314Y33567714D01*
X29319695Y33758190D01*
X29319695Y33901047D01*
X29367314Y34091523D01*
X29414933Y34186761D01*
X29510171Y34282000D01*
X29653028Y34329619D01*
X29748266Y34329619D01*
X29891123Y34282000D01*
X29938742Y34234380D01*
X30891123Y33329619D02*
X30319695Y33329619D01*
X30605409Y33329619D02*
X30605409Y34329619D01*
X30510171Y34186761D01*
X30414933Y34091523D01*
X30319695Y34043904D01*
X31272076Y34234380D02*
X31319695Y34282000D01*
X31414933Y34329619D01*
X31653028Y34329619D01*
X31748266Y34282000D01*
X31795885Y34234380D01*
X31843504Y34139142D01*
X31843504Y34043904D01*
X31795885Y33901047D01*
X31224457Y33329619D01*
X31843504Y33329619D01*
X41267142Y46928857D02*
X41219523Y46881238D01*
X41076666Y46833619D01*
X40981428Y46833619D01*
X40838571Y46881238D01*
X40743333Y46976476D01*
X40695714Y47071714D01*
X40648095Y47262190D01*
X40648095Y47405047D01*
X40695714Y47595523D01*
X40743333Y47690761D01*
X40838571Y47786000D01*
X40981428Y47833619D01*
X41076666Y47833619D01*
X41219523Y47786000D01*
X41267142Y47738380D01*
X42219523Y46833619D02*
X41648095Y46833619D01*
X41933809Y46833619D02*
X41933809Y47833619D01*
X41838571Y47690761D01*
X41743333Y47595523D01*
X41648095Y47547904D01*
X42552857Y47833619D02*
X43171904Y47833619D01*
X42838571Y47452666D01*
X42981428Y47452666D01*
X43076666Y47405047D01*
X43124285Y47357428D01*
X43171904Y47262190D01*
X43171904Y47024095D01*
X43124285Y46928857D01*
X43076666Y46881238D01*
X42981428Y46833619D01*
X42695714Y46833619D01*
X42600476Y46881238D01*
X42552857Y46928857D01*
X47109142Y46928857D02*
X47061523Y46881238D01*
X46918666Y46833619D01*
X46823428Y46833619D01*
X46680571Y46881238D01*
X46585333Y46976476D01*
X46537714Y47071714D01*
X46490095Y47262190D01*
X46490095Y47405047D01*
X46537714Y47595523D01*
X46585333Y47690761D01*
X46680571Y47786000D01*
X46823428Y47833619D01*
X46918666Y47833619D01*
X47061523Y47786000D01*
X47109142Y47738380D01*
X48061523Y46833619D02*
X47490095Y46833619D01*
X47775809Y46833619D02*
X47775809Y47833619D01*
X47680571Y47690761D01*
X47585333Y47595523D01*
X47490095Y47547904D01*
X48918666Y47500285D02*
X48918666Y46833619D01*
X48680571Y47881238D02*
X48442476Y47166952D01*
X49061523Y47166952D01*
X79214742Y7821657D02*
X79167123Y7774038D01*
X79024266Y7726419D01*
X78929028Y7726419D01*
X78786171Y7774038D01*
X78690933Y7869276D01*
X78643314Y7964514D01*
X78595695Y8154990D01*
X78595695Y8297847D01*
X78643314Y8488323D01*
X78690933Y8583561D01*
X78786171Y8678800D01*
X78929028Y8726419D01*
X79024266Y8726419D01*
X79167123Y8678800D01*
X79214742Y8631180D01*
X80167123Y7726419D02*
X79595695Y7726419D01*
X79881409Y7726419D02*
X79881409Y8726419D01*
X79786171Y8583561D01*
X79690933Y8488323D01*
X79595695Y8440704D01*
X81071885Y8726419D02*
X80595695Y8726419D01*
X80548076Y8250228D01*
X80595695Y8297847D01*
X80690933Y8345466D01*
X80929028Y8345466D01*
X81024266Y8297847D01*
X81071885Y8250228D01*
X81119504Y8154990D01*
X81119504Y7916895D01*
X81071885Y7821657D01*
X81024266Y7774038D01*
X80929028Y7726419D01*
X80690933Y7726419D01*
X80595695Y7774038D01*
X80548076Y7821657D01*
X29913342Y23366457D02*
X29865723Y23318838D01*
X29722866Y23271219D01*
X29627628Y23271219D01*
X29484771Y23318838D01*
X29389533Y23414076D01*
X29341914Y23509314D01*
X29294295Y23699790D01*
X29294295Y23842647D01*
X29341914Y24033123D01*
X29389533Y24128361D01*
X29484771Y24223600D01*
X29627628Y24271219D01*
X29722866Y24271219D01*
X29865723Y24223600D01*
X29913342Y24175980D01*
X30865723Y23271219D02*
X30294295Y23271219D01*
X30580009Y23271219D02*
X30580009Y24271219D01*
X30484771Y24128361D01*
X30389533Y24033123D01*
X30294295Y23985504D01*
X31722866Y24271219D02*
X31532390Y24271219D01*
X31437152Y24223600D01*
X31389533Y24175980D01*
X31294295Y24033123D01*
X31246676Y23842647D01*
X31246676Y23461695D01*
X31294295Y23366457D01*
X31341914Y23318838D01*
X31437152Y23271219D01*
X31627628Y23271219D01*
X31722866Y23318838D01*
X31770485Y23366457D01*
X31818104Y23461695D01*
X31818104Y23699790D01*
X31770485Y23795028D01*
X31722866Y23842647D01*
X31627628Y23890266D01*
X31437152Y23890266D01*
X31341914Y23842647D01*
X31294295Y23795028D01*
X31246676Y23699790D01*
X3192542Y55624457D02*
X3144923Y55576838D01*
X3002066Y55529219D01*
X2906828Y55529219D01*
X2763971Y55576838D01*
X2668733Y55672076D01*
X2621114Y55767314D01*
X2573495Y55957790D01*
X2573495Y56100647D01*
X2621114Y56291123D01*
X2668733Y56386361D01*
X2763971Y56481600D01*
X2906828Y56529219D01*
X3002066Y56529219D01*
X3144923Y56481600D01*
X3192542Y56433980D01*
X4144923Y55529219D02*
X3573495Y55529219D01*
X3859209Y55529219D02*
X3859209Y56529219D01*
X3763971Y56386361D01*
X3668733Y56291123D01*
X3573495Y56243504D01*
X4478257Y56529219D02*
X5144923Y56529219D01*
X4716352Y55529219D01*
X58539142Y33145457D02*
X58491523Y33097838D01*
X58348666Y33050219D01*
X58253428Y33050219D01*
X58110571Y33097838D01*
X58015333Y33193076D01*
X57967714Y33288314D01*
X57920095Y33478790D01*
X57920095Y33621647D01*
X57967714Y33812123D01*
X58015333Y33907361D01*
X58110571Y34002600D01*
X58253428Y34050219D01*
X58348666Y34050219D01*
X58491523Y34002600D01*
X58539142Y33954980D01*
X59491523Y33050219D02*
X58920095Y33050219D01*
X59205809Y33050219D02*
X59205809Y34050219D01*
X59110571Y33907361D01*
X59015333Y33812123D01*
X58920095Y33764504D01*
X60062952Y33621647D02*
X59967714Y33669266D01*
X59920095Y33716885D01*
X59872476Y33812123D01*
X59872476Y33859742D01*
X59920095Y33954980D01*
X59967714Y34002600D01*
X60062952Y34050219D01*
X60253428Y34050219D01*
X60348666Y34002600D01*
X60396285Y33954980D01*
X60443904Y33859742D01*
X60443904Y33812123D01*
X60396285Y33716885D01*
X60348666Y33669266D01*
X60253428Y33621647D01*
X60062952Y33621647D01*
X59967714Y33574028D01*
X59920095Y33526409D01*
X59872476Y33431171D01*
X59872476Y33240695D01*
X59920095Y33145457D01*
X59967714Y33097838D01*
X60062952Y33050219D01*
X60253428Y33050219D01*
X60348666Y33097838D01*
X60396285Y33145457D01*
X60443904Y33240695D01*
X60443904Y33431171D01*
X60396285Y33526409D01*
X60348666Y33574028D01*
X60253428Y33621647D01*
X3090942Y58367657D02*
X3043323Y58320038D01*
X2900466Y58272419D01*
X2805228Y58272419D01*
X2662371Y58320038D01*
X2567133Y58415276D01*
X2519514Y58510514D01*
X2471895Y58700990D01*
X2471895Y58843847D01*
X2519514Y59034323D01*
X2567133Y59129561D01*
X2662371Y59224800D01*
X2805228Y59272419D01*
X2900466Y59272419D01*
X3043323Y59224800D01*
X3090942Y59177180D01*
X4043323Y58272419D02*
X3471895Y58272419D01*
X3757609Y58272419D02*
X3757609Y59272419D01*
X3662371Y59129561D01*
X3567133Y59034323D01*
X3471895Y58986704D01*
X4519514Y58272419D02*
X4709990Y58272419D01*
X4805228Y58320038D01*
X4852847Y58367657D01*
X4948085Y58510514D01*
X4995704Y58700990D01*
X4995704Y59081942D01*
X4948085Y59177180D01*
X4900466Y59224800D01*
X4805228Y59272419D01*
X4614752Y59272419D01*
X4519514Y59224800D01*
X4471895Y59177180D01*
X4424276Y59081942D01*
X4424276Y58843847D01*
X4471895Y58748609D01*
X4519514Y58700990D01*
X4614752Y58653371D01*
X4805228Y58653371D01*
X4900466Y58700990D01*
X4948085Y58748609D01*
X4995704Y58843847D01*
X-287257Y46006657D02*
X-334876Y45959038D01*
X-477733Y45911419D01*
X-572971Y45911419D01*
X-715828Y45959038D01*
X-811066Y46054276D01*
X-858685Y46149514D01*
X-906304Y46339990D01*
X-906304Y46482847D01*
X-858685Y46673323D01*
X-811066Y46768561D01*
X-715828Y46863800D01*
X-572971Y46911419D01*
X-477733Y46911419D01*
X-334876Y46863800D01*
X-287257Y46816180D01*
X93695Y46816180D02*
X141314Y46863800D01*
X236552Y46911419D01*
X474647Y46911419D01*
X569885Y46863800D01*
X617504Y46816180D01*
X665123Y46720942D01*
X665123Y46625704D01*
X617504Y46482847D01*
X46076Y45911419D01*
X665123Y45911419D01*
X1284171Y46911419D02*
X1379409Y46911419D01*
X1474647Y46863800D01*
X1522266Y46816180D01*
X1569885Y46720942D01*
X1617504Y46530466D01*
X1617504Y46292371D01*
X1569885Y46101895D01*
X1522266Y46006657D01*
X1474647Y45959038D01*
X1379409Y45911419D01*
X1284171Y45911419D01*
X1188933Y45959038D01*
X1141314Y46006657D01*
X1093695Y46101895D01*
X1046076Y46292371D01*
X1046076Y46530466D01*
X1093695Y46720942D01*
X1141314Y46816180D01*
X1188933Y46863800D01*
X1284171Y46911419D01*
X95826342Y48029857D02*
X95778723Y47982238D01*
X95635866Y47934619D01*
X95540628Y47934619D01*
X95397771Y47982238D01*
X95302533Y48077476D01*
X95254914Y48172714D01*
X95207295Y48363190D01*
X95207295Y48506047D01*
X95254914Y48696523D01*
X95302533Y48791761D01*
X95397771Y48887000D01*
X95540628Y48934619D01*
X95635866Y48934619D01*
X95778723Y48887000D01*
X95826342Y48839380D01*
X96207295Y48839380D02*
X96254914Y48887000D01*
X96350152Y48934619D01*
X96588247Y48934619D01*
X96683485Y48887000D01*
X96731104Y48839380D01*
X96778723Y48744142D01*
X96778723Y48648904D01*
X96731104Y48506047D01*
X96159676Y47934619D01*
X96778723Y47934619D01*
X97731104Y47934619D02*
X97159676Y47934619D01*
X97445390Y47934619D02*
X97445390Y48934619D01*
X97350152Y48791761D01*
X97254914Y48696523D01*
X97159676Y48648904D01*
X91457542Y1547857D02*
X91409923Y1500238D01*
X91267066Y1452619D01*
X91171828Y1452619D01*
X91028971Y1500238D01*
X90933733Y1595476D01*
X90886114Y1690714D01*
X90838495Y1881190D01*
X90838495Y2024047D01*
X90886114Y2214523D01*
X90933733Y2309761D01*
X91028971Y2405000D01*
X91171828Y2452619D01*
X91267066Y2452619D01*
X91409923Y2405000D01*
X91457542Y2357380D01*
X91838495Y2357380D02*
X91886114Y2405000D01*
X91981352Y2452619D01*
X92219447Y2452619D01*
X92314685Y2405000D01*
X92362304Y2357380D01*
X92409923Y2262142D01*
X92409923Y2166904D01*
X92362304Y2024047D01*
X91790876Y1452619D01*
X92409923Y1452619D01*
X92790876Y2357380D02*
X92838495Y2405000D01*
X92933733Y2452619D01*
X93171828Y2452619D01*
X93267066Y2405000D01*
X93314685Y2357380D01*
X93362304Y2262142D01*
X93362304Y2166904D01*
X93314685Y2024047D01*
X92743257Y1452619D01*
X93362304Y1452619D01*
X5453142Y52246257D02*
X5405523Y52198638D01*
X5262666Y52151019D01*
X5167428Y52151019D01*
X5024571Y52198638D01*
X4929333Y52293876D01*
X4881714Y52389114D01*
X4834095Y52579590D01*
X4834095Y52722447D01*
X4881714Y52912923D01*
X4929333Y53008161D01*
X5024571Y53103400D01*
X5167428Y53151019D01*
X5262666Y53151019D01*
X5405523Y53103400D01*
X5453142Y53055780D01*
X5834095Y53055780D02*
X5881714Y53103400D01*
X5976952Y53151019D01*
X6215047Y53151019D01*
X6310285Y53103400D01*
X6357904Y53055780D01*
X6405523Y52960542D01*
X6405523Y52865304D01*
X6357904Y52722447D01*
X5786476Y52151019D01*
X6405523Y52151019D01*
X6738857Y53151019D02*
X7357904Y53151019D01*
X7024571Y52770066D01*
X7167428Y52770066D01*
X7262666Y52722447D01*
X7310285Y52674828D01*
X7357904Y52579590D01*
X7357904Y52341495D01*
X7310285Y52246257D01*
X7262666Y52198638D01*
X7167428Y52151019D01*
X6881714Y52151019D01*
X6786476Y52198638D01*
X6738857Y52246257D01*
X80123742Y11260097D02*
X80076123Y11212478D01*
X79933266Y11164859D01*
X79838028Y11164859D01*
X79695171Y11212478D01*
X79599933Y11307716D01*
X79552314Y11402954D01*
X79504695Y11593430D01*
X79504695Y11736287D01*
X79552314Y11926763D01*
X79599933Y12022001D01*
X79695171Y12117240D01*
X79838028Y12164859D01*
X79933266Y12164859D01*
X80076123Y12117240D01*
X80123742Y12069620D01*
X80504695Y12069620D02*
X80552314Y12117240D01*
X80647552Y12164859D01*
X80885647Y12164859D01*
X80980885Y12117240D01*
X81028504Y12069620D01*
X81076123Y11974382D01*
X81076123Y11879144D01*
X81028504Y11736287D01*
X80457076Y11164859D01*
X81076123Y11164859D01*
X81933266Y11831525D02*
X81933266Y11164859D01*
X81695171Y12212478D02*
X81457076Y11498192D01*
X82076123Y11498192D01*
X72762822Y11173737D02*
X72715203Y11126118D01*
X72572346Y11078499D01*
X72477108Y11078499D01*
X72334251Y11126118D01*
X72239013Y11221356D01*
X72191394Y11316594D01*
X72143775Y11507070D01*
X72143775Y11649927D01*
X72191394Y11840403D01*
X72239013Y11935641D01*
X72334251Y12030880D01*
X72477108Y12078499D01*
X72572346Y12078499D01*
X72715203Y12030880D01*
X72762822Y11983260D01*
X73143775Y11983260D02*
X73191394Y12030880D01*
X73286632Y12078499D01*
X73524727Y12078499D01*
X73619965Y12030880D01*
X73667584Y11983260D01*
X73715203Y11888022D01*
X73715203Y11792784D01*
X73667584Y11649927D01*
X73096156Y11078499D01*
X73715203Y11078499D01*
X74619965Y12078499D02*
X74143775Y12078499D01*
X74096156Y11602308D01*
X74143775Y11649927D01*
X74239013Y11697546D01*
X74477108Y11697546D01*
X74572346Y11649927D01*
X74619965Y11602308D01*
X74667584Y11507070D01*
X74667584Y11268975D01*
X74619965Y11173737D01*
X74572346Y11126118D01*
X74477108Y11078499D01*
X74239013Y11078499D01*
X74143775Y11126118D01*
X74096156Y11173737D01*
X72763142Y19666857D02*
X72715523Y19619238D01*
X72572666Y19571619D01*
X72477428Y19571619D01*
X72334571Y19619238D01*
X72239333Y19714476D01*
X72191714Y19809714D01*
X72144095Y20000190D01*
X72144095Y20143047D01*
X72191714Y20333523D01*
X72239333Y20428761D01*
X72334571Y20524000D01*
X72477428Y20571619D01*
X72572666Y20571619D01*
X72715523Y20524000D01*
X72763142Y20476380D01*
X73144095Y20476380D02*
X73191714Y20524000D01*
X73286952Y20571619D01*
X73525047Y20571619D01*
X73620285Y20524000D01*
X73667904Y20476380D01*
X73715523Y20381142D01*
X73715523Y20285904D01*
X73667904Y20143047D01*
X73096476Y19571619D01*
X73715523Y19571619D01*
X74572666Y20571619D02*
X74382190Y20571619D01*
X74286952Y20524000D01*
X74239333Y20476380D01*
X74144095Y20333523D01*
X74096476Y20143047D01*
X74096476Y19762095D01*
X74144095Y19666857D01*
X74191714Y19619238D01*
X74286952Y19571619D01*
X74477428Y19571619D01*
X74572666Y19619238D01*
X74620285Y19666857D01*
X74667904Y19762095D01*
X74667904Y20000190D01*
X74620285Y20095428D01*
X74572666Y20143047D01*
X74477428Y20190666D01*
X74286952Y20190666D01*
X74191714Y20143047D01*
X74144095Y20095428D01*
X74096476Y20000190D01*
X80129142Y19666857D02*
X80081523Y19619238D01*
X79938666Y19571619D01*
X79843428Y19571619D01*
X79700571Y19619238D01*
X79605333Y19714476D01*
X79557714Y19809714D01*
X79510095Y20000190D01*
X79510095Y20143047D01*
X79557714Y20333523D01*
X79605333Y20428761D01*
X79700571Y20524000D01*
X79843428Y20571619D01*
X79938666Y20571619D01*
X80081523Y20524000D01*
X80129142Y20476380D01*
X80510095Y20476380D02*
X80557714Y20524000D01*
X80652952Y20571619D01*
X80891047Y20571619D01*
X80986285Y20524000D01*
X81033904Y20476380D01*
X81081523Y20381142D01*
X81081523Y20285904D01*
X81033904Y20143047D01*
X80462476Y19571619D01*
X81081523Y19571619D01*
X81414857Y20571619D02*
X82081523Y20571619D01*
X81652952Y19571619D01*
X76344542Y42949857D02*
X76296923Y42902238D01*
X76154066Y42854619D01*
X76058828Y42854619D01*
X75915971Y42902238D01*
X75820733Y42997476D01*
X75773114Y43092714D01*
X75725495Y43283190D01*
X75725495Y43426047D01*
X75773114Y43616523D01*
X75820733Y43711761D01*
X75915971Y43807000D01*
X76058828Y43854619D01*
X76154066Y43854619D01*
X76296923Y43807000D01*
X76344542Y43759380D01*
X76725495Y43759380D02*
X76773114Y43807000D01*
X76868352Y43854619D01*
X77106447Y43854619D01*
X77201685Y43807000D01*
X77249304Y43759380D01*
X77296923Y43664142D01*
X77296923Y43568904D01*
X77249304Y43426047D01*
X76677876Y42854619D01*
X77296923Y42854619D01*
X77868352Y43426047D02*
X77773114Y43473666D01*
X77725495Y43521285D01*
X77677876Y43616523D01*
X77677876Y43664142D01*
X77725495Y43759380D01*
X77773114Y43807000D01*
X77868352Y43854619D01*
X78058828Y43854619D01*
X78154066Y43807000D01*
X78201685Y43759380D01*
X78249304Y43664142D01*
X78249304Y43616523D01*
X78201685Y43521285D01*
X78154066Y43473666D01*
X78058828Y43426047D01*
X77868352Y43426047D01*
X77773114Y43378428D01*
X77725495Y43330809D01*
X77677876Y43235571D01*
X77677876Y43045095D01*
X77725495Y42949857D01*
X77773114Y42902238D01*
X77868352Y42854619D01*
X78058828Y42854619D01*
X78154066Y42902238D01*
X78201685Y42949857D01*
X78249304Y43045095D01*
X78249304Y43235571D01*
X78201685Y43330809D01*
X78154066Y43378428D01*
X78058828Y43426047D01*
X66616342Y40308257D02*
X66568723Y40260638D01*
X66425866Y40213019D01*
X66330628Y40213019D01*
X66187771Y40260638D01*
X66092533Y40355876D01*
X66044914Y40451114D01*
X65997295Y40641590D01*
X65997295Y40784447D01*
X66044914Y40974923D01*
X66092533Y41070161D01*
X66187771Y41165400D01*
X66330628Y41213019D01*
X66425866Y41213019D01*
X66568723Y41165400D01*
X66616342Y41117780D01*
X66997295Y41117780D02*
X67044914Y41165400D01*
X67140152Y41213019D01*
X67378247Y41213019D01*
X67473485Y41165400D01*
X67521104Y41117780D01*
X67568723Y41022542D01*
X67568723Y40927304D01*
X67521104Y40784447D01*
X66949676Y40213019D01*
X67568723Y40213019D01*
X68044914Y40213019D02*
X68235390Y40213019D01*
X68330628Y40260638D01*
X68378247Y40308257D01*
X68473485Y40451114D01*
X68521104Y40641590D01*
X68521104Y41022542D01*
X68473485Y41117780D01*
X68425866Y41165400D01*
X68330628Y41213019D01*
X68140152Y41213019D01*
X68044914Y41165400D01*
X67997295Y41117780D01*
X67949676Y41022542D01*
X67949676Y40784447D01*
X67997295Y40689209D01*
X68044914Y40641590D01*
X68140152Y40593971D01*
X68330628Y40593971D01*
X68425866Y40641590D01*
X68473485Y40689209D01*
X68521104Y40784447D01*
X73321942Y42949857D02*
X73274323Y42902238D01*
X73131466Y42854619D01*
X73036228Y42854619D01*
X72893371Y42902238D01*
X72798133Y42997476D01*
X72750514Y43092714D01*
X72702895Y43283190D01*
X72702895Y43426047D01*
X72750514Y43616523D01*
X72798133Y43711761D01*
X72893371Y43807000D01*
X73036228Y43854619D01*
X73131466Y43854619D01*
X73274323Y43807000D01*
X73321942Y43759380D01*
X73655276Y43854619D02*
X74274323Y43854619D01*
X73940990Y43473666D01*
X74083847Y43473666D01*
X74179085Y43426047D01*
X74226704Y43378428D01*
X74274323Y43283190D01*
X74274323Y43045095D01*
X74226704Y42949857D01*
X74179085Y42902238D01*
X74083847Y42854619D01*
X73798133Y42854619D01*
X73702895Y42902238D01*
X73655276Y42949857D01*
X74893371Y43854619D02*
X74988609Y43854619D01*
X75083847Y43807000D01*
X75131466Y43759380D01*
X75179085Y43664142D01*
X75226704Y43473666D01*
X75226704Y43235571D01*
X75179085Y43045095D01*
X75131466Y42949857D01*
X75083847Y42902238D01*
X74988609Y42854619D01*
X74893371Y42854619D01*
X74798133Y42902238D01*
X74750514Y42949857D01*
X74702895Y43045095D01*
X74655276Y43235571D01*
X74655276Y43473666D01*
X74702895Y43664142D01*
X74750514Y43759380D01*
X74798133Y43807000D01*
X74893371Y43854619D01*
X66133742Y29166457D02*
X66086123Y29118838D01*
X65943266Y29071219D01*
X65848028Y29071219D01*
X65705171Y29118838D01*
X65609933Y29214076D01*
X65562314Y29309314D01*
X65514695Y29499790D01*
X65514695Y29642647D01*
X65562314Y29833123D01*
X65609933Y29928361D01*
X65705171Y30023600D01*
X65848028Y30071219D01*
X65943266Y30071219D01*
X66086123Y30023600D01*
X66133742Y29975980D01*
X66467076Y30071219D02*
X67086123Y30071219D01*
X66752790Y29690266D01*
X66895647Y29690266D01*
X66990885Y29642647D01*
X67038504Y29595028D01*
X67086123Y29499790D01*
X67086123Y29261695D01*
X67038504Y29166457D01*
X66990885Y29118838D01*
X66895647Y29071219D01*
X66609933Y29071219D01*
X66514695Y29118838D01*
X66467076Y29166457D01*
X68038504Y29071219D02*
X67467076Y29071219D01*
X67752790Y29071219D02*
X67752790Y30071219D01*
X67657552Y29928361D01*
X67562314Y29833123D01*
X67467076Y29785504D01*
X81399142Y36752257D02*
X81351523Y36704638D01*
X81208666Y36657019D01*
X81113428Y36657019D01*
X80970571Y36704638D01*
X80875333Y36799876D01*
X80827714Y36895114D01*
X80780095Y37085590D01*
X80780095Y37228447D01*
X80827714Y37418923D01*
X80875333Y37514161D01*
X80970571Y37609400D01*
X81113428Y37657019D01*
X81208666Y37657019D01*
X81351523Y37609400D01*
X81399142Y37561780D01*
X81732476Y37657019D02*
X82351523Y37657019D01*
X82018190Y37276066D01*
X82161047Y37276066D01*
X82256285Y37228447D01*
X82303904Y37180828D01*
X82351523Y37085590D01*
X82351523Y36847495D01*
X82303904Y36752257D01*
X82256285Y36704638D01*
X82161047Y36657019D01*
X81875333Y36657019D01*
X81780095Y36704638D01*
X81732476Y36752257D01*
X82684857Y37657019D02*
X83303904Y37657019D01*
X82970571Y37276066D01*
X83113428Y37276066D01*
X83208666Y37228447D01*
X83256285Y37180828D01*
X83303904Y37085590D01*
X83303904Y36847495D01*
X83256285Y36752257D01*
X83208666Y36704638D01*
X83113428Y36657019D01*
X82827714Y36657019D01*
X82732476Y36704638D01*
X82684857Y36752257D01*
X6900942Y33856657D02*
X6853323Y33809038D01*
X6710466Y33761419D01*
X6615228Y33761419D01*
X6472371Y33809038D01*
X6377133Y33904276D01*
X6329514Y33999514D01*
X6281895Y34189990D01*
X6281895Y34332847D01*
X6329514Y34523323D01*
X6377133Y34618561D01*
X6472371Y34713800D01*
X6615228Y34761419D01*
X6710466Y34761419D01*
X6853323Y34713800D01*
X6900942Y34666180D01*
X7234276Y34761419D02*
X7853323Y34761419D01*
X7519990Y34380466D01*
X7662847Y34380466D01*
X7758085Y34332847D01*
X7805704Y34285228D01*
X7853323Y34189990D01*
X7853323Y33951895D01*
X7805704Y33856657D01*
X7758085Y33809038D01*
X7662847Y33761419D01*
X7377133Y33761419D01*
X7281895Y33809038D01*
X7234276Y33856657D01*
X8710466Y34428085D02*
X8710466Y33761419D01*
X8472371Y34809038D02*
X8234276Y34094752D01*
X8853323Y34094752D01*
X6773942Y31392857D02*
X6726323Y31345238D01*
X6583466Y31297619D01*
X6488228Y31297619D01*
X6345371Y31345238D01*
X6250133Y31440476D01*
X6202514Y31535714D01*
X6154895Y31726190D01*
X6154895Y31869047D01*
X6202514Y32059523D01*
X6250133Y32154761D01*
X6345371Y32250000D01*
X6488228Y32297619D01*
X6583466Y32297619D01*
X6726323Y32250000D01*
X6773942Y32202380D01*
X7107276Y32297619D02*
X7726323Y32297619D01*
X7392990Y31916666D01*
X7535847Y31916666D01*
X7631085Y31869047D01*
X7678704Y31821428D01*
X7726323Y31726190D01*
X7726323Y31488095D01*
X7678704Y31392857D01*
X7631085Y31345238D01*
X7535847Y31297619D01*
X7250133Y31297619D01*
X7154895Y31345238D01*
X7107276Y31392857D01*
X8631085Y32297619D02*
X8154895Y32297619D01*
X8107276Y31821428D01*
X8154895Y31869047D01*
X8250133Y31916666D01*
X8488228Y31916666D01*
X8583466Y31869047D01*
X8631085Y31821428D01*
X8678704Y31726190D01*
X8678704Y31488095D01*
X8631085Y31392857D01*
X8583466Y31345238D01*
X8488228Y31297619D01*
X8250133Y31297619D01*
X8154895Y31345238D01*
X8107276Y31392857D01*
X25265142Y26897057D02*
X25217523Y26849438D01*
X25074666Y26801819D01*
X24979428Y26801819D01*
X24836571Y26849438D01*
X24741333Y26944676D01*
X24693714Y27039914D01*
X24646095Y27230390D01*
X24646095Y27373247D01*
X24693714Y27563723D01*
X24741333Y27658961D01*
X24836571Y27754200D01*
X24979428Y27801819D01*
X25074666Y27801819D01*
X25217523Y27754200D01*
X25265142Y27706580D01*
X25598476Y27801819D02*
X26217523Y27801819D01*
X25884190Y27420866D01*
X26027047Y27420866D01*
X26122285Y27373247D01*
X26169904Y27325628D01*
X26217523Y27230390D01*
X26217523Y26992295D01*
X26169904Y26897057D01*
X26122285Y26849438D01*
X26027047Y26801819D01*
X25741333Y26801819D01*
X25646095Y26849438D01*
X25598476Y26897057D01*
X27074666Y27801819D02*
X26884190Y27801819D01*
X26788952Y27754200D01*
X26741333Y27706580D01*
X26646095Y27563723D01*
X26598476Y27373247D01*
X26598476Y26992295D01*
X26646095Y26897057D01*
X26693714Y26849438D01*
X26788952Y26801819D01*
X26979428Y26801819D01*
X27074666Y26849438D01*
X27122285Y26897057D01*
X27169904Y26992295D01*
X27169904Y27230390D01*
X27122285Y27325628D01*
X27074666Y27373247D01*
X26979428Y27420866D01*
X26788952Y27420866D01*
X26693714Y27373247D01*
X26646095Y27325628D01*
X26598476Y27230390D01*
X16933942Y40003457D02*
X16886323Y39955838D01*
X16743466Y39908219D01*
X16648228Y39908219D01*
X16505371Y39955838D01*
X16410133Y40051076D01*
X16362514Y40146314D01*
X16314895Y40336790D01*
X16314895Y40479647D01*
X16362514Y40670123D01*
X16410133Y40765361D01*
X16505371Y40860600D01*
X16648228Y40908219D01*
X16743466Y40908219D01*
X16886323Y40860600D01*
X16933942Y40812980D01*
X17267276Y40908219D02*
X17886323Y40908219D01*
X17552990Y40527266D01*
X17695847Y40527266D01*
X17791085Y40479647D01*
X17838704Y40432028D01*
X17886323Y40336790D01*
X17886323Y40098695D01*
X17838704Y40003457D01*
X17791085Y39955838D01*
X17695847Y39908219D01*
X17410133Y39908219D01*
X17314895Y39955838D01*
X17267276Y40003457D01*
X18219657Y40908219D02*
X18886323Y40908219D01*
X18457752Y39908219D01*
X96188304Y59237619D02*
X96188304Y60237619D01*
X96426400Y60237619D01*
X96569257Y60190000D01*
X96664495Y60094761D01*
X96712114Y59999523D01*
X96759733Y59809047D01*
X96759733Y59666190D01*
X96712114Y59475714D01*
X96664495Y59380476D01*
X96569257Y59285238D01*
X96426400Y59237619D01*
X96188304Y59237619D01*
X97712114Y59237619D02*
X97140685Y59237619D01*
X97426400Y59237619D02*
X97426400Y60237619D01*
X97331161Y60094761D01*
X97235923Y59999523D01*
X97140685Y59951904D01*
X91768704Y59186819D02*
X91768704Y60186819D01*
X92006800Y60186819D01*
X92149657Y60139200D01*
X92244895Y60043961D01*
X92292514Y59948723D01*
X92340133Y59758247D01*
X92340133Y59615390D01*
X92292514Y59424914D01*
X92244895Y59329676D01*
X92149657Y59234438D01*
X92006800Y59186819D01*
X91768704Y59186819D01*
X92721085Y60091580D02*
X92768704Y60139200D01*
X92863942Y60186819D01*
X93102038Y60186819D01*
X93197276Y60139200D01*
X93244895Y60091580D01*
X93292514Y59996342D01*
X93292514Y59901104D01*
X93244895Y59758247D01*
X92673466Y59186819D01*
X93292514Y59186819D01*
X18540504Y18864319D02*
X18540504Y19864319D01*
X18778600Y19864319D01*
X18921457Y19816700D01*
X19016695Y19721461D01*
X19064314Y19626223D01*
X19111933Y19435747D01*
X19111933Y19292890D01*
X19064314Y19102414D01*
X19016695Y19007176D01*
X18921457Y18911938D01*
X18778600Y18864319D01*
X18540504Y18864319D01*
X19445266Y19864319D02*
X20064314Y19864319D01*
X19730980Y19483366D01*
X19873838Y19483366D01*
X19969076Y19435747D01*
X20016695Y19388128D01*
X20064314Y19292890D01*
X20064314Y19054795D01*
X20016695Y18959557D01*
X19969076Y18911938D01*
X19873838Y18864319D01*
X19588123Y18864319D01*
X19492885Y18911938D01*
X19445266Y18959557D01*
X18540504Y23144219D02*
X18540504Y24144219D01*
X18778600Y24144219D01*
X18921457Y24096600D01*
X19016695Y24001361D01*
X19064314Y23906123D01*
X19111933Y23715647D01*
X19111933Y23572790D01*
X19064314Y23382314D01*
X19016695Y23287076D01*
X18921457Y23191838D01*
X18778600Y23144219D01*
X18540504Y23144219D01*
X19969076Y23810885D02*
X19969076Y23144219D01*
X19730980Y24191838D02*
X19492885Y23477552D01*
X20111933Y23477552D01*
X7794666Y26665228D02*
X7461333Y26665228D01*
X7461333Y26141419D02*
X7461333Y27141419D01*
X7937523Y27141419D01*
X8842285Y26141419D02*
X8270857Y26141419D01*
X8556571Y26141419D02*
X8556571Y27141419D01*
X8461333Y26998561D01*
X8366095Y26903323D01*
X8270857Y26855704D01*
X46834466Y58231019D02*
X46834466Y57516733D01*
X46786847Y57373876D01*
X46691609Y57278638D01*
X46548752Y57231019D01*
X46453514Y57231019D01*
X47834466Y57231019D02*
X47263038Y57231019D01*
X47548752Y57231019D02*
X47548752Y58231019D01*
X47453514Y58088161D01*
X47358276Y57992923D01*
X47263038Y57945304D01*
X50593666Y7583419D02*
X50593666Y6869133D01*
X50546047Y6726276D01*
X50450809Y6631038D01*
X50307952Y6583419D01*
X50212714Y6583419D01*
X51022238Y7488180D02*
X51069857Y7535800D01*
X51165095Y7583419D01*
X51403190Y7583419D01*
X51498428Y7535800D01*
X51546047Y7488180D01*
X51593666Y7392942D01*
X51593666Y7297704D01*
X51546047Y7154847D01*
X50974619Y6583419D01*
X51593666Y6583419D01*
X18564266Y55797619D02*
X18564266Y55083333D01*
X18516647Y54940476D01*
X18421409Y54845238D01*
X18278552Y54797619D01*
X18183314Y54797619D01*
X18945219Y55797619D02*
X19564266Y55797619D01*
X19230933Y55416666D01*
X19373790Y55416666D01*
X19469028Y55369047D01*
X19516647Y55321428D01*
X19564266Y55226190D01*
X19564266Y54988095D01*
X19516647Y54892857D01*
X19469028Y54845238D01*
X19373790Y54797619D01*
X19088076Y54797619D01*
X18992838Y54845238D01*
X18945219Y54892857D01*
X29435466Y4891019D02*
X29435466Y4176733D01*
X29387847Y4033876D01*
X29292609Y3938638D01*
X29149752Y3891019D01*
X29054514Y3891019D01*
X30340228Y4557685D02*
X30340228Y3891019D01*
X30102133Y4938638D02*
X29864038Y4224352D01*
X30483085Y4224352D01*
X10372766Y54858719D02*
X10372766Y54144433D01*
X10325147Y54001576D01*
X10229909Y53906338D01*
X10087052Y53858719D01*
X9991814Y53858719D01*
X10896576Y53858719D02*
X11087052Y53858719D01*
X11182290Y53906338D01*
X11229909Y53953957D01*
X11325147Y54096814D01*
X11372766Y54287290D01*
X11372766Y54668242D01*
X11325147Y54763480D01*
X11277528Y54811100D01*
X11182290Y54858719D01*
X10991814Y54858719D01*
X10896576Y54811100D01*
X10848957Y54763480D01*
X10801338Y54668242D01*
X10801338Y54430147D01*
X10848957Y54334909D01*
X10896576Y54287290D01*
X10991814Y54239671D01*
X11182290Y54239671D01*
X11277528Y54287290D01*
X11325147Y54334909D01*
X11372766Y54430147D01*
X62944476Y23941019D02*
X62944476Y23226733D01*
X62896857Y23083876D01*
X62801619Y22988638D01*
X62658761Y22941019D01*
X62563523Y22941019D01*
X63944476Y22941019D02*
X63373047Y22941019D01*
X63658761Y22941019D02*
X63658761Y23941019D01*
X63563523Y23798161D01*
X63468285Y23702923D01*
X63373047Y23655304D01*
X64563523Y23941019D02*
X64658761Y23941019D01*
X64754000Y23893400D01*
X64801619Y23845780D01*
X64849238Y23750542D01*
X64896857Y23560066D01*
X64896857Y23321971D01*
X64849238Y23131495D01*
X64801619Y23036257D01*
X64754000Y22988638D01*
X64658761Y22941019D01*
X64563523Y22941019D01*
X64468285Y22988638D01*
X64420666Y23036257D01*
X64373047Y23131495D01*
X64325428Y23321971D01*
X64325428Y23560066D01*
X64373047Y23750542D01*
X64420666Y23845780D01*
X64468285Y23893400D01*
X64563523Y23941019D01*
X78311476Y26582619D02*
X78311476Y25868333D01*
X78263857Y25725476D01*
X78168619Y25630238D01*
X78025761Y25582619D01*
X77930523Y25582619D01*
X79311476Y25582619D02*
X78740047Y25582619D01*
X79025761Y25582619D02*
X79025761Y26582619D01*
X78930523Y26439761D01*
X78835285Y26344523D01*
X78740047Y26296904D01*
X80263857Y25582619D02*
X79692428Y25582619D01*
X79978142Y25582619D02*
X79978142Y26582619D01*
X79882904Y26439761D01*
X79787666Y26344523D01*
X79692428Y26296904D01*
X16462476Y65317619D02*
X16462476Y64603333D01*
X16414857Y64460476D01*
X16319619Y64365238D01*
X16176761Y64317619D01*
X16081523Y64317619D01*
X17462476Y64317619D02*
X16891047Y64317619D01*
X17176761Y64317619D02*
X17176761Y65317619D01*
X17081523Y65174761D01*
X16986285Y65079523D01*
X16891047Y65031904D01*
X17843428Y65222380D02*
X17891047Y65270000D01*
X17986285Y65317619D01*
X18224380Y65317619D01*
X18319619Y65270000D01*
X18367238Y65222380D01*
X18414857Y65127142D01*
X18414857Y65031904D01*
X18367238Y64889047D01*
X17795809Y64317619D01*
X18414857Y64317619D01*
X71199476Y-1941580D02*
X71199476Y-2655866D01*
X71151857Y-2798723D01*
X71056619Y-2893961D01*
X70913761Y-2941580D01*
X70818523Y-2941580D01*
X72199476Y-2941580D02*
X71628047Y-2941580D01*
X71913761Y-2941580D02*
X71913761Y-1941580D01*
X71818523Y-2084438D01*
X71723285Y-2179676D01*
X71628047Y-2227295D01*
X72532809Y-1941580D02*
X73151857Y-1941580D01*
X72818523Y-2322533D01*
X72961380Y-2322533D01*
X73056619Y-2370152D01*
X73104238Y-2417771D01*
X73151857Y-2513009D01*
X73151857Y-2751104D01*
X73104238Y-2846342D01*
X73056619Y-2893961D01*
X72961380Y-2941580D01*
X72675666Y-2941580D01*
X72580428Y-2893961D01*
X72532809Y-2846342D01*
X-2257323Y24576019D02*
X-2257323Y23861733D01*
X-2304942Y23718876D01*
X-2400180Y23623638D01*
X-2543038Y23576019D01*
X-2638276Y23576019D01*
X-1257323Y23576019D02*
X-1828752Y23576019D01*
X-1543038Y23576019D02*
X-1543038Y24576019D01*
X-1638276Y24433161D01*
X-1733514Y24337923D01*
X-1828752Y24290304D01*
X-400180Y24242685D02*
X-400180Y23576019D01*
X-638276Y24623638D02*
X-876371Y23909352D01*
X-257323Y23909352D01*
X7834333Y27868619D02*
X7358142Y27868619D01*
X7358142Y28868619D01*
X8691476Y27868619D02*
X8120047Y27868619D01*
X8405761Y27868619D02*
X8405761Y28868619D01*
X8310523Y28725761D01*
X8215285Y28630523D01*
X8120047Y28582904D01*
X19968380Y50379333D02*
X19492190Y50046000D01*
X19968380Y49807904D02*
X18968380Y49807904D01*
X18968380Y50188857D01*
X19016000Y50284095D01*
X19063619Y50331714D01*
X19158857Y50379333D01*
X19301714Y50379333D01*
X19396952Y50331714D01*
X19444571Y50284095D01*
X19492190Y50188857D01*
X19492190Y49807904D01*
X19968380Y51331714D02*
X19968380Y50760285D01*
X19968380Y51046000D02*
X18968380Y51046000D01*
X19111238Y50950761D01*
X19206476Y50855523D01*
X19254095Y50760285D01*
X22508380Y50379333D02*
X22032190Y50046000D01*
X22508380Y49807904D02*
X21508380Y49807904D01*
X21508380Y50188857D01*
X21556000Y50284095D01*
X21603619Y50331714D01*
X21698857Y50379333D01*
X21841714Y50379333D01*
X21936952Y50331714D01*
X21984571Y50284095D01*
X22032190Y50188857D01*
X22032190Y49807904D01*
X21603619Y50760285D02*
X21556000Y50807904D01*
X21508380Y50903142D01*
X21508380Y51141238D01*
X21556000Y51236476D01*
X21603619Y51284095D01*
X21698857Y51331714D01*
X21794095Y51331714D01*
X21936952Y51284095D01*
X22508380Y50712666D01*
X22508380Y51331714D01*
X96810533Y54106819D02*
X96477200Y54583009D01*
X96239104Y54106819D02*
X96239104Y55106819D01*
X96620057Y55106819D01*
X96715295Y55059200D01*
X96762914Y55011580D01*
X96810533Y54916342D01*
X96810533Y54773485D01*
X96762914Y54678247D01*
X96715295Y54630628D01*
X96620057Y54583009D01*
X96239104Y54583009D01*
X97143866Y55106819D02*
X97762914Y55106819D01*
X97429580Y54725866D01*
X97572438Y54725866D01*
X97667676Y54678247D01*
X97715295Y54630628D01*
X97762914Y54535390D01*
X97762914Y54297295D01*
X97715295Y54202057D01*
X97667676Y54154438D01*
X97572438Y54106819D01*
X97286723Y54106819D01*
X97191485Y54154438D01*
X97143866Y54202057D01*
X92390933Y54056019D02*
X92057600Y54532209D01*
X91819504Y54056019D02*
X91819504Y55056019D01*
X92200457Y55056019D01*
X92295695Y55008400D01*
X92343314Y54960780D01*
X92390933Y54865542D01*
X92390933Y54722685D01*
X92343314Y54627447D01*
X92295695Y54579828D01*
X92200457Y54532209D01*
X91819504Y54532209D01*
X93248076Y54722685D02*
X93248076Y54056019D01*
X93009980Y55103638D02*
X92771885Y54389352D01*
X93390933Y54389352D01*
X75957133Y52760619D02*
X75623800Y53236809D01*
X75385704Y52760619D02*
X75385704Y53760619D01*
X75766657Y53760619D01*
X75861895Y53713000D01*
X75909514Y53665380D01*
X75957133Y53570142D01*
X75957133Y53427285D01*
X75909514Y53332047D01*
X75861895Y53284428D01*
X75766657Y53236809D01*
X75385704Y53236809D01*
X76861895Y53760619D02*
X76385704Y53760619D01*
X76338085Y53284428D01*
X76385704Y53332047D01*
X76480942Y53379666D01*
X76719038Y53379666D01*
X76814276Y53332047D01*
X76861895Y53284428D01*
X76909514Y53189190D01*
X76909514Y52951095D01*
X76861895Y52855857D01*
X76814276Y52808238D01*
X76719038Y52760619D01*
X76480942Y52760619D01*
X76385704Y52808238D01*
X76338085Y52855857D01*
X80503733Y52709819D02*
X80170400Y53186009D01*
X79932304Y52709819D02*
X79932304Y53709819D01*
X80313257Y53709819D01*
X80408495Y53662200D01*
X80456114Y53614580D01*
X80503733Y53519342D01*
X80503733Y53376485D01*
X80456114Y53281247D01*
X80408495Y53233628D01*
X80313257Y53186009D01*
X79932304Y53186009D01*
X81360876Y53709819D02*
X81170400Y53709819D01*
X81075161Y53662200D01*
X81027542Y53614580D01*
X80932304Y53471723D01*
X80884685Y53281247D01*
X80884685Y52900295D01*
X80932304Y52805057D01*
X80979923Y52757438D01*
X81075161Y52709819D01*
X81265638Y52709819D01*
X81360876Y52757438D01*
X81408495Y52805057D01*
X81456114Y52900295D01*
X81456114Y53138390D01*
X81408495Y53233628D01*
X81360876Y53281247D01*
X81265638Y53328866D01*
X81075161Y53328866D01*
X80979923Y53281247D01*
X80932304Y53233628D01*
X80884685Y53138390D01*
X75398333Y32237419D02*
X75065000Y32713609D01*
X74826904Y32237419D02*
X74826904Y33237419D01*
X75207857Y33237419D01*
X75303095Y33189800D01*
X75350714Y33142180D01*
X75398333Y33046942D01*
X75398333Y32904085D01*
X75350714Y32808847D01*
X75303095Y32761228D01*
X75207857Y32713609D01*
X74826904Y32713609D01*
X75731666Y33237419D02*
X76398333Y33237419D01*
X75969761Y32237419D01*
X23023533Y18830119D02*
X22690200Y19306309D01*
X22452104Y18830119D02*
X22452104Y19830119D01*
X22833057Y19830119D01*
X22928295Y19782500D01*
X22975914Y19734880D01*
X23023533Y19639642D01*
X23023533Y19496785D01*
X22975914Y19401547D01*
X22928295Y19353928D01*
X22833057Y19306309D01*
X22452104Y19306309D01*
X23594961Y19401547D02*
X23499723Y19449166D01*
X23452104Y19496785D01*
X23404485Y19592023D01*
X23404485Y19639642D01*
X23452104Y19734880D01*
X23499723Y19782500D01*
X23594961Y19830119D01*
X23785438Y19830119D01*
X23880676Y19782500D01*
X23928295Y19734880D01*
X23975914Y19639642D01*
X23975914Y19592023D01*
X23928295Y19496785D01*
X23880676Y19449166D01*
X23785438Y19401547D01*
X23594961Y19401547D01*
X23499723Y19353928D01*
X23452104Y19306309D01*
X23404485Y19211071D01*
X23404485Y19020595D01*
X23452104Y18925357D01*
X23499723Y18877738D01*
X23594961Y18830119D01*
X23785438Y18830119D01*
X23880676Y18877738D01*
X23928295Y18925357D01*
X23975914Y19020595D01*
X23975914Y19211071D01*
X23928295Y19306309D01*
X23880676Y19353928D01*
X23785438Y19401547D01*
X22985433Y23080719D02*
X22652100Y23556909D01*
X22414004Y23080719D02*
X22414004Y24080719D01*
X22794957Y24080719D01*
X22890195Y24033100D01*
X22937814Y23985480D01*
X22985433Y23890242D01*
X22985433Y23747385D01*
X22937814Y23652147D01*
X22890195Y23604528D01*
X22794957Y23556909D01*
X22414004Y23556909D01*
X23461623Y23080719D02*
X23652100Y23080719D01*
X23747338Y23128338D01*
X23794957Y23175957D01*
X23890195Y23318814D01*
X23937814Y23509290D01*
X23937814Y23890242D01*
X23890195Y23985480D01*
X23842576Y24033100D01*
X23747338Y24080719D01*
X23556861Y24080719D01*
X23461623Y24033100D01*
X23414004Y23985480D01*
X23366385Y23890242D01*
X23366385Y23652147D01*
X23414004Y23556909D01*
X23461623Y23509290D01*
X23556861Y23461671D01*
X23747338Y23461671D01*
X23842576Y23509290D01*
X23890195Y23556909D01*
X23937814Y23652147D01*
X26712942Y39717719D02*
X26379609Y40193909D01*
X26141514Y39717719D02*
X26141514Y40717719D01*
X26522466Y40717719D01*
X26617704Y40670100D01*
X26665323Y40622480D01*
X26712942Y40527242D01*
X26712942Y40384385D01*
X26665323Y40289147D01*
X26617704Y40241528D01*
X26522466Y40193909D01*
X26141514Y40193909D01*
X27665323Y39717719D02*
X27093895Y39717719D01*
X27379609Y39717719D02*
X27379609Y40717719D01*
X27284371Y40574861D01*
X27189133Y40479623D01*
X27093895Y40432004D01*
X28284371Y40717719D02*
X28379609Y40717719D01*
X28474847Y40670100D01*
X28522466Y40622480D01*
X28570085Y40527242D01*
X28617704Y40336766D01*
X28617704Y40098671D01*
X28570085Y39908195D01*
X28522466Y39812957D01*
X28474847Y39765338D01*
X28379609Y39717719D01*
X28284371Y39717719D01*
X28189133Y39765338D01*
X28141514Y39812957D01*
X28093895Y39908195D01*
X28046276Y40098671D01*
X28046276Y40336766D01*
X28093895Y40527242D01*
X28141514Y40622480D01*
X28189133Y40670100D01*
X28284371Y40717719D01*
X26458942Y37241219D02*
X26125609Y37717409D01*
X25887514Y37241219D02*
X25887514Y38241219D01*
X26268466Y38241219D01*
X26363704Y38193600D01*
X26411323Y38145980D01*
X26458942Y38050742D01*
X26458942Y37907885D01*
X26411323Y37812647D01*
X26363704Y37765028D01*
X26268466Y37717409D01*
X25887514Y37717409D01*
X27411323Y37241219D02*
X26839895Y37241219D01*
X27125609Y37241219D02*
X27125609Y38241219D01*
X27030371Y38098361D01*
X26935133Y38003123D01*
X26839895Y37955504D01*
X28363704Y37241219D02*
X27792276Y37241219D01*
X28077990Y37241219D02*
X28077990Y38241219D01*
X27982752Y38098361D01*
X27887514Y38003123D01*
X27792276Y37955504D01*
X3802142Y38409619D02*
X3468809Y38885809D01*
X3230714Y38409619D02*
X3230714Y39409619D01*
X3611666Y39409619D01*
X3706904Y39362000D01*
X3754523Y39314380D01*
X3802142Y39219142D01*
X3802142Y39076285D01*
X3754523Y38981047D01*
X3706904Y38933428D01*
X3611666Y38885809D01*
X3230714Y38885809D01*
X4754523Y38409619D02*
X4183095Y38409619D01*
X4468809Y38409619D02*
X4468809Y39409619D01*
X4373571Y39266761D01*
X4278333Y39171523D01*
X4183095Y39123904D01*
X5135476Y39314380D02*
X5183095Y39362000D01*
X5278333Y39409619D01*
X5516428Y39409619D01*
X5611666Y39362000D01*
X5659285Y39314380D01*
X5706904Y39219142D01*
X5706904Y39123904D01*
X5659285Y38981047D01*
X5087857Y38409619D01*
X5706904Y38409619D01*
X3598942Y35590219D02*
X3265609Y36066409D01*
X3027514Y35590219D02*
X3027514Y36590219D01*
X3408466Y36590219D01*
X3503704Y36542600D01*
X3551323Y36494980D01*
X3598942Y36399742D01*
X3598942Y36256885D01*
X3551323Y36161647D01*
X3503704Y36114028D01*
X3408466Y36066409D01*
X3027514Y36066409D01*
X4551323Y35590219D02*
X3979895Y35590219D01*
X4265609Y35590219D02*
X4265609Y36590219D01*
X4170371Y36447361D01*
X4075133Y36352123D01*
X3979895Y36304504D01*
X4884657Y36590219D02*
X5503704Y36590219D01*
X5170371Y36209266D01*
X5313228Y36209266D01*
X5408466Y36161647D01*
X5456085Y36114028D01*
X5503704Y36018790D01*
X5503704Y35780695D01*
X5456085Y35685457D01*
X5408466Y35637838D01*
X5313228Y35590219D01*
X5027514Y35590219D01*
X4932276Y35637838D01*
X4884657Y35685457D01*
X74841266Y64974838D02*
X74984123Y64927219D01*
X75222219Y64927219D01*
X75317457Y64974838D01*
X75365076Y65022457D01*
X75412695Y65117695D01*
X75412695Y65212933D01*
X75365076Y65308171D01*
X75317457Y65355790D01*
X75222219Y65403409D01*
X75031742Y65451028D01*
X74936504Y65498647D01*
X74888885Y65546266D01*
X74841266Y65641504D01*
X74841266Y65736742D01*
X74888885Y65831980D01*
X74936504Y65879600D01*
X75031742Y65927219D01*
X75269838Y65927219D01*
X75412695Y65879600D01*
X75746028Y65927219D02*
X75984123Y64927219D01*
X76174600Y65641504D01*
X76365076Y64927219D01*
X76603171Y65927219D01*
X77507933Y64927219D02*
X76936504Y64927219D01*
X77222219Y64927219D02*
X77222219Y65927219D01*
X77126980Y65784361D01*
X77031742Y65689123D01*
X76936504Y65641504D01*
X83858266Y64974838D02*
X84001123Y64927219D01*
X84239219Y64927219D01*
X84334457Y64974838D01*
X84382076Y65022457D01*
X84429695Y65117695D01*
X84429695Y65212933D01*
X84382076Y65308171D01*
X84334457Y65355790D01*
X84239219Y65403409D01*
X84048742Y65451028D01*
X83953504Y65498647D01*
X83905885Y65546266D01*
X83858266Y65641504D01*
X83858266Y65736742D01*
X83905885Y65831980D01*
X83953504Y65879600D01*
X84048742Y65927219D01*
X84286838Y65927219D01*
X84429695Y65879600D01*
X84763028Y65927219D02*
X85001123Y64927219D01*
X85191600Y65641504D01*
X85382076Y64927219D01*
X85620171Y65927219D01*
X85953504Y65831980D02*
X86001123Y65879600D01*
X86096361Y65927219D01*
X86334457Y65927219D01*
X86429695Y65879600D01*
X86477314Y65831980D01*
X86524933Y65736742D01*
X86524933Y65641504D01*
X86477314Y65498647D01*
X85905885Y64927219D01*
X86524933Y64927219D01*
X85745415Y24276299D02*
X85745415Y23466775D01*
X85793034Y23371537D01*
X85840653Y23323918D01*
X85935891Y23276299D01*
X86126367Y23276299D01*
X86221605Y23323918D01*
X86269224Y23371537D01*
X86316843Y23466775D01*
X86316843Y24276299D01*
X87316843Y23276299D02*
X86745415Y23276299D01*
X87031129Y23276299D02*
X87031129Y24276299D01*
X86935891Y24133441D01*
X86840653Y24038203D01*
X86745415Y23990584D01*
X89763695Y50306219D02*
X89763695Y49496695D01*
X89811314Y49401457D01*
X89858933Y49353838D01*
X89954171Y49306219D01*
X90144647Y49306219D01*
X90239885Y49353838D01*
X90287504Y49401457D01*
X90335123Y49496695D01*
X90335123Y50306219D01*
X90763695Y50210980D02*
X90811314Y50258600D01*
X90906552Y50306219D01*
X91144647Y50306219D01*
X91239885Y50258600D01*
X91287504Y50210980D01*
X91335123Y50115742D01*
X91335123Y50020504D01*
X91287504Y49877647D01*
X90716076Y49306219D01*
X91335123Y49306219D01*
X62407895Y36615619D02*
X62407895Y35806095D01*
X62455514Y35710857D01*
X62503133Y35663238D01*
X62598371Y35615619D01*
X62788847Y35615619D01*
X62884085Y35663238D01*
X62931704Y35710857D01*
X62979323Y35806095D01*
X62979323Y36615619D01*
X63931704Y36615619D02*
X63455514Y36615619D01*
X63407895Y36139428D01*
X63455514Y36187047D01*
X63550752Y36234666D01*
X63788847Y36234666D01*
X63884085Y36187047D01*
X63931704Y36139428D01*
X63979323Y36044190D01*
X63979323Y35806095D01*
X63931704Y35710857D01*
X63884085Y35663238D01*
X63788847Y35615619D01*
X63550752Y35615619D01*
X63455514Y35663238D01*
X63407895Y35710857D01*
X70688295Y37072819D02*
X70688295Y36263295D01*
X70735914Y36168057D01*
X70783533Y36120438D01*
X70878771Y36072819D01*
X71069247Y36072819D01*
X71164485Y36120438D01*
X71212104Y36168057D01*
X71259723Y36263295D01*
X71259723Y37072819D01*
X72164485Y37072819D02*
X71974009Y37072819D01*
X71878771Y37025200D01*
X71831152Y36977580D01*
X71735914Y36834723D01*
X71688295Y36644247D01*
X71688295Y36263295D01*
X71735914Y36168057D01*
X71783533Y36120438D01*
X71878771Y36072819D01*
X72069247Y36072819D01*
X72164485Y36120438D01*
X72212104Y36168057D01*
X72259723Y36263295D01*
X72259723Y36501390D01*
X72212104Y36596628D01*
X72164485Y36644247D01*
X72069247Y36691866D01*
X71878771Y36691866D01*
X71783533Y36644247D01*
X71735914Y36596628D01*
X71688295Y36501390D01*
X19659695Y25490419D02*
X19659695Y24680895D01*
X19707314Y24585657D01*
X19754933Y24538038D01*
X19850171Y24490419D01*
X20040647Y24490419D01*
X20135885Y24538038D01*
X20183504Y24585657D01*
X20231123Y24680895D01*
X20231123Y25490419D01*
X20612076Y25490419D02*
X21278742Y25490419D01*
X20850171Y24490419D01*
X100606266Y49315619D02*
X100606266Y48601333D01*
X100558647Y48458476D01*
X100463409Y48363238D01*
X100320552Y48315619D01*
X100225314Y48315619D01*
X101558647Y49315619D02*
X101082457Y49315619D01*
X101034838Y48839428D01*
X101082457Y48887047D01*
X101177695Y48934666D01*
X101415790Y48934666D01*
X101511028Y48887047D01*
X101558647Y48839428D01*
X101606266Y48744190D01*
X101606266Y48506095D01*
X101558647Y48410857D01*
X101511028Y48363238D01*
X101415790Y48315619D01*
X101177695Y48315619D01*
X101082457Y48363238D01*
X101034838Y48410857D01*
X100657066Y6999219D02*
X100657066Y6284933D01*
X100609447Y6142076D01*
X100514209Y6046838D01*
X100371352Y5999219D01*
X100276114Y5999219D01*
X101561828Y6999219D02*
X101371352Y6999219D01*
X101276114Y6951600D01*
X101228495Y6903980D01*
X101133257Y6761123D01*
X101085638Y6570647D01*
X101085638Y6189695D01*
X101133257Y6094457D01*
X101180876Y6046838D01*
X101276114Y5999219D01*
X101466590Y5999219D01*
X101561828Y6046838D01*
X101609447Y6094457D01*
X101657066Y6189695D01*
X101657066Y6427790D01*
X101609447Y6523028D01*
X101561828Y6570647D01*
X101466590Y6618266D01*
X101276114Y6618266D01*
X101180876Y6570647D01*
X101133257Y6523028D01*
X101085638Y6427790D01*
X18509180Y43519766D02*
X19223466Y43519766D01*
X19366323Y43472147D01*
X19461561Y43376909D01*
X19509180Y43234052D01*
X19509180Y43138814D01*
X18509180Y43900719D02*
X18509180Y44567385D01*
X19509180Y44138814D01*
M02*
