G04 #@! TF.GenerationSoftware,KiCad,Pcbnew,5.1.4-e60b266~84~ubuntu16.04.1*
G04 #@! TF.CreationDate,2019-11-28T16:38:02+01:00*
G04 #@! TF.ProjectId,SRAM_board,5352414d-5f62-46f6-9172-642e6b696361,A*
G04 #@! TF.SameCoordinates,Original*
G04 #@! TF.FileFunction,Soldermask,Bot*
G04 #@! TF.FilePolarity,Negative*
%FSLAX46Y46*%
G04 Gerber Fmt 4.6, Leading zero omitted, Abs format (unit mm)*
G04 Created by KiCad (PCBNEW 5.1.4-e60b266~84~ubuntu16.04.1) date 2019-11-28 16:38:02*
%MOMM*%
%LPD*%
G04 APERTURE LIST*
%ADD10C,0.050000*%
%ADD11C,0.150000*%
G04 APERTURE END LIST*
D10*
X104280000Y66110000D02*
X104280000Y66030000D01*
X104280000Y-3885000D02*
X104280000Y-3800000D01*
X-3720000Y-3800000D02*
X-3720000Y-3885000D01*
X-3720000Y66030000D02*
X-3720000Y66110000D01*
X104280000Y-3800000D02*
X104280000Y66030000D01*
X-3720000Y-3885000D02*
X104280000Y-3885000D01*
X-3720000Y66110000D02*
X104280000Y66110000D01*
X-3720000Y-3800000D02*
X-3720000Y66030000D01*
D11*
G36*
X68870443Y-1645519D02*
G01*
X68936627Y-1652037D01*
X69106466Y-1703557D01*
X69262991Y-1787222D01*
X69298729Y-1816552D01*
X69400186Y-1899814D01*
X69483448Y-2001271D01*
X69512778Y-2037009D01*
X69596443Y-2193534D01*
X69647963Y-2363373D01*
X69665359Y-2540000D01*
X69647963Y-2716627D01*
X69596443Y-2886466D01*
X69512778Y-3042991D01*
X69483448Y-3078729D01*
X69400186Y-3180186D01*
X69298729Y-3263448D01*
X69262991Y-3292778D01*
X69106466Y-3376443D01*
X68936627Y-3427963D01*
X68870443Y-3434481D01*
X68804260Y-3441000D01*
X68715740Y-3441000D01*
X68649557Y-3434481D01*
X68583373Y-3427963D01*
X68413534Y-3376443D01*
X68257009Y-3292778D01*
X68221271Y-3263448D01*
X68119814Y-3180186D01*
X68036552Y-3078729D01*
X68007222Y-3042991D01*
X67923557Y-2886466D01*
X67872037Y-2716627D01*
X67854641Y-2540000D01*
X67872037Y-2363373D01*
X67923557Y-2193534D01*
X68007222Y-2037009D01*
X68036552Y-2001271D01*
X68119814Y-1899814D01*
X68221271Y-1816552D01*
X68257009Y-1787222D01*
X68413534Y-1703557D01*
X68583373Y-1652037D01*
X68649558Y-1645518D01*
X68715740Y-1639000D01*
X68804260Y-1639000D01*
X68870443Y-1645519D01*
X68870443Y-1645519D01*
G37*
G36*
X43470443Y-1645519D02*
G01*
X43536627Y-1652037D01*
X43706466Y-1703557D01*
X43862991Y-1787222D01*
X43898729Y-1816552D01*
X44000186Y-1899814D01*
X44083448Y-2001271D01*
X44112778Y-2037009D01*
X44196443Y-2193534D01*
X44247963Y-2363373D01*
X44265359Y-2540000D01*
X44247963Y-2716627D01*
X44196443Y-2886466D01*
X44112778Y-3042991D01*
X44083448Y-3078729D01*
X44000186Y-3180186D01*
X43898729Y-3263448D01*
X43862991Y-3292778D01*
X43706466Y-3376443D01*
X43536627Y-3427963D01*
X43470443Y-3434481D01*
X43404260Y-3441000D01*
X43315740Y-3441000D01*
X43249557Y-3434481D01*
X43183373Y-3427963D01*
X43013534Y-3376443D01*
X42857009Y-3292778D01*
X42821271Y-3263448D01*
X42719814Y-3180186D01*
X42636552Y-3078729D01*
X42607222Y-3042991D01*
X42523557Y-2886466D01*
X42472037Y-2716627D01*
X42454641Y-2540000D01*
X42472037Y-2363373D01*
X42523557Y-2193534D01*
X42607222Y-2037009D01*
X42636552Y-2001271D01*
X42719814Y-1899814D01*
X42821271Y-1816552D01*
X42857009Y-1787222D01*
X43013534Y-1703557D01*
X43183373Y-1652037D01*
X43249557Y-1645519D01*
X43315740Y-1639000D01*
X43404260Y-1639000D01*
X43470443Y-1645519D01*
X43470443Y-1645519D01*
G37*
G36*
X20610443Y-1645519D02*
G01*
X20676627Y-1652037D01*
X20846466Y-1703557D01*
X21002991Y-1787222D01*
X21038729Y-1816552D01*
X21140186Y-1899814D01*
X21223448Y-2001271D01*
X21252778Y-2037009D01*
X21336443Y-2193534D01*
X21387963Y-2363373D01*
X21405359Y-2540000D01*
X21387963Y-2716627D01*
X21336443Y-2886466D01*
X21252778Y-3042991D01*
X21223448Y-3078729D01*
X21140186Y-3180186D01*
X21038729Y-3263448D01*
X21002991Y-3292778D01*
X20846466Y-3376443D01*
X20676627Y-3427963D01*
X20610443Y-3434481D01*
X20544260Y-3441000D01*
X20455740Y-3441000D01*
X20389557Y-3434481D01*
X20323373Y-3427963D01*
X20153534Y-3376443D01*
X19997009Y-3292778D01*
X19961271Y-3263448D01*
X19859814Y-3180186D01*
X19776552Y-3078729D01*
X19747222Y-3042991D01*
X19663557Y-2886466D01*
X19612037Y-2716627D01*
X19594641Y-2540000D01*
X19612037Y-2363373D01*
X19663557Y-2193534D01*
X19747222Y-2037009D01*
X19776552Y-2001271D01*
X19859814Y-1899814D01*
X19961271Y-1816552D01*
X19997009Y-1787222D01*
X20153534Y-1703557D01*
X20323373Y-1652037D01*
X20389557Y-1645519D01*
X20455740Y-1639000D01*
X20544260Y-1639000D01*
X20610443Y-1645519D01*
X20610443Y-1645519D01*
G37*
G36*
X23150443Y-1645519D02*
G01*
X23216627Y-1652037D01*
X23386466Y-1703557D01*
X23542991Y-1787222D01*
X23578729Y-1816552D01*
X23680186Y-1899814D01*
X23763448Y-2001271D01*
X23792778Y-2037009D01*
X23876443Y-2193534D01*
X23927963Y-2363373D01*
X23945359Y-2540000D01*
X23927963Y-2716627D01*
X23876443Y-2886466D01*
X23792778Y-3042991D01*
X23763448Y-3078729D01*
X23680186Y-3180186D01*
X23578729Y-3263448D01*
X23542991Y-3292778D01*
X23386466Y-3376443D01*
X23216627Y-3427963D01*
X23150443Y-3434481D01*
X23084260Y-3441000D01*
X22995740Y-3441000D01*
X22929557Y-3434481D01*
X22863373Y-3427963D01*
X22693534Y-3376443D01*
X22537009Y-3292778D01*
X22501271Y-3263448D01*
X22399814Y-3180186D01*
X22316552Y-3078729D01*
X22287222Y-3042991D01*
X22203557Y-2886466D01*
X22152037Y-2716627D01*
X22134641Y-2540000D01*
X22152037Y-2363373D01*
X22203557Y-2193534D01*
X22287222Y-2037009D01*
X22316552Y-2001271D01*
X22399814Y-1899814D01*
X22501271Y-1816552D01*
X22537009Y-1787222D01*
X22693534Y-1703557D01*
X22863373Y-1652037D01*
X22929557Y-1645519D01*
X22995740Y-1639000D01*
X23084260Y-1639000D01*
X23150443Y-1645519D01*
X23150443Y-1645519D01*
G37*
G36*
X25690443Y-1645519D02*
G01*
X25756627Y-1652037D01*
X25926466Y-1703557D01*
X26082991Y-1787222D01*
X26118729Y-1816552D01*
X26220186Y-1899814D01*
X26303448Y-2001271D01*
X26332778Y-2037009D01*
X26416443Y-2193534D01*
X26467963Y-2363373D01*
X26485359Y-2540000D01*
X26467963Y-2716627D01*
X26416443Y-2886466D01*
X26332778Y-3042991D01*
X26303448Y-3078729D01*
X26220186Y-3180186D01*
X26118729Y-3263448D01*
X26082991Y-3292778D01*
X25926466Y-3376443D01*
X25756627Y-3427963D01*
X25690443Y-3434481D01*
X25624260Y-3441000D01*
X25535740Y-3441000D01*
X25469557Y-3434481D01*
X25403373Y-3427963D01*
X25233534Y-3376443D01*
X25077009Y-3292778D01*
X25041271Y-3263448D01*
X24939814Y-3180186D01*
X24856552Y-3078729D01*
X24827222Y-3042991D01*
X24743557Y-2886466D01*
X24692037Y-2716627D01*
X24674641Y-2540000D01*
X24692037Y-2363373D01*
X24743557Y-2193534D01*
X24827222Y-2037009D01*
X24856552Y-2001271D01*
X24939814Y-1899814D01*
X25041271Y-1816552D01*
X25077009Y-1787222D01*
X25233534Y-1703557D01*
X25403373Y-1652037D01*
X25469557Y-1645519D01*
X25535740Y-1639000D01*
X25624260Y-1639000D01*
X25690443Y-1645519D01*
X25690443Y-1645519D01*
G37*
G36*
X28230443Y-1645519D02*
G01*
X28296627Y-1652037D01*
X28466466Y-1703557D01*
X28622991Y-1787222D01*
X28658729Y-1816552D01*
X28760186Y-1899814D01*
X28843448Y-2001271D01*
X28872778Y-2037009D01*
X28956443Y-2193534D01*
X29007963Y-2363373D01*
X29025359Y-2540000D01*
X29007963Y-2716627D01*
X28956443Y-2886466D01*
X28872778Y-3042991D01*
X28843448Y-3078729D01*
X28760186Y-3180186D01*
X28658729Y-3263448D01*
X28622991Y-3292778D01*
X28466466Y-3376443D01*
X28296627Y-3427963D01*
X28230443Y-3434481D01*
X28164260Y-3441000D01*
X28075740Y-3441000D01*
X28009557Y-3434481D01*
X27943373Y-3427963D01*
X27773534Y-3376443D01*
X27617009Y-3292778D01*
X27581271Y-3263448D01*
X27479814Y-3180186D01*
X27396552Y-3078729D01*
X27367222Y-3042991D01*
X27283557Y-2886466D01*
X27232037Y-2716627D01*
X27214641Y-2540000D01*
X27232037Y-2363373D01*
X27283557Y-2193534D01*
X27367222Y-2037009D01*
X27396552Y-2001271D01*
X27479814Y-1899814D01*
X27581271Y-1816552D01*
X27617009Y-1787222D01*
X27773534Y-1703557D01*
X27943373Y-1652037D01*
X28009557Y-1645519D01*
X28075740Y-1639000D01*
X28164260Y-1639000D01*
X28230443Y-1645519D01*
X28230443Y-1645519D01*
G37*
G36*
X30770443Y-1645519D02*
G01*
X30836627Y-1652037D01*
X31006466Y-1703557D01*
X31162991Y-1787222D01*
X31198729Y-1816552D01*
X31300186Y-1899814D01*
X31383448Y-2001271D01*
X31412778Y-2037009D01*
X31496443Y-2193534D01*
X31547963Y-2363373D01*
X31565359Y-2540000D01*
X31547963Y-2716627D01*
X31496443Y-2886466D01*
X31412778Y-3042991D01*
X31383448Y-3078729D01*
X31300186Y-3180186D01*
X31198729Y-3263448D01*
X31162991Y-3292778D01*
X31006466Y-3376443D01*
X30836627Y-3427963D01*
X30770443Y-3434481D01*
X30704260Y-3441000D01*
X30615740Y-3441000D01*
X30549557Y-3434481D01*
X30483373Y-3427963D01*
X30313534Y-3376443D01*
X30157009Y-3292778D01*
X30121271Y-3263448D01*
X30019814Y-3180186D01*
X29936552Y-3078729D01*
X29907222Y-3042991D01*
X29823557Y-2886466D01*
X29772037Y-2716627D01*
X29754641Y-2540000D01*
X29772037Y-2363373D01*
X29823557Y-2193534D01*
X29907222Y-2037009D01*
X29936552Y-2001271D01*
X30019814Y-1899814D01*
X30121271Y-1816552D01*
X30157009Y-1787222D01*
X30313534Y-1703557D01*
X30483373Y-1652037D01*
X30549557Y-1645519D01*
X30615740Y-1639000D01*
X30704260Y-1639000D01*
X30770443Y-1645519D01*
X30770443Y-1645519D01*
G37*
G36*
X33310443Y-1645519D02*
G01*
X33376627Y-1652037D01*
X33546466Y-1703557D01*
X33702991Y-1787222D01*
X33738729Y-1816552D01*
X33840186Y-1899814D01*
X33923448Y-2001271D01*
X33952778Y-2037009D01*
X34036443Y-2193534D01*
X34087963Y-2363373D01*
X34105359Y-2540000D01*
X34087963Y-2716627D01*
X34036443Y-2886466D01*
X33952778Y-3042991D01*
X33923448Y-3078729D01*
X33840186Y-3180186D01*
X33738729Y-3263448D01*
X33702991Y-3292778D01*
X33546466Y-3376443D01*
X33376627Y-3427963D01*
X33310443Y-3434481D01*
X33244260Y-3441000D01*
X33155740Y-3441000D01*
X33089557Y-3434481D01*
X33023373Y-3427963D01*
X32853534Y-3376443D01*
X32697009Y-3292778D01*
X32661271Y-3263448D01*
X32559814Y-3180186D01*
X32476552Y-3078729D01*
X32447222Y-3042991D01*
X32363557Y-2886466D01*
X32312037Y-2716627D01*
X32294641Y-2540000D01*
X32312037Y-2363373D01*
X32363557Y-2193534D01*
X32447222Y-2037009D01*
X32476552Y-2001271D01*
X32559814Y-1899814D01*
X32661271Y-1816552D01*
X32697009Y-1787222D01*
X32853534Y-1703557D01*
X33023373Y-1652037D01*
X33089557Y-1645519D01*
X33155740Y-1639000D01*
X33244260Y-1639000D01*
X33310443Y-1645519D01*
X33310443Y-1645519D01*
G37*
G36*
X35850443Y-1645519D02*
G01*
X35916627Y-1652037D01*
X36086466Y-1703557D01*
X36242991Y-1787222D01*
X36278729Y-1816552D01*
X36380186Y-1899814D01*
X36463448Y-2001271D01*
X36492778Y-2037009D01*
X36576443Y-2193534D01*
X36627963Y-2363373D01*
X36645359Y-2540000D01*
X36627963Y-2716627D01*
X36576443Y-2886466D01*
X36492778Y-3042991D01*
X36463448Y-3078729D01*
X36380186Y-3180186D01*
X36278729Y-3263448D01*
X36242991Y-3292778D01*
X36086466Y-3376443D01*
X35916627Y-3427963D01*
X35850443Y-3434481D01*
X35784260Y-3441000D01*
X35695740Y-3441000D01*
X35629557Y-3434481D01*
X35563373Y-3427963D01*
X35393534Y-3376443D01*
X35237009Y-3292778D01*
X35201271Y-3263448D01*
X35099814Y-3180186D01*
X35016552Y-3078729D01*
X34987222Y-3042991D01*
X34903557Y-2886466D01*
X34852037Y-2716627D01*
X34834641Y-2540000D01*
X34852037Y-2363373D01*
X34903557Y-2193534D01*
X34987222Y-2037009D01*
X35016552Y-2001271D01*
X35099814Y-1899814D01*
X35201271Y-1816552D01*
X35237009Y-1787222D01*
X35393534Y-1703557D01*
X35563373Y-1652037D01*
X35629557Y-1645519D01*
X35695740Y-1639000D01*
X35784260Y-1639000D01*
X35850443Y-1645519D01*
X35850443Y-1645519D01*
G37*
G36*
X38390443Y-1645519D02*
G01*
X38456627Y-1652037D01*
X38626466Y-1703557D01*
X38782991Y-1787222D01*
X38818729Y-1816552D01*
X38920186Y-1899814D01*
X39003448Y-2001271D01*
X39032778Y-2037009D01*
X39116443Y-2193534D01*
X39167963Y-2363373D01*
X39185359Y-2540000D01*
X39167963Y-2716627D01*
X39116443Y-2886466D01*
X39032778Y-3042991D01*
X39003448Y-3078729D01*
X38920186Y-3180186D01*
X38818729Y-3263448D01*
X38782991Y-3292778D01*
X38626466Y-3376443D01*
X38456627Y-3427963D01*
X38390443Y-3434481D01*
X38324260Y-3441000D01*
X38235740Y-3441000D01*
X38169557Y-3434481D01*
X38103373Y-3427963D01*
X37933534Y-3376443D01*
X37777009Y-3292778D01*
X37741271Y-3263448D01*
X37639814Y-3180186D01*
X37556552Y-3078729D01*
X37527222Y-3042991D01*
X37443557Y-2886466D01*
X37392037Y-2716627D01*
X37374641Y-2540000D01*
X37392037Y-2363373D01*
X37443557Y-2193534D01*
X37527222Y-2037009D01*
X37556552Y-2001271D01*
X37639814Y-1899814D01*
X37741271Y-1816552D01*
X37777009Y-1787222D01*
X37933534Y-1703557D01*
X38103373Y-1652037D01*
X38169557Y-1645519D01*
X38235740Y-1639000D01*
X38324260Y-1639000D01*
X38390443Y-1645519D01*
X38390443Y-1645519D01*
G37*
G36*
X40930443Y-1645519D02*
G01*
X40996627Y-1652037D01*
X41166466Y-1703557D01*
X41322991Y-1787222D01*
X41358729Y-1816552D01*
X41460186Y-1899814D01*
X41543448Y-2001271D01*
X41572778Y-2037009D01*
X41656443Y-2193534D01*
X41707963Y-2363373D01*
X41725359Y-2540000D01*
X41707963Y-2716627D01*
X41656443Y-2886466D01*
X41572778Y-3042991D01*
X41543448Y-3078729D01*
X41460186Y-3180186D01*
X41358729Y-3263448D01*
X41322991Y-3292778D01*
X41166466Y-3376443D01*
X40996627Y-3427963D01*
X40930443Y-3434481D01*
X40864260Y-3441000D01*
X40775740Y-3441000D01*
X40709557Y-3434481D01*
X40643373Y-3427963D01*
X40473534Y-3376443D01*
X40317009Y-3292778D01*
X40281271Y-3263448D01*
X40179814Y-3180186D01*
X40096552Y-3078729D01*
X40067222Y-3042991D01*
X39983557Y-2886466D01*
X39932037Y-2716627D01*
X39914641Y-2540000D01*
X39932037Y-2363373D01*
X39983557Y-2193534D01*
X40067222Y-2037009D01*
X40096552Y-2001271D01*
X40179814Y-1899814D01*
X40281271Y-1816552D01*
X40317009Y-1787222D01*
X40473534Y-1703557D01*
X40643373Y-1652037D01*
X40709557Y-1645519D01*
X40775740Y-1639000D01*
X40864260Y-1639000D01*
X40930443Y-1645519D01*
X40930443Y-1645519D01*
G37*
G36*
X48550443Y-1645519D02*
G01*
X48616627Y-1652037D01*
X48786466Y-1703557D01*
X48942991Y-1787222D01*
X48978729Y-1816552D01*
X49080186Y-1899814D01*
X49163448Y-2001271D01*
X49192778Y-2037009D01*
X49276443Y-2193534D01*
X49327963Y-2363373D01*
X49345359Y-2540000D01*
X49327963Y-2716627D01*
X49276443Y-2886466D01*
X49192778Y-3042991D01*
X49163448Y-3078729D01*
X49080186Y-3180186D01*
X48978729Y-3263448D01*
X48942991Y-3292778D01*
X48786466Y-3376443D01*
X48616627Y-3427963D01*
X48550443Y-3434481D01*
X48484260Y-3441000D01*
X48395740Y-3441000D01*
X48329557Y-3434481D01*
X48263373Y-3427963D01*
X48093534Y-3376443D01*
X47937009Y-3292778D01*
X47901271Y-3263448D01*
X47799814Y-3180186D01*
X47716552Y-3078729D01*
X47687222Y-3042991D01*
X47603557Y-2886466D01*
X47552037Y-2716627D01*
X47534641Y-2540000D01*
X47552037Y-2363373D01*
X47603557Y-2193534D01*
X47687222Y-2037009D01*
X47716552Y-2001271D01*
X47799814Y-1899814D01*
X47901271Y-1816552D01*
X47937009Y-1787222D01*
X48093534Y-1703557D01*
X48263373Y-1652037D01*
X48329557Y-1645519D01*
X48395740Y-1639000D01*
X48484260Y-1639000D01*
X48550443Y-1645519D01*
X48550443Y-1645519D01*
G37*
G36*
X46010443Y-1645519D02*
G01*
X46076627Y-1652037D01*
X46246466Y-1703557D01*
X46402991Y-1787222D01*
X46438729Y-1816552D01*
X46540186Y-1899814D01*
X46623448Y-2001271D01*
X46652778Y-2037009D01*
X46736443Y-2193534D01*
X46787963Y-2363373D01*
X46805359Y-2540000D01*
X46787963Y-2716627D01*
X46736443Y-2886466D01*
X46652778Y-3042991D01*
X46623448Y-3078729D01*
X46540186Y-3180186D01*
X46438729Y-3263448D01*
X46402991Y-3292778D01*
X46246466Y-3376443D01*
X46076627Y-3427963D01*
X46010443Y-3434481D01*
X45944260Y-3441000D01*
X45855740Y-3441000D01*
X45789557Y-3434481D01*
X45723373Y-3427963D01*
X45553534Y-3376443D01*
X45397009Y-3292778D01*
X45361271Y-3263448D01*
X45259814Y-3180186D01*
X45176552Y-3078729D01*
X45147222Y-3042991D01*
X45063557Y-2886466D01*
X45012037Y-2716627D01*
X44994641Y-2540000D01*
X45012037Y-2363373D01*
X45063557Y-2193534D01*
X45147222Y-2037009D01*
X45176552Y-2001271D01*
X45259814Y-1899814D01*
X45361271Y-1816552D01*
X45397009Y-1787222D01*
X45553534Y-1703557D01*
X45723373Y-1652037D01*
X45789557Y-1645519D01*
X45855740Y-1639000D01*
X45944260Y-1639000D01*
X46010443Y-1645519D01*
X46010443Y-1645519D01*
G37*
G36*
X66330443Y-1645519D02*
G01*
X66396627Y-1652037D01*
X66566466Y-1703557D01*
X66722991Y-1787222D01*
X66758729Y-1816552D01*
X66860186Y-1899814D01*
X66943448Y-2001271D01*
X66972778Y-2037009D01*
X67056443Y-2193534D01*
X67107963Y-2363373D01*
X67125359Y-2540000D01*
X67107963Y-2716627D01*
X67056443Y-2886466D01*
X66972778Y-3042991D01*
X66943448Y-3078729D01*
X66860186Y-3180186D01*
X66758729Y-3263448D01*
X66722991Y-3292778D01*
X66566466Y-3376443D01*
X66396627Y-3427963D01*
X66330443Y-3434481D01*
X66264260Y-3441000D01*
X66175740Y-3441000D01*
X66109557Y-3434481D01*
X66043373Y-3427963D01*
X65873534Y-3376443D01*
X65717009Y-3292778D01*
X65681271Y-3263448D01*
X65579814Y-3180186D01*
X65496552Y-3078729D01*
X65467222Y-3042991D01*
X65383557Y-2886466D01*
X65332037Y-2716627D01*
X65314641Y-2540000D01*
X65332037Y-2363373D01*
X65383557Y-2193534D01*
X65467222Y-2037009D01*
X65496552Y-2001271D01*
X65579814Y-1899814D01*
X65681271Y-1816552D01*
X65717009Y-1787222D01*
X65873534Y-1703557D01*
X66043373Y-1652037D01*
X66109558Y-1645518D01*
X66175740Y-1639000D01*
X66264260Y-1639000D01*
X66330443Y-1645519D01*
X66330443Y-1645519D01*
G37*
G36*
X63790443Y-1645519D02*
G01*
X63856627Y-1652037D01*
X64026466Y-1703557D01*
X64182991Y-1787222D01*
X64218729Y-1816552D01*
X64320186Y-1899814D01*
X64403448Y-2001271D01*
X64432778Y-2037009D01*
X64516443Y-2193534D01*
X64567963Y-2363373D01*
X64585359Y-2540000D01*
X64567963Y-2716627D01*
X64516443Y-2886466D01*
X64432778Y-3042991D01*
X64403448Y-3078729D01*
X64320186Y-3180186D01*
X64218729Y-3263448D01*
X64182991Y-3292778D01*
X64026466Y-3376443D01*
X63856627Y-3427963D01*
X63790443Y-3434481D01*
X63724260Y-3441000D01*
X63635740Y-3441000D01*
X63569557Y-3434481D01*
X63503373Y-3427963D01*
X63333534Y-3376443D01*
X63177009Y-3292778D01*
X63141271Y-3263448D01*
X63039814Y-3180186D01*
X62956552Y-3078729D01*
X62927222Y-3042991D01*
X62843557Y-2886466D01*
X62792037Y-2716627D01*
X62774641Y-2540000D01*
X62792037Y-2363373D01*
X62843557Y-2193534D01*
X62927222Y-2037009D01*
X62956552Y-2001271D01*
X63039814Y-1899814D01*
X63141271Y-1816552D01*
X63177009Y-1787222D01*
X63333534Y-1703557D01*
X63503373Y-1652037D01*
X63569558Y-1645518D01*
X63635740Y-1639000D01*
X63724260Y-1639000D01*
X63790443Y-1645519D01*
X63790443Y-1645519D01*
G37*
G36*
X61250443Y-1645519D02*
G01*
X61316627Y-1652037D01*
X61486466Y-1703557D01*
X61642991Y-1787222D01*
X61678729Y-1816552D01*
X61780186Y-1899814D01*
X61863448Y-2001271D01*
X61892778Y-2037009D01*
X61976443Y-2193534D01*
X62027963Y-2363373D01*
X62045359Y-2540000D01*
X62027963Y-2716627D01*
X61976443Y-2886466D01*
X61892778Y-3042991D01*
X61863448Y-3078729D01*
X61780186Y-3180186D01*
X61678729Y-3263448D01*
X61642991Y-3292778D01*
X61486466Y-3376443D01*
X61316627Y-3427963D01*
X61250443Y-3434481D01*
X61184260Y-3441000D01*
X61095740Y-3441000D01*
X61029557Y-3434481D01*
X60963373Y-3427963D01*
X60793534Y-3376443D01*
X60637009Y-3292778D01*
X60601271Y-3263448D01*
X60499814Y-3180186D01*
X60416552Y-3078729D01*
X60387222Y-3042991D01*
X60303557Y-2886466D01*
X60252037Y-2716627D01*
X60234641Y-2540000D01*
X60252037Y-2363373D01*
X60303557Y-2193534D01*
X60387222Y-2037009D01*
X60416552Y-2001271D01*
X60499814Y-1899814D01*
X60601271Y-1816552D01*
X60637009Y-1787222D01*
X60793534Y-1703557D01*
X60963373Y-1652037D01*
X61029558Y-1645518D01*
X61095740Y-1639000D01*
X61184260Y-1639000D01*
X61250443Y-1645519D01*
X61250443Y-1645519D01*
G37*
G36*
X56170443Y-1645519D02*
G01*
X56236627Y-1652037D01*
X56406466Y-1703557D01*
X56562991Y-1787222D01*
X56598729Y-1816552D01*
X56700186Y-1899814D01*
X56783448Y-2001271D01*
X56812778Y-2037009D01*
X56896443Y-2193534D01*
X56947963Y-2363373D01*
X56965359Y-2540000D01*
X56947963Y-2716627D01*
X56896443Y-2886466D01*
X56812778Y-3042991D01*
X56783448Y-3078729D01*
X56700186Y-3180186D01*
X56598729Y-3263448D01*
X56562991Y-3292778D01*
X56406466Y-3376443D01*
X56236627Y-3427963D01*
X56170443Y-3434481D01*
X56104260Y-3441000D01*
X56015740Y-3441000D01*
X55949557Y-3434481D01*
X55883373Y-3427963D01*
X55713534Y-3376443D01*
X55557009Y-3292778D01*
X55521271Y-3263448D01*
X55419814Y-3180186D01*
X55336552Y-3078729D01*
X55307222Y-3042991D01*
X55223557Y-2886466D01*
X55172037Y-2716627D01*
X55154641Y-2540000D01*
X55172037Y-2363373D01*
X55223557Y-2193534D01*
X55307222Y-2037009D01*
X55336552Y-2001271D01*
X55419814Y-1899814D01*
X55521271Y-1816552D01*
X55557009Y-1787222D01*
X55713534Y-1703557D01*
X55883373Y-1652037D01*
X55949558Y-1645518D01*
X56015740Y-1639000D01*
X56104260Y-1639000D01*
X56170443Y-1645519D01*
X56170443Y-1645519D01*
G37*
G36*
X53630443Y-1645519D02*
G01*
X53696627Y-1652037D01*
X53866466Y-1703557D01*
X54022991Y-1787222D01*
X54058729Y-1816552D01*
X54160186Y-1899814D01*
X54243448Y-2001271D01*
X54272778Y-2037009D01*
X54356443Y-2193534D01*
X54407963Y-2363373D01*
X54425359Y-2540000D01*
X54407963Y-2716627D01*
X54356443Y-2886466D01*
X54272778Y-3042991D01*
X54243448Y-3078729D01*
X54160186Y-3180186D01*
X54058729Y-3263448D01*
X54022991Y-3292778D01*
X53866466Y-3376443D01*
X53696627Y-3427963D01*
X53630443Y-3434481D01*
X53564260Y-3441000D01*
X53475740Y-3441000D01*
X53409557Y-3434481D01*
X53343373Y-3427963D01*
X53173534Y-3376443D01*
X53017009Y-3292778D01*
X52981271Y-3263448D01*
X52879814Y-3180186D01*
X52796552Y-3078729D01*
X52767222Y-3042991D01*
X52683557Y-2886466D01*
X52632037Y-2716627D01*
X52614641Y-2540000D01*
X52632037Y-2363373D01*
X52683557Y-2193534D01*
X52767222Y-2037009D01*
X52796552Y-2001271D01*
X52879814Y-1899814D01*
X52981271Y-1816552D01*
X53017009Y-1787222D01*
X53173534Y-1703557D01*
X53343373Y-1652037D01*
X53409558Y-1645518D01*
X53475740Y-1639000D01*
X53564260Y-1639000D01*
X53630443Y-1645519D01*
X53630443Y-1645519D01*
G37*
G36*
X51090443Y-1645519D02*
G01*
X51156627Y-1652037D01*
X51326466Y-1703557D01*
X51482991Y-1787222D01*
X51518729Y-1816552D01*
X51620186Y-1899814D01*
X51703448Y-2001271D01*
X51732778Y-2037009D01*
X51816443Y-2193534D01*
X51867963Y-2363373D01*
X51885359Y-2540000D01*
X51867963Y-2716627D01*
X51816443Y-2886466D01*
X51732778Y-3042991D01*
X51703448Y-3078729D01*
X51620186Y-3180186D01*
X51518729Y-3263448D01*
X51482991Y-3292778D01*
X51326466Y-3376443D01*
X51156627Y-3427963D01*
X51090443Y-3434481D01*
X51024260Y-3441000D01*
X50935740Y-3441000D01*
X50869557Y-3434481D01*
X50803373Y-3427963D01*
X50633534Y-3376443D01*
X50477009Y-3292778D01*
X50441271Y-3263448D01*
X50339814Y-3180186D01*
X50256552Y-3078729D01*
X50227222Y-3042991D01*
X50143557Y-2886466D01*
X50092037Y-2716627D01*
X50074641Y-2540000D01*
X50092037Y-2363373D01*
X50143557Y-2193534D01*
X50227222Y-2037009D01*
X50256552Y-2001271D01*
X50339814Y-1899814D01*
X50441271Y-1816552D01*
X50477009Y-1787222D01*
X50633534Y-1703557D01*
X50803373Y-1652037D01*
X50869558Y-1645518D01*
X50935740Y-1639000D01*
X51024260Y-1639000D01*
X51090443Y-1645519D01*
X51090443Y-1645519D01*
G37*
G36*
X58710443Y-1645519D02*
G01*
X58776627Y-1652037D01*
X58946466Y-1703557D01*
X59102991Y-1787222D01*
X59138729Y-1816552D01*
X59240186Y-1899814D01*
X59323448Y-2001271D01*
X59352778Y-2037009D01*
X59436443Y-2193534D01*
X59487963Y-2363373D01*
X59505359Y-2540000D01*
X59487963Y-2716627D01*
X59436443Y-2886466D01*
X59352778Y-3042991D01*
X59323448Y-3078729D01*
X59240186Y-3180186D01*
X59138729Y-3263448D01*
X59102991Y-3292778D01*
X58946466Y-3376443D01*
X58776627Y-3427963D01*
X58710443Y-3434481D01*
X58644260Y-3441000D01*
X58555740Y-3441000D01*
X58489557Y-3434481D01*
X58423373Y-3427963D01*
X58253534Y-3376443D01*
X58097009Y-3292778D01*
X58061271Y-3263448D01*
X57959814Y-3180186D01*
X57876552Y-3078729D01*
X57847222Y-3042991D01*
X57763557Y-2886466D01*
X57712037Y-2716627D01*
X57694641Y-2540000D01*
X57712037Y-2363373D01*
X57763557Y-2193534D01*
X57847222Y-2037009D01*
X57876552Y-2001271D01*
X57959814Y-1899814D01*
X58061271Y-1816552D01*
X58097009Y-1787222D01*
X58253534Y-1703557D01*
X58423373Y-1652037D01*
X58489558Y-1645518D01*
X58555740Y-1639000D01*
X58644260Y-1639000D01*
X58710443Y-1645519D01*
X58710443Y-1645519D01*
G37*
G36*
X940988Y3102027D02*
G01*
X1528082Y2858845D01*
X1528084Y2858844D01*
X2056455Y2505798D01*
X2505798Y2056455D01*
X2858844Y1528084D01*
X2858845Y1528082D01*
X3102027Y940988D01*
X3226000Y317735D01*
X3226000Y-317735D01*
X3102027Y-940988D01*
X2858845Y-1528082D01*
X2858844Y-1528084D01*
X2505798Y-2056455D01*
X2056455Y-2505798D01*
X1528084Y-2858844D01*
X1528083Y-2858845D01*
X1528082Y-2858845D01*
X940988Y-3102027D01*
X317735Y-3226000D01*
X-317735Y-3226000D01*
X-940988Y-3102027D01*
X-1528082Y-2858845D01*
X-1528083Y-2858845D01*
X-1528084Y-2858844D01*
X-2056455Y-2505798D01*
X-2505798Y-2056455D01*
X-2858844Y-1528084D01*
X-2858845Y-1528082D01*
X-3102027Y-940988D01*
X-3226000Y-317735D01*
X-3226000Y317735D01*
X-3102027Y940988D01*
X-2858845Y1528082D01*
X-2858844Y1528084D01*
X-2505798Y2056455D01*
X-2056455Y2505798D01*
X-1528084Y2858844D01*
X-1528082Y2858845D01*
X-940988Y3102027D01*
X-317735Y3226000D01*
X317735Y3226000D01*
X940988Y3102027D01*
X940988Y3102027D01*
G37*
G36*
X101380988Y3102027D02*
G01*
X101968082Y2858845D01*
X101968084Y2858844D01*
X102496455Y2505798D01*
X102945798Y2056455D01*
X103298844Y1528084D01*
X103298845Y1528082D01*
X103542027Y940988D01*
X103666000Y317735D01*
X103666000Y-317735D01*
X103542027Y-940988D01*
X103298845Y-1528082D01*
X103298844Y-1528084D01*
X102945798Y-2056455D01*
X102496455Y-2505798D01*
X101968084Y-2858844D01*
X101968083Y-2858845D01*
X101968082Y-2858845D01*
X101380988Y-3102027D01*
X100757735Y-3226000D01*
X100122265Y-3226000D01*
X99499012Y-3102027D01*
X98911918Y-2858845D01*
X98911917Y-2858845D01*
X98911916Y-2858844D01*
X98383545Y-2505798D01*
X97934202Y-2056455D01*
X97581156Y-1528084D01*
X97581155Y-1528082D01*
X97337973Y-940988D01*
X97214000Y-317735D01*
X97214000Y317735D01*
X97337973Y940988D01*
X97581155Y1528082D01*
X97581156Y1528084D01*
X97934202Y2056455D01*
X98383545Y2505798D01*
X98911916Y2858844D01*
X98911918Y2858845D01*
X99499012Y3102027D01*
X100122265Y3226000D01*
X100757735Y3226000D01*
X101380988Y3102027D01*
X101380988Y3102027D01*
G37*
G36*
X46010442Y894482D02*
G01*
X46076627Y887963D01*
X46246466Y836443D01*
X46402991Y752778D01*
X46438729Y723448D01*
X46540186Y640186D01*
X46623448Y538729D01*
X46652778Y502991D01*
X46736443Y346466D01*
X46787963Y176627D01*
X46805359Y0D01*
X46787963Y-176627D01*
X46736443Y-346466D01*
X46652778Y-502991D01*
X46623448Y-538729D01*
X46540186Y-640186D01*
X46438729Y-723448D01*
X46402991Y-752778D01*
X46246466Y-836443D01*
X46076627Y-887963D01*
X46010442Y-894482D01*
X45944260Y-901000D01*
X45855740Y-901000D01*
X45789558Y-894482D01*
X45723373Y-887963D01*
X45553534Y-836443D01*
X45397009Y-752778D01*
X45361271Y-723448D01*
X45259814Y-640186D01*
X45176552Y-538729D01*
X45147222Y-502991D01*
X45063557Y-346466D01*
X45012037Y-176627D01*
X44994641Y0D01*
X45012037Y176627D01*
X45063557Y346466D01*
X45147222Y502991D01*
X45176552Y538729D01*
X45259814Y640186D01*
X45361271Y723448D01*
X45397009Y752778D01*
X45553534Y836443D01*
X45723373Y887963D01*
X45789558Y894482D01*
X45855740Y901000D01*
X45944260Y901000D01*
X46010442Y894482D01*
X46010442Y894482D01*
G37*
G36*
X69661000Y-901000D02*
G01*
X67859000Y-901000D01*
X67859000Y901000D01*
X69661000Y901000D01*
X69661000Y-901000D01*
X69661000Y-901000D01*
G37*
G36*
X20610442Y894482D02*
G01*
X20676627Y887963D01*
X20846466Y836443D01*
X21002991Y752778D01*
X21038729Y723448D01*
X21140186Y640186D01*
X21223448Y538729D01*
X21252778Y502991D01*
X21336443Y346466D01*
X21387963Y176627D01*
X21405359Y0D01*
X21387963Y-176627D01*
X21336443Y-346466D01*
X21252778Y-502991D01*
X21223448Y-538729D01*
X21140186Y-640186D01*
X21038729Y-723448D01*
X21002991Y-752778D01*
X20846466Y-836443D01*
X20676627Y-887963D01*
X20610442Y-894482D01*
X20544260Y-901000D01*
X20455740Y-901000D01*
X20389558Y-894482D01*
X20323373Y-887963D01*
X20153534Y-836443D01*
X19997009Y-752778D01*
X19961271Y-723448D01*
X19859814Y-640186D01*
X19776552Y-538729D01*
X19747222Y-502991D01*
X19663557Y-346466D01*
X19612037Y-176627D01*
X19594641Y0D01*
X19612037Y176627D01*
X19663557Y346466D01*
X19747222Y502991D01*
X19776552Y538729D01*
X19859814Y640186D01*
X19961271Y723448D01*
X19997009Y752778D01*
X20153534Y836443D01*
X20323373Y887963D01*
X20389558Y894482D01*
X20455740Y901000D01*
X20544260Y901000D01*
X20610442Y894482D01*
X20610442Y894482D01*
G37*
G36*
X23150442Y894482D02*
G01*
X23216627Y887963D01*
X23386466Y836443D01*
X23542991Y752778D01*
X23578729Y723448D01*
X23680186Y640186D01*
X23763448Y538729D01*
X23792778Y502991D01*
X23876443Y346466D01*
X23927963Y176627D01*
X23945359Y0D01*
X23927963Y-176627D01*
X23876443Y-346466D01*
X23792778Y-502991D01*
X23763448Y-538729D01*
X23680186Y-640186D01*
X23578729Y-723448D01*
X23542991Y-752778D01*
X23386466Y-836443D01*
X23216627Y-887963D01*
X23150442Y-894482D01*
X23084260Y-901000D01*
X22995740Y-901000D01*
X22929558Y-894482D01*
X22863373Y-887963D01*
X22693534Y-836443D01*
X22537009Y-752778D01*
X22501271Y-723448D01*
X22399814Y-640186D01*
X22316552Y-538729D01*
X22287222Y-502991D01*
X22203557Y-346466D01*
X22152037Y-176627D01*
X22134641Y0D01*
X22152037Y176627D01*
X22203557Y346466D01*
X22287222Y502991D01*
X22316552Y538729D01*
X22399814Y640186D01*
X22501271Y723448D01*
X22537009Y752778D01*
X22693534Y836443D01*
X22863373Y887963D01*
X22929558Y894482D01*
X22995740Y901000D01*
X23084260Y901000D01*
X23150442Y894482D01*
X23150442Y894482D01*
G37*
G36*
X25690442Y894482D02*
G01*
X25756627Y887963D01*
X25926466Y836443D01*
X26082991Y752778D01*
X26118729Y723448D01*
X26220186Y640186D01*
X26303448Y538729D01*
X26332778Y502991D01*
X26416443Y346466D01*
X26467963Y176627D01*
X26485359Y0D01*
X26467963Y-176627D01*
X26416443Y-346466D01*
X26332778Y-502991D01*
X26303448Y-538729D01*
X26220186Y-640186D01*
X26118729Y-723448D01*
X26082991Y-752778D01*
X25926466Y-836443D01*
X25756627Y-887963D01*
X25690442Y-894482D01*
X25624260Y-901000D01*
X25535740Y-901000D01*
X25469558Y-894482D01*
X25403373Y-887963D01*
X25233534Y-836443D01*
X25077009Y-752778D01*
X25041271Y-723448D01*
X24939814Y-640186D01*
X24856552Y-538729D01*
X24827222Y-502991D01*
X24743557Y-346466D01*
X24692037Y-176627D01*
X24674641Y0D01*
X24692037Y176627D01*
X24743557Y346466D01*
X24827222Y502991D01*
X24856552Y538729D01*
X24939814Y640186D01*
X25041271Y723448D01*
X25077009Y752778D01*
X25233534Y836443D01*
X25403373Y887963D01*
X25469558Y894482D01*
X25535740Y901000D01*
X25624260Y901000D01*
X25690442Y894482D01*
X25690442Y894482D01*
G37*
G36*
X28230442Y894482D02*
G01*
X28296627Y887963D01*
X28466466Y836443D01*
X28622991Y752778D01*
X28658729Y723448D01*
X28760186Y640186D01*
X28843448Y538729D01*
X28872778Y502991D01*
X28956443Y346466D01*
X29007963Y176627D01*
X29025359Y0D01*
X29007963Y-176627D01*
X28956443Y-346466D01*
X28872778Y-502991D01*
X28843448Y-538729D01*
X28760186Y-640186D01*
X28658729Y-723448D01*
X28622991Y-752778D01*
X28466466Y-836443D01*
X28296627Y-887963D01*
X28230442Y-894482D01*
X28164260Y-901000D01*
X28075740Y-901000D01*
X28009558Y-894482D01*
X27943373Y-887963D01*
X27773534Y-836443D01*
X27617009Y-752778D01*
X27581271Y-723448D01*
X27479814Y-640186D01*
X27396552Y-538729D01*
X27367222Y-502991D01*
X27283557Y-346466D01*
X27232037Y-176627D01*
X27214641Y0D01*
X27232037Y176627D01*
X27283557Y346466D01*
X27367222Y502991D01*
X27396552Y538729D01*
X27479814Y640186D01*
X27581271Y723448D01*
X27617009Y752778D01*
X27773534Y836443D01*
X27943373Y887963D01*
X28009558Y894482D01*
X28075740Y901000D01*
X28164260Y901000D01*
X28230442Y894482D01*
X28230442Y894482D01*
G37*
G36*
X30770442Y894482D02*
G01*
X30836627Y887963D01*
X31006466Y836443D01*
X31162991Y752778D01*
X31198729Y723448D01*
X31300186Y640186D01*
X31383448Y538729D01*
X31412778Y502991D01*
X31496443Y346466D01*
X31547963Y176627D01*
X31565359Y0D01*
X31547963Y-176627D01*
X31496443Y-346466D01*
X31412778Y-502991D01*
X31383448Y-538729D01*
X31300186Y-640186D01*
X31198729Y-723448D01*
X31162991Y-752778D01*
X31006466Y-836443D01*
X30836627Y-887963D01*
X30770442Y-894482D01*
X30704260Y-901000D01*
X30615740Y-901000D01*
X30549558Y-894482D01*
X30483373Y-887963D01*
X30313534Y-836443D01*
X30157009Y-752778D01*
X30121271Y-723448D01*
X30019814Y-640186D01*
X29936552Y-538729D01*
X29907222Y-502991D01*
X29823557Y-346466D01*
X29772037Y-176627D01*
X29754641Y0D01*
X29772037Y176627D01*
X29823557Y346466D01*
X29907222Y502991D01*
X29936552Y538729D01*
X30019814Y640186D01*
X30121271Y723448D01*
X30157009Y752778D01*
X30313534Y836443D01*
X30483373Y887963D01*
X30549558Y894482D01*
X30615740Y901000D01*
X30704260Y901000D01*
X30770442Y894482D01*
X30770442Y894482D01*
G37*
G36*
X33310442Y894482D02*
G01*
X33376627Y887963D01*
X33546466Y836443D01*
X33702991Y752778D01*
X33738729Y723448D01*
X33840186Y640186D01*
X33923448Y538729D01*
X33952778Y502991D01*
X34036443Y346466D01*
X34087963Y176627D01*
X34105359Y0D01*
X34087963Y-176627D01*
X34036443Y-346466D01*
X33952778Y-502991D01*
X33923448Y-538729D01*
X33840186Y-640186D01*
X33738729Y-723448D01*
X33702991Y-752778D01*
X33546466Y-836443D01*
X33376627Y-887963D01*
X33310442Y-894482D01*
X33244260Y-901000D01*
X33155740Y-901000D01*
X33089558Y-894482D01*
X33023373Y-887963D01*
X32853534Y-836443D01*
X32697009Y-752778D01*
X32661271Y-723448D01*
X32559814Y-640186D01*
X32476552Y-538729D01*
X32447222Y-502991D01*
X32363557Y-346466D01*
X32312037Y-176627D01*
X32294641Y0D01*
X32312037Y176627D01*
X32363557Y346466D01*
X32447222Y502991D01*
X32476552Y538729D01*
X32559814Y640186D01*
X32661271Y723448D01*
X32697009Y752778D01*
X32853534Y836443D01*
X33023373Y887963D01*
X33089558Y894482D01*
X33155740Y901000D01*
X33244260Y901000D01*
X33310442Y894482D01*
X33310442Y894482D01*
G37*
G36*
X35850442Y894482D02*
G01*
X35916627Y887963D01*
X36086466Y836443D01*
X36242991Y752778D01*
X36278729Y723448D01*
X36380186Y640186D01*
X36463448Y538729D01*
X36492778Y502991D01*
X36576443Y346466D01*
X36627963Y176627D01*
X36645359Y0D01*
X36627963Y-176627D01*
X36576443Y-346466D01*
X36492778Y-502991D01*
X36463448Y-538729D01*
X36380186Y-640186D01*
X36278729Y-723448D01*
X36242991Y-752778D01*
X36086466Y-836443D01*
X35916627Y-887963D01*
X35850442Y-894482D01*
X35784260Y-901000D01*
X35695740Y-901000D01*
X35629558Y-894482D01*
X35563373Y-887963D01*
X35393534Y-836443D01*
X35237009Y-752778D01*
X35201271Y-723448D01*
X35099814Y-640186D01*
X35016552Y-538729D01*
X34987222Y-502991D01*
X34903557Y-346466D01*
X34852037Y-176627D01*
X34834641Y0D01*
X34852037Y176627D01*
X34903557Y346466D01*
X34987222Y502991D01*
X35016552Y538729D01*
X35099814Y640186D01*
X35201271Y723448D01*
X35237009Y752778D01*
X35393534Y836443D01*
X35563373Y887963D01*
X35629558Y894482D01*
X35695740Y901000D01*
X35784260Y901000D01*
X35850442Y894482D01*
X35850442Y894482D01*
G37*
G36*
X38390442Y894482D02*
G01*
X38456627Y887963D01*
X38626466Y836443D01*
X38782991Y752778D01*
X38818729Y723448D01*
X38920186Y640186D01*
X39003448Y538729D01*
X39032778Y502991D01*
X39116443Y346466D01*
X39167963Y176627D01*
X39185359Y0D01*
X39167963Y-176627D01*
X39116443Y-346466D01*
X39032778Y-502991D01*
X39003448Y-538729D01*
X38920186Y-640186D01*
X38818729Y-723448D01*
X38782991Y-752778D01*
X38626466Y-836443D01*
X38456627Y-887963D01*
X38390442Y-894482D01*
X38324260Y-901000D01*
X38235740Y-901000D01*
X38169558Y-894482D01*
X38103373Y-887963D01*
X37933534Y-836443D01*
X37777009Y-752778D01*
X37741271Y-723448D01*
X37639814Y-640186D01*
X37556552Y-538729D01*
X37527222Y-502991D01*
X37443557Y-346466D01*
X37392037Y-176627D01*
X37374641Y0D01*
X37392037Y176627D01*
X37443557Y346466D01*
X37527222Y502991D01*
X37556552Y538729D01*
X37639814Y640186D01*
X37741271Y723448D01*
X37777009Y752778D01*
X37933534Y836443D01*
X38103373Y887963D01*
X38169558Y894482D01*
X38235740Y901000D01*
X38324260Y901000D01*
X38390442Y894482D01*
X38390442Y894482D01*
G37*
G36*
X40930442Y894482D02*
G01*
X40996627Y887963D01*
X41166466Y836443D01*
X41322991Y752778D01*
X41358729Y723448D01*
X41460186Y640186D01*
X41543448Y538729D01*
X41572778Y502991D01*
X41656443Y346466D01*
X41707963Y176627D01*
X41725359Y0D01*
X41707963Y-176627D01*
X41656443Y-346466D01*
X41572778Y-502991D01*
X41543448Y-538729D01*
X41460186Y-640186D01*
X41358729Y-723448D01*
X41322991Y-752778D01*
X41166466Y-836443D01*
X40996627Y-887963D01*
X40930442Y-894482D01*
X40864260Y-901000D01*
X40775740Y-901000D01*
X40709558Y-894482D01*
X40643373Y-887963D01*
X40473534Y-836443D01*
X40317009Y-752778D01*
X40281271Y-723448D01*
X40179814Y-640186D01*
X40096552Y-538729D01*
X40067222Y-502991D01*
X39983557Y-346466D01*
X39932037Y-176627D01*
X39914641Y0D01*
X39932037Y176627D01*
X39983557Y346466D01*
X40067222Y502991D01*
X40096552Y538729D01*
X40179814Y640186D01*
X40281271Y723448D01*
X40317009Y752778D01*
X40473534Y836443D01*
X40643373Y887963D01*
X40709558Y894482D01*
X40775740Y901000D01*
X40864260Y901000D01*
X40930442Y894482D01*
X40930442Y894482D01*
G37*
G36*
X66330443Y894481D02*
G01*
X66396627Y887963D01*
X66566466Y836443D01*
X66722991Y752778D01*
X66758729Y723448D01*
X66860186Y640186D01*
X66943448Y538729D01*
X66972778Y502991D01*
X67056443Y346466D01*
X67107963Y176627D01*
X67125359Y0D01*
X67107963Y-176627D01*
X67056443Y-346466D01*
X66972778Y-502991D01*
X66943448Y-538729D01*
X66860186Y-640186D01*
X66758729Y-723448D01*
X66722991Y-752778D01*
X66566466Y-836443D01*
X66396627Y-887963D01*
X66330443Y-894481D01*
X66264260Y-901000D01*
X66175740Y-901000D01*
X66109558Y-894482D01*
X66043373Y-887963D01*
X65873534Y-836443D01*
X65717009Y-752778D01*
X65681271Y-723448D01*
X65579814Y-640186D01*
X65496552Y-538729D01*
X65467222Y-502991D01*
X65383557Y-346466D01*
X65332037Y-176627D01*
X65314641Y0D01*
X65332037Y176627D01*
X65383557Y346466D01*
X65467222Y502991D01*
X65496552Y538729D01*
X65579814Y640186D01*
X65681271Y723448D01*
X65717009Y752778D01*
X65873534Y836443D01*
X66043373Y887963D01*
X66109558Y894482D01*
X66175740Y901000D01*
X66264260Y901000D01*
X66330443Y894481D01*
X66330443Y894481D01*
G37*
G36*
X48550442Y894482D02*
G01*
X48616627Y887963D01*
X48786466Y836443D01*
X48942991Y752778D01*
X48978729Y723448D01*
X49080186Y640186D01*
X49163448Y538729D01*
X49192778Y502991D01*
X49276443Y346466D01*
X49327963Y176627D01*
X49345359Y0D01*
X49327963Y-176627D01*
X49276443Y-346466D01*
X49192778Y-502991D01*
X49163448Y-538729D01*
X49080186Y-640186D01*
X48978729Y-723448D01*
X48942991Y-752778D01*
X48786466Y-836443D01*
X48616627Y-887963D01*
X48550442Y-894482D01*
X48484260Y-901000D01*
X48395740Y-901000D01*
X48329558Y-894482D01*
X48263373Y-887963D01*
X48093534Y-836443D01*
X47937009Y-752778D01*
X47901271Y-723448D01*
X47799814Y-640186D01*
X47716552Y-538729D01*
X47687222Y-502991D01*
X47603557Y-346466D01*
X47552037Y-176627D01*
X47534641Y0D01*
X47552037Y176627D01*
X47603557Y346466D01*
X47687222Y502991D01*
X47716552Y538729D01*
X47799814Y640186D01*
X47901271Y723448D01*
X47937009Y752778D01*
X48093534Y836443D01*
X48263373Y887963D01*
X48329558Y894482D01*
X48395740Y901000D01*
X48484260Y901000D01*
X48550442Y894482D01*
X48550442Y894482D01*
G37*
G36*
X51090442Y894482D02*
G01*
X51156627Y887963D01*
X51326466Y836443D01*
X51482991Y752778D01*
X51518729Y723448D01*
X51620186Y640186D01*
X51703448Y538729D01*
X51732778Y502991D01*
X51816443Y346466D01*
X51867963Y176627D01*
X51885359Y0D01*
X51867963Y-176627D01*
X51816443Y-346466D01*
X51732778Y-502991D01*
X51703448Y-538729D01*
X51620186Y-640186D01*
X51518729Y-723448D01*
X51482991Y-752778D01*
X51326466Y-836443D01*
X51156627Y-887963D01*
X51090442Y-894482D01*
X51024260Y-901000D01*
X50935740Y-901000D01*
X50869558Y-894482D01*
X50803373Y-887963D01*
X50633534Y-836443D01*
X50477009Y-752778D01*
X50441271Y-723448D01*
X50339814Y-640186D01*
X50256552Y-538729D01*
X50227222Y-502991D01*
X50143557Y-346466D01*
X50092037Y-176627D01*
X50074641Y0D01*
X50092037Y176627D01*
X50143557Y346466D01*
X50227222Y502991D01*
X50256552Y538729D01*
X50339814Y640186D01*
X50441271Y723448D01*
X50477009Y752778D01*
X50633534Y836443D01*
X50803373Y887963D01*
X50869558Y894482D01*
X50935740Y901000D01*
X51024260Y901000D01*
X51090442Y894482D01*
X51090442Y894482D01*
G37*
G36*
X53630442Y894482D02*
G01*
X53696627Y887963D01*
X53866466Y836443D01*
X54022991Y752778D01*
X54058729Y723448D01*
X54160186Y640186D01*
X54243448Y538729D01*
X54272778Y502991D01*
X54356443Y346466D01*
X54407963Y176627D01*
X54425359Y0D01*
X54407963Y-176627D01*
X54356443Y-346466D01*
X54272778Y-502991D01*
X54243448Y-538729D01*
X54160186Y-640186D01*
X54058729Y-723448D01*
X54022991Y-752778D01*
X53866466Y-836443D01*
X53696627Y-887963D01*
X53630442Y-894482D01*
X53564260Y-901000D01*
X53475740Y-901000D01*
X53409558Y-894482D01*
X53343373Y-887963D01*
X53173534Y-836443D01*
X53017009Y-752778D01*
X52981271Y-723448D01*
X52879814Y-640186D01*
X52796552Y-538729D01*
X52767222Y-502991D01*
X52683557Y-346466D01*
X52632037Y-176627D01*
X52614641Y0D01*
X52632037Y176627D01*
X52683557Y346466D01*
X52767222Y502991D01*
X52796552Y538729D01*
X52879814Y640186D01*
X52981271Y723448D01*
X53017009Y752778D01*
X53173534Y836443D01*
X53343373Y887963D01*
X53409558Y894482D01*
X53475740Y901000D01*
X53564260Y901000D01*
X53630442Y894482D01*
X53630442Y894482D01*
G37*
G36*
X56170442Y894482D02*
G01*
X56236627Y887963D01*
X56406466Y836443D01*
X56562991Y752778D01*
X56598729Y723448D01*
X56700186Y640186D01*
X56783448Y538729D01*
X56812778Y502991D01*
X56896443Y346466D01*
X56947963Y176627D01*
X56965359Y0D01*
X56947963Y-176627D01*
X56896443Y-346466D01*
X56812778Y-502991D01*
X56783448Y-538729D01*
X56700186Y-640186D01*
X56598729Y-723448D01*
X56562991Y-752778D01*
X56406466Y-836443D01*
X56236627Y-887963D01*
X56170442Y-894482D01*
X56104260Y-901000D01*
X56015740Y-901000D01*
X55949558Y-894482D01*
X55883373Y-887963D01*
X55713534Y-836443D01*
X55557009Y-752778D01*
X55521271Y-723448D01*
X55419814Y-640186D01*
X55336552Y-538729D01*
X55307222Y-502991D01*
X55223557Y-346466D01*
X55172037Y-176627D01*
X55154641Y0D01*
X55172037Y176627D01*
X55223557Y346466D01*
X55307222Y502991D01*
X55336552Y538729D01*
X55419814Y640186D01*
X55521271Y723448D01*
X55557009Y752778D01*
X55713534Y836443D01*
X55883373Y887963D01*
X55949558Y894482D01*
X56015740Y901000D01*
X56104260Y901000D01*
X56170442Y894482D01*
X56170442Y894482D01*
G37*
G36*
X63790443Y894481D02*
G01*
X63856627Y887963D01*
X64026466Y836443D01*
X64182991Y752778D01*
X64218729Y723448D01*
X64320186Y640186D01*
X64403448Y538729D01*
X64432778Y502991D01*
X64516443Y346466D01*
X64567963Y176627D01*
X64585359Y0D01*
X64567963Y-176627D01*
X64516443Y-346466D01*
X64432778Y-502991D01*
X64403448Y-538729D01*
X64320186Y-640186D01*
X64218729Y-723448D01*
X64182991Y-752778D01*
X64026466Y-836443D01*
X63856627Y-887963D01*
X63790443Y-894481D01*
X63724260Y-901000D01*
X63635740Y-901000D01*
X63569558Y-894482D01*
X63503373Y-887963D01*
X63333534Y-836443D01*
X63177009Y-752778D01*
X63141271Y-723448D01*
X63039814Y-640186D01*
X62956552Y-538729D01*
X62927222Y-502991D01*
X62843557Y-346466D01*
X62792037Y-176627D01*
X62774641Y0D01*
X62792037Y176627D01*
X62843557Y346466D01*
X62927222Y502991D01*
X62956552Y538729D01*
X63039814Y640186D01*
X63141271Y723448D01*
X63177009Y752778D01*
X63333534Y836443D01*
X63503373Y887963D01*
X63569558Y894482D01*
X63635740Y901000D01*
X63724260Y901000D01*
X63790443Y894481D01*
X63790443Y894481D01*
G37*
G36*
X58710443Y894481D02*
G01*
X58776627Y887963D01*
X58946466Y836443D01*
X59102991Y752778D01*
X59138729Y723448D01*
X59240186Y640186D01*
X59323448Y538729D01*
X59352778Y502991D01*
X59436443Y346466D01*
X59487963Y176627D01*
X59505359Y0D01*
X59487963Y-176627D01*
X59436443Y-346466D01*
X59352778Y-502991D01*
X59323448Y-538729D01*
X59240186Y-640186D01*
X59138729Y-723448D01*
X59102991Y-752778D01*
X58946466Y-836443D01*
X58776627Y-887963D01*
X58710443Y-894481D01*
X58644260Y-901000D01*
X58555740Y-901000D01*
X58489558Y-894482D01*
X58423373Y-887963D01*
X58253534Y-836443D01*
X58097009Y-752778D01*
X58061271Y-723448D01*
X57959814Y-640186D01*
X57876552Y-538729D01*
X57847222Y-502991D01*
X57763557Y-346466D01*
X57712037Y-176627D01*
X57694641Y0D01*
X57712037Y176627D01*
X57763557Y346466D01*
X57847222Y502991D01*
X57876552Y538729D01*
X57959814Y640186D01*
X58061271Y723448D01*
X58097009Y752778D01*
X58253534Y836443D01*
X58423373Y887963D01*
X58489558Y894482D01*
X58555740Y901000D01*
X58644260Y901000D01*
X58710443Y894481D01*
X58710443Y894481D01*
G37*
G36*
X43470442Y894482D02*
G01*
X43536627Y887963D01*
X43706466Y836443D01*
X43862991Y752778D01*
X43898729Y723448D01*
X44000186Y640186D01*
X44083448Y538729D01*
X44112778Y502991D01*
X44196443Y346466D01*
X44247963Y176627D01*
X44265359Y0D01*
X44247963Y-176627D01*
X44196443Y-346466D01*
X44112778Y-502991D01*
X44083448Y-538729D01*
X44000186Y-640186D01*
X43898729Y-723448D01*
X43862991Y-752778D01*
X43706466Y-836443D01*
X43536627Y-887963D01*
X43470442Y-894482D01*
X43404260Y-901000D01*
X43315740Y-901000D01*
X43249558Y-894482D01*
X43183373Y-887963D01*
X43013534Y-836443D01*
X42857009Y-752778D01*
X42821271Y-723448D01*
X42719814Y-640186D01*
X42636552Y-538729D01*
X42607222Y-502991D01*
X42523557Y-346466D01*
X42472037Y-176627D01*
X42454641Y0D01*
X42472037Y176627D01*
X42523557Y346466D01*
X42607222Y502991D01*
X42636552Y538729D01*
X42719814Y640186D01*
X42821271Y723448D01*
X42857009Y752778D01*
X43013534Y836443D01*
X43183373Y887963D01*
X43249558Y894482D01*
X43315740Y901000D01*
X43404260Y901000D01*
X43470442Y894482D01*
X43470442Y894482D01*
G37*
G36*
X61250443Y894481D02*
G01*
X61316627Y887963D01*
X61486466Y836443D01*
X61642991Y752778D01*
X61678729Y723448D01*
X61780186Y640186D01*
X61863448Y538729D01*
X61892778Y502991D01*
X61976443Y346466D01*
X62027963Y176627D01*
X62045359Y0D01*
X62027963Y-176627D01*
X61976443Y-346466D01*
X61892778Y-502991D01*
X61863448Y-538729D01*
X61780186Y-640186D01*
X61678729Y-723448D01*
X61642991Y-752778D01*
X61486466Y-836443D01*
X61316627Y-887963D01*
X61250443Y-894481D01*
X61184260Y-901000D01*
X61095740Y-901000D01*
X61029558Y-894482D01*
X60963373Y-887963D01*
X60793534Y-836443D01*
X60637009Y-752778D01*
X60601271Y-723448D01*
X60499814Y-640186D01*
X60416552Y-538729D01*
X60387222Y-502991D01*
X60303557Y-346466D01*
X60252037Y-176627D01*
X60234641Y0D01*
X60252037Y176627D01*
X60303557Y346466D01*
X60387222Y502991D01*
X60416552Y538729D01*
X60499814Y640186D01*
X60601271Y723448D01*
X60637009Y752778D01*
X60793534Y836443D01*
X60963373Y887963D01*
X61029558Y894482D01*
X61095740Y901000D01*
X61184260Y901000D01*
X61250443Y894481D01*
X61250443Y894481D01*
G37*
G36*
X75127428Y1848897D02*
G01*
X75282300Y1784747D01*
X75421681Y1691615D01*
X75540215Y1573081D01*
X75633347Y1433700D01*
X75697497Y1278828D01*
X75730200Y1114416D01*
X75730200Y946784D01*
X75697497Y782372D01*
X75633347Y627500D01*
X75540215Y488119D01*
X75421681Y369585D01*
X75282300Y276453D01*
X75127428Y212303D01*
X74963016Y179600D01*
X74795384Y179600D01*
X74630972Y212303D01*
X74476100Y276453D01*
X74336719Y369585D01*
X74218185Y488119D01*
X74125053Y627500D01*
X74060903Y782372D01*
X74028200Y946784D01*
X74028200Y1114416D01*
X74060903Y1278828D01*
X74125053Y1433700D01*
X74218185Y1573081D01*
X74336719Y1691615D01*
X74476100Y1784747D01*
X74630972Y1848897D01*
X74795384Y1881600D01*
X74963016Y1881600D01*
X75127428Y1848897D01*
X75127428Y1848897D01*
G37*
G36*
X75730200Y2679600D02*
G01*
X74028200Y2679600D01*
X74028200Y4381600D01*
X75730200Y4381600D01*
X75730200Y2679600D01*
X75730200Y2679600D01*
G37*
G36*
X31491000Y6089000D02*
G01*
X29689000Y6089000D01*
X29689000Y7891000D01*
X31491000Y7891000D01*
X31491000Y6089000D01*
X31491000Y6089000D01*
G37*
G36*
X33240443Y7884481D02*
G01*
X33306627Y7877963D01*
X33476466Y7826443D01*
X33632991Y7742778D01*
X33668729Y7713448D01*
X33770186Y7630186D01*
X33853448Y7528729D01*
X33882778Y7492991D01*
X33966443Y7336466D01*
X34017963Y7166627D01*
X34035359Y6990000D01*
X34017963Y6813373D01*
X33966443Y6643534D01*
X33882778Y6487009D01*
X33853448Y6451271D01*
X33770186Y6349814D01*
X33668729Y6266552D01*
X33632991Y6237222D01*
X33476466Y6153557D01*
X33306627Y6102037D01*
X33240443Y6095519D01*
X33174260Y6089000D01*
X33085740Y6089000D01*
X33019557Y6095519D01*
X32953373Y6102037D01*
X32783534Y6153557D01*
X32627009Y6237222D01*
X32591271Y6266552D01*
X32489814Y6349814D01*
X32406552Y6451271D01*
X32377222Y6487009D01*
X32293557Y6643534D01*
X32242037Y6813373D01*
X32224641Y6990000D01*
X32242037Y7166627D01*
X32293557Y7336466D01*
X32377222Y7492991D01*
X32406552Y7528729D01*
X32489814Y7630186D01*
X32591271Y7713448D01*
X32627009Y7742778D01*
X32783534Y7826443D01*
X32953373Y7877963D01*
X33019557Y7884481D01*
X33085740Y7891000D01*
X33174260Y7891000D01*
X33240443Y7884481D01*
X33240443Y7884481D01*
G37*
G36*
X35780443Y7884481D02*
G01*
X35846627Y7877963D01*
X36016466Y7826443D01*
X36172991Y7742778D01*
X36208729Y7713448D01*
X36310186Y7630186D01*
X36393448Y7528729D01*
X36422778Y7492991D01*
X36506443Y7336466D01*
X36557963Y7166627D01*
X36575359Y6990000D01*
X36557963Y6813373D01*
X36506443Y6643534D01*
X36422778Y6487009D01*
X36393448Y6451271D01*
X36310186Y6349814D01*
X36208729Y6266552D01*
X36172991Y6237222D01*
X36016466Y6153557D01*
X35846627Y6102037D01*
X35780443Y6095519D01*
X35714260Y6089000D01*
X35625740Y6089000D01*
X35559557Y6095519D01*
X35493373Y6102037D01*
X35323534Y6153557D01*
X35167009Y6237222D01*
X35131271Y6266552D01*
X35029814Y6349814D01*
X34946552Y6451271D01*
X34917222Y6487009D01*
X34833557Y6643534D01*
X34782037Y6813373D01*
X34764641Y6990000D01*
X34782037Y7166627D01*
X34833557Y7336466D01*
X34917222Y7492991D01*
X34946552Y7528729D01*
X35029814Y7630186D01*
X35131271Y7713448D01*
X35167009Y7742778D01*
X35323534Y7826443D01*
X35493373Y7877963D01*
X35559557Y7884481D01*
X35625740Y7891000D01*
X35714260Y7891000D01*
X35780443Y7884481D01*
X35780443Y7884481D01*
G37*
G36*
X38320443Y7884481D02*
G01*
X38386627Y7877963D01*
X38556466Y7826443D01*
X38712991Y7742778D01*
X38748729Y7713448D01*
X38850186Y7630186D01*
X38933448Y7528729D01*
X38962778Y7492991D01*
X39046443Y7336466D01*
X39097963Y7166627D01*
X39115359Y6990000D01*
X39097963Y6813373D01*
X39046443Y6643534D01*
X38962778Y6487009D01*
X38933448Y6451271D01*
X38850186Y6349814D01*
X38748729Y6266552D01*
X38712991Y6237222D01*
X38556466Y6153557D01*
X38386627Y6102037D01*
X38320443Y6095519D01*
X38254260Y6089000D01*
X38165740Y6089000D01*
X38099557Y6095519D01*
X38033373Y6102037D01*
X37863534Y6153557D01*
X37707009Y6237222D01*
X37671271Y6266552D01*
X37569814Y6349814D01*
X37486552Y6451271D01*
X37457222Y6487009D01*
X37373557Y6643534D01*
X37322037Y6813373D01*
X37304641Y6990000D01*
X37322037Y7166627D01*
X37373557Y7336466D01*
X37457222Y7492991D01*
X37486552Y7528729D01*
X37569814Y7630186D01*
X37671271Y7713448D01*
X37707009Y7742778D01*
X37863534Y7826443D01*
X38033373Y7877963D01*
X38099557Y7884481D01*
X38165740Y7891000D01*
X38254260Y7891000D01*
X38320443Y7884481D01*
X38320443Y7884481D01*
G37*
G36*
X40860443Y7884481D02*
G01*
X40926627Y7877963D01*
X41096466Y7826443D01*
X41252991Y7742778D01*
X41288729Y7713448D01*
X41390186Y7630186D01*
X41473448Y7528729D01*
X41502778Y7492991D01*
X41586443Y7336466D01*
X41637963Y7166627D01*
X41655359Y6990000D01*
X41637963Y6813373D01*
X41586443Y6643534D01*
X41502778Y6487009D01*
X41473448Y6451271D01*
X41390186Y6349814D01*
X41288729Y6266552D01*
X41252991Y6237222D01*
X41096466Y6153557D01*
X40926627Y6102037D01*
X40860443Y6095519D01*
X40794260Y6089000D01*
X40705740Y6089000D01*
X40639557Y6095519D01*
X40573373Y6102037D01*
X40403534Y6153557D01*
X40247009Y6237222D01*
X40211271Y6266552D01*
X40109814Y6349814D01*
X40026552Y6451271D01*
X39997222Y6487009D01*
X39913557Y6643534D01*
X39862037Y6813373D01*
X39844641Y6990000D01*
X39862037Y7166627D01*
X39913557Y7336466D01*
X39997222Y7492991D01*
X40026552Y7528729D01*
X40109814Y7630186D01*
X40211271Y7713448D01*
X40247009Y7742778D01*
X40403534Y7826443D01*
X40573373Y7877963D01*
X40639557Y7884481D01*
X40705740Y7891000D01*
X40794260Y7891000D01*
X40860443Y7884481D01*
X40860443Y7884481D01*
G37*
G36*
X43400443Y7884481D02*
G01*
X43466627Y7877963D01*
X43636466Y7826443D01*
X43792991Y7742778D01*
X43828729Y7713448D01*
X43930186Y7630186D01*
X44013448Y7528729D01*
X44042778Y7492991D01*
X44126443Y7336466D01*
X44177963Y7166627D01*
X44195359Y6990000D01*
X44177963Y6813373D01*
X44126443Y6643534D01*
X44042778Y6487009D01*
X44013448Y6451271D01*
X43930186Y6349814D01*
X43828729Y6266552D01*
X43792991Y6237222D01*
X43636466Y6153557D01*
X43466627Y6102037D01*
X43400443Y6095519D01*
X43334260Y6089000D01*
X43245740Y6089000D01*
X43179557Y6095519D01*
X43113373Y6102037D01*
X42943534Y6153557D01*
X42787009Y6237222D01*
X42751271Y6266552D01*
X42649814Y6349814D01*
X42566552Y6451271D01*
X42537222Y6487009D01*
X42453557Y6643534D01*
X42402037Y6813373D01*
X42384641Y6990000D01*
X42402037Y7166627D01*
X42453557Y7336466D01*
X42537222Y7492991D01*
X42566552Y7528729D01*
X42649814Y7630186D01*
X42751271Y7713448D01*
X42787009Y7742778D01*
X42943534Y7826443D01*
X43113373Y7877963D01*
X43179557Y7884481D01*
X43245740Y7891000D01*
X43334260Y7891000D01*
X43400443Y7884481D01*
X43400443Y7884481D01*
G37*
G36*
X45940443Y7884481D02*
G01*
X46006627Y7877963D01*
X46176466Y7826443D01*
X46332991Y7742778D01*
X46368729Y7713448D01*
X46470186Y7630186D01*
X46553448Y7528729D01*
X46582778Y7492991D01*
X46666443Y7336466D01*
X46717963Y7166627D01*
X46735359Y6990000D01*
X46717963Y6813373D01*
X46666443Y6643534D01*
X46582778Y6487009D01*
X46553448Y6451271D01*
X46470186Y6349814D01*
X46368729Y6266552D01*
X46332991Y6237222D01*
X46176466Y6153557D01*
X46006627Y6102037D01*
X45940443Y6095519D01*
X45874260Y6089000D01*
X45785740Y6089000D01*
X45719557Y6095519D01*
X45653373Y6102037D01*
X45483534Y6153557D01*
X45327009Y6237222D01*
X45291271Y6266552D01*
X45189814Y6349814D01*
X45106552Y6451271D01*
X45077222Y6487009D01*
X44993557Y6643534D01*
X44942037Y6813373D01*
X44924641Y6990000D01*
X44942037Y7166627D01*
X44993557Y7336466D01*
X45077222Y7492991D01*
X45106552Y7528729D01*
X45189814Y7630186D01*
X45291271Y7713448D01*
X45327009Y7742778D01*
X45483534Y7826443D01*
X45653373Y7877963D01*
X45719557Y7884481D01*
X45785740Y7891000D01*
X45874260Y7891000D01*
X45940443Y7884481D01*
X45940443Y7884481D01*
G37*
G36*
X48480443Y7884481D02*
G01*
X48546627Y7877963D01*
X48716466Y7826443D01*
X48872991Y7742778D01*
X48908729Y7713448D01*
X49010186Y7630186D01*
X49093448Y7528729D01*
X49122778Y7492991D01*
X49206443Y7336466D01*
X49257963Y7166627D01*
X49275359Y6990000D01*
X49257963Y6813373D01*
X49206443Y6643534D01*
X49122778Y6487009D01*
X49093448Y6451271D01*
X49010186Y6349814D01*
X48908729Y6266552D01*
X48872991Y6237222D01*
X48716466Y6153557D01*
X48546627Y6102037D01*
X48480443Y6095519D01*
X48414260Y6089000D01*
X48325740Y6089000D01*
X48259557Y6095519D01*
X48193373Y6102037D01*
X48023534Y6153557D01*
X47867009Y6237222D01*
X47831271Y6266552D01*
X47729814Y6349814D01*
X47646552Y6451271D01*
X47617222Y6487009D01*
X47533557Y6643534D01*
X47482037Y6813373D01*
X47464641Y6990000D01*
X47482037Y7166627D01*
X47533557Y7336466D01*
X47617222Y7492991D01*
X47646552Y7528729D01*
X47729814Y7630186D01*
X47831271Y7713448D01*
X47867009Y7742778D01*
X48023534Y7826443D01*
X48193373Y7877963D01*
X48259557Y7884481D01*
X48325740Y7891000D01*
X48414260Y7891000D01*
X48480443Y7884481D01*
X48480443Y7884481D01*
G37*
G36*
X66260443Y7884481D02*
G01*
X66326627Y7877963D01*
X66496466Y7826443D01*
X66652991Y7742778D01*
X66688729Y7713448D01*
X66790186Y7630186D01*
X66873448Y7528729D01*
X66902778Y7492991D01*
X66986443Y7336466D01*
X67037963Y7166627D01*
X67055359Y6990000D01*
X67037963Y6813373D01*
X66986443Y6643534D01*
X66902778Y6487009D01*
X66873448Y6451271D01*
X66790186Y6349814D01*
X66688729Y6266552D01*
X66652991Y6237222D01*
X66496466Y6153557D01*
X66326627Y6102037D01*
X66260443Y6095519D01*
X66194260Y6089000D01*
X66105740Y6089000D01*
X66039557Y6095519D01*
X65973373Y6102037D01*
X65803534Y6153557D01*
X65647009Y6237222D01*
X65611271Y6266552D01*
X65509814Y6349814D01*
X65426552Y6451271D01*
X65397222Y6487009D01*
X65313557Y6643534D01*
X65262037Y6813373D01*
X65244641Y6990000D01*
X65262037Y7166627D01*
X65313557Y7336466D01*
X65397222Y7492991D01*
X65426552Y7528729D01*
X65509814Y7630186D01*
X65611271Y7713448D01*
X65647009Y7742778D01*
X65803534Y7826443D01*
X65973373Y7877963D01*
X66039557Y7884481D01*
X66105740Y7891000D01*
X66194260Y7891000D01*
X66260443Y7884481D01*
X66260443Y7884481D01*
G37*
G36*
X63720443Y7884481D02*
G01*
X63786627Y7877963D01*
X63956466Y7826443D01*
X64112991Y7742778D01*
X64148729Y7713448D01*
X64250186Y7630186D01*
X64333448Y7528729D01*
X64362778Y7492991D01*
X64446443Y7336466D01*
X64497963Y7166627D01*
X64515359Y6990000D01*
X64497963Y6813373D01*
X64446443Y6643534D01*
X64362778Y6487009D01*
X64333448Y6451271D01*
X64250186Y6349814D01*
X64148729Y6266552D01*
X64112991Y6237222D01*
X63956466Y6153557D01*
X63786627Y6102037D01*
X63720443Y6095519D01*
X63654260Y6089000D01*
X63565740Y6089000D01*
X63499557Y6095519D01*
X63433373Y6102037D01*
X63263534Y6153557D01*
X63107009Y6237222D01*
X63071271Y6266552D01*
X62969814Y6349814D01*
X62886552Y6451271D01*
X62857222Y6487009D01*
X62773557Y6643534D01*
X62722037Y6813373D01*
X62704641Y6990000D01*
X62722037Y7166627D01*
X62773557Y7336466D01*
X62857222Y7492991D01*
X62886552Y7528729D01*
X62969814Y7630186D01*
X63071271Y7713448D01*
X63107009Y7742778D01*
X63263534Y7826443D01*
X63433373Y7877963D01*
X63499557Y7884481D01*
X63565740Y7891000D01*
X63654260Y7891000D01*
X63720443Y7884481D01*
X63720443Y7884481D01*
G37*
G36*
X61180443Y7884481D02*
G01*
X61246627Y7877963D01*
X61416466Y7826443D01*
X61572991Y7742778D01*
X61608729Y7713448D01*
X61710186Y7630186D01*
X61793448Y7528729D01*
X61822778Y7492991D01*
X61906443Y7336466D01*
X61957963Y7166627D01*
X61975359Y6990000D01*
X61957963Y6813373D01*
X61906443Y6643534D01*
X61822778Y6487009D01*
X61793448Y6451271D01*
X61710186Y6349814D01*
X61608729Y6266552D01*
X61572991Y6237222D01*
X61416466Y6153557D01*
X61246627Y6102037D01*
X61180443Y6095519D01*
X61114260Y6089000D01*
X61025740Y6089000D01*
X60959557Y6095519D01*
X60893373Y6102037D01*
X60723534Y6153557D01*
X60567009Y6237222D01*
X60531271Y6266552D01*
X60429814Y6349814D01*
X60346552Y6451271D01*
X60317222Y6487009D01*
X60233557Y6643534D01*
X60182037Y6813373D01*
X60164641Y6990000D01*
X60182037Y7166627D01*
X60233557Y7336466D01*
X60317222Y7492991D01*
X60346552Y7528729D01*
X60429814Y7630186D01*
X60531271Y7713448D01*
X60567009Y7742778D01*
X60723534Y7826443D01*
X60893373Y7877963D01*
X60959557Y7884481D01*
X61025740Y7891000D01*
X61114260Y7891000D01*
X61180443Y7884481D01*
X61180443Y7884481D01*
G37*
G36*
X54351000Y6089000D02*
G01*
X52549000Y6089000D01*
X52549000Y7891000D01*
X54351000Y7891000D01*
X54351000Y6089000D01*
X54351000Y6089000D01*
G37*
G36*
X56100443Y7884481D02*
G01*
X56166627Y7877963D01*
X56336466Y7826443D01*
X56492991Y7742778D01*
X56528729Y7713448D01*
X56630186Y7630186D01*
X56713448Y7528729D01*
X56742778Y7492991D01*
X56826443Y7336466D01*
X56877963Y7166627D01*
X56895359Y6990000D01*
X56877963Y6813373D01*
X56826443Y6643534D01*
X56742778Y6487009D01*
X56713448Y6451271D01*
X56630186Y6349814D01*
X56528729Y6266552D01*
X56492991Y6237222D01*
X56336466Y6153557D01*
X56166627Y6102037D01*
X56100443Y6095519D01*
X56034260Y6089000D01*
X55945740Y6089000D01*
X55879557Y6095519D01*
X55813373Y6102037D01*
X55643534Y6153557D01*
X55487009Y6237222D01*
X55451271Y6266552D01*
X55349814Y6349814D01*
X55266552Y6451271D01*
X55237222Y6487009D01*
X55153557Y6643534D01*
X55102037Y6813373D01*
X55084641Y6990000D01*
X55102037Y7166627D01*
X55153557Y7336466D01*
X55237222Y7492991D01*
X55266552Y7528729D01*
X55349814Y7630186D01*
X55451271Y7713448D01*
X55487009Y7742778D01*
X55643534Y7826443D01*
X55813373Y7877963D01*
X55879557Y7884481D01*
X55945740Y7891000D01*
X56034260Y7891000D01*
X56100443Y7884481D01*
X56100443Y7884481D01*
G37*
G36*
X58640443Y7884481D02*
G01*
X58706627Y7877963D01*
X58876466Y7826443D01*
X59032991Y7742778D01*
X59068729Y7713448D01*
X59170186Y7630186D01*
X59253448Y7528729D01*
X59282778Y7492991D01*
X59366443Y7336466D01*
X59417963Y7166627D01*
X59435359Y6990000D01*
X59417963Y6813373D01*
X59366443Y6643534D01*
X59282778Y6487009D01*
X59253448Y6451271D01*
X59170186Y6349814D01*
X59068729Y6266552D01*
X59032991Y6237222D01*
X58876466Y6153557D01*
X58706627Y6102037D01*
X58640443Y6095519D01*
X58574260Y6089000D01*
X58485740Y6089000D01*
X58419557Y6095519D01*
X58353373Y6102037D01*
X58183534Y6153557D01*
X58027009Y6237222D01*
X57991271Y6266552D01*
X57889814Y6349814D01*
X57806552Y6451271D01*
X57777222Y6487009D01*
X57693557Y6643534D01*
X57642037Y6813373D01*
X57624641Y6990000D01*
X57642037Y7166627D01*
X57693557Y7336466D01*
X57777222Y7492991D01*
X57806552Y7528729D01*
X57889814Y7630186D01*
X57991271Y7713448D01*
X58027009Y7742778D01*
X58183534Y7826443D01*
X58353373Y7877963D01*
X58419557Y7884481D01*
X58485740Y7891000D01*
X58574260Y7891000D01*
X58640443Y7884481D01*
X58640443Y7884481D01*
G37*
G36*
X101231581Y10271632D02*
G01*
X101413751Y10196174D01*
X101577700Y10086627D01*
X101717127Y9947200D01*
X101826674Y9783251D01*
X101902132Y9601081D01*
X101940600Y9407690D01*
X101940600Y9210510D01*
X101902132Y9017119D01*
X101826674Y8834949D01*
X101717127Y8671000D01*
X101577700Y8531573D01*
X101413751Y8422026D01*
X101231581Y8346568D01*
X101038191Y8308100D01*
X100841009Y8308100D01*
X100744315Y8327334D01*
X100647619Y8346568D01*
X100465449Y8422026D01*
X100301500Y8531573D01*
X100162073Y8671000D01*
X100052526Y8834949D01*
X99977068Y9017119D01*
X99938600Y9210510D01*
X99938600Y9407690D01*
X99977068Y9601081D01*
X100052526Y9783251D01*
X100162073Y9947200D01*
X100301500Y10086627D01*
X100465449Y10196174D01*
X100647619Y10271632D01*
X100841009Y10310100D01*
X101038191Y10310100D01*
X101231581Y10271632D01*
X101231581Y10271632D01*
G37*
G36*
X101231581Y12811632D02*
G01*
X101413751Y12736174D01*
X101577700Y12626627D01*
X101717127Y12487200D01*
X101826674Y12323251D01*
X101902132Y12141081D01*
X101940600Y11947690D01*
X101940600Y11750510D01*
X101902132Y11557119D01*
X101826674Y11374949D01*
X101717127Y11211000D01*
X101577700Y11071573D01*
X101413751Y10962026D01*
X101231581Y10886568D01*
X101134885Y10867334D01*
X101038191Y10848100D01*
X100841009Y10848100D01*
X100647619Y10886568D01*
X100465449Y10962026D01*
X100301500Y11071573D01*
X100162073Y11211000D01*
X100052526Y11374949D01*
X99977068Y11557119D01*
X99938600Y11750510D01*
X99938600Y11947690D01*
X99977068Y12141081D01*
X100052526Y12323251D01*
X100162073Y12487200D01*
X100301500Y12626627D01*
X100465449Y12736174D01*
X100647619Y12811632D01*
X100744315Y12830866D01*
X100841009Y12850100D01*
X101038191Y12850100D01*
X101231581Y12811632D01*
X101231581Y12811632D01*
G37*
G36*
X101231581Y15351632D02*
G01*
X101413751Y15276174D01*
X101577700Y15166627D01*
X101717127Y15027200D01*
X101826674Y14863251D01*
X101902132Y14681081D01*
X101940600Y14487690D01*
X101940600Y14290510D01*
X101902132Y14097119D01*
X101826674Y13914949D01*
X101717127Y13751000D01*
X101577700Y13611573D01*
X101413751Y13502026D01*
X101231581Y13426568D01*
X101134885Y13407334D01*
X101038191Y13388100D01*
X100841009Y13388100D01*
X100744315Y13407334D01*
X100647619Y13426568D01*
X100465449Y13502026D01*
X100301500Y13611573D01*
X100162073Y13751000D01*
X100052526Y13914949D01*
X99977068Y14097119D01*
X99938600Y14290510D01*
X99938600Y14487690D01*
X99977068Y14681081D01*
X100052526Y14863251D01*
X100162073Y15027200D01*
X100301500Y15166627D01*
X100465449Y15276174D01*
X100647619Y15351632D01*
X100841009Y15390100D01*
X101038191Y15390100D01*
X101231581Y15351632D01*
X101231581Y15351632D01*
G37*
G36*
X72403908Y16749177D02*
G01*
X72558780Y16685027D01*
X72698161Y16591895D01*
X72816695Y16473361D01*
X72909827Y16333980D01*
X72973977Y16179108D01*
X73006680Y16014696D01*
X73006680Y15847064D01*
X72973977Y15682652D01*
X72909827Y15527780D01*
X72816695Y15388399D01*
X72698161Y15269865D01*
X72558780Y15176733D01*
X72403908Y15112583D01*
X72239496Y15079880D01*
X72071864Y15079880D01*
X71907452Y15112583D01*
X71752580Y15176733D01*
X71613199Y15269865D01*
X71494665Y15388399D01*
X71401533Y15527780D01*
X71337383Y15682652D01*
X71304680Y15847064D01*
X71304680Y16014696D01*
X71337383Y16179108D01*
X71401533Y16333980D01*
X71494665Y16473361D01*
X71613199Y16591895D01*
X71752580Y16685027D01*
X71907452Y16749177D01*
X72071864Y16781880D01*
X72239496Y16781880D01*
X72403908Y16749177D01*
X72403908Y16749177D01*
G37*
G36*
X75506680Y15079880D02*
G01*
X73804680Y15079880D01*
X73804680Y16781880D01*
X75506680Y16781880D01*
X75506680Y15079880D01*
X75506680Y15079880D01*
G37*
G36*
X82867600Y15166240D02*
G01*
X81165600Y15166240D01*
X81165600Y16868240D01*
X82867600Y16868240D01*
X82867600Y15166240D01*
X82867600Y15166240D01*
G37*
G36*
X79764828Y16835537D02*
G01*
X79919700Y16771387D01*
X80059081Y16678255D01*
X80177615Y16559721D01*
X80270747Y16420340D01*
X80334897Y16265468D01*
X80367600Y16101056D01*
X80367600Y15933424D01*
X80334897Y15769012D01*
X80270747Y15614140D01*
X80177615Y15474759D01*
X80059081Y15356225D01*
X79919700Y15263093D01*
X79764828Y15198943D01*
X79600416Y15166240D01*
X79432784Y15166240D01*
X79268372Y15198943D01*
X79113500Y15263093D01*
X78974119Y15356225D01*
X78855585Y15474759D01*
X78762453Y15614140D01*
X78698303Y15769012D01*
X78665600Y15933424D01*
X78665600Y16101056D01*
X78698303Y16265468D01*
X78762453Y16420340D01*
X78855585Y16559721D01*
X78974119Y16678255D01*
X79113500Y16771387D01*
X79268372Y16835537D01*
X79432784Y16868240D01*
X79600416Y16868240D01*
X79764828Y16835537D01*
X79764828Y16835537D01*
G37*
G36*
X101134885Y17910866D02*
G01*
X101231581Y17891632D01*
X101413751Y17816174D01*
X101577700Y17706627D01*
X101717127Y17567200D01*
X101826674Y17403251D01*
X101902132Y17221081D01*
X101940600Y17027690D01*
X101940600Y16830510D01*
X101902132Y16637119D01*
X101826674Y16454949D01*
X101717127Y16291000D01*
X101577700Y16151573D01*
X101413751Y16042026D01*
X101231581Y15966568D01*
X101134885Y15947334D01*
X101038191Y15928100D01*
X100841009Y15928100D01*
X100744315Y15947334D01*
X100647619Y15966568D01*
X100465449Y16042026D01*
X100301500Y16151573D01*
X100162073Y16291000D01*
X100052526Y16454949D01*
X99977068Y16637119D01*
X99938600Y16830510D01*
X99938600Y17027690D01*
X99977068Y17221081D01*
X100052526Y17403251D01*
X100162073Y17567200D01*
X100301500Y17706627D01*
X100465449Y17816174D01*
X100647619Y17891632D01*
X100744315Y17910866D01*
X100841009Y17930100D01*
X101038191Y17930100D01*
X101134885Y17910866D01*
X101134885Y17910866D01*
G37*
G36*
X101231581Y20431632D02*
G01*
X101413751Y20356174D01*
X101577700Y20246627D01*
X101717127Y20107200D01*
X101826674Y19943251D01*
X101902132Y19761081D01*
X101940600Y19567690D01*
X101940600Y19370510D01*
X101902132Y19177119D01*
X101826674Y18994949D01*
X101717127Y18831000D01*
X101577700Y18691573D01*
X101413751Y18582026D01*
X101231581Y18506568D01*
X101038191Y18468100D01*
X100841009Y18468100D01*
X100647619Y18506568D01*
X100465449Y18582026D01*
X100301500Y18691573D01*
X100162073Y18831000D01*
X100052526Y18994949D01*
X99977068Y19177119D01*
X99938600Y19370510D01*
X99938600Y19567690D01*
X99977068Y19761081D01*
X100052526Y19943251D01*
X100162073Y20107200D01*
X100301500Y20246627D01*
X100465449Y20356174D01*
X100647619Y20431632D01*
X100841009Y20470100D01*
X101038191Y20470100D01*
X101231581Y20431632D01*
X101231581Y20431632D01*
G37*
G36*
X101134885Y22990866D02*
G01*
X101231581Y22971632D01*
X101413751Y22896174D01*
X101577700Y22786627D01*
X101717127Y22647200D01*
X101826674Y22483251D01*
X101902132Y22301081D01*
X101940600Y22107690D01*
X101940600Y21910510D01*
X101902132Y21717119D01*
X101826674Y21534949D01*
X101717127Y21371000D01*
X101577700Y21231573D01*
X101413751Y21122026D01*
X101231581Y21046568D01*
X101134885Y21027334D01*
X101038191Y21008100D01*
X100841009Y21008100D01*
X100647619Y21046568D01*
X100465449Y21122026D01*
X100301500Y21231573D01*
X100162073Y21371000D01*
X100052526Y21534949D01*
X99977068Y21717119D01*
X99938600Y21910510D01*
X99938600Y22107690D01*
X99977068Y22301081D01*
X100052526Y22483251D01*
X100162073Y22647200D01*
X100301500Y22786627D01*
X100465449Y22896174D01*
X100647619Y22971632D01*
X100744315Y22990866D01*
X100841009Y23010100D01*
X101038191Y23010100D01*
X101134885Y22990866D01*
X101134885Y22990866D01*
G37*
G36*
X101122986Y26231733D02*
G01*
X101231581Y26210132D01*
X101413751Y26134674D01*
X101577700Y26025127D01*
X101717127Y25885700D01*
X101826674Y25721751D01*
X101902132Y25539581D01*
X101921366Y25442886D01*
X101935981Y25369414D01*
X101940600Y25346190D01*
X101940600Y25149010D01*
X101902132Y24955619D01*
X101826674Y24773449D01*
X101717127Y24609500D01*
X101577700Y24470073D01*
X101413751Y24360526D01*
X101231581Y24285068D01*
X101038191Y24246600D01*
X100841009Y24246600D01*
X100744315Y24265834D01*
X100647619Y24285068D01*
X100465449Y24360526D01*
X100301500Y24470073D01*
X100162073Y24609500D01*
X100052526Y24773449D01*
X99977068Y24955619D01*
X99938600Y25149010D01*
X99938600Y25346190D01*
X99943220Y25369414D01*
X99957834Y25442886D01*
X99977068Y25539581D01*
X100052526Y25721751D01*
X100162073Y25885700D01*
X100301500Y26025127D01*
X100465449Y26134674D01*
X100647619Y26210132D01*
X100756214Y26231733D01*
X100841009Y26248600D01*
X101038191Y26248600D01*
X101122986Y26231733D01*
X101122986Y26231733D01*
G37*
G36*
X72297242Y26904082D02*
G01*
X72363427Y26897563D01*
X72533266Y26846043D01*
X72689791Y26762378D01*
X72725529Y26733048D01*
X72826986Y26649786D01*
X72907152Y26552102D01*
X72939578Y26512591D01*
X73023243Y26356066D01*
X73074763Y26186227D01*
X73092159Y26009600D01*
X73074763Y25832973D01*
X73023243Y25663134D01*
X72939578Y25506609D01*
X72910248Y25470871D01*
X72826986Y25369414D01*
X72725529Y25286152D01*
X72689791Y25256822D01*
X72533266Y25173157D01*
X72363427Y25121637D01*
X72297242Y25115118D01*
X72231060Y25108600D01*
X72142540Y25108600D01*
X72076358Y25115118D01*
X72010173Y25121637D01*
X71840334Y25173157D01*
X71683809Y25256822D01*
X71648071Y25286152D01*
X71546614Y25369414D01*
X71463352Y25470871D01*
X71434022Y25506609D01*
X71350357Y25663134D01*
X71298837Y25832973D01*
X71281441Y26009600D01*
X71298837Y26186227D01*
X71350357Y26356066D01*
X71434022Y26512591D01*
X71466448Y26552102D01*
X71546614Y26649786D01*
X71648071Y26733048D01*
X71683809Y26762378D01*
X71840334Y26846043D01*
X72010173Y26897563D01*
X72076358Y26904082D01*
X72142540Y26910600D01*
X72231060Y26910600D01*
X72297242Y26904082D01*
X72297242Y26904082D01*
G37*
G36*
X76745400Y25108600D02*
G01*
X74943400Y25108600D01*
X74943400Y26910600D01*
X76745400Y26910600D01*
X76745400Y25108600D01*
X76745400Y25108600D01*
G37*
G36*
X69757242Y26904082D02*
G01*
X69823427Y26897563D01*
X69993266Y26846043D01*
X70149791Y26762378D01*
X70185529Y26733048D01*
X70286986Y26649786D01*
X70367152Y26552102D01*
X70399578Y26512591D01*
X70483243Y26356066D01*
X70534763Y26186227D01*
X70552159Y26009600D01*
X70534763Y25832973D01*
X70483243Y25663134D01*
X70399578Y25506609D01*
X70370248Y25470871D01*
X70286986Y25369414D01*
X70185529Y25286152D01*
X70149791Y25256822D01*
X69993266Y25173157D01*
X69823427Y25121637D01*
X69757242Y25115118D01*
X69691060Y25108600D01*
X69602540Y25108600D01*
X69536358Y25115118D01*
X69470173Y25121637D01*
X69300334Y25173157D01*
X69143809Y25256822D01*
X69108071Y25286152D01*
X69006614Y25369414D01*
X68923352Y25470871D01*
X68894022Y25506609D01*
X68810357Y25663134D01*
X68758837Y25832973D01*
X68741441Y26009600D01*
X68758837Y26186227D01*
X68810357Y26356066D01*
X68894022Y26512591D01*
X68926448Y26552102D01*
X69006614Y26649786D01*
X69108071Y26733048D01*
X69143809Y26762378D01*
X69300334Y26846043D01*
X69470173Y26897563D01*
X69536358Y26904082D01*
X69602540Y26910600D01*
X69691060Y26910600D01*
X69757242Y26904082D01*
X69757242Y26904082D01*
G37*
G36*
X67217242Y26904082D02*
G01*
X67283427Y26897563D01*
X67453266Y26846043D01*
X67609791Y26762378D01*
X67645529Y26733048D01*
X67746986Y26649786D01*
X67827152Y26552102D01*
X67859578Y26512591D01*
X67943243Y26356066D01*
X67994763Y26186227D01*
X68012159Y26009600D01*
X67994763Y25832973D01*
X67943243Y25663134D01*
X67859578Y25506609D01*
X67830248Y25470871D01*
X67746986Y25369414D01*
X67645529Y25286152D01*
X67609791Y25256822D01*
X67453266Y25173157D01*
X67283427Y25121637D01*
X67217242Y25115118D01*
X67151060Y25108600D01*
X67062540Y25108600D01*
X66996358Y25115118D01*
X66930173Y25121637D01*
X66760334Y25173157D01*
X66603809Y25256822D01*
X66568071Y25286152D01*
X66466614Y25369414D01*
X66383352Y25470871D01*
X66354022Y25506609D01*
X66270357Y25663134D01*
X66218837Y25832973D01*
X66201441Y26009600D01*
X66218837Y26186227D01*
X66270357Y26356066D01*
X66354022Y26512591D01*
X66386448Y26552102D01*
X66466614Y26649786D01*
X66568071Y26733048D01*
X66603809Y26762378D01*
X66760334Y26846043D01*
X66930173Y26897563D01*
X66996358Y26904082D01*
X67062540Y26910600D01*
X67151060Y26910600D01*
X67217242Y26904082D01*
X67217242Y26904082D01*
G37*
G36*
X65467800Y25108600D02*
G01*
X63665800Y25108600D01*
X63665800Y26910600D01*
X65467800Y26910600D01*
X65467800Y25108600D01*
X65467800Y25108600D01*
G37*
G36*
X-1837787Y26627271D02*
G01*
X-1743348Y26598623D01*
X-1656313Y26552102D01*
X-1580025Y26489495D01*
X-1517418Y26413207D01*
X-1470897Y26326172D01*
X-1442249Y26231733D01*
X-1432576Y26133520D01*
X-1442249Y26035307D01*
X-1470897Y25940868D01*
X-1517418Y25853833D01*
X-1580025Y25777545D01*
X-1656313Y25714938D01*
X-1743348Y25668417D01*
X-1837787Y25639769D01*
X-1911388Y25632520D01*
X-2660612Y25632520D01*
X-2734213Y25639769D01*
X-2828652Y25668417D01*
X-2915687Y25714938D01*
X-2991975Y25777545D01*
X-3054582Y25853833D01*
X-3101103Y25940868D01*
X-3129751Y26035307D01*
X-3139424Y26133520D01*
X-3129751Y26231733D01*
X-3101103Y26326172D01*
X-3054582Y26413207D01*
X-2991975Y26489495D01*
X-2915687Y26552102D01*
X-2828652Y26598623D01*
X-2734213Y26627271D01*
X-2660612Y26634520D01*
X-1911388Y26634520D01*
X-1837787Y26627271D01*
X-1837787Y26627271D01*
G37*
G36*
X101231581Y28750132D02*
G01*
X101413751Y28674674D01*
X101577700Y28565127D01*
X101717127Y28425700D01*
X101826674Y28261751D01*
X101902132Y28079581D01*
X101940600Y27886190D01*
X101940600Y27689010D01*
X101902132Y27495619D01*
X101826674Y27313449D01*
X101717127Y27149500D01*
X101577700Y27010073D01*
X101413751Y26900526D01*
X101231581Y26825068D01*
X101134885Y26805834D01*
X101038191Y26786600D01*
X100841009Y26786600D01*
X100744315Y26805834D01*
X100647619Y26825068D01*
X100465449Y26900526D01*
X100301500Y27010073D01*
X100162073Y27149500D01*
X100052526Y27313449D01*
X99977068Y27495619D01*
X99938600Y27689010D01*
X99938600Y27886190D01*
X99977068Y28079581D01*
X100052526Y28261751D01*
X100162073Y28425700D01*
X100301500Y28565127D01*
X100465449Y28674674D01*
X100647619Y28750132D01*
X100841009Y28788600D01*
X101038191Y28788600D01*
X101231581Y28750132D01*
X101231581Y28750132D01*
G37*
G36*
X101231581Y31290132D02*
G01*
X101413751Y31214674D01*
X101577700Y31105127D01*
X101717127Y30965700D01*
X101826674Y30801751D01*
X101902132Y30619581D01*
X101940600Y30426190D01*
X101940600Y30229010D01*
X101902132Y30035619D01*
X101826674Y29853449D01*
X101717127Y29689500D01*
X101577700Y29550073D01*
X101413751Y29440526D01*
X101231581Y29365068D01*
X101038191Y29326600D01*
X100841009Y29326600D01*
X100647619Y29365068D01*
X100465449Y29440526D01*
X100301500Y29550073D01*
X100162073Y29689500D01*
X100052526Y29853449D01*
X99977068Y30035619D01*
X99938600Y30229010D01*
X99938600Y30426190D01*
X99977068Y30619581D01*
X100052526Y30801751D01*
X100162073Y30965700D01*
X100301500Y31105127D01*
X100465449Y31214674D01*
X100647619Y31290132D01*
X100841009Y31328600D01*
X101038191Y31328600D01*
X101231581Y31290132D01*
X101231581Y31290132D01*
G37*
G36*
X101231581Y33830132D02*
G01*
X101413751Y33754674D01*
X101577700Y33645127D01*
X101717127Y33505700D01*
X101826674Y33341751D01*
X101902132Y33159581D01*
X101940600Y32966190D01*
X101940600Y32769010D01*
X101902132Y32575619D01*
X101826674Y32393449D01*
X101717127Y32229500D01*
X101577700Y32090073D01*
X101413751Y31980526D01*
X101231581Y31905068D01*
X101038191Y31866600D01*
X100841009Y31866600D01*
X100647619Y31905068D01*
X100465449Y31980526D01*
X100301500Y32090073D01*
X100162073Y32229500D01*
X100052526Y32393449D01*
X99977068Y32575619D01*
X99938600Y32769010D01*
X99938600Y32966190D01*
X99977068Y33159581D01*
X100052526Y33341751D01*
X100162073Y33505700D01*
X100301500Y33645127D01*
X100465449Y33754674D01*
X100647619Y33830132D01*
X100841009Y33868600D01*
X101038191Y33868600D01*
X101231581Y33830132D01*
X101231581Y33830132D01*
G37*
G36*
X-1837787Y33227271D02*
G01*
X-1743348Y33198623D01*
X-1656313Y33152102D01*
X-1580025Y33089495D01*
X-1517418Y33013207D01*
X-1470897Y32926172D01*
X-1442249Y32831733D01*
X-1432576Y32733520D01*
X-1442249Y32635307D01*
X-1470897Y32540868D01*
X-1517418Y32453833D01*
X-1580025Y32377545D01*
X-1656313Y32314938D01*
X-1743348Y32268417D01*
X-1837787Y32239769D01*
X-1911388Y32232520D01*
X-2660612Y32232520D01*
X-2734213Y32239769D01*
X-2828652Y32268417D01*
X-2915687Y32314938D01*
X-2991975Y32377545D01*
X-3054582Y32453833D01*
X-3101103Y32540868D01*
X-3129751Y32635307D01*
X-3139424Y32733520D01*
X-3129751Y32831733D01*
X-3101103Y32926172D01*
X-3054582Y33013207D01*
X-2991975Y33089495D01*
X-2915687Y33152102D01*
X-2828652Y33198623D01*
X-2734213Y33227271D01*
X-2660612Y33234520D01*
X-1911388Y33234520D01*
X-1837787Y33227271D01*
X-1837787Y33227271D01*
G37*
G36*
X101134885Y36389366D02*
G01*
X101231581Y36370132D01*
X101413751Y36294674D01*
X101577700Y36185127D01*
X101717127Y36045700D01*
X101826674Y35881751D01*
X101902132Y35699581D01*
X101940600Y35506190D01*
X101940600Y35309010D01*
X101902132Y35115619D01*
X101826674Y34933449D01*
X101717127Y34769500D01*
X101577700Y34630073D01*
X101413751Y34520526D01*
X101231581Y34445068D01*
X101134885Y34425834D01*
X101038191Y34406600D01*
X100841009Y34406600D01*
X100647619Y34445068D01*
X100465449Y34520526D01*
X100301500Y34630073D01*
X100162073Y34769500D01*
X100052526Y34933449D01*
X99977068Y35115619D01*
X99938600Y35309010D01*
X99938600Y35506190D01*
X99977068Y35699581D01*
X100052526Y35881751D01*
X100162073Y36045700D01*
X100301500Y36185127D01*
X100465449Y36294674D01*
X100647619Y36370132D01*
X100744315Y36389366D01*
X100841009Y36408600D01*
X101038191Y36408600D01*
X101134885Y36389366D01*
X101134885Y36389366D01*
G37*
G36*
X101231581Y38910132D02*
G01*
X101413751Y38834674D01*
X101577700Y38725127D01*
X101717127Y38585700D01*
X101826674Y38421751D01*
X101902132Y38239581D01*
X101940600Y38046190D01*
X101940600Y37849010D01*
X101902132Y37655619D01*
X101826674Y37473449D01*
X101717127Y37309500D01*
X101577700Y37170073D01*
X101413751Y37060526D01*
X101231581Y36985068D01*
X101134885Y36965834D01*
X101038191Y36946600D01*
X100841009Y36946600D01*
X100744315Y36965834D01*
X100647619Y36985068D01*
X100465449Y37060526D01*
X100301500Y37170073D01*
X100162073Y37309500D01*
X100052526Y37473449D01*
X99977068Y37655619D01*
X99938600Y37849010D01*
X99938600Y38046190D01*
X99977068Y38239581D01*
X100052526Y38421751D01*
X100162073Y38585700D01*
X100301500Y38725127D01*
X100465449Y38834674D01*
X100647619Y38910132D01*
X100841009Y38948600D01*
X101038191Y38948600D01*
X101231581Y38910132D01*
X101231581Y38910132D01*
G37*
G36*
X101134885Y41469366D02*
G01*
X101231581Y41450132D01*
X101413751Y41374674D01*
X101577700Y41265127D01*
X101717127Y41125700D01*
X101826674Y40961751D01*
X101902132Y40779581D01*
X101940600Y40586190D01*
X101940600Y40389010D01*
X101902132Y40195619D01*
X101826674Y40013449D01*
X101717127Y39849500D01*
X101577700Y39710073D01*
X101413751Y39600526D01*
X101231581Y39525068D01*
X101038191Y39486600D01*
X100841009Y39486600D01*
X100744315Y39505834D01*
X100647619Y39525068D01*
X100465449Y39600526D01*
X100301500Y39710073D01*
X100162073Y39849500D01*
X100052526Y40013449D01*
X99977068Y40195619D01*
X99938600Y40389010D01*
X99938600Y40586190D01*
X99977068Y40779581D01*
X100052526Y40961751D01*
X100162073Y41125700D01*
X100301500Y41265127D01*
X100465449Y41374674D01*
X100647619Y41450132D01*
X100841009Y41488600D01*
X101038191Y41488600D01*
X101134885Y41469366D01*
X101134885Y41469366D01*
G37*
G36*
X101231581Y43990132D02*
G01*
X101413751Y43914674D01*
X101577700Y43805127D01*
X101717127Y43665700D01*
X101826674Y43501751D01*
X101902132Y43319581D01*
X101940600Y43126190D01*
X101940600Y42929010D01*
X101902132Y42735619D01*
X101826674Y42553449D01*
X101717127Y42389500D01*
X101577700Y42250073D01*
X101413751Y42140526D01*
X101231581Y42065068D01*
X101134885Y42045834D01*
X101038191Y42026600D01*
X100841009Y42026600D01*
X100744315Y42045834D01*
X100647619Y42065068D01*
X100465449Y42140526D01*
X100301500Y42250073D01*
X100162073Y42389500D01*
X100052526Y42553449D01*
X99977068Y42735619D01*
X99938600Y42929010D01*
X99938600Y43126190D01*
X99977068Y43319581D01*
X100052526Y43501751D01*
X100162073Y43665700D01*
X100301500Y43805127D01*
X100465449Y43914674D01*
X100647619Y43990132D01*
X100841009Y44028600D01*
X101038191Y44028600D01*
X101231581Y43990132D01*
X101231581Y43990132D01*
G37*
G36*
X24037243Y44747581D02*
G01*
X24103427Y44741063D01*
X24273266Y44689543D01*
X24273268Y44689542D01*
X24290137Y44680525D01*
X24429791Y44605878D01*
X24465529Y44576548D01*
X24566986Y44493286D01*
X24650248Y44391829D01*
X24679578Y44356091D01*
X24763243Y44199566D01*
X24814763Y44029727D01*
X24832159Y43853100D01*
X24814763Y43676473D01*
X24763243Y43506634D01*
X24679578Y43350109D01*
X24654524Y43319581D01*
X24566986Y43212914D01*
X24465529Y43129652D01*
X24429791Y43100322D01*
X24273266Y43016657D01*
X24103427Y42965137D01*
X24037243Y42958619D01*
X23971060Y42952100D01*
X23882540Y42952100D01*
X23816357Y42958619D01*
X23750173Y42965137D01*
X23580334Y43016657D01*
X23423809Y43100322D01*
X23388071Y43129652D01*
X23286614Y43212914D01*
X23199076Y43319581D01*
X23174022Y43350109D01*
X23090357Y43506634D01*
X23038837Y43676473D01*
X23021441Y43853100D01*
X23038837Y44029727D01*
X23090357Y44199566D01*
X23174022Y44356091D01*
X23203352Y44391829D01*
X23286614Y44493286D01*
X23388071Y44576548D01*
X23423809Y44605878D01*
X23563463Y44680525D01*
X23580332Y44689542D01*
X23580334Y44689543D01*
X23750173Y44741063D01*
X23816357Y44747581D01*
X23882540Y44754100D01*
X23971060Y44754100D01*
X24037243Y44747581D01*
X24037243Y44747581D01*
G37*
G36*
X26577243Y44747581D02*
G01*
X26643427Y44741063D01*
X26813266Y44689543D01*
X26813268Y44689542D01*
X26830137Y44680525D01*
X26969791Y44605878D01*
X27005529Y44576548D01*
X27106986Y44493286D01*
X27190248Y44391829D01*
X27219578Y44356091D01*
X27303243Y44199566D01*
X27354763Y44029727D01*
X27372159Y43853100D01*
X27354763Y43676473D01*
X27303243Y43506634D01*
X27219578Y43350109D01*
X27194524Y43319581D01*
X27106986Y43212914D01*
X27005529Y43129652D01*
X26969791Y43100322D01*
X26813266Y43016657D01*
X26643427Y42965137D01*
X26577243Y42958619D01*
X26511060Y42952100D01*
X26422540Y42952100D01*
X26356357Y42958619D01*
X26290173Y42965137D01*
X26120334Y43016657D01*
X25963809Y43100322D01*
X25928071Y43129652D01*
X25826614Y43212914D01*
X25739076Y43319581D01*
X25714022Y43350109D01*
X25630357Y43506634D01*
X25578837Y43676473D01*
X25561441Y43853100D01*
X25578837Y44029727D01*
X25630357Y44199566D01*
X25714022Y44356091D01*
X25743352Y44391829D01*
X25826614Y44493286D01*
X25928071Y44576548D01*
X25963809Y44605878D01*
X26103463Y44680525D01*
X26120332Y44689542D01*
X26120334Y44689543D01*
X26290173Y44741063D01*
X26356357Y44747581D01*
X26422540Y44754100D01*
X26511060Y44754100D01*
X26577243Y44747581D01*
X26577243Y44747581D01*
G37*
G36*
X29117243Y44747581D02*
G01*
X29183427Y44741063D01*
X29353266Y44689543D01*
X29353268Y44689542D01*
X29370137Y44680525D01*
X29509791Y44605878D01*
X29545529Y44576548D01*
X29646986Y44493286D01*
X29730248Y44391829D01*
X29759578Y44356091D01*
X29843243Y44199566D01*
X29894763Y44029727D01*
X29912159Y43853100D01*
X29894763Y43676473D01*
X29843243Y43506634D01*
X29759578Y43350109D01*
X29734524Y43319581D01*
X29646986Y43212914D01*
X29545529Y43129652D01*
X29509791Y43100322D01*
X29353266Y43016657D01*
X29183427Y42965137D01*
X29117243Y42958619D01*
X29051060Y42952100D01*
X28962540Y42952100D01*
X28896357Y42958619D01*
X28830173Y42965137D01*
X28660334Y43016657D01*
X28503809Y43100322D01*
X28468071Y43129652D01*
X28366614Y43212914D01*
X28279076Y43319581D01*
X28254022Y43350109D01*
X28170357Y43506634D01*
X28118837Y43676473D01*
X28101441Y43853100D01*
X28118837Y44029727D01*
X28170357Y44199566D01*
X28254022Y44356091D01*
X28283352Y44391829D01*
X28366614Y44493286D01*
X28468071Y44576548D01*
X28503809Y44605878D01*
X28643463Y44680525D01*
X28660332Y44689542D01*
X28660334Y44689543D01*
X28830173Y44741063D01*
X28896357Y44747581D01*
X28962540Y44754100D01*
X29051060Y44754100D01*
X29117243Y44747581D01*
X29117243Y44747581D01*
G37*
G36*
X22287800Y42952100D02*
G01*
X20485800Y42952100D01*
X20485800Y44754100D01*
X22287800Y44754100D01*
X22287800Y42952100D01*
X22287800Y42952100D01*
G37*
G36*
X101134885Y46549366D02*
G01*
X101231581Y46530132D01*
X101413751Y46454674D01*
X101577700Y46345127D01*
X101717127Y46205700D01*
X101826674Y46041751D01*
X101902132Y45859581D01*
X101940600Y45666190D01*
X101940600Y45469010D01*
X101902132Y45275619D01*
X101826674Y45093449D01*
X101717127Y44929500D01*
X101577700Y44790073D01*
X101413751Y44680526D01*
X101231581Y44605068D01*
X101038191Y44566600D01*
X100841009Y44566600D01*
X100647619Y44605068D01*
X100465449Y44680526D01*
X100301500Y44790073D01*
X100162073Y44929500D01*
X100052526Y45093449D01*
X99977068Y45275619D01*
X99938600Y45469010D01*
X99938600Y45666190D01*
X99977068Y45859581D01*
X100052526Y46041751D01*
X100162073Y46205700D01*
X100301500Y46345127D01*
X100465449Y46454674D01*
X100647619Y46530132D01*
X100744315Y46549366D01*
X100841009Y46568600D01*
X101038191Y46568600D01*
X101134885Y46549366D01*
X101134885Y46549366D01*
G37*
G36*
X11607100Y51080100D02*
G01*
X9805100Y51080100D01*
X9805100Y52882100D01*
X11607100Y52882100D01*
X11607100Y51080100D01*
X11607100Y51080100D01*
G37*
G36*
X63720443Y56144481D02*
G01*
X63786627Y56137963D01*
X63956466Y56086443D01*
X64112991Y56002778D01*
X64148729Y55973448D01*
X64250186Y55890186D01*
X64333448Y55788729D01*
X64362778Y55752991D01*
X64446443Y55596466D01*
X64497963Y55426627D01*
X64515359Y55250000D01*
X64497963Y55073373D01*
X64446443Y54903534D01*
X64362778Y54747009D01*
X64333448Y54711271D01*
X64250186Y54609814D01*
X64148729Y54526552D01*
X64112991Y54497222D01*
X63956466Y54413557D01*
X63786627Y54362037D01*
X63720443Y54355519D01*
X63654260Y54349000D01*
X63565740Y54349000D01*
X63499557Y54355519D01*
X63433373Y54362037D01*
X63263534Y54413557D01*
X63107009Y54497222D01*
X63071271Y54526552D01*
X62969814Y54609814D01*
X62886552Y54711271D01*
X62857222Y54747009D01*
X62773557Y54903534D01*
X62722037Y55073373D01*
X62704641Y55250000D01*
X62722037Y55426627D01*
X62773557Y55596466D01*
X62857222Y55752991D01*
X62886552Y55788729D01*
X62969814Y55890186D01*
X63071271Y55973448D01*
X63107009Y56002778D01*
X63263534Y56086443D01*
X63433373Y56137963D01*
X63499557Y56144481D01*
X63565740Y56151000D01*
X63654260Y56151000D01*
X63720443Y56144481D01*
X63720443Y56144481D01*
G37*
G36*
X66260443Y56144481D02*
G01*
X66326627Y56137963D01*
X66496466Y56086443D01*
X66652991Y56002778D01*
X66688729Y55973448D01*
X66790186Y55890186D01*
X66873448Y55788729D01*
X66902778Y55752991D01*
X66986443Y55596466D01*
X67037963Y55426627D01*
X67055359Y55250000D01*
X67037963Y55073373D01*
X66986443Y54903534D01*
X66902778Y54747009D01*
X66873448Y54711271D01*
X66790186Y54609814D01*
X66688729Y54526552D01*
X66652991Y54497222D01*
X66496466Y54413557D01*
X66326627Y54362037D01*
X66260443Y54355519D01*
X66194260Y54349000D01*
X66105740Y54349000D01*
X66039557Y54355519D01*
X65973373Y54362037D01*
X65803534Y54413557D01*
X65647009Y54497222D01*
X65611271Y54526552D01*
X65509814Y54609814D01*
X65426552Y54711271D01*
X65397222Y54747009D01*
X65313557Y54903534D01*
X65262037Y55073373D01*
X65244641Y55250000D01*
X65262037Y55426627D01*
X65313557Y55596466D01*
X65397222Y55752991D01*
X65426552Y55788729D01*
X65509814Y55890186D01*
X65611271Y55973448D01*
X65647009Y56002778D01*
X65803534Y56086443D01*
X65973373Y56137963D01*
X66039557Y56144481D01*
X66105740Y56151000D01*
X66194260Y56151000D01*
X66260443Y56144481D01*
X66260443Y56144481D01*
G37*
G36*
X61180443Y56144481D02*
G01*
X61246627Y56137963D01*
X61416466Y56086443D01*
X61572991Y56002778D01*
X61608729Y55973448D01*
X61710186Y55890186D01*
X61793448Y55788729D01*
X61822778Y55752991D01*
X61906443Y55596466D01*
X61957963Y55426627D01*
X61975359Y55250000D01*
X61957963Y55073373D01*
X61906443Y54903534D01*
X61822778Y54747009D01*
X61793448Y54711271D01*
X61710186Y54609814D01*
X61608729Y54526552D01*
X61572991Y54497222D01*
X61416466Y54413557D01*
X61246627Y54362037D01*
X61180443Y54355519D01*
X61114260Y54349000D01*
X61025740Y54349000D01*
X60959557Y54355519D01*
X60893373Y54362037D01*
X60723534Y54413557D01*
X60567009Y54497222D01*
X60531271Y54526552D01*
X60429814Y54609814D01*
X60346552Y54711271D01*
X60317222Y54747009D01*
X60233557Y54903534D01*
X60182037Y55073373D01*
X60164641Y55250000D01*
X60182037Y55426627D01*
X60233557Y55596466D01*
X60317222Y55752991D01*
X60346552Y55788729D01*
X60429814Y55890186D01*
X60531271Y55973448D01*
X60567009Y56002778D01*
X60723534Y56086443D01*
X60893373Y56137963D01*
X60959557Y56144481D01*
X61025740Y56151000D01*
X61114260Y56151000D01*
X61180443Y56144481D01*
X61180443Y56144481D01*
G37*
G36*
X58640443Y56144481D02*
G01*
X58706627Y56137963D01*
X58876466Y56086443D01*
X59032991Y56002778D01*
X59068729Y55973448D01*
X59170186Y55890186D01*
X59253448Y55788729D01*
X59282778Y55752991D01*
X59366443Y55596466D01*
X59417963Y55426627D01*
X59435359Y55250000D01*
X59417963Y55073373D01*
X59366443Y54903534D01*
X59282778Y54747009D01*
X59253448Y54711271D01*
X59170186Y54609814D01*
X59068729Y54526552D01*
X59032991Y54497222D01*
X58876466Y54413557D01*
X58706627Y54362037D01*
X58640443Y54355519D01*
X58574260Y54349000D01*
X58485740Y54349000D01*
X58419557Y54355519D01*
X58353373Y54362037D01*
X58183534Y54413557D01*
X58027009Y54497222D01*
X57991271Y54526552D01*
X57889814Y54609814D01*
X57806552Y54711271D01*
X57777222Y54747009D01*
X57693557Y54903534D01*
X57642037Y55073373D01*
X57624641Y55250000D01*
X57642037Y55426627D01*
X57693557Y55596466D01*
X57777222Y55752991D01*
X57806552Y55788729D01*
X57889814Y55890186D01*
X57991271Y55973448D01*
X58027009Y56002778D01*
X58183534Y56086443D01*
X58353373Y56137963D01*
X58419557Y56144481D01*
X58485740Y56151000D01*
X58574260Y56151000D01*
X58640443Y56144481D01*
X58640443Y56144481D01*
G37*
G36*
X56100443Y56144481D02*
G01*
X56166627Y56137963D01*
X56336466Y56086443D01*
X56492991Y56002778D01*
X56528729Y55973448D01*
X56630186Y55890186D01*
X56713448Y55788729D01*
X56742778Y55752991D01*
X56826443Y55596466D01*
X56877963Y55426627D01*
X56895359Y55250000D01*
X56877963Y55073373D01*
X56826443Y54903534D01*
X56742778Y54747009D01*
X56713448Y54711271D01*
X56630186Y54609814D01*
X56528729Y54526552D01*
X56492991Y54497222D01*
X56336466Y54413557D01*
X56166627Y54362037D01*
X56100443Y54355519D01*
X56034260Y54349000D01*
X55945740Y54349000D01*
X55879557Y54355519D01*
X55813373Y54362037D01*
X55643534Y54413557D01*
X55487009Y54497222D01*
X55451271Y54526552D01*
X55349814Y54609814D01*
X55266552Y54711271D01*
X55237222Y54747009D01*
X55153557Y54903534D01*
X55102037Y55073373D01*
X55084641Y55250000D01*
X55102037Y55426627D01*
X55153557Y55596466D01*
X55237222Y55752991D01*
X55266552Y55788729D01*
X55349814Y55890186D01*
X55451271Y55973448D01*
X55487009Y56002778D01*
X55643534Y56086443D01*
X55813373Y56137963D01*
X55879557Y56144481D01*
X55945740Y56151000D01*
X56034260Y56151000D01*
X56100443Y56144481D01*
X56100443Y56144481D01*
G37*
G36*
X53560443Y56144481D02*
G01*
X53626627Y56137963D01*
X53796466Y56086443D01*
X53952991Y56002778D01*
X53988729Y55973448D01*
X54090186Y55890186D01*
X54173448Y55788729D01*
X54202778Y55752991D01*
X54286443Y55596466D01*
X54337963Y55426627D01*
X54355359Y55250000D01*
X54337963Y55073373D01*
X54286443Y54903534D01*
X54202778Y54747009D01*
X54173448Y54711271D01*
X54090186Y54609814D01*
X53988729Y54526552D01*
X53952991Y54497222D01*
X53796466Y54413557D01*
X53626627Y54362037D01*
X53560443Y54355519D01*
X53494260Y54349000D01*
X53405740Y54349000D01*
X53339557Y54355519D01*
X53273373Y54362037D01*
X53103534Y54413557D01*
X52947009Y54497222D01*
X52911271Y54526552D01*
X52809814Y54609814D01*
X52726552Y54711271D01*
X52697222Y54747009D01*
X52613557Y54903534D01*
X52562037Y55073373D01*
X52544641Y55250000D01*
X52562037Y55426627D01*
X52613557Y55596466D01*
X52697222Y55752991D01*
X52726552Y55788729D01*
X52809814Y55890186D01*
X52911271Y55973448D01*
X52947009Y56002778D01*
X53103534Y56086443D01*
X53273373Y56137963D01*
X53339557Y56144481D01*
X53405740Y56151000D01*
X53494260Y56151000D01*
X53560443Y56144481D01*
X53560443Y56144481D01*
G37*
G36*
X51020443Y56144481D02*
G01*
X51086627Y56137963D01*
X51256466Y56086443D01*
X51412991Y56002778D01*
X51448729Y55973448D01*
X51550186Y55890186D01*
X51633448Y55788729D01*
X51662778Y55752991D01*
X51746443Y55596466D01*
X51797963Y55426627D01*
X51815359Y55250000D01*
X51797963Y55073373D01*
X51746443Y54903534D01*
X51662778Y54747009D01*
X51633448Y54711271D01*
X51550186Y54609814D01*
X51448729Y54526552D01*
X51412991Y54497222D01*
X51256466Y54413557D01*
X51086627Y54362037D01*
X51020443Y54355519D01*
X50954260Y54349000D01*
X50865740Y54349000D01*
X50799557Y54355519D01*
X50733373Y54362037D01*
X50563534Y54413557D01*
X50407009Y54497222D01*
X50371271Y54526552D01*
X50269814Y54609814D01*
X50186552Y54711271D01*
X50157222Y54747009D01*
X50073557Y54903534D01*
X50022037Y55073373D01*
X50004641Y55250000D01*
X50022037Y55426627D01*
X50073557Y55596466D01*
X50157222Y55752991D01*
X50186552Y55788729D01*
X50269814Y55890186D01*
X50371271Y55973448D01*
X50407009Y56002778D01*
X50563534Y56086443D01*
X50733373Y56137963D01*
X50799557Y56144481D01*
X50865740Y56151000D01*
X50954260Y56151000D01*
X51020443Y56144481D01*
X51020443Y56144481D01*
G37*
G36*
X49271000Y54349000D02*
G01*
X47469000Y54349000D01*
X47469000Y56151000D01*
X49271000Y56151000D01*
X49271000Y54349000D01*
X49271000Y54349000D01*
G37*
G36*
X44420443Y56144481D02*
G01*
X44486627Y56137963D01*
X44656466Y56086443D01*
X44812991Y56002778D01*
X44848729Y55973448D01*
X44950186Y55890186D01*
X45033448Y55788729D01*
X45062778Y55752991D01*
X45146443Y55596466D01*
X45197963Y55426627D01*
X45215359Y55250000D01*
X45197963Y55073373D01*
X45146443Y54903534D01*
X45062778Y54747009D01*
X45033448Y54711271D01*
X44950186Y54609814D01*
X44848729Y54526552D01*
X44812991Y54497222D01*
X44656466Y54413557D01*
X44486627Y54362037D01*
X44420443Y54355519D01*
X44354260Y54349000D01*
X44265740Y54349000D01*
X44199557Y54355519D01*
X44133373Y54362037D01*
X43963534Y54413557D01*
X43807009Y54497222D01*
X43771271Y54526552D01*
X43669814Y54609814D01*
X43586552Y54711271D01*
X43557222Y54747009D01*
X43473557Y54903534D01*
X43422037Y55073373D01*
X43404641Y55250000D01*
X43422037Y55426627D01*
X43473557Y55596466D01*
X43557222Y55752991D01*
X43586552Y55788729D01*
X43669814Y55890186D01*
X43771271Y55973448D01*
X43807009Y56002778D01*
X43963534Y56086443D01*
X44133373Y56137963D01*
X44199557Y56144481D01*
X44265740Y56151000D01*
X44354260Y56151000D01*
X44420443Y56144481D01*
X44420443Y56144481D01*
G37*
G36*
X41880443Y56144481D02*
G01*
X41946627Y56137963D01*
X42116466Y56086443D01*
X42272991Y56002778D01*
X42308729Y55973448D01*
X42410186Y55890186D01*
X42493448Y55788729D01*
X42522778Y55752991D01*
X42606443Y55596466D01*
X42657963Y55426627D01*
X42675359Y55250000D01*
X42657963Y55073373D01*
X42606443Y54903534D01*
X42522778Y54747009D01*
X42493448Y54711271D01*
X42410186Y54609814D01*
X42308729Y54526552D01*
X42272991Y54497222D01*
X42116466Y54413557D01*
X41946627Y54362037D01*
X41880443Y54355519D01*
X41814260Y54349000D01*
X41725740Y54349000D01*
X41659557Y54355519D01*
X41593373Y54362037D01*
X41423534Y54413557D01*
X41267009Y54497222D01*
X41231271Y54526552D01*
X41129814Y54609814D01*
X41046552Y54711271D01*
X41017222Y54747009D01*
X40933557Y54903534D01*
X40882037Y55073373D01*
X40864641Y55250000D01*
X40882037Y55426627D01*
X40933557Y55596466D01*
X41017222Y55752991D01*
X41046552Y55788729D01*
X41129814Y55890186D01*
X41231271Y55973448D01*
X41267009Y56002778D01*
X41423534Y56086443D01*
X41593373Y56137963D01*
X41659557Y56144481D01*
X41725740Y56151000D01*
X41814260Y56151000D01*
X41880443Y56144481D01*
X41880443Y56144481D01*
G37*
G36*
X24100443Y56144481D02*
G01*
X24166627Y56137963D01*
X24336466Y56086443D01*
X24492991Y56002778D01*
X24528729Y55973448D01*
X24630186Y55890186D01*
X24713448Y55788729D01*
X24742778Y55752991D01*
X24826443Y55596466D01*
X24877963Y55426627D01*
X24895359Y55250000D01*
X24877963Y55073373D01*
X24826443Y54903534D01*
X24742778Y54747009D01*
X24713448Y54711271D01*
X24630186Y54609814D01*
X24528729Y54526552D01*
X24492991Y54497222D01*
X24336466Y54413557D01*
X24166627Y54362037D01*
X24100443Y54355519D01*
X24034260Y54349000D01*
X23945740Y54349000D01*
X23879557Y54355519D01*
X23813373Y54362037D01*
X23643534Y54413557D01*
X23487009Y54497222D01*
X23451271Y54526552D01*
X23349814Y54609814D01*
X23266552Y54711271D01*
X23237222Y54747009D01*
X23153557Y54903534D01*
X23102037Y55073373D01*
X23084641Y55250000D01*
X23102037Y55426627D01*
X23153557Y55596466D01*
X23237222Y55752991D01*
X23266552Y55788729D01*
X23349814Y55890186D01*
X23451271Y55973448D01*
X23487009Y56002778D01*
X23643534Y56086443D01*
X23813373Y56137963D01*
X23879557Y56144481D01*
X23945740Y56151000D01*
X24034260Y56151000D01*
X24100443Y56144481D01*
X24100443Y56144481D01*
G37*
G36*
X26640443Y56144481D02*
G01*
X26706627Y56137963D01*
X26876466Y56086443D01*
X27032991Y56002778D01*
X27068729Y55973448D01*
X27170186Y55890186D01*
X27253448Y55788729D01*
X27282778Y55752991D01*
X27366443Y55596466D01*
X27417963Y55426627D01*
X27435359Y55250000D01*
X27417963Y55073373D01*
X27366443Y54903534D01*
X27282778Y54747009D01*
X27253448Y54711271D01*
X27170186Y54609814D01*
X27068729Y54526552D01*
X27032991Y54497222D01*
X26876466Y54413557D01*
X26706627Y54362037D01*
X26640443Y54355519D01*
X26574260Y54349000D01*
X26485740Y54349000D01*
X26419557Y54355519D01*
X26353373Y54362037D01*
X26183534Y54413557D01*
X26027009Y54497222D01*
X25991271Y54526552D01*
X25889814Y54609814D01*
X25806552Y54711271D01*
X25777222Y54747009D01*
X25693557Y54903534D01*
X25642037Y55073373D01*
X25624641Y55250000D01*
X25642037Y55426627D01*
X25693557Y55596466D01*
X25777222Y55752991D01*
X25806552Y55788729D01*
X25889814Y55890186D01*
X25991271Y55973448D01*
X26027009Y56002778D01*
X26183534Y56086443D01*
X26353373Y56137963D01*
X26419557Y56144481D01*
X26485740Y56151000D01*
X26574260Y56151000D01*
X26640443Y56144481D01*
X26640443Y56144481D01*
G37*
G36*
X29180443Y56144481D02*
G01*
X29246627Y56137963D01*
X29416466Y56086443D01*
X29572991Y56002778D01*
X29608729Y55973448D01*
X29710186Y55890186D01*
X29793448Y55788729D01*
X29822778Y55752991D01*
X29906443Y55596466D01*
X29957963Y55426627D01*
X29975359Y55250000D01*
X29957963Y55073373D01*
X29906443Y54903534D01*
X29822778Y54747009D01*
X29793448Y54711271D01*
X29710186Y54609814D01*
X29608729Y54526552D01*
X29572991Y54497222D01*
X29416466Y54413557D01*
X29246627Y54362037D01*
X29180443Y54355519D01*
X29114260Y54349000D01*
X29025740Y54349000D01*
X28959557Y54355519D01*
X28893373Y54362037D01*
X28723534Y54413557D01*
X28567009Y54497222D01*
X28531271Y54526552D01*
X28429814Y54609814D01*
X28346552Y54711271D01*
X28317222Y54747009D01*
X28233557Y54903534D01*
X28182037Y55073373D01*
X28164641Y55250000D01*
X28182037Y55426627D01*
X28233557Y55596466D01*
X28317222Y55752991D01*
X28346552Y55788729D01*
X28429814Y55890186D01*
X28531271Y55973448D01*
X28567009Y56002778D01*
X28723534Y56086443D01*
X28893373Y56137963D01*
X28959557Y56144481D01*
X29025740Y56151000D01*
X29114260Y56151000D01*
X29180443Y56144481D01*
X29180443Y56144481D01*
G37*
G36*
X31720443Y56144481D02*
G01*
X31786627Y56137963D01*
X31956466Y56086443D01*
X32112991Y56002778D01*
X32148729Y55973448D01*
X32250186Y55890186D01*
X32333448Y55788729D01*
X32362778Y55752991D01*
X32446443Y55596466D01*
X32497963Y55426627D01*
X32515359Y55250000D01*
X32497963Y55073373D01*
X32446443Y54903534D01*
X32362778Y54747009D01*
X32333448Y54711271D01*
X32250186Y54609814D01*
X32148729Y54526552D01*
X32112991Y54497222D01*
X31956466Y54413557D01*
X31786627Y54362037D01*
X31720443Y54355519D01*
X31654260Y54349000D01*
X31565740Y54349000D01*
X31499557Y54355519D01*
X31433373Y54362037D01*
X31263534Y54413557D01*
X31107009Y54497222D01*
X31071271Y54526552D01*
X30969814Y54609814D01*
X30886552Y54711271D01*
X30857222Y54747009D01*
X30773557Y54903534D01*
X30722037Y55073373D01*
X30704641Y55250000D01*
X30722037Y55426627D01*
X30773557Y55596466D01*
X30857222Y55752991D01*
X30886552Y55788729D01*
X30969814Y55890186D01*
X31071271Y55973448D01*
X31107009Y56002778D01*
X31263534Y56086443D01*
X31433373Y56137963D01*
X31499557Y56144481D01*
X31565740Y56151000D01*
X31654260Y56151000D01*
X31720443Y56144481D01*
X31720443Y56144481D01*
G37*
G36*
X34260443Y56144481D02*
G01*
X34326627Y56137963D01*
X34496466Y56086443D01*
X34652991Y56002778D01*
X34688729Y55973448D01*
X34790186Y55890186D01*
X34873448Y55788729D01*
X34902778Y55752991D01*
X34986443Y55596466D01*
X35037963Y55426627D01*
X35055359Y55250000D01*
X35037963Y55073373D01*
X34986443Y54903534D01*
X34902778Y54747009D01*
X34873448Y54711271D01*
X34790186Y54609814D01*
X34688729Y54526552D01*
X34652991Y54497222D01*
X34496466Y54413557D01*
X34326627Y54362037D01*
X34260443Y54355519D01*
X34194260Y54349000D01*
X34105740Y54349000D01*
X34039557Y54355519D01*
X33973373Y54362037D01*
X33803534Y54413557D01*
X33647009Y54497222D01*
X33611271Y54526552D01*
X33509814Y54609814D01*
X33426552Y54711271D01*
X33397222Y54747009D01*
X33313557Y54903534D01*
X33262037Y55073373D01*
X33244641Y55250000D01*
X33262037Y55426627D01*
X33313557Y55596466D01*
X33397222Y55752991D01*
X33426552Y55788729D01*
X33509814Y55890186D01*
X33611271Y55973448D01*
X33647009Y56002778D01*
X33803534Y56086443D01*
X33973373Y56137963D01*
X34039557Y56144481D01*
X34105740Y56151000D01*
X34194260Y56151000D01*
X34260443Y56144481D01*
X34260443Y56144481D01*
G37*
G36*
X36800443Y56144481D02*
G01*
X36866627Y56137963D01*
X37036466Y56086443D01*
X37192991Y56002778D01*
X37228729Y55973448D01*
X37330186Y55890186D01*
X37413448Y55788729D01*
X37442778Y55752991D01*
X37526443Y55596466D01*
X37577963Y55426627D01*
X37595359Y55250000D01*
X37577963Y55073373D01*
X37526443Y54903534D01*
X37442778Y54747009D01*
X37413448Y54711271D01*
X37330186Y54609814D01*
X37228729Y54526552D01*
X37192991Y54497222D01*
X37036466Y54413557D01*
X36866627Y54362037D01*
X36800443Y54355519D01*
X36734260Y54349000D01*
X36645740Y54349000D01*
X36579557Y54355519D01*
X36513373Y54362037D01*
X36343534Y54413557D01*
X36187009Y54497222D01*
X36151271Y54526552D01*
X36049814Y54609814D01*
X35966552Y54711271D01*
X35937222Y54747009D01*
X35853557Y54903534D01*
X35802037Y55073373D01*
X35784641Y55250000D01*
X35802037Y55426627D01*
X35853557Y55596466D01*
X35937222Y55752991D01*
X35966552Y55788729D01*
X36049814Y55890186D01*
X36151271Y55973448D01*
X36187009Y56002778D01*
X36343534Y56086443D01*
X36513373Y56137963D01*
X36579557Y56144481D01*
X36645740Y56151000D01*
X36734260Y56151000D01*
X36800443Y56144481D01*
X36800443Y56144481D01*
G37*
G36*
X22351000Y54349000D02*
G01*
X20549000Y54349000D01*
X20549000Y56151000D01*
X22351000Y56151000D01*
X22351000Y54349000D01*
X22351000Y54349000D01*
G37*
G36*
X39340443Y56144481D02*
G01*
X39406627Y56137963D01*
X39576466Y56086443D01*
X39732991Y56002778D01*
X39768729Y55973448D01*
X39870186Y55890186D01*
X39953448Y55788729D01*
X39982778Y55752991D01*
X40066443Y55596466D01*
X40117963Y55426627D01*
X40135359Y55250000D01*
X40117963Y55073373D01*
X40066443Y54903534D01*
X39982778Y54747009D01*
X39953448Y54711271D01*
X39870186Y54609814D01*
X39768729Y54526552D01*
X39732991Y54497222D01*
X39576466Y54413557D01*
X39406627Y54362037D01*
X39340443Y54355519D01*
X39274260Y54349000D01*
X39185740Y54349000D01*
X39119557Y54355519D01*
X39053373Y54362037D01*
X38883534Y54413557D01*
X38727009Y54497222D01*
X38691271Y54526552D01*
X38589814Y54609814D01*
X38506552Y54711271D01*
X38477222Y54747009D01*
X38393557Y54903534D01*
X38342037Y55073373D01*
X38324641Y55250000D01*
X38342037Y55426627D01*
X38393557Y55596466D01*
X38477222Y55752991D01*
X38506552Y55788729D01*
X38589814Y55890186D01*
X38691271Y55973448D01*
X38727009Y56002778D01*
X38883534Y56086443D01*
X39053373Y56137963D01*
X39119557Y56144481D01*
X39185740Y56151000D01*
X39274260Y56151000D01*
X39340443Y56144481D01*
X39340443Y56144481D01*
G37*
G36*
X940988Y65332027D02*
G01*
X1528082Y65088845D01*
X1528084Y65088844D01*
X2056455Y64735798D01*
X2505798Y64286455D01*
X2545881Y64226466D01*
X2858845Y63758082D01*
X3102027Y63170988D01*
X3226000Y62547735D01*
X3226000Y61912265D01*
X3102027Y61289012D01*
X2979636Y60993534D01*
X2858844Y60701916D01*
X2505798Y60173545D01*
X2056455Y59724202D01*
X1528084Y59371156D01*
X1528083Y59371155D01*
X1528082Y59371155D01*
X940988Y59127973D01*
X317735Y59004000D01*
X-317735Y59004000D01*
X-940988Y59127973D01*
X-1528082Y59371155D01*
X-1528083Y59371155D01*
X-1528084Y59371156D01*
X-2056455Y59724202D01*
X-2505798Y60173545D01*
X-2858844Y60701916D01*
X-2979636Y60993534D01*
X-3102027Y61289012D01*
X-3226000Y61912265D01*
X-3226000Y62547735D01*
X-3102027Y63170988D01*
X-2858845Y63758082D01*
X-2545881Y64226466D01*
X-2505798Y64286455D01*
X-2056455Y64735798D01*
X-1528084Y65088844D01*
X-1528082Y65088845D01*
X-940988Y65332027D01*
X-317735Y65456000D01*
X317735Y65456000D01*
X940988Y65332027D01*
X940988Y65332027D01*
G37*
G36*
X101380988Y65332027D02*
G01*
X101968082Y65088845D01*
X101968084Y65088844D01*
X102496455Y64735798D01*
X102945798Y64286455D01*
X102985881Y64226466D01*
X103298845Y63758082D01*
X103542027Y63170988D01*
X103666000Y62547735D01*
X103666000Y61912265D01*
X103542027Y61289012D01*
X103419636Y60993534D01*
X103298844Y60701916D01*
X102945798Y60173545D01*
X102496455Y59724202D01*
X101968084Y59371156D01*
X101968083Y59371155D01*
X101968082Y59371155D01*
X101380988Y59127973D01*
X100757735Y59004000D01*
X100122265Y59004000D01*
X99499012Y59127973D01*
X98911918Y59371155D01*
X98911917Y59371155D01*
X98911916Y59371156D01*
X98383545Y59724202D01*
X97934202Y60173545D01*
X97581156Y60701916D01*
X97460364Y60993534D01*
X97337973Y61289012D01*
X97214000Y61912265D01*
X97214000Y62547735D01*
X97337973Y63170988D01*
X97581155Y63758082D01*
X97894119Y64226466D01*
X97934202Y64286455D01*
X98383545Y64735798D01*
X98911916Y65088844D01*
X98911918Y65088845D01*
X99499012Y65332027D01*
X100122265Y65456000D01*
X100757735Y65456000D01*
X101380988Y65332027D01*
X101380988Y65332027D01*
G37*
G36*
X48550442Y62234482D02*
G01*
X48616627Y62227963D01*
X48786466Y62176443D01*
X48942991Y62092778D01*
X48978729Y62063448D01*
X49080186Y61980186D01*
X49135926Y61912265D01*
X49192778Y61842991D01*
X49276443Y61686466D01*
X49327963Y61516627D01*
X49345359Y61340000D01*
X49327963Y61163373D01*
X49276443Y60993534D01*
X49192778Y60837009D01*
X49163448Y60801271D01*
X49080186Y60699814D01*
X48978729Y60616552D01*
X48942991Y60587222D01*
X48786466Y60503557D01*
X48616627Y60452037D01*
X48550443Y60445519D01*
X48484260Y60439000D01*
X48395740Y60439000D01*
X48329557Y60445519D01*
X48263373Y60452037D01*
X48093534Y60503557D01*
X47937009Y60587222D01*
X47901271Y60616552D01*
X47799814Y60699814D01*
X47716552Y60801271D01*
X47687222Y60837009D01*
X47603557Y60993534D01*
X47552037Y61163373D01*
X47534641Y61340000D01*
X47552037Y61516627D01*
X47603557Y61686466D01*
X47687222Y61842991D01*
X47744074Y61912265D01*
X47799814Y61980186D01*
X47901271Y62063448D01*
X47937009Y62092778D01*
X48093534Y62176443D01*
X48263373Y62227963D01*
X48329558Y62234482D01*
X48395740Y62241000D01*
X48484260Y62241000D01*
X48550442Y62234482D01*
X48550442Y62234482D01*
G37*
G36*
X51090442Y62234482D02*
G01*
X51156627Y62227963D01*
X51326466Y62176443D01*
X51482991Y62092778D01*
X51518729Y62063448D01*
X51620186Y61980186D01*
X51675926Y61912265D01*
X51732778Y61842991D01*
X51816443Y61686466D01*
X51867963Y61516627D01*
X51885359Y61340000D01*
X51867963Y61163373D01*
X51816443Y60993534D01*
X51732778Y60837009D01*
X51703448Y60801271D01*
X51620186Y60699814D01*
X51518729Y60616552D01*
X51482991Y60587222D01*
X51326466Y60503557D01*
X51156627Y60452037D01*
X51090443Y60445519D01*
X51024260Y60439000D01*
X50935740Y60439000D01*
X50869557Y60445519D01*
X50803373Y60452037D01*
X50633534Y60503557D01*
X50477009Y60587222D01*
X50441271Y60616552D01*
X50339814Y60699814D01*
X50256552Y60801271D01*
X50227222Y60837009D01*
X50143557Y60993534D01*
X50092037Y61163373D01*
X50074641Y61340000D01*
X50092037Y61516627D01*
X50143557Y61686466D01*
X50227222Y61842991D01*
X50284074Y61912265D01*
X50339814Y61980186D01*
X50441271Y62063448D01*
X50477009Y62092778D01*
X50633534Y62176443D01*
X50803373Y62227963D01*
X50869558Y62234482D01*
X50935740Y62241000D01*
X51024260Y62241000D01*
X51090442Y62234482D01*
X51090442Y62234482D01*
G37*
G36*
X53630442Y62234482D02*
G01*
X53696627Y62227963D01*
X53866466Y62176443D01*
X54022991Y62092778D01*
X54058729Y62063448D01*
X54160186Y61980186D01*
X54215926Y61912265D01*
X54272778Y61842991D01*
X54356443Y61686466D01*
X54407963Y61516627D01*
X54425359Y61340000D01*
X54407963Y61163373D01*
X54356443Y60993534D01*
X54272778Y60837009D01*
X54243448Y60801271D01*
X54160186Y60699814D01*
X54058729Y60616552D01*
X54022991Y60587222D01*
X53866466Y60503557D01*
X53696627Y60452037D01*
X53630443Y60445519D01*
X53564260Y60439000D01*
X53475740Y60439000D01*
X53409557Y60445519D01*
X53343373Y60452037D01*
X53173534Y60503557D01*
X53017009Y60587222D01*
X52981271Y60616552D01*
X52879814Y60699814D01*
X52796552Y60801271D01*
X52767222Y60837009D01*
X52683557Y60993534D01*
X52632037Y61163373D01*
X52614641Y61340000D01*
X52632037Y61516627D01*
X52683557Y61686466D01*
X52767222Y61842991D01*
X52824074Y61912265D01*
X52879814Y61980186D01*
X52981271Y62063448D01*
X53017009Y62092778D01*
X53173534Y62176443D01*
X53343373Y62227963D01*
X53409558Y62234482D01*
X53475740Y62241000D01*
X53564260Y62241000D01*
X53630442Y62234482D01*
X53630442Y62234482D01*
G37*
G36*
X56170442Y62234482D02*
G01*
X56236627Y62227963D01*
X56406466Y62176443D01*
X56562991Y62092778D01*
X56598729Y62063448D01*
X56700186Y61980186D01*
X56755926Y61912265D01*
X56812778Y61842991D01*
X56896443Y61686466D01*
X56947963Y61516627D01*
X56965359Y61340000D01*
X56947963Y61163373D01*
X56896443Y60993534D01*
X56812778Y60837009D01*
X56783448Y60801271D01*
X56700186Y60699814D01*
X56598729Y60616552D01*
X56562991Y60587222D01*
X56406466Y60503557D01*
X56236627Y60452037D01*
X56170443Y60445519D01*
X56104260Y60439000D01*
X56015740Y60439000D01*
X55949557Y60445519D01*
X55883373Y60452037D01*
X55713534Y60503557D01*
X55557009Y60587222D01*
X55521271Y60616552D01*
X55419814Y60699814D01*
X55336552Y60801271D01*
X55307222Y60837009D01*
X55223557Y60993534D01*
X55172037Y61163373D01*
X55154641Y61340000D01*
X55172037Y61516627D01*
X55223557Y61686466D01*
X55307222Y61842991D01*
X55364074Y61912265D01*
X55419814Y61980186D01*
X55521271Y62063448D01*
X55557009Y62092778D01*
X55713534Y62176443D01*
X55883373Y62227963D01*
X55949558Y62234482D01*
X56015740Y62241000D01*
X56104260Y62241000D01*
X56170442Y62234482D01*
X56170442Y62234482D01*
G37*
G36*
X58710442Y62234482D02*
G01*
X58776627Y62227963D01*
X58946466Y62176443D01*
X59102991Y62092778D01*
X59138729Y62063448D01*
X59240186Y61980186D01*
X59295926Y61912265D01*
X59352778Y61842991D01*
X59436443Y61686466D01*
X59487963Y61516627D01*
X59505359Y61340000D01*
X59487963Y61163373D01*
X59436443Y60993534D01*
X59352778Y60837009D01*
X59323448Y60801271D01*
X59240186Y60699814D01*
X59138729Y60616552D01*
X59102991Y60587222D01*
X58946466Y60503557D01*
X58776627Y60452037D01*
X58710443Y60445519D01*
X58644260Y60439000D01*
X58555740Y60439000D01*
X58489557Y60445519D01*
X58423373Y60452037D01*
X58253534Y60503557D01*
X58097009Y60587222D01*
X58061271Y60616552D01*
X57959814Y60699814D01*
X57876552Y60801271D01*
X57847222Y60837009D01*
X57763557Y60993534D01*
X57712037Y61163373D01*
X57694641Y61340000D01*
X57712037Y61516627D01*
X57763557Y61686466D01*
X57847222Y61842991D01*
X57904074Y61912265D01*
X57959814Y61980186D01*
X58061271Y62063448D01*
X58097009Y62092778D01*
X58253534Y62176443D01*
X58423373Y62227963D01*
X58489558Y62234482D01*
X58555740Y62241000D01*
X58644260Y62241000D01*
X58710442Y62234482D01*
X58710442Y62234482D01*
G37*
G36*
X61250442Y62234482D02*
G01*
X61316627Y62227963D01*
X61486466Y62176443D01*
X61642991Y62092778D01*
X61678729Y62063448D01*
X61780186Y61980186D01*
X61835926Y61912265D01*
X61892778Y61842991D01*
X61976443Y61686466D01*
X62027963Y61516627D01*
X62045359Y61340000D01*
X62027963Y61163373D01*
X61976443Y60993534D01*
X61892778Y60837009D01*
X61863448Y60801271D01*
X61780186Y60699814D01*
X61678729Y60616552D01*
X61642991Y60587222D01*
X61486466Y60503557D01*
X61316627Y60452037D01*
X61250443Y60445519D01*
X61184260Y60439000D01*
X61095740Y60439000D01*
X61029557Y60445519D01*
X60963373Y60452037D01*
X60793534Y60503557D01*
X60637009Y60587222D01*
X60601271Y60616552D01*
X60499814Y60699814D01*
X60416552Y60801271D01*
X60387222Y60837009D01*
X60303557Y60993534D01*
X60252037Y61163373D01*
X60234641Y61340000D01*
X60252037Y61516627D01*
X60303557Y61686466D01*
X60387222Y61842991D01*
X60444074Y61912265D01*
X60499814Y61980186D01*
X60601271Y62063448D01*
X60637009Y62092778D01*
X60793534Y62176443D01*
X60963373Y62227963D01*
X61029558Y62234482D01*
X61095740Y62241000D01*
X61184260Y62241000D01*
X61250442Y62234482D01*
X61250442Y62234482D01*
G37*
G36*
X63790442Y62234482D02*
G01*
X63856627Y62227963D01*
X64026466Y62176443D01*
X64182991Y62092778D01*
X64218729Y62063448D01*
X64320186Y61980186D01*
X64375926Y61912265D01*
X64432778Y61842991D01*
X64516443Y61686466D01*
X64567963Y61516627D01*
X64585359Y61340000D01*
X64567963Y61163373D01*
X64516443Y60993534D01*
X64432778Y60837009D01*
X64403448Y60801271D01*
X64320186Y60699814D01*
X64218729Y60616552D01*
X64182991Y60587222D01*
X64026466Y60503557D01*
X63856627Y60452037D01*
X63790443Y60445519D01*
X63724260Y60439000D01*
X63635740Y60439000D01*
X63569557Y60445519D01*
X63503373Y60452037D01*
X63333534Y60503557D01*
X63177009Y60587222D01*
X63141271Y60616552D01*
X63039814Y60699814D01*
X62956552Y60801271D01*
X62927222Y60837009D01*
X62843557Y60993534D01*
X62792037Y61163373D01*
X62774641Y61340000D01*
X62792037Y61516627D01*
X62843557Y61686466D01*
X62927222Y61842991D01*
X62984074Y61912265D01*
X63039814Y61980186D01*
X63141271Y62063448D01*
X63177009Y62092778D01*
X63333534Y62176443D01*
X63503373Y62227963D01*
X63569558Y62234482D01*
X63635740Y62241000D01*
X63724260Y62241000D01*
X63790442Y62234482D01*
X63790442Y62234482D01*
G37*
G36*
X66330442Y62234482D02*
G01*
X66396627Y62227963D01*
X66566466Y62176443D01*
X66722991Y62092778D01*
X66758729Y62063448D01*
X66860186Y61980186D01*
X66915926Y61912265D01*
X66972778Y61842991D01*
X67056443Y61686466D01*
X67107963Y61516627D01*
X67125359Y61340000D01*
X67107963Y61163373D01*
X67056443Y60993534D01*
X66972778Y60837009D01*
X66943448Y60801271D01*
X66860186Y60699814D01*
X66758729Y60616552D01*
X66722991Y60587222D01*
X66566466Y60503557D01*
X66396627Y60452037D01*
X66330443Y60445519D01*
X66264260Y60439000D01*
X66175740Y60439000D01*
X66109557Y60445519D01*
X66043373Y60452037D01*
X65873534Y60503557D01*
X65717009Y60587222D01*
X65681271Y60616552D01*
X65579814Y60699814D01*
X65496552Y60801271D01*
X65467222Y60837009D01*
X65383557Y60993534D01*
X65332037Y61163373D01*
X65314641Y61340000D01*
X65332037Y61516627D01*
X65383557Y61686466D01*
X65467222Y61842991D01*
X65524074Y61912265D01*
X65579814Y61980186D01*
X65681271Y62063448D01*
X65717009Y62092778D01*
X65873534Y62176443D01*
X66043373Y62227963D01*
X66109558Y62234482D01*
X66175740Y62241000D01*
X66264260Y62241000D01*
X66330442Y62234482D01*
X66330442Y62234482D01*
G37*
G36*
X68870442Y62234482D02*
G01*
X68936627Y62227963D01*
X69106466Y62176443D01*
X69262991Y62092778D01*
X69298729Y62063448D01*
X69400186Y61980186D01*
X69455926Y61912265D01*
X69512778Y61842991D01*
X69596443Y61686466D01*
X69647963Y61516627D01*
X69665359Y61340000D01*
X69647963Y61163373D01*
X69596443Y60993534D01*
X69512778Y60837009D01*
X69483448Y60801271D01*
X69400186Y60699814D01*
X69298729Y60616552D01*
X69262991Y60587222D01*
X69106466Y60503557D01*
X68936627Y60452037D01*
X68870443Y60445519D01*
X68804260Y60439000D01*
X68715740Y60439000D01*
X68649557Y60445519D01*
X68583373Y60452037D01*
X68413534Y60503557D01*
X68257009Y60587222D01*
X68221271Y60616552D01*
X68119814Y60699814D01*
X68036552Y60801271D01*
X68007222Y60837009D01*
X67923557Y60993534D01*
X67872037Y61163373D01*
X67854641Y61340000D01*
X67872037Y61516627D01*
X67923557Y61686466D01*
X68007222Y61842991D01*
X68064074Y61912265D01*
X68119814Y61980186D01*
X68221271Y62063448D01*
X68257009Y62092778D01*
X68413534Y62176443D01*
X68583373Y62227963D01*
X68649558Y62234482D01*
X68715740Y62241000D01*
X68804260Y62241000D01*
X68870442Y62234482D01*
X68870442Y62234482D01*
G37*
G36*
X28230442Y62234482D02*
G01*
X28296627Y62227963D01*
X28466466Y62176443D01*
X28622991Y62092778D01*
X28658729Y62063448D01*
X28760186Y61980186D01*
X28815926Y61912265D01*
X28872778Y61842991D01*
X28956443Y61686466D01*
X29007963Y61516627D01*
X29025359Y61340000D01*
X29007963Y61163373D01*
X28956443Y60993534D01*
X28872778Y60837009D01*
X28843448Y60801271D01*
X28760186Y60699814D01*
X28658729Y60616552D01*
X28622991Y60587222D01*
X28466466Y60503557D01*
X28296627Y60452037D01*
X28230443Y60445519D01*
X28164260Y60439000D01*
X28075740Y60439000D01*
X28009557Y60445519D01*
X27943373Y60452037D01*
X27773534Y60503557D01*
X27617009Y60587222D01*
X27581271Y60616552D01*
X27479814Y60699814D01*
X27396552Y60801271D01*
X27367222Y60837009D01*
X27283557Y60993534D01*
X27232037Y61163373D01*
X27214641Y61340000D01*
X27232037Y61516627D01*
X27283557Y61686466D01*
X27367222Y61842991D01*
X27424074Y61912265D01*
X27479814Y61980186D01*
X27581271Y62063448D01*
X27617009Y62092778D01*
X27773534Y62176443D01*
X27943373Y62227963D01*
X28009558Y62234482D01*
X28075740Y62241000D01*
X28164260Y62241000D01*
X28230442Y62234482D01*
X28230442Y62234482D01*
G37*
G36*
X43470442Y62234482D02*
G01*
X43536627Y62227963D01*
X43706466Y62176443D01*
X43862991Y62092778D01*
X43898729Y62063448D01*
X44000186Y61980186D01*
X44055926Y61912265D01*
X44112778Y61842991D01*
X44196443Y61686466D01*
X44247963Y61516627D01*
X44265359Y61340000D01*
X44247963Y61163373D01*
X44196443Y60993534D01*
X44112778Y60837009D01*
X44083448Y60801271D01*
X44000186Y60699814D01*
X43898729Y60616552D01*
X43862991Y60587222D01*
X43706466Y60503557D01*
X43536627Y60452037D01*
X43470443Y60445519D01*
X43404260Y60439000D01*
X43315740Y60439000D01*
X43249557Y60445519D01*
X43183373Y60452037D01*
X43013534Y60503557D01*
X42857009Y60587222D01*
X42821271Y60616552D01*
X42719814Y60699814D01*
X42636552Y60801271D01*
X42607222Y60837009D01*
X42523557Y60993534D01*
X42472037Y61163373D01*
X42454641Y61340000D01*
X42472037Y61516627D01*
X42523557Y61686466D01*
X42607222Y61842991D01*
X42664074Y61912265D01*
X42719814Y61980186D01*
X42821271Y62063448D01*
X42857009Y62092778D01*
X43013534Y62176443D01*
X43183373Y62227963D01*
X43249558Y62234482D01*
X43315740Y62241000D01*
X43404260Y62241000D01*
X43470442Y62234482D01*
X43470442Y62234482D01*
G37*
G36*
X46010442Y62234482D02*
G01*
X46076627Y62227963D01*
X46246466Y62176443D01*
X46402991Y62092778D01*
X46438729Y62063448D01*
X46540186Y61980186D01*
X46595926Y61912265D01*
X46652778Y61842991D01*
X46736443Y61686466D01*
X46787963Y61516627D01*
X46805359Y61340000D01*
X46787963Y61163373D01*
X46736443Y60993534D01*
X46652778Y60837009D01*
X46623448Y60801271D01*
X46540186Y60699814D01*
X46438729Y60616552D01*
X46402991Y60587222D01*
X46246466Y60503557D01*
X46076627Y60452037D01*
X46010443Y60445519D01*
X45944260Y60439000D01*
X45855740Y60439000D01*
X45789557Y60445519D01*
X45723373Y60452037D01*
X45553534Y60503557D01*
X45397009Y60587222D01*
X45361271Y60616552D01*
X45259814Y60699814D01*
X45176552Y60801271D01*
X45147222Y60837009D01*
X45063557Y60993534D01*
X45012037Y61163373D01*
X44994641Y61340000D01*
X45012037Y61516627D01*
X45063557Y61686466D01*
X45147222Y61842991D01*
X45204074Y61912265D01*
X45259814Y61980186D01*
X45361271Y62063448D01*
X45397009Y62092778D01*
X45553534Y62176443D01*
X45723373Y62227963D01*
X45789558Y62234482D01*
X45855740Y62241000D01*
X45944260Y62241000D01*
X46010442Y62234482D01*
X46010442Y62234482D01*
G37*
G36*
X21401000Y60439000D02*
G01*
X19599000Y60439000D01*
X19599000Y62241000D01*
X21401000Y62241000D01*
X21401000Y60439000D01*
X21401000Y60439000D01*
G37*
G36*
X23150442Y62234482D02*
G01*
X23216627Y62227963D01*
X23386466Y62176443D01*
X23542991Y62092778D01*
X23578729Y62063448D01*
X23680186Y61980186D01*
X23735926Y61912265D01*
X23792778Y61842991D01*
X23876443Y61686466D01*
X23927963Y61516627D01*
X23945359Y61340000D01*
X23927963Y61163373D01*
X23876443Y60993534D01*
X23792778Y60837009D01*
X23763448Y60801271D01*
X23680186Y60699814D01*
X23578729Y60616552D01*
X23542991Y60587222D01*
X23386466Y60503557D01*
X23216627Y60452037D01*
X23150443Y60445519D01*
X23084260Y60439000D01*
X22995740Y60439000D01*
X22929557Y60445519D01*
X22863373Y60452037D01*
X22693534Y60503557D01*
X22537009Y60587222D01*
X22501271Y60616552D01*
X22399814Y60699814D01*
X22316552Y60801271D01*
X22287222Y60837009D01*
X22203557Y60993534D01*
X22152037Y61163373D01*
X22134641Y61340000D01*
X22152037Y61516627D01*
X22203557Y61686466D01*
X22287222Y61842991D01*
X22344074Y61912265D01*
X22399814Y61980186D01*
X22501271Y62063448D01*
X22537009Y62092778D01*
X22693534Y62176443D01*
X22863373Y62227963D01*
X22929558Y62234482D01*
X22995740Y62241000D01*
X23084260Y62241000D01*
X23150442Y62234482D01*
X23150442Y62234482D01*
G37*
G36*
X25690442Y62234482D02*
G01*
X25756627Y62227963D01*
X25926466Y62176443D01*
X26082991Y62092778D01*
X26118729Y62063448D01*
X26220186Y61980186D01*
X26275926Y61912265D01*
X26332778Y61842991D01*
X26416443Y61686466D01*
X26467963Y61516627D01*
X26485359Y61340000D01*
X26467963Y61163373D01*
X26416443Y60993534D01*
X26332778Y60837009D01*
X26303448Y60801271D01*
X26220186Y60699814D01*
X26118729Y60616552D01*
X26082991Y60587222D01*
X25926466Y60503557D01*
X25756627Y60452037D01*
X25690443Y60445519D01*
X25624260Y60439000D01*
X25535740Y60439000D01*
X25469557Y60445519D01*
X25403373Y60452037D01*
X25233534Y60503557D01*
X25077009Y60587222D01*
X25041271Y60616552D01*
X24939814Y60699814D01*
X24856552Y60801271D01*
X24827222Y60837009D01*
X24743557Y60993534D01*
X24692037Y61163373D01*
X24674641Y61340000D01*
X24692037Y61516627D01*
X24743557Y61686466D01*
X24827222Y61842991D01*
X24884074Y61912265D01*
X24939814Y61980186D01*
X25041271Y62063448D01*
X25077009Y62092778D01*
X25233534Y62176443D01*
X25403373Y62227963D01*
X25469558Y62234482D01*
X25535740Y62241000D01*
X25624260Y62241000D01*
X25690442Y62234482D01*
X25690442Y62234482D01*
G37*
G36*
X30770442Y62234482D02*
G01*
X30836627Y62227963D01*
X31006466Y62176443D01*
X31162991Y62092778D01*
X31198729Y62063448D01*
X31300186Y61980186D01*
X31355926Y61912265D01*
X31412778Y61842991D01*
X31496443Y61686466D01*
X31547963Y61516627D01*
X31565359Y61340000D01*
X31547963Y61163373D01*
X31496443Y60993534D01*
X31412778Y60837009D01*
X31383448Y60801271D01*
X31300186Y60699814D01*
X31198729Y60616552D01*
X31162991Y60587222D01*
X31006466Y60503557D01*
X30836627Y60452037D01*
X30770443Y60445519D01*
X30704260Y60439000D01*
X30615740Y60439000D01*
X30549557Y60445519D01*
X30483373Y60452037D01*
X30313534Y60503557D01*
X30157009Y60587222D01*
X30121271Y60616552D01*
X30019814Y60699814D01*
X29936552Y60801271D01*
X29907222Y60837009D01*
X29823557Y60993534D01*
X29772037Y61163373D01*
X29754641Y61340000D01*
X29772037Y61516627D01*
X29823557Y61686466D01*
X29907222Y61842991D01*
X29964074Y61912265D01*
X30019814Y61980186D01*
X30121271Y62063448D01*
X30157009Y62092778D01*
X30313534Y62176443D01*
X30483373Y62227963D01*
X30549558Y62234482D01*
X30615740Y62241000D01*
X30704260Y62241000D01*
X30770442Y62234482D01*
X30770442Y62234482D01*
G37*
G36*
X33310442Y62234482D02*
G01*
X33376627Y62227963D01*
X33546466Y62176443D01*
X33702991Y62092778D01*
X33738729Y62063448D01*
X33840186Y61980186D01*
X33895926Y61912265D01*
X33952778Y61842991D01*
X34036443Y61686466D01*
X34087963Y61516627D01*
X34105359Y61340000D01*
X34087963Y61163373D01*
X34036443Y60993534D01*
X33952778Y60837009D01*
X33923448Y60801271D01*
X33840186Y60699814D01*
X33738729Y60616552D01*
X33702991Y60587222D01*
X33546466Y60503557D01*
X33376627Y60452037D01*
X33310443Y60445519D01*
X33244260Y60439000D01*
X33155740Y60439000D01*
X33089557Y60445519D01*
X33023373Y60452037D01*
X32853534Y60503557D01*
X32697009Y60587222D01*
X32661271Y60616552D01*
X32559814Y60699814D01*
X32476552Y60801271D01*
X32447222Y60837009D01*
X32363557Y60993534D01*
X32312037Y61163373D01*
X32294641Y61340000D01*
X32312037Y61516627D01*
X32363557Y61686466D01*
X32447222Y61842991D01*
X32504074Y61912265D01*
X32559814Y61980186D01*
X32661271Y62063448D01*
X32697009Y62092778D01*
X32853534Y62176443D01*
X33023373Y62227963D01*
X33089558Y62234482D01*
X33155740Y62241000D01*
X33244260Y62241000D01*
X33310442Y62234482D01*
X33310442Y62234482D01*
G37*
G36*
X35850442Y62234482D02*
G01*
X35916627Y62227963D01*
X36086466Y62176443D01*
X36242991Y62092778D01*
X36278729Y62063448D01*
X36380186Y61980186D01*
X36435926Y61912265D01*
X36492778Y61842991D01*
X36576443Y61686466D01*
X36627963Y61516627D01*
X36645359Y61340000D01*
X36627963Y61163373D01*
X36576443Y60993534D01*
X36492778Y60837009D01*
X36463448Y60801271D01*
X36380186Y60699814D01*
X36278729Y60616552D01*
X36242991Y60587222D01*
X36086466Y60503557D01*
X35916627Y60452037D01*
X35850443Y60445519D01*
X35784260Y60439000D01*
X35695740Y60439000D01*
X35629557Y60445519D01*
X35563373Y60452037D01*
X35393534Y60503557D01*
X35237009Y60587222D01*
X35201271Y60616552D01*
X35099814Y60699814D01*
X35016552Y60801271D01*
X34987222Y60837009D01*
X34903557Y60993534D01*
X34852037Y61163373D01*
X34834641Y61340000D01*
X34852037Y61516627D01*
X34903557Y61686466D01*
X34987222Y61842991D01*
X35044074Y61912265D01*
X35099814Y61980186D01*
X35201271Y62063448D01*
X35237009Y62092778D01*
X35393534Y62176443D01*
X35563373Y62227963D01*
X35629558Y62234482D01*
X35695740Y62241000D01*
X35784260Y62241000D01*
X35850442Y62234482D01*
X35850442Y62234482D01*
G37*
G36*
X38390442Y62234482D02*
G01*
X38456627Y62227963D01*
X38626466Y62176443D01*
X38782991Y62092778D01*
X38818729Y62063448D01*
X38920186Y61980186D01*
X38975926Y61912265D01*
X39032778Y61842991D01*
X39116443Y61686466D01*
X39167963Y61516627D01*
X39185359Y61340000D01*
X39167963Y61163373D01*
X39116443Y60993534D01*
X39032778Y60837009D01*
X39003448Y60801271D01*
X38920186Y60699814D01*
X38818729Y60616552D01*
X38782991Y60587222D01*
X38626466Y60503557D01*
X38456627Y60452037D01*
X38390443Y60445519D01*
X38324260Y60439000D01*
X38235740Y60439000D01*
X38169557Y60445519D01*
X38103373Y60452037D01*
X37933534Y60503557D01*
X37777009Y60587222D01*
X37741271Y60616552D01*
X37639814Y60699814D01*
X37556552Y60801271D01*
X37527222Y60837009D01*
X37443557Y60993534D01*
X37392037Y61163373D01*
X37374641Y61340000D01*
X37392037Y61516627D01*
X37443557Y61686466D01*
X37527222Y61842991D01*
X37584074Y61912265D01*
X37639814Y61980186D01*
X37741271Y62063448D01*
X37777009Y62092778D01*
X37933534Y62176443D01*
X38103373Y62227963D01*
X38169558Y62234482D01*
X38235740Y62241000D01*
X38324260Y62241000D01*
X38390442Y62234482D01*
X38390442Y62234482D01*
G37*
G36*
X40930442Y62234482D02*
G01*
X40996627Y62227963D01*
X41166466Y62176443D01*
X41322991Y62092778D01*
X41358729Y62063448D01*
X41460186Y61980186D01*
X41515926Y61912265D01*
X41572778Y61842991D01*
X41656443Y61686466D01*
X41707963Y61516627D01*
X41725359Y61340000D01*
X41707963Y61163373D01*
X41656443Y60993534D01*
X41572778Y60837009D01*
X41543448Y60801271D01*
X41460186Y60699814D01*
X41358729Y60616552D01*
X41322991Y60587222D01*
X41166466Y60503557D01*
X40996627Y60452037D01*
X40930443Y60445519D01*
X40864260Y60439000D01*
X40775740Y60439000D01*
X40709557Y60445519D01*
X40643373Y60452037D01*
X40473534Y60503557D01*
X40317009Y60587222D01*
X40281271Y60616552D01*
X40179814Y60699814D01*
X40096552Y60801271D01*
X40067222Y60837009D01*
X39983557Y60993534D01*
X39932037Y61163373D01*
X39914641Y61340000D01*
X39932037Y61516627D01*
X39983557Y61686466D01*
X40067222Y61842991D01*
X40124074Y61912265D01*
X40179814Y61980186D01*
X40281271Y62063448D01*
X40317009Y62092778D01*
X40473534Y62176443D01*
X40643373Y62227963D01*
X40709558Y62234482D01*
X40775740Y62241000D01*
X40864260Y62241000D01*
X40930442Y62234482D01*
X40930442Y62234482D01*
G37*
G36*
X40930443Y64774481D02*
G01*
X40996627Y64767963D01*
X41166466Y64716443D01*
X41322991Y64632778D01*
X41358729Y64603448D01*
X41460186Y64520186D01*
X41543448Y64418729D01*
X41572778Y64382991D01*
X41572779Y64382989D01*
X41624379Y64286454D01*
X41656443Y64226466D01*
X41707963Y64056627D01*
X41725359Y63880000D01*
X41707963Y63703373D01*
X41656443Y63533534D01*
X41572778Y63377009D01*
X41543448Y63341271D01*
X41460186Y63239814D01*
X41376321Y63170989D01*
X41322991Y63127222D01*
X41166466Y63043557D01*
X40996627Y62992037D01*
X40930443Y62985519D01*
X40864260Y62979000D01*
X40775740Y62979000D01*
X40709557Y62985519D01*
X40643373Y62992037D01*
X40473534Y63043557D01*
X40317009Y63127222D01*
X40263679Y63170989D01*
X40179814Y63239814D01*
X40096552Y63341271D01*
X40067222Y63377009D01*
X39983557Y63533534D01*
X39932037Y63703373D01*
X39914641Y63880000D01*
X39932037Y64056627D01*
X39983557Y64226466D01*
X40015622Y64286454D01*
X40067221Y64382989D01*
X40067222Y64382991D01*
X40096552Y64418729D01*
X40179814Y64520186D01*
X40281271Y64603448D01*
X40317009Y64632778D01*
X40473534Y64716443D01*
X40643373Y64767963D01*
X40709557Y64774481D01*
X40775740Y64781000D01*
X40864260Y64781000D01*
X40930443Y64774481D01*
X40930443Y64774481D01*
G37*
G36*
X35850443Y64774481D02*
G01*
X35916627Y64767963D01*
X36086466Y64716443D01*
X36242991Y64632778D01*
X36278729Y64603448D01*
X36380186Y64520186D01*
X36463448Y64418729D01*
X36492778Y64382991D01*
X36492779Y64382989D01*
X36544379Y64286454D01*
X36576443Y64226466D01*
X36627963Y64056627D01*
X36645359Y63880000D01*
X36627963Y63703373D01*
X36576443Y63533534D01*
X36492778Y63377009D01*
X36463448Y63341271D01*
X36380186Y63239814D01*
X36296321Y63170989D01*
X36242991Y63127222D01*
X36086466Y63043557D01*
X35916627Y62992037D01*
X35850443Y62985519D01*
X35784260Y62979000D01*
X35695740Y62979000D01*
X35629557Y62985519D01*
X35563373Y62992037D01*
X35393534Y63043557D01*
X35237009Y63127222D01*
X35183679Y63170989D01*
X35099814Y63239814D01*
X35016552Y63341271D01*
X34987222Y63377009D01*
X34903557Y63533534D01*
X34852037Y63703373D01*
X34834641Y63880000D01*
X34852037Y64056627D01*
X34903557Y64226466D01*
X34935622Y64286454D01*
X34987221Y64382989D01*
X34987222Y64382991D01*
X35016552Y64418729D01*
X35099814Y64520186D01*
X35201271Y64603448D01*
X35237009Y64632778D01*
X35393534Y64716443D01*
X35563373Y64767963D01*
X35629557Y64774481D01*
X35695740Y64781000D01*
X35784260Y64781000D01*
X35850443Y64774481D01*
X35850443Y64774481D01*
G37*
G36*
X33310443Y64774481D02*
G01*
X33376627Y64767963D01*
X33546466Y64716443D01*
X33702991Y64632778D01*
X33738729Y64603448D01*
X33840186Y64520186D01*
X33923448Y64418729D01*
X33952778Y64382991D01*
X33952779Y64382989D01*
X34004379Y64286454D01*
X34036443Y64226466D01*
X34087963Y64056627D01*
X34105359Y63880000D01*
X34087963Y63703373D01*
X34036443Y63533534D01*
X33952778Y63377009D01*
X33923448Y63341271D01*
X33840186Y63239814D01*
X33756321Y63170989D01*
X33702991Y63127222D01*
X33546466Y63043557D01*
X33376627Y62992037D01*
X33310443Y62985519D01*
X33244260Y62979000D01*
X33155740Y62979000D01*
X33089557Y62985519D01*
X33023373Y62992037D01*
X32853534Y63043557D01*
X32697009Y63127222D01*
X32643679Y63170989D01*
X32559814Y63239814D01*
X32476552Y63341271D01*
X32447222Y63377009D01*
X32363557Y63533534D01*
X32312037Y63703373D01*
X32294641Y63880000D01*
X32312037Y64056627D01*
X32363557Y64226466D01*
X32395622Y64286454D01*
X32447221Y64382989D01*
X32447222Y64382991D01*
X32476552Y64418729D01*
X32559814Y64520186D01*
X32661271Y64603448D01*
X32697009Y64632778D01*
X32853534Y64716443D01*
X33023373Y64767963D01*
X33089557Y64774481D01*
X33155740Y64781000D01*
X33244260Y64781000D01*
X33310443Y64774481D01*
X33310443Y64774481D01*
G37*
G36*
X43470443Y64774481D02*
G01*
X43536627Y64767963D01*
X43706466Y64716443D01*
X43862991Y64632778D01*
X43898729Y64603448D01*
X44000186Y64520186D01*
X44083448Y64418729D01*
X44112778Y64382991D01*
X44112779Y64382989D01*
X44164379Y64286454D01*
X44196443Y64226466D01*
X44247963Y64056627D01*
X44265359Y63880000D01*
X44247963Y63703373D01*
X44196443Y63533534D01*
X44112778Y63377009D01*
X44083448Y63341271D01*
X44000186Y63239814D01*
X43916321Y63170989D01*
X43862991Y63127222D01*
X43706466Y63043557D01*
X43536627Y62992037D01*
X43470443Y62985519D01*
X43404260Y62979000D01*
X43315740Y62979000D01*
X43249557Y62985519D01*
X43183373Y62992037D01*
X43013534Y63043557D01*
X42857009Y63127222D01*
X42803679Y63170989D01*
X42719814Y63239814D01*
X42636552Y63341271D01*
X42607222Y63377009D01*
X42523557Y63533534D01*
X42472037Y63703373D01*
X42454641Y63880000D01*
X42472037Y64056627D01*
X42523557Y64226466D01*
X42555622Y64286454D01*
X42607221Y64382989D01*
X42607222Y64382991D01*
X42636552Y64418729D01*
X42719814Y64520186D01*
X42821271Y64603448D01*
X42857009Y64632778D01*
X43013534Y64716443D01*
X43183373Y64767963D01*
X43249557Y64774481D01*
X43315740Y64781000D01*
X43404260Y64781000D01*
X43470443Y64774481D01*
X43470443Y64774481D01*
G37*
G36*
X68870443Y64774481D02*
G01*
X68936627Y64767963D01*
X69106466Y64716443D01*
X69262991Y64632778D01*
X69298729Y64603448D01*
X69400186Y64520186D01*
X69483448Y64418729D01*
X69512778Y64382991D01*
X69512779Y64382989D01*
X69564379Y64286454D01*
X69596443Y64226466D01*
X69647963Y64056627D01*
X69665359Y63880000D01*
X69647963Y63703373D01*
X69596443Y63533534D01*
X69512778Y63377009D01*
X69483448Y63341271D01*
X69400186Y63239814D01*
X69316321Y63170989D01*
X69262991Y63127222D01*
X69106466Y63043557D01*
X68936627Y62992037D01*
X68870443Y62985519D01*
X68804260Y62979000D01*
X68715740Y62979000D01*
X68649557Y62985519D01*
X68583373Y62992037D01*
X68413534Y63043557D01*
X68257009Y63127222D01*
X68203679Y63170989D01*
X68119814Y63239814D01*
X68036552Y63341271D01*
X68007222Y63377009D01*
X67923557Y63533534D01*
X67872037Y63703373D01*
X67854641Y63880000D01*
X67872037Y64056627D01*
X67923557Y64226466D01*
X67955622Y64286454D01*
X68007221Y64382989D01*
X68007222Y64382991D01*
X68036552Y64418729D01*
X68119814Y64520186D01*
X68221271Y64603448D01*
X68257009Y64632778D01*
X68413534Y64716443D01*
X68583373Y64767963D01*
X68649557Y64774481D01*
X68715740Y64781000D01*
X68804260Y64781000D01*
X68870443Y64774481D01*
X68870443Y64774481D01*
G37*
G36*
X66330443Y64774481D02*
G01*
X66396627Y64767963D01*
X66566466Y64716443D01*
X66722991Y64632778D01*
X66758729Y64603448D01*
X66860186Y64520186D01*
X66943448Y64418729D01*
X66972778Y64382991D01*
X66972779Y64382989D01*
X67024379Y64286454D01*
X67056443Y64226466D01*
X67107963Y64056627D01*
X67125359Y63880000D01*
X67107963Y63703373D01*
X67056443Y63533534D01*
X66972778Y63377009D01*
X66943448Y63341271D01*
X66860186Y63239814D01*
X66776321Y63170989D01*
X66722991Y63127222D01*
X66566466Y63043557D01*
X66396627Y62992037D01*
X66330443Y62985519D01*
X66264260Y62979000D01*
X66175740Y62979000D01*
X66109557Y62985519D01*
X66043373Y62992037D01*
X65873534Y63043557D01*
X65717009Y63127222D01*
X65663679Y63170989D01*
X65579814Y63239814D01*
X65496552Y63341271D01*
X65467222Y63377009D01*
X65383557Y63533534D01*
X65332037Y63703373D01*
X65314641Y63880000D01*
X65332037Y64056627D01*
X65383557Y64226466D01*
X65415622Y64286454D01*
X65467221Y64382989D01*
X65467222Y64382991D01*
X65496552Y64418729D01*
X65579814Y64520186D01*
X65681271Y64603448D01*
X65717009Y64632778D01*
X65873534Y64716443D01*
X66043373Y64767963D01*
X66109557Y64774481D01*
X66175740Y64781000D01*
X66264260Y64781000D01*
X66330443Y64774481D01*
X66330443Y64774481D01*
G37*
G36*
X63790443Y64774481D02*
G01*
X63856627Y64767963D01*
X64026466Y64716443D01*
X64182991Y64632778D01*
X64218729Y64603448D01*
X64320186Y64520186D01*
X64403448Y64418729D01*
X64432778Y64382991D01*
X64432779Y64382989D01*
X64484379Y64286454D01*
X64516443Y64226466D01*
X64567963Y64056627D01*
X64585359Y63880000D01*
X64567963Y63703373D01*
X64516443Y63533534D01*
X64432778Y63377009D01*
X64403448Y63341271D01*
X64320186Y63239814D01*
X64236321Y63170989D01*
X64182991Y63127222D01*
X64026466Y63043557D01*
X63856627Y62992037D01*
X63790443Y62985519D01*
X63724260Y62979000D01*
X63635740Y62979000D01*
X63569557Y62985519D01*
X63503373Y62992037D01*
X63333534Y63043557D01*
X63177009Y63127222D01*
X63123679Y63170989D01*
X63039814Y63239814D01*
X62956552Y63341271D01*
X62927222Y63377009D01*
X62843557Y63533534D01*
X62792037Y63703373D01*
X62774641Y63880000D01*
X62792037Y64056627D01*
X62843557Y64226466D01*
X62875622Y64286454D01*
X62927221Y64382989D01*
X62927222Y64382991D01*
X62956552Y64418729D01*
X63039814Y64520186D01*
X63141271Y64603448D01*
X63177009Y64632778D01*
X63333534Y64716443D01*
X63503373Y64767963D01*
X63569557Y64774481D01*
X63635740Y64781000D01*
X63724260Y64781000D01*
X63790443Y64774481D01*
X63790443Y64774481D01*
G37*
G36*
X61250443Y64774481D02*
G01*
X61316627Y64767963D01*
X61486466Y64716443D01*
X61642991Y64632778D01*
X61678729Y64603448D01*
X61780186Y64520186D01*
X61863448Y64418729D01*
X61892778Y64382991D01*
X61892779Y64382989D01*
X61944379Y64286454D01*
X61976443Y64226466D01*
X62027963Y64056627D01*
X62045359Y63880000D01*
X62027963Y63703373D01*
X61976443Y63533534D01*
X61892778Y63377009D01*
X61863448Y63341271D01*
X61780186Y63239814D01*
X61696321Y63170989D01*
X61642991Y63127222D01*
X61486466Y63043557D01*
X61316627Y62992037D01*
X61250443Y62985519D01*
X61184260Y62979000D01*
X61095740Y62979000D01*
X61029557Y62985519D01*
X60963373Y62992037D01*
X60793534Y63043557D01*
X60637009Y63127222D01*
X60583679Y63170989D01*
X60499814Y63239814D01*
X60416552Y63341271D01*
X60387222Y63377009D01*
X60303557Y63533534D01*
X60252037Y63703373D01*
X60234641Y63880000D01*
X60252037Y64056627D01*
X60303557Y64226466D01*
X60335622Y64286454D01*
X60387221Y64382989D01*
X60387222Y64382991D01*
X60416552Y64418729D01*
X60499814Y64520186D01*
X60601271Y64603448D01*
X60637009Y64632778D01*
X60793534Y64716443D01*
X60963373Y64767963D01*
X61029557Y64774481D01*
X61095740Y64781000D01*
X61184260Y64781000D01*
X61250443Y64774481D01*
X61250443Y64774481D01*
G37*
G36*
X58710443Y64774481D02*
G01*
X58776627Y64767963D01*
X58946466Y64716443D01*
X59102991Y64632778D01*
X59138729Y64603448D01*
X59240186Y64520186D01*
X59323448Y64418729D01*
X59352778Y64382991D01*
X59352779Y64382989D01*
X59404379Y64286454D01*
X59436443Y64226466D01*
X59487963Y64056627D01*
X59505359Y63880000D01*
X59487963Y63703373D01*
X59436443Y63533534D01*
X59352778Y63377009D01*
X59323448Y63341271D01*
X59240186Y63239814D01*
X59156321Y63170989D01*
X59102991Y63127222D01*
X58946466Y63043557D01*
X58776627Y62992037D01*
X58710443Y62985519D01*
X58644260Y62979000D01*
X58555740Y62979000D01*
X58489557Y62985519D01*
X58423373Y62992037D01*
X58253534Y63043557D01*
X58097009Y63127222D01*
X58043679Y63170989D01*
X57959814Y63239814D01*
X57876552Y63341271D01*
X57847222Y63377009D01*
X57763557Y63533534D01*
X57712037Y63703373D01*
X57694641Y63880000D01*
X57712037Y64056627D01*
X57763557Y64226466D01*
X57795622Y64286454D01*
X57847221Y64382989D01*
X57847222Y64382991D01*
X57876552Y64418729D01*
X57959814Y64520186D01*
X58061271Y64603448D01*
X58097009Y64632778D01*
X58253534Y64716443D01*
X58423373Y64767963D01*
X58489557Y64774481D01*
X58555740Y64781000D01*
X58644260Y64781000D01*
X58710443Y64774481D01*
X58710443Y64774481D01*
G37*
G36*
X56170443Y64774481D02*
G01*
X56236627Y64767963D01*
X56406466Y64716443D01*
X56562991Y64632778D01*
X56598729Y64603448D01*
X56700186Y64520186D01*
X56783448Y64418729D01*
X56812778Y64382991D01*
X56812779Y64382989D01*
X56864379Y64286454D01*
X56896443Y64226466D01*
X56947963Y64056627D01*
X56965359Y63880000D01*
X56947963Y63703373D01*
X56896443Y63533534D01*
X56812778Y63377009D01*
X56783448Y63341271D01*
X56700186Y63239814D01*
X56616321Y63170989D01*
X56562991Y63127222D01*
X56406466Y63043557D01*
X56236627Y62992037D01*
X56170443Y62985519D01*
X56104260Y62979000D01*
X56015740Y62979000D01*
X55949557Y62985519D01*
X55883373Y62992037D01*
X55713534Y63043557D01*
X55557009Y63127222D01*
X55503679Y63170989D01*
X55419814Y63239814D01*
X55336552Y63341271D01*
X55307222Y63377009D01*
X55223557Y63533534D01*
X55172037Y63703373D01*
X55154641Y63880000D01*
X55172037Y64056627D01*
X55223557Y64226466D01*
X55255622Y64286454D01*
X55307221Y64382989D01*
X55307222Y64382991D01*
X55336552Y64418729D01*
X55419814Y64520186D01*
X55521271Y64603448D01*
X55557009Y64632778D01*
X55713534Y64716443D01*
X55883373Y64767963D01*
X55949557Y64774481D01*
X56015740Y64781000D01*
X56104260Y64781000D01*
X56170443Y64774481D01*
X56170443Y64774481D01*
G37*
G36*
X53630443Y64774481D02*
G01*
X53696627Y64767963D01*
X53866466Y64716443D01*
X54022991Y64632778D01*
X54058729Y64603448D01*
X54160186Y64520186D01*
X54243448Y64418729D01*
X54272778Y64382991D01*
X54272779Y64382989D01*
X54324379Y64286454D01*
X54356443Y64226466D01*
X54407963Y64056627D01*
X54425359Y63880000D01*
X54407963Y63703373D01*
X54356443Y63533534D01*
X54272778Y63377009D01*
X54243448Y63341271D01*
X54160186Y63239814D01*
X54076321Y63170989D01*
X54022991Y63127222D01*
X53866466Y63043557D01*
X53696627Y62992037D01*
X53630443Y62985519D01*
X53564260Y62979000D01*
X53475740Y62979000D01*
X53409557Y62985519D01*
X53343373Y62992037D01*
X53173534Y63043557D01*
X53017009Y63127222D01*
X52963679Y63170989D01*
X52879814Y63239814D01*
X52796552Y63341271D01*
X52767222Y63377009D01*
X52683557Y63533534D01*
X52632037Y63703373D01*
X52614641Y63880000D01*
X52632037Y64056627D01*
X52683557Y64226466D01*
X52715622Y64286454D01*
X52767221Y64382989D01*
X52767222Y64382991D01*
X52796552Y64418729D01*
X52879814Y64520186D01*
X52981271Y64603448D01*
X53017009Y64632778D01*
X53173534Y64716443D01*
X53343373Y64767963D01*
X53409557Y64774481D01*
X53475740Y64781000D01*
X53564260Y64781000D01*
X53630443Y64774481D01*
X53630443Y64774481D01*
G37*
G36*
X51090443Y64774481D02*
G01*
X51156627Y64767963D01*
X51326466Y64716443D01*
X51482991Y64632778D01*
X51518729Y64603448D01*
X51620186Y64520186D01*
X51703448Y64418729D01*
X51732778Y64382991D01*
X51732779Y64382989D01*
X51784379Y64286454D01*
X51816443Y64226466D01*
X51867963Y64056627D01*
X51885359Y63880000D01*
X51867963Y63703373D01*
X51816443Y63533534D01*
X51732778Y63377009D01*
X51703448Y63341271D01*
X51620186Y63239814D01*
X51536321Y63170989D01*
X51482991Y63127222D01*
X51326466Y63043557D01*
X51156627Y62992037D01*
X51090443Y62985519D01*
X51024260Y62979000D01*
X50935740Y62979000D01*
X50869557Y62985519D01*
X50803373Y62992037D01*
X50633534Y63043557D01*
X50477009Y63127222D01*
X50423679Y63170989D01*
X50339814Y63239814D01*
X50256552Y63341271D01*
X50227222Y63377009D01*
X50143557Y63533534D01*
X50092037Y63703373D01*
X50074641Y63880000D01*
X50092037Y64056627D01*
X50143557Y64226466D01*
X50175622Y64286454D01*
X50227221Y64382989D01*
X50227222Y64382991D01*
X50256552Y64418729D01*
X50339814Y64520186D01*
X50441271Y64603448D01*
X50477009Y64632778D01*
X50633534Y64716443D01*
X50803373Y64767963D01*
X50869557Y64774481D01*
X50935740Y64781000D01*
X51024260Y64781000D01*
X51090443Y64774481D01*
X51090443Y64774481D01*
G37*
G36*
X48550443Y64774481D02*
G01*
X48616627Y64767963D01*
X48786466Y64716443D01*
X48942991Y64632778D01*
X48978729Y64603448D01*
X49080186Y64520186D01*
X49163448Y64418729D01*
X49192778Y64382991D01*
X49192779Y64382989D01*
X49244379Y64286454D01*
X49276443Y64226466D01*
X49327963Y64056627D01*
X49345359Y63880000D01*
X49327963Y63703373D01*
X49276443Y63533534D01*
X49192778Y63377009D01*
X49163448Y63341271D01*
X49080186Y63239814D01*
X48996321Y63170989D01*
X48942991Y63127222D01*
X48786466Y63043557D01*
X48616627Y62992037D01*
X48550443Y62985519D01*
X48484260Y62979000D01*
X48395740Y62979000D01*
X48329557Y62985519D01*
X48263373Y62992037D01*
X48093534Y63043557D01*
X47937009Y63127222D01*
X47883679Y63170989D01*
X47799814Y63239814D01*
X47716552Y63341271D01*
X47687222Y63377009D01*
X47603557Y63533534D01*
X47552037Y63703373D01*
X47534641Y63880000D01*
X47552037Y64056627D01*
X47603557Y64226466D01*
X47635622Y64286454D01*
X47687221Y64382989D01*
X47687222Y64382991D01*
X47716552Y64418729D01*
X47799814Y64520186D01*
X47901271Y64603448D01*
X47937009Y64632778D01*
X48093534Y64716443D01*
X48263373Y64767963D01*
X48329557Y64774481D01*
X48395740Y64781000D01*
X48484260Y64781000D01*
X48550443Y64774481D01*
X48550443Y64774481D01*
G37*
G36*
X46010443Y64774481D02*
G01*
X46076627Y64767963D01*
X46246466Y64716443D01*
X46402991Y64632778D01*
X46438729Y64603448D01*
X46540186Y64520186D01*
X46623448Y64418729D01*
X46652778Y64382991D01*
X46652779Y64382989D01*
X46704379Y64286454D01*
X46736443Y64226466D01*
X46787963Y64056627D01*
X46805359Y63880000D01*
X46787963Y63703373D01*
X46736443Y63533534D01*
X46652778Y63377009D01*
X46623448Y63341271D01*
X46540186Y63239814D01*
X46456321Y63170989D01*
X46402991Y63127222D01*
X46246466Y63043557D01*
X46076627Y62992037D01*
X46010443Y62985519D01*
X45944260Y62979000D01*
X45855740Y62979000D01*
X45789557Y62985519D01*
X45723373Y62992037D01*
X45553534Y63043557D01*
X45397009Y63127222D01*
X45343679Y63170989D01*
X45259814Y63239814D01*
X45176552Y63341271D01*
X45147222Y63377009D01*
X45063557Y63533534D01*
X45012037Y63703373D01*
X44994641Y63880000D01*
X45012037Y64056627D01*
X45063557Y64226466D01*
X45095622Y64286454D01*
X45147221Y64382989D01*
X45147222Y64382991D01*
X45176552Y64418729D01*
X45259814Y64520186D01*
X45361271Y64603448D01*
X45397009Y64632778D01*
X45553534Y64716443D01*
X45723373Y64767963D01*
X45789557Y64774481D01*
X45855740Y64781000D01*
X45944260Y64781000D01*
X46010443Y64774481D01*
X46010443Y64774481D01*
G37*
G36*
X38390443Y64774481D02*
G01*
X38456627Y64767963D01*
X38626466Y64716443D01*
X38782991Y64632778D01*
X38818729Y64603448D01*
X38920186Y64520186D01*
X39003448Y64418729D01*
X39032778Y64382991D01*
X39032779Y64382989D01*
X39084379Y64286454D01*
X39116443Y64226466D01*
X39167963Y64056627D01*
X39185359Y63880000D01*
X39167963Y63703373D01*
X39116443Y63533534D01*
X39032778Y63377009D01*
X39003448Y63341271D01*
X38920186Y63239814D01*
X38836321Y63170989D01*
X38782991Y63127222D01*
X38626466Y63043557D01*
X38456627Y62992037D01*
X38390443Y62985519D01*
X38324260Y62979000D01*
X38235740Y62979000D01*
X38169557Y62985519D01*
X38103373Y62992037D01*
X37933534Y63043557D01*
X37777009Y63127222D01*
X37723679Y63170989D01*
X37639814Y63239814D01*
X37556552Y63341271D01*
X37527222Y63377009D01*
X37443557Y63533534D01*
X37392037Y63703373D01*
X37374641Y63880000D01*
X37392037Y64056627D01*
X37443557Y64226466D01*
X37475622Y64286454D01*
X37527221Y64382989D01*
X37527222Y64382991D01*
X37556552Y64418729D01*
X37639814Y64520186D01*
X37741271Y64603448D01*
X37777009Y64632778D01*
X37933534Y64716443D01*
X38103373Y64767963D01*
X38169557Y64774481D01*
X38235740Y64781000D01*
X38324260Y64781000D01*
X38390443Y64774481D01*
X38390443Y64774481D01*
G37*
G36*
X28230443Y64774481D02*
G01*
X28296627Y64767963D01*
X28466466Y64716443D01*
X28622991Y64632778D01*
X28658729Y64603448D01*
X28760186Y64520186D01*
X28843448Y64418729D01*
X28872778Y64382991D01*
X28872779Y64382989D01*
X28924379Y64286454D01*
X28956443Y64226466D01*
X29007963Y64056627D01*
X29025359Y63880000D01*
X29007963Y63703373D01*
X28956443Y63533534D01*
X28872778Y63377009D01*
X28843448Y63341271D01*
X28760186Y63239814D01*
X28676321Y63170989D01*
X28622991Y63127222D01*
X28466466Y63043557D01*
X28296627Y62992037D01*
X28230443Y62985519D01*
X28164260Y62979000D01*
X28075740Y62979000D01*
X28009557Y62985519D01*
X27943373Y62992037D01*
X27773534Y63043557D01*
X27617009Y63127222D01*
X27563679Y63170989D01*
X27479814Y63239814D01*
X27396552Y63341271D01*
X27367222Y63377009D01*
X27283557Y63533534D01*
X27232037Y63703373D01*
X27214641Y63880000D01*
X27232037Y64056627D01*
X27283557Y64226466D01*
X27315622Y64286454D01*
X27367221Y64382989D01*
X27367222Y64382991D01*
X27396552Y64418729D01*
X27479814Y64520186D01*
X27581271Y64603448D01*
X27617009Y64632778D01*
X27773534Y64716443D01*
X27943373Y64767963D01*
X28009557Y64774481D01*
X28075740Y64781000D01*
X28164260Y64781000D01*
X28230443Y64774481D01*
X28230443Y64774481D01*
G37*
G36*
X25690443Y64774481D02*
G01*
X25756627Y64767963D01*
X25926466Y64716443D01*
X26082991Y64632778D01*
X26118729Y64603448D01*
X26220186Y64520186D01*
X26303448Y64418729D01*
X26332778Y64382991D01*
X26332779Y64382989D01*
X26384379Y64286454D01*
X26416443Y64226466D01*
X26467963Y64056627D01*
X26485359Y63880000D01*
X26467963Y63703373D01*
X26416443Y63533534D01*
X26332778Y63377009D01*
X26303448Y63341271D01*
X26220186Y63239814D01*
X26136321Y63170989D01*
X26082991Y63127222D01*
X25926466Y63043557D01*
X25756627Y62992037D01*
X25690443Y62985519D01*
X25624260Y62979000D01*
X25535740Y62979000D01*
X25469557Y62985519D01*
X25403373Y62992037D01*
X25233534Y63043557D01*
X25077009Y63127222D01*
X25023679Y63170989D01*
X24939814Y63239814D01*
X24856552Y63341271D01*
X24827222Y63377009D01*
X24743557Y63533534D01*
X24692037Y63703373D01*
X24674641Y63880000D01*
X24692037Y64056627D01*
X24743557Y64226466D01*
X24775622Y64286454D01*
X24827221Y64382989D01*
X24827222Y64382991D01*
X24856552Y64418729D01*
X24939814Y64520186D01*
X25041271Y64603448D01*
X25077009Y64632778D01*
X25233534Y64716443D01*
X25403373Y64767963D01*
X25469557Y64774481D01*
X25535740Y64781000D01*
X25624260Y64781000D01*
X25690443Y64774481D01*
X25690443Y64774481D01*
G37*
G36*
X20610443Y64774481D02*
G01*
X20676627Y64767963D01*
X20846466Y64716443D01*
X21002991Y64632778D01*
X21038729Y64603448D01*
X21140186Y64520186D01*
X21223448Y64418729D01*
X21252778Y64382991D01*
X21252779Y64382989D01*
X21304379Y64286454D01*
X21336443Y64226466D01*
X21387963Y64056627D01*
X21405359Y63880000D01*
X21387963Y63703373D01*
X21336443Y63533534D01*
X21252778Y63377009D01*
X21223448Y63341271D01*
X21140186Y63239814D01*
X21056321Y63170989D01*
X21002991Y63127222D01*
X20846466Y63043557D01*
X20676627Y62992037D01*
X20610443Y62985519D01*
X20544260Y62979000D01*
X20455740Y62979000D01*
X20389557Y62985519D01*
X20323373Y62992037D01*
X20153534Y63043557D01*
X19997009Y63127222D01*
X19943679Y63170989D01*
X19859814Y63239814D01*
X19776552Y63341271D01*
X19747222Y63377009D01*
X19663557Y63533534D01*
X19612037Y63703373D01*
X19594641Y63880000D01*
X19612037Y64056627D01*
X19663557Y64226466D01*
X19695622Y64286454D01*
X19747221Y64382989D01*
X19747222Y64382991D01*
X19776552Y64418729D01*
X19859814Y64520186D01*
X19961271Y64603448D01*
X19997009Y64632778D01*
X20153534Y64716443D01*
X20323373Y64767963D01*
X20389557Y64774481D01*
X20455740Y64781000D01*
X20544260Y64781000D01*
X20610443Y64774481D01*
X20610443Y64774481D01*
G37*
G36*
X23150443Y64774481D02*
G01*
X23216627Y64767963D01*
X23386466Y64716443D01*
X23542991Y64632778D01*
X23578729Y64603448D01*
X23680186Y64520186D01*
X23763448Y64418729D01*
X23792778Y64382991D01*
X23792779Y64382989D01*
X23844379Y64286454D01*
X23876443Y64226466D01*
X23927963Y64056627D01*
X23945359Y63880000D01*
X23927963Y63703373D01*
X23876443Y63533534D01*
X23792778Y63377009D01*
X23763448Y63341271D01*
X23680186Y63239814D01*
X23596321Y63170989D01*
X23542991Y63127222D01*
X23386466Y63043557D01*
X23216627Y62992037D01*
X23150443Y62985519D01*
X23084260Y62979000D01*
X22995740Y62979000D01*
X22929557Y62985519D01*
X22863373Y62992037D01*
X22693534Y63043557D01*
X22537009Y63127222D01*
X22483679Y63170989D01*
X22399814Y63239814D01*
X22316552Y63341271D01*
X22287222Y63377009D01*
X22203557Y63533534D01*
X22152037Y63703373D01*
X22134641Y63880000D01*
X22152037Y64056627D01*
X22203557Y64226466D01*
X22235622Y64286454D01*
X22287221Y64382989D01*
X22287222Y64382991D01*
X22316552Y64418729D01*
X22399814Y64520186D01*
X22501271Y64603448D01*
X22537009Y64632778D01*
X22693534Y64716443D01*
X22863373Y64767963D01*
X22929557Y64774481D01*
X22995740Y64781000D01*
X23084260Y64781000D01*
X23150443Y64774481D01*
X23150443Y64774481D01*
G37*
G36*
X30770443Y64774481D02*
G01*
X30836627Y64767963D01*
X31006466Y64716443D01*
X31162991Y64632778D01*
X31198729Y64603448D01*
X31300186Y64520186D01*
X31383448Y64418729D01*
X31412778Y64382991D01*
X31412779Y64382989D01*
X31464379Y64286454D01*
X31496443Y64226466D01*
X31547963Y64056627D01*
X31565359Y63880000D01*
X31547963Y63703373D01*
X31496443Y63533534D01*
X31412778Y63377009D01*
X31383448Y63341271D01*
X31300186Y63239814D01*
X31216321Y63170989D01*
X31162991Y63127222D01*
X31006466Y63043557D01*
X30836627Y62992037D01*
X30770443Y62985519D01*
X30704260Y62979000D01*
X30615740Y62979000D01*
X30549557Y62985519D01*
X30483373Y62992037D01*
X30313534Y63043557D01*
X30157009Y63127222D01*
X30103679Y63170989D01*
X30019814Y63239814D01*
X29936552Y63341271D01*
X29907222Y63377009D01*
X29823557Y63533534D01*
X29772037Y63703373D01*
X29754641Y63880000D01*
X29772037Y64056627D01*
X29823557Y64226466D01*
X29855622Y64286454D01*
X29907221Y64382989D01*
X29907222Y64382991D01*
X29936552Y64418729D01*
X30019814Y64520186D01*
X30121271Y64603448D01*
X30157009Y64632778D01*
X30313534Y64716443D01*
X30483373Y64767963D01*
X30549557Y64774481D01*
X30615740Y64781000D01*
X30704260Y64781000D01*
X30770443Y64774481D01*
X30770443Y64774481D01*
G37*
M02*
