G04 #@! TF.GenerationSoftware,KiCad,Pcbnew,5.1.4-e60b266~84~ubuntu16.04.1*
G04 #@! TF.CreationDate,2019-11-21T17:23:13+01:00*
G04 #@! TF.ProjectId,SRAM_board,5352414d-5f62-46f6-9172-642e6b696361,rev?*
G04 #@! TF.SameCoordinates,Original*
G04 #@! TF.FileFunction,Copper,L3,Inr*
G04 #@! TF.FilePolarity,Positive*
%FSLAX46Y46*%
G04 Gerber Fmt 4.6, Leading zero omitted, Abs format (unit mm)*
G04 Created by KiCad (PCBNEW 5.1.4-e60b266~84~ubuntu16.04.1) date 2019-11-21 17:23:13*
%MOMM*%
%LPD*%
G04 APERTURE LIST*
%ADD10C,0.050000*%
%ADD11C,6.350000*%
%ADD12R,1.600000X1.600000*%
%ADD13C,1.600000*%
%ADD14R,1.700000X1.700000*%
%ADD15O,1.700000X1.700000*%
%ADD16O,1.600000X0.900000*%
%ADD17C,1.900000*%
%ADD18C,0.600000*%
%ADD19C,0.800000*%
%ADD20C,0.088900*%
%ADD21C,0.152400*%
G04 APERTURE END LIST*
D10*
X104280000Y66110000D02*
X104280000Y66030000D01*
X104280000Y-3885000D02*
X104280000Y-3800000D01*
X-3720000Y-3800000D02*
X-3720000Y-3885000D01*
X-3720000Y66030000D02*
X-3720000Y66110000D01*
X104280000Y-3800000D02*
X104280000Y66030000D01*
X-3720000Y-3885000D02*
X104280000Y-3885000D01*
X-3720000Y66110000D02*
X104280000Y66110000D01*
X-3720000Y-3800000D02*
X-3720000Y66030000D01*
D11*
X100440000Y62230000D03*
X100440000Y0D03*
X0Y62230000D03*
X0Y0D03*
D12*
X74879200Y3530600D03*
D13*
X74879200Y1030600D03*
X79516600Y16017240D03*
D12*
X82016600Y16017240D03*
X74655680Y15930880D03*
D13*
X72155680Y15930880D03*
D14*
X48370000Y55250000D03*
D15*
X50910000Y55250000D03*
X53450000Y55250000D03*
X55990000Y55250000D03*
X58530000Y55250000D03*
X61070000Y55250000D03*
X63610000Y55250000D03*
X66150000Y55250000D03*
D14*
X53450000Y6990000D03*
D15*
X55990000Y6990000D03*
X58530000Y6990000D03*
X61070000Y6990000D03*
X63610000Y6990000D03*
X66150000Y6990000D03*
D14*
X21450000Y55250000D03*
D15*
X23990000Y55250000D03*
X26530000Y55250000D03*
X29070000Y55250000D03*
X31610000Y55250000D03*
X34150000Y55250000D03*
X36690000Y55250000D03*
X39230000Y55250000D03*
X41770000Y55250000D03*
X44310000Y55250000D03*
X48370000Y6990000D03*
X45830000Y6990000D03*
X43290000Y6990000D03*
X40750000Y6990000D03*
X38210000Y6990000D03*
X35670000Y6990000D03*
X33130000Y6990000D03*
D14*
X30590000Y6990000D03*
X10706100Y51981100D03*
X64566800Y26009600D03*
D15*
X67106800Y26009600D03*
X69646800Y26009600D03*
X72186800Y26009600D03*
D14*
X75844400Y26009600D03*
D15*
X68760000Y63880000D03*
X68760000Y61340000D03*
X66220000Y63880000D03*
X66220000Y61340000D03*
X63680000Y63880000D03*
X63680000Y61340000D03*
X61140000Y63880000D03*
X61140000Y61340000D03*
X58600000Y63880000D03*
X58600000Y61340000D03*
X56060000Y63880000D03*
X56060000Y61340000D03*
X53520000Y63880000D03*
X53520000Y61340000D03*
X50980000Y63880000D03*
X50980000Y61340000D03*
X48440000Y63880000D03*
X48440000Y61340000D03*
X45900000Y63880000D03*
X45900000Y61340000D03*
X43360000Y63880000D03*
X43360000Y61340000D03*
X40820000Y63880000D03*
X40820000Y61340000D03*
X38280000Y63880000D03*
X38280000Y61340000D03*
X35740000Y63880000D03*
X35740000Y61340000D03*
X33200000Y63880000D03*
X33200000Y61340000D03*
X30660000Y63880000D03*
X30660000Y61340000D03*
X28120000Y63880000D03*
X28120000Y61340000D03*
X25580000Y63880000D03*
X25580000Y61340000D03*
X23040000Y63880000D03*
X23040000Y61340000D03*
X20500000Y63880000D03*
D14*
X20500000Y61340000D03*
X68760000Y0D03*
D15*
X68760000Y-2540000D03*
X66220000Y0D03*
X66220000Y-2540000D03*
X63680000Y0D03*
X63680000Y-2540000D03*
X61140000Y0D03*
X61140000Y-2540000D03*
X58600000Y0D03*
X58600000Y-2540000D03*
X56060000Y0D03*
X56060000Y-2540000D03*
X53520000Y0D03*
X53520000Y-2540000D03*
X50980000Y0D03*
X50980000Y-2540000D03*
X48440000Y0D03*
X48440000Y-2540000D03*
X45900000Y0D03*
X45900000Y-2540000D03*
X43360000Y0D03*
X43360000Y-2540000D03*
X40820000Y0D03*
X40820000Y-2540000D03*
X38280000Y0D03*
X38280000Y-2540000D03*
X35740000Y0D03*
X35740000Y-2540000D03*
X33200000Y0D03*
X33200000Y-2540000D03*
X30660000Y0D03*
X30660000Y-2540000D03*
X28120000Y0D03*
X28120000Y-2540000D03*
X25580000Y0D03*
X25580000Y-2540000D03*
X23040000Y0D03*
X23040000Y-2540000D03*
X20500000Y0D03*
X20500000Y-2540000D03*
D16*
X-2286000Y32733520D03*
X-2286000Y26133520D03*
D17*
X100939600Y25247600D03*
X100939600Y27787600D03*
X100939600Y30327600D03*
X100939600Y32867600D03*
X100939600Y35407600D03*
X100939600Y37947600D03*
X100939600Y40487600D03*
X100939600Y43027600D03*
X100939600Y45567600D03*
X100939600Y22009100D03*
X100939600Y19469100D03*
X100939600Y16929100D03*
X100939600Y14389100D03*
X100939600Y11849100D03*
X100939600Y9309100D03*
D15*
X29006800Y43853100D03*
X26466800Y43853100D03*
X23926800Y43853100D03*
D14*
X21386800Y43853100D03*
D18*
X76098400Y33985200D03*
X75412600Y33985200D03*
X74752200Y33985200D03*
X74091800Y33985200D03*
X76098400Y34645600D03*
X74091800Y34645600D03*
X74091800Y35306000D03*
X76098400Y35306000D03*
X76098400Y36017200D03*
X75412600Y36017200D03*
X74752200Y36017200D03*
X74091800Y36017200D03*
D19*
X51384200Y45491400D03*
X49225200Y47675800D03*
X43383200Y47675800D03*
X59261150Y37109400D03*
X59309000Y35052000D03*
X59080400Y24765000D03*
X38989000Y14960600D03*
X48006000Y15189200D03*
X30883330Y37388800D03*
X31031959Y30085162D03*
X31038800Y25120600D03*
X59283600Y29946600D03*
X79400400Y0D03*
X79476600Y9702800D03*
X90449400Y1295400D03*
X95935800Y6756400D03*
X7594600Y33248600D03*
X7594600Y30708600D03*
X3657600Y32613600D03*
X3530600Y26263600D03*
X-279400Y28295600D03*
X3530600Y28803600D03*
X3530600Y27533600D03*
X27914600Y31978600D03*
X18008600Y32486600D03*
X18009278Y33497979D03*
X17881600Y28930600D03*
X17881600Y28041600D03*
X15722600Y40741600D03*
D18*
X94462600Y42011600D03*
D19*
X63411100Y31343600D03*
X63665100Y38773100D03*
D18*
X65760600Y37312600D03*
X67094100Y35217100D03*
X68110100Y35217100D03*
X64744600Y33756600D03*
D19*
X-1676400Y45567600D03*
X3213100Y56997600D03*
X5562600Y53822600D03*
D18*
X70104000Y21844000D03*
X77470000Y21844000D03*
D19*
X78333600Y56743600D03*
X78384400Y61772800D03*
X87274400Y61722000D03*
X87223600Y56642000D03*
X90373200Y62992000D03*
X94792800Y62992000D03*
X85293200Y47548800D03*
X71424800Y47650400D03*
X72593200Y37719000D03*
X81864200Y30962600D03*
X81203800Y37160200D03*
X74193400Y40132040D03*
X76606400Y40132040D03*
X18008600Y31597600D03*
X50012600Y32359600D03*
X39408100Y27914600D03*
D18*
X81026000Y52222400D03*
X53043507Y48599742D03*
X75590400Y52120800D03*
X53685545Y49077016D03*
X51155600Y30619603D03*
X63982600Y40640582D03*
X63982600Y41440585D03*
X63982600Y42240588D03*
X63982600Y43040591D03*
X63982600Y43840594D03*
X63982600Y44640597D03*
X63982600Y45440600D03*
D19*
X-1651000Y50444400D03*
X85318600Y43865800D03*
D18*
X71426051Y40169558D03*
X70755685Y33993915D03*
D19*
X5765800Y49606200D03*
X85293200Y42621200D03*
D18*
X71399400Y39370000D03*
X70765368Y33193971D03*
X94792800Y51562000D03*
X51765200Y47650400D03*
X90373200Y51663600D03*
X52451196Y48061997D03*
X62776100Y33058100D03*
X63347600Y34328100D03*
X63855600Y35026600D03*
X64808100Y36296600D03*
X72034400Y35534600D03*
X72034400Y30835600D03*
X38709600Y21615594D03*
X53187600Y41757600D03*
X36931600Y41757600D03*
X51155600Y21615594D03*
X45821600Y39725600D03*
X46843625Y40227575D03*
X38709600Y29565600D03*
X51155600Y39979600D03*
X38709600Y28765597D03*
X51155600Y39179597D03*
X38709600Y27025600D03*
X51155600Y37693600D03*
X38709600Y26225597D03*
X51155600Y36893597D03*
X38709600Y25425594D03*
X51155600Y36093594D03*
X38709600Y24625591D03*
X51155600Y35293591D03*
X38709600Y23215600D03*
X51155600Y33629600D03*
X38709600Y22415597D03*
X51155600Y32829597D03*
X38709600Y32829597D03*
X51155600Y29819600D03*
X38709600Y33629600D03*
X51155600Y29019597D03*
X38709600Y35039591D03*
X51155600Y27279600D03*
X38709600Y35839594D03*
X51155600Y26479597D03*
X38709600Y36639597D03*
X51155600Y25679594D03*
X38709600Y37439600D03*
X51155600Y24879591D03*
X38709600Y39179597D03*
X51155600Y23215600D03*
X38709600Y39979600D03*
X51155600Y22415597D03*
X50237405Y40435539D03*
X49377600Y39725600D03*
X49001250Y40741600D03*
X47853600Y39725600D03*
X44842050Y40741600D03*
X43027600Y39725600D03*
X44297600Y39725600D03*
X41757600Y39725600D03*
X43572050Y40741600D03*
X42302050Y40741600D03*
X41032050Y40741600D03*
X40487600Y39725600D03*
X39725600Y40741600D03*
X38709600Y40779603D03*
X38709600Y18135600D03*
X39509603Y18135600D03*
X50355597Y18135600D03*
X51155600Y18135600D03*
X52171600Y42265600D03*
X38709600Y32029594D03*
X39479278Y22197424D03*
X40279276Y22199731D03*
X41275000Y32385000D03*
X41879278Y22199613D03*
X42011600Y23215600D03*
X42011600Y24015603D03*
X42011600Y24815606D03*
X47853600Y24739600D03*
X47853600Y23761603D03*
X47853600Y22961600D03*
X47959552Y21691588D03*
X48759553Y21691653D03*
X49559554Y21691264D03*
X50359548Y21694996D03*
D20*
X80315241Y51922401D02*
X77349380Y48956540D01*
X80726001Y51922401D02*
X80315241Y51922401D01*
X81026000Y52222400D02*
X80726001Y51922401D01*
X77349380Y48956540D02*
X77349380Y47330940D01*
X77349380Y47330940D02*
X76581311Y46562871D01*
X76581311Y46562871D02*
X53619089Y46562871D01*
X53043507Y47138453D02*
X53043507Y48599742D01*
X53619089Y46562871D02*
X53043507Y47138453D01*
X75590400Y52120800D02*
X75590400Y47715381D01*
X75590400Y47715381D02*
X74726800Y46851781D01*
X63514181Y46851781D02*
X53738759Y46851781D01*
X74726800Y46851781D02*
X63514181Y46851781D01*
X63514181Y46851781D02*
X63449200Y46851781D01*
X53738759Y46851781D02*
X53340000Y47250540D01*
X53340000Y47250540D02*
X53340000Y47701200D01*
X53685545Y48046745D02*
X53685545Y49077016D01*
X53340000Y47701200D02*
X53685545Y48046745D01*
X51155600Y30619603D02*
X50720513Y31054690D01*
X39392902Y31054690D02*
X37947600Y29609388D01*
X50720513Y31054690D02*
X39392902Y31054690D01*
X37947600Y29609388D02*
X37947600Y24076548D01*
X37369780Y23498728D02*
X37369780Y20870208D01*
X37947600Y24076548D02*
X37369780Y23498728D01*
X37369780Y20870208D02*
X36612996Y20113424D01*
X33089884Y20113424D02*
X25301770Y12325310D01*
X36612996Y20113424D02*
X33089884Y20113424D01*
X25301770Y12325310D02*
X25301770Y4450550D01*
X25301770Y4450550D02*
X21742400Y891180D01*
X21742400Y-1242400D02*
X23040000Y-2540000D01*
X21742400Y891180D02*
X21742400Y-1242400D01*
D21*
X97891600Y22009100D02*
X100939600Y22009100D01*
X96662830Y20780330D02*
X97891600Y22009100D01*
X63290681Y20780330D02*
X96662830Y20780330D01*
X60012770Y17502419D02*
X60219208Y17708856D01*
X60012770Y9469534D02*
X60012770Y17502419D01*
X53450000Y6990000D02*
X53450000Y7992400D01*
X53450000Y7992400D02*
X54293610Y8836010D01*
X54293610Y8836010D02*
X59379246Y8836010D01*
X60219208Y17708856D02*
X63290681Y20780330D01*
X59379246Y8836010D02*
X60012770Y9469534D01*
X55990000Y8192081D02*
X56281519Y8483600D01*
X55990000Y6990000D02*
X55990000Y8192081D01*
X56281519Y8483600D02*
X59525218Y8483600D01*
X59525218Y8483600D02*
X60365180Y9323562D01*
X60365180Y17356446D02*
X63436654Y20427920D01*
X60365180Y9323562D02*
X60365180Y17356446D01*
X63436654Y20427920D02*
X67735420Y20427920D01*
X67735420Y20427920D02*
X68046600Y20427920D01*
X97535632Y19469100D02*
X100939600Y19469100D01*
X96576812Y20427920D02*
X97535632Y19469100D01*
X67735420Y20427920D02*
X96576812Y20427920D01*
X60717590Y17210473D02*
X63582627Y20075510D01*
X60717590Y9177590D02*
X60717590Y17210473D01*
X58530000Y6990000D02*
X60717590Y9177590D01*
X67827510Y20075510D02*
X96430839Y20075510D01*
X96430839Y20075510D02*
X97805830Y18700519D01*
X63582627Y20075510D02*
X67827510Y20075510D01*
X67827510Y20075510D02*
X68046600Y20075510D01*
X97805830Y18700519D02*
X97805830Y17649870D01*
X98526600Y16929100D02*
X100939600Y16929100D01*
X97805830Y17649870D02*
X98526600Y16929100D01*
X61070000Y6990000D02*
X61070000Y17064500D01*
X61070000Y17064500D02*
X63728600Y19723100D01*
X96284866Y19723100D02*
X97453420Y18554546D01*
X67792600Y19723100D02*
X96284866Y19723100D01*
X63728600Y19723100D02*
X67792600Y19723100D01*
X67792600Y19723100D02*
X67983100Y19723100D01*
X97453420Y18554546D02*
X97453420Y15144780D01*
X98209100Y14389100D02*
X100939600Y14389100D01*
X97453420Y15144780D02*
X98209100Y14389100D01*
X98082100Y11849100D02*
X100939600Y11849100D01*
X97101010Y12830190D02*
X98082100Y11849100D01*
X96138893Y19370690D02*
X97101010Y18408573D01*
X97101010Y18408573D02*
X97101010Y12830190D01*
X63610000Y6990000D02*
X61422410Y9177590D01*
X61422410Y9177590D02*
X61422410Y16918528D01*
X61422410Y16918528D02*
X63874572Y19370690D01*
X63874572Y19370690D02*
X96138893Y19370690D01*
X98145600Y9309100D02*
X100939600Y9309100D01*
X62614782Y8483600D02*
X61774820Y9323562D01*
X65858481Y8483600D02*
X62614782Y8483600D01*
X61774820Y16772556D02*
X64020544Y19018280D01*
X96748600Y18262600D02*
X96748600Y10706100D01*
X66150000Y8192081D02*
X65858481Y8483600D01*
X61774820Y9323562D02*
X61774820Y16772556D01*
X64020544Y19018280D02*
X95992920Y19018280D01*
X95992920Y19018280D02*
X96748600Y18262600D01*
X66150000Y6990000D02*
X66150000Y8192081D01*
X96748600Y10706100D02*
X98145600Y9309100D01*
D20*
X-1651000Y50444400D02*
X-1651000Y53873400D01*
X-274400Y55250000D02*
X21450000Y55250000D01*
X-1651000Y53873400D02*
X-274400Y55250000D01*
X53561270Y44891310D02*
X58946071Y44891309D01*
X50012600Y51892200D02*
X50012600Y48439980D01*
X52197000Y54076600D02*
X50012600Y51892200D01*
X50012600Y48439980D02*
X53561270Y44891310D01*
X52197000Y55933886D02*
X52197000Y54076600D01*
X51403177Y56727709D02*
X52197000Y55933886D01*
X21450000Y55250000D02*
X22388900Y55250000D01*
X22388900Y55250000D02*
X23866609Y56727709D01*
X58946071Y44891309D02*
X63741249Y40096131D01*
X23866609Y56727709D02*
X51403177Y56727709D01*
X71352624Y40096131D02*
X71426051Y40169558D01*
X63741249Y40096131D02*
X71352624Y40096131D01*
X81222799Y41065399D02*
X72321892Y41065399D01*
X72321892Y41065399D02*
X71426051Y40169558D01*
X84023200Y43865800D02*
X81222799Y41065399D01*
X85318600Y43865800D02*
X84023200Y43865800D01*
X22895549Y54155549D02*
X23990000Y55250000D01*
X9749464Y54155549D02*
X22895549Y54155549D01*
X5765800Y50171885D02*
X9749464Y54155549D01*
X5765800Y49606200D02*
X5765800Y50171885D01*
X23990000Y43827400D02*
X23926800Y43764200D01*
X23990000Y55250000D02*
X23990000Y43827400D01*
X63621579Y39807221D02*
X70962179Y39807221D01*
X49682400Y48361600D02*
X53441600Y44602400D01*
X49682400Y56077612D02*
X49682400Y48361600D01*
X58826400Y44602400D02*
X63621579Y39807221D01*
X53441600Y44602400D02*
X58826400Y44602400D01*
X23990000Y55250000D02*
X25178800Y56438800D01*
X25178800Y56438800D02*
X49321212Y56438800D01*
X49321212Y56438800D02*
X49682400Y56077612D01*
X70962179Y39807221D02*
X71399400Y39370000D01*
X72805889Y40776489D02*
X71399400Y39370000D01*
X81342470Y40776490D02*
X72805889Y40776489D01*
X83187180Y42621200D02*
X81342470Y40776490D01*
X85293200Y42621200D02*
X83187180Y42621200D01*
X26466800Y50106800D02*
X26466800Y43764200D01*
X31610000Y55250000D02*
X26466800Y50106800D01*
X34150000Y55250000D02*
X32743210Y53843210D01*
X32743210Y53843210D02*
X30611790Y53843210D01*
X30611790Y53843210D02*
X26755710Y49987130D01*
X26755710Y46015290D02*
X29006800Y43764200D01*
X26755710Y49987130D02*
X26755710Y46015290D01*
X76820651Y45985051D02*
X53379749Y45985051D01*
X77927200Y47091600D02*
X76820651Y45985051D01*
X94792800Y51562000D02*
X93881590Y50650790D01*
X93881590Y50650790D02*
X79860790Y50650790D01*
X79860790Y50650790D02*
X77927200Y48717200D01*
X77927200Y48717200D02*
X77927200Y47091600D01*
X53379749Y45985051D02*
X51765200Y47599600D01*
X51765200Y47599600D02*
X51765200Y47650400D01*
X90373200Y51663600D02*
X89712800Y51003200D01*
X90373200Y51663600D02*
X89649300Y50939700D01*
X89649300Y50939700D02*
X79741119Y50939699D01*
X79741119Y50939699D02*
X77638290Y48836870D01*
X77638290Y48836870D02*
X77638290Y47211270D01*
X77638290Y47211270D02*
X76700981Y46273961D01*
X76700981Y46273961D02*
X53499419Y46273961D01*
X52451196Y47322184D02*
X52451196Y48061997D01*
X53499419Y46273961D02*
X52451196Y47322184D01*
X62776100Y33058100D02*
X63665100Y33058100D01*
X64566800Y32156400D02*
X63665100Y33058100D01*
X64566800Y26009600D02*
X64566800Y32156400D01*
X64906510Y32225270D02*
X64906510Y28209890D01*
X63347600Y33784180D02*
X64906510Y32225270D01*
X64906510Y28209890D02*
X67106800Y26009600D01*
X63347600Y34328100D02*
X63347600Y33784180D01*
X67908751Y26859599D02*
X68796801Y26859599D01*
X68796801Y26859599D02*
X69646800Y26009600D01*
X65195420Y29572930D02*
X67908751Y26859599D01*
X65195420Y32344940D02*
X65195420Y29572930D01*
X63855600Y34602336D02*
X64046100Y34411836D01*
X64046100Y33494260D02*
X65195420Y32344940D01*
X63855600Y35026600D02*
X63855600Y34602336D01*
X64046100Y34411836D02*
X64046100Y33494260D01*
X70662800Y27533600D02*
X72186800Y26009600D01*
X67665600Y27533600D02*
X70662800Y27533600D01*
X65506600Y29692600D02*
X67665600Y27533600D01*
X65484330Y33822658D02*
X65484330Y29692600D01*
X64808100Y34498888D02*
X65484330Y33822658D01*
X64808100Y36296600D02*
X64808100Y34498888D01*
X65484330Y29692600D02*
X65506600Y29692600D01*
X51700051Y32568260D02*
X50475391Y31343600D01*
X51700051Y41794051D02*
X51700051Y32568260D01*
X52171600Y42265600D02*
X51700051Y41794051D01*
X50475391Y31343600D02*
X49631600Y31343600D01*
X39273231Y31343599D02*
X37658690Y29729058D01*
X49631600Y31343600D02*
X39273231Y31343599D01*
X37658690Y29729058D02*
X37658690Y24196218D01*
X37658690Y24196218D02*
X37080870Y23618398D01*
X37080870Y23618398D02*
X37080870Y20989878D01*
X37080870Y20989878D02*
X36493326Y20402334D01*
X32970213Y20402333D02*
X25012860Y12444980D01*
X36493326Y20402334D02*
X32970213Y20402333D01*
X25012860Y12444980D02*
X25012860Y5226260D01*
X21349999Y849999D02*
X20500000Y0D01*
X21349999Y1563399D02*
X21349999Y849999D01*
X25012860Y5226260D02*
X21349999Y1563399D01*
X19255400Y-1295400D02*
X20500000Y-2540000D01*
X19202400Y-1295400D02*
X19255400Y-1295400D01*
X19202400Y431800D02*
X19202400Y-1295400D01*
X38709600Y31188548D02*
X37369780Y29848728D01*
X24723950Y12564650D02*
X24723950Y5953350D01*
X36791960Y23738068D02*
X36791960Y21109548D01*
X37369780Y29848728D02*
X37369780Y24315888D01*
X36791960Y21109548D02*
X36373654Y20691242D01*
X37369780Y24315888D02*
X36791960Y23738068D01*
X36373654Y20691242D02*
X32850542Y20691242D01*
X32850542Y20691242D02*
X24723950Y12564650D01*
X38709600Y32029594D02*
X38709600Y31188548D01*
X24723950Y5953350D02*
X19202400Y431800D01*
X39479278Y22197424D02*
X39479278Y21579484D01*
X39479278Y22197424D02*
X39479278Y20767275D01*
X38836600Y20124597D02*
X37849908Y20124596D01*
X39479278Y20767275D02*
X38836600Y20124597D01*
X36972008Y19246696D02*
X35934496Y19246696D01*
X35934496Y19246696D02*
X35934494Y19246694D01*
X37849908Y20124596D02*
X36972008Y19246696D01*
X33448894Y19246694D02*
X26168500Y11966300D01*
X35934494Y19246694D02*
X33448894Y19246694D01*
X26168500Y11966300D02*
X26168500Y2724300D01*
X25580000Y2135800D02*
X25580000Y0D01*
X26168500Y2724300D02*
X25781000Y2336800D01*
X25781000Y2336800D02*
X25580000Y2135800D01*
X25781000Y2336800D02*
X25628600Y2184400D01*
X40279276Y22199731D02*
X40279276Y20583927D01*
X37969579Y19835687D02*
X37091678Y18957786D01*
X39531036Y19835687D02*
X37969579Y19835687D01*
X40279276Y20583927D02*
X39531036Y19835687D01*
X37091678Y18957786D02*
X36068000Y18957786D01*
X33568565Y18957785D02*
X26457410Y11846630D01*
X36068000Y18957786D02*
X33568565Y18957785D01*
X26457410Y11846630D02*
X26457410Y2149610D01*
X27025549Y-1445549D02*
X28120000Y-2540000D01*
X27025549Y1581471D02*
X27025549Y-1445549D01*
X26457410Y2149610D02*
X27025549Y1581471D01*
X41275000Y32385000D02*
X41859200Y32969200D01*
X41859200Y32969200D02*
X46736000Y32969200D01*
X48456799Y54224301D02*
X48370000Y54311100D01*
X48456799Y34689999D02*
X48456799Y54224301D01*
X48370000Y54311100D02*
X48370000Y55250000D01*
X46736000Y32969200D02*
X48456799Y34689999D01*
X38089250Y19546778D02*
X37211348Y18668876D01*
X39650708Y19546779D02*
X38089250Y19546778D01*
X41879278Y21775349D02*
X39650708Y19546779D01*
X41879278Y22199613D02*
X41879278Y21775349D01*
X33688236Y18668876D02*
X26746320Y11726960D01*
X37211348Y18668876D02*
X33688236Y18668876D01*
X26746322Y8737478D02*
X26746322Y4986238D01*
X26746320Y11726960D02*
X26746320Y9271120D01*
X26746320Y9271120D02*
X26746320Y8737480D01*
X26746320Y9271120D02*
X26746320Y9220200D01*
X26746320Y8737480D02*
X26746322Y8737478D01*
X26746322Y4986238D02*
X28117800Y3614760D01*
X28117800Y1803400D02*
X28120000Y1801200D01*
X28117800Y3614760D02*
X28117800Y1803400D01*
X28120000Y1801200D02*
X28120000Y0D01*
X28117800Y1803400D02*
X28117800Y1600200D01*
X38448263Y23760051D02*
X37947600Y23259388D01*
X41467149Y23760051D02*
X38448263Y23760051D01*
X42011600Y23215600D02*
X41467149Y23760051D01*
X37947600Y20630868D02*
X36852338Y19535606D01*
X37947600Y23259388D02*
X37947600Y20630868D01*
X33329226Y19535606D02*
X25879590Y12085970D01*
X36852338Y19535606D02*
X33329226Y19535606D01*
X25879590Y12085970D02*
X25879590Y2843970D01*
X25879590Y2843970D02*
X24333200Y1297580D01*
X24333200Y-1293200D02*
X25580000Y-2540000D01*
X24333200Y-1041400D02*
X24333200Y-1293200D01*
X24333200Y1297580D02*
X24333200Y-1041400D01*
X24333200Y-1041400D02*
X24333200Y-1244600D01*
X38328592Y24048960D02*
X37658690Y23379058D01*
X37658690Y20750538D02*
X36732668Y19824516D01*
X37658690Y23379058D02*
X37658690Y20750538D01*
X36732668Y19824516D02*
X33209555Y19824515D01*
X33209555Y19824515D02*
X25590680Y12205640D01*
X25590680Y12205640D02*
X25590680Y4330880D01*
X23164800Y1905000D02*
X23040000Y1780200D01*
X25590680Y4330880D02*
X23164800Y1905000D01*
X23040000Y1780200D02*
X23040000Y0D01*
X23164800Y1905000D02*
X23139400Y1879600D01*
X41978243Y24048960D02*
X42011600Y24015603D01*
X38328592Y24048960D02*
X41978243Y24048960D01*
X42556051Y24271155D02*
X42011600Y24815606D01*
X42556051Y20458051D02*
X42556051Y24271155D01*
X42556051Y20458051D02*
X42556051Y20376260D01*
X29701600Y-1581600D02*
X30660000Y-2540000D01*
X29565549Y-1445549D02*
X29701600Y-1581600D01*
X29565549Y-1258209D02*
X29565549Y-1445549D01*
X29567778Y-1238426D02*
X29565549Y-1258209D01*
X29574353Y-1219636D02*
X29567778Y-1238426D01*
X29932078Y-1010904D02*
X29946154Y-1024980D01*
X29915222Y-1000312D02*
X29932078Y-1010904D01*
X29896432Y-993737D02*
X29915222Y-1000312D01*
X29876649Y-991509D02*
X29896432Y-993737D01*
X29254449Y-991509D02*
X29876649Y-991509D01*
X29234666Y-989280D02*
X29254449Y-991509D01*
X29199020Y-972113D02*
X29215876Y-982705D01*
X29184944Y-958037D02*
X29199020Y-972113D01*
X29174352Y-941181D02*
X29184944Y-958037D01*
X29167777Y-922391D02*
X29174352Y-941181D01*
X29199020Y-833104D02*
X29184944Y-847180D01*
X29715222Y777687D02*
X29732078Y767095D01*
X29932078Y2050486D02*
X29915222Y2039894D01*
X29215876Y1311087D02*
X29199020Y1300495D01*
X28514948Y3186230D02*
X28502536Y3170665D01*
X29946154Y2064562D02*
X29932078Y2050486D01*
X29234666Y1317662D02*
X29215876Y1311087D01*
X29584945Y-1202780D02*
X29574353Y-1219636D01*
X29965549Y1764391D02*
X29963321Y1744608D01*
X29215876Y439694D02*
X29234666Y433119D01*
X29599021Y-1188704D02*
X29584945Y-1202780D01*
X29963321Y1784173D02*
X29965549Y1764391D01*
X29956746Y1802963D02*
X29963321Y1784173D01*
X29946154Y1353362D02*
X29932078Y1339286D01*
X29956746Y1370218D02*
X29946154Y1353362D01*
X29956746Y1447363D02*
X29963321Y1428573D01*
X29167777Y1922408D02*
X29174352Y1903618D01*
X29199020Y2011695D02*
X29184944Y1997619D01*
X28766393Y2809061D02*
X28781957Y2796649D01*
X29165549Y1230991D02*
X29167777Y1211208D01*
X29915222Y2039894D02*
X29896432Y2033319D01*
X29457802Y3249024D02*
X29470214Y3233460D01*
X29199020Y1300495D02*
X29184944Y1286419D01*
X29317777Y2278008D02*
X29324352Y2259218D01*
X29876649Y1319891D02*
X29254449Y1319891D01*
X29946154Y1819819D02*
X29956746Y1802963D01*
X29915222Y2200087D02*
X29932078Y2189495D01*
X29963321Y1389008D02*
X29956746Y1370218D01*
X29932078Y1833895D02*
X29946154Y1819819D01*
X29956746Y1725818D02*
X29946154Y1708962D01*
X29956746Y2158563D02*
X29963321Y2139773D01*
X29615877Y-1178112D02*
X29599021Y-1188704D01*
X29896432Y2206662D02*
X29915222Y2200087D01*
X28430450Y3498556D02*
X28450107Y3478898D01*
X29965549Y1408791D02*
X29963321Y1389008D01*
X29876649Y1853291D02*
X29896432Y1851062D01*
X29384666Y2211119D02*
X29404449Y2208891D01*
X29915222Y1488887D02*
X29932078Y1478295D01*
X29963321Y-1100191D02*
X29956746Y-1118981D01*
X29315549Y2297791D02*
X29317777Y2278008D01*
X29476649Y2386691D02*
X29404449Y2386691D01*
X29496431Y2388919D02*
X29476649Y2386691D01*
X28419978Y3591492D02*
X28412691Y3576360D01*
X29932078Y2189495D02*
X29946154Y2175419D01*
X29114133Y3521519D02*
X29133541Y3525950D01*
X29565549Y2575591D02*
X29565549Y2475591D01*
X29715222Y-804905D02*
X29696432Y-811480D01*
X29746154Y-780237D02*
X29732078Y-794313D01*
X29756746Y-763381D02*
X29746154Y-780237D01*
X29763321Y-744591D02*
X29756746Y-763381D01*
X29765549Y-724809D02*
X29763321Y-744591D01*
X29300680Y2714735D02*
X29316244Y2727147D01*
X29756746Y-686236D02*
X29763321Y-705026D01*
X29143561Y2557616D02*
X29300680Y2714735D01*
X29746154Y-669380D02*
X29756746Y-686236D01*
X29127997Y2545204D02*
X29143561Y2557616D01*
X29110061Y2536566D02*
X29127997Y2545204D01*
X29070746Y2532136D02*
X29090653Y2532136D01*
X29676649Y-635909D02*
X29696432Y-638137D01*
X29051337Y2536566D02*
X29070746Y2532136D01*
X29496431Y-100280D02*
X29476649Y-102509D01*
X29254449Y-635909D02*
X29676649Y-635909D01*
X29033402Y2545204D02*
X29051337Y2536566D01*
X29515221Y-93705D02*
X29496431Y-100280D01*
X29234666Y-633680D02*
X29254449Y-635909D01*
X29017838Y2557616D02*
X29033402Y2545204D01*
X29174352Y-864036D02*
X29167777Y-882826D01*
X28992358Y2610524D02*
X28996788Y2591116D01*
X29184944Y-847180D02*
X29174352Y-864036D01*
X28992358Y2630431D02*
X28992358Y2610524D01*
X29876649Y2031091D02*
X29254449Y2031091D01*
X29963321Y2100208D02*
X29956746Y2081418D01*
X29915222Y1684294D02*
X29896432Y1677719D01*
X29174352Y1269563D02*
X29167777Y1250773D01*
X29483282Y3196116D02*
X29483281Y3176210D01*
X29284666Y77519D02*
X29304449Y75291D01*
X29896432Y2033319D02*
X29876649Y2031091D01*
X29470214Y3233460D02*
X29478851Y3215526D01*
X29184944Y1286419D02*
X29174352Y1269563D01*
X29478851Y3215526D02*
X29483282Y3196116D01*
X29265876Y84094D02*
X29284666Y77519D01*
X29165549Y1942191D02*
X29167777Y1922408D01*
X29349020Y2367295D02*
X29334944Y2353219D01*
X28451945Y3649259D02*
X28448208Y3632886D01*
X29476649Y-458109D02*
X29254449Y-458109D01*
X27035231Y5105909D02*
X28430450Y3710690D01*
X29284666Y-104737D02*
X29265876Y-111312D01*
X29206356Y3374747D02*
X28766393Y2934785D01*
X29234666Y433119D02*
X29254449Y430891D01*
X29353588Y2740214D02*
X29373495Y2740214D01*
X29199020Y1517086D02*
X29215876Y1506494D01*
X28745343Y2842561D02*
X28753981Y2824625D01*
X29546153Y397419D02*
X29556745Y380563D01*
X28838971Y3557585D02*
X28838970Y3537679D01*
X29556745Y-52181D02*
X29546153Y-69037D01*
X29963321Y1744608D02*
X29956746Y1725818D01*
X29946154Y2175419D02*
X29956746Y2158563D01*
X29515221Y2395494D02*
X29496431Y2388919D01*
X29133541Y3525950D02*
X29153449Y3525949D01*
X29404894Y3274504D02*
X29424302Y3270074D01*
X29963321Y1428573D02*
X29965549Y1408791D01*
X28450107Y3478898D02*
X28463238Y3468427D01*
X29476649Y-280309D02*
X29496431Y-282537D01*
X28996788Y2649840D02*
X28992358Y2630431D01*
X29165549Y-547009D02*
X29167777Y-566791D01*
X28625107Y3048094D02*
X28640671Y3060506D01*
X28834540Y3576995D02*
X28838971Y3557585D01*
X29915222Y-1160505D02*
X29896432Y-1167080D01*
X29349020Y2228286D02*
X29365876Y2217694D01*
X29165549Y519791D02*
X29167777Y500008D01*
X29215876Y-822512D02*
X29199020Y-833104D01*
X29005426Y2667775D02*
X28996788Y2649840D01*
X29167777Y-527226D02*
X29165549Y-547009D01*
X28607171Y3039456D02*
X28625107Y3048094D01*
X28527911Y3461140D02*
X28543042Y3468427D01*
X28514948Y3060506D02*
X28530512Y3048094D01*
X29167777Y1961973D02*
X29165549Y1942191D01*
X29365876Y2377887D02*
X29349020Y2367295D01*
X28745343Y2901285D02*
X28740913Y2881876D01*
X29496431Y428662D02*
X29515221Y422087D01*
X29946154Y1464219D02*
X29956746Y1447363D01*
X42556051Y20458051D02*
X42556050Y20376259D01*
X29896432Y1677719D02*
X29876649Y1675491D01*
X29956746Y2081418D02*
X29946154Y2064562D01*
X28813490Y3484771D02*
X28514948Y3186230D01*
X29254449Y1319891D02*
X29234666Y1317662D01*
X29174352Y1903618D02*
X29184944Y1886762D01*
X28687767Y3610493D02*
X28703331Y3622905D01*
X28440921Y3697559D02*
X28448208Y3682427D01*
X29167777Y1606373D02*
X29165549Y1586591D01*
X29496431Y-455880D02*
X29476649Y-458109D01*
X29563320Y2455808D02*
X29556745Y2437018D01*
X28813491Y3610493D02*
X28825903Y3594929D01*
X29732078Y628086D02*
X29715222Y617494D01*
X29184944Y1997619D02*
X29174352Y1980763D01*
X29404449Y2386691D02*
X29384666Y2384462D01*
X33807905Y18379965D02*
X27035230Y11607290D01*
X29732078Y-794313D02*
X29715222Y-804905D01*
X28408954Y3543192D02*
X28412691Y3526819D01*
X28740913Y2881876D02*
X28740913Y2861969D01*
X27035230Y11607290D02*
X27035231Y5105909D01*
X29532077Y-438713D02*
X29515221Y-449305D01*
X29184944Y1886762D02*
X29199020Y1872686D01*
X28703331Y3622905D02*
X28721266Y3631543D01*
X28781957Y2796649D02*
X28799892Y2788011D01*
X29165549Y1586591D02*
X29167777Y1566808D01*
X29696432Y784262D02*
X29715222Y777687D01*
X28825903Y3594929D02*
X28834540Y3576995D01*
X29218768Y3390311D02*
X29206356Y3374747D01*
X29932078Y983686D02*
X29915222Y973094D01*
X29532077Y2406086D02*
X29515221Y2395494D01*
X28430450Y3710690D02*
X28440921Y3697559D01*
X29932078Y-1149913D02*
X29915222Y-1160505D01*
X29167777Y539573D02*
X29165549Y519791D01*
X29334944Y2242362D02*
X29349020Y2228286D01*
X29896432Y1495462D02*
X29915222Y1488887D01*
X28819301Y2783581D02*
X28839208Y2783581D01*
X29254449Y1675491D02*
X29234666Y1673262D01*
X29167777Y855608D02*
X29174352Y836818D01*
X29556745Y303418D02*
X29546153Y286562D01*
X29963321Y2139773D02*
X29965549Y2119991D01*
X29946154Y1708962D02*
X29932078Y1694886D01*
X28779990Y3631543D02*
X28797927Y3622905D01*
X29457801Y3123302D02*
X29017838Y2683340D01*
X29184944Y-491580D02*
X29174352Y-508436D01*
X29167777Y-882826D02*
X29165549Y-902609D01*
X28996788Y2591116D02*
X29005426Y2573180D01*
X28463238Y3468427D02*
X28478369Y3461140D01*
X29483281Y3176210D02*
X29478851Y3156802D01*
X29234666Y-460337D02*
X29215876Y-466912D01*
X29231836Y3427655D02*
X29227406Y3408247D01*
X29896432Y1322119D02*
X29876649Y1319891D01*
X29965549Y2119991D02*
X29963321Y2100208D01*
X29932078Y1694886D02*
X29915222Y1684294D01*
X28797927Y3622905D02*
X28813491Y3610493D01*
X28511537Y3457403D02*
X28527911Y3461140D01*
X29470213Y3138866D02*
X29457801Y3123302D01*
X28548447Y3039456D02*
X28567856Y3035026D01*
X28760582Y3635972D02*
X28779990Y3631543D01*
X28451945Y3666054D02*
X28451945Y3649259D01*
X29442238Y3261436D02*
X29457802Y3249024D01*
X29496431Y-282537D02*
X29515221Y-289112D01*
X29478851Y3156802D02*
X29470213Y3138866D01*
X29215876Y-466912D02*
X29199020Y-477504D01*
X28530512Y3048094D02*
X28548447Y3039456D01*
X29254449Y2031091D02*
X29234666Y2028862D01*
X28489468Y3133321D02*
X28489468Y3113414D01*
X28448208Y3632886D02*
X28440921Y3617754D01*
X29231837Y3447561D02*
X29231836Y3427655D01*
X28825902Y3500335D02*
X28813490Y3484771D01*
X29915222Y1328694D02*
X29896432Y1322119D01*
X29254449Y1853291D02*
X29876649Y1853291D01*
X29896432Y-1167080D02*
X29876649Y-1169309D01*
X29365876Y2217694D02*
X29384666Y2211119D01*
X28838970Y3537679D02*
X28834540Y3518271D01*
X29932078Y1478295D02*
X29946154Y1464219D01*
X29167777Y1250773D02*
X29165549Y1230991D01*
X28721266Y3631543D02*
X28740674Y3635973D01*
X29199020Y944895D02*
X29184944Y930819D01*
X29254449Y-458109D02*
X29234666Y-460337D01*
X29165549Y-902609D02*
X29167777Y-922391D01*
X29005426Y2573180D02*
X29017838Y2557616D01*
X28412691Y3526819D02*
X28419978Y3511687D01*
X29174352Y1980763D02*
X29167777Y1961973D01*
X29384666Y2384462D02*
X29365876Y2377887D01*
X28753981Y2919220D02*
X28745343Y2901285D01*
X29476649Y430891D02*
X29496431Y428662D01*
X29763321Y-705026D02*
X29765549Y-724809D01*
X28440921Y3617754D02*
X28419978Y3591492D01*
X28419978Y3511687D02*
X28430450Y3498556D01*
X28502536Y3170665D02*
X28493898Y3152730D01*
X28494743Y3457403D02*
X28511537Y3457403D01*
X41437660Y19257869D02*
X38208921Y19257869D01*
X29556745Y-407781D02*
X29546153Y-424637D01*
X29206357Y3500469D02*
X29218769Y3484905D01*
X28493898Y3152730D02*
X28489468Y3133321D01*
X29096197Y3512882D02*
X29114133Y3521519D01*
X29234666Y2028862D02*
X29215876Y2022287D01*
X28489468Y3113414D02*
X28493898Y3094006D01*
X29215876Y2022287D02*
X29199020Y2011695D01*
X28493898Y3094006D02*
X28502536Y3076070D01*
X28502536Y3076070D02*
X28514948Y3060506D01*
X29234666Y-815937D02*
X29215876Y-822512D01*
X29017838Y2683340D02*
X29005426Y2667775D01*
X29174352Y-508436D02*
X29167777Y-527226D01*
X28587763Y3035026D02*
X28607171Y3039456D01*
X28640671Y3060506D02*
X29080633Y3500469D01*
X29080633Y3500469D02*
X29096197Y3512882D01*
X29215876Y955487D02*
X29199020Y944895D01*
X28448208Y3682427D02*
X28451945Y3666054D01*
X29746154Y642162D02*
X29732078Y628086D01*
X29426403Y2714735D02*
X29565549Y2575591D01*
X29876649Y1497691D02*
X29896432Y1495462D01*
X28799892Y2788011D02*
X28819301Y2783581D01*
X29876649Y1675491D02*
X29254449Y1675491D01*
X29165549Y875391D02*
X29167777Y855608D01*
X29563320Y322208D02*
X29556745Y303418D01*
X29153449Y3525949D02*
X29172857Y3521519D01*
X29565549Y2475591D02*
X29563320Y2455808D01*
X28478369Y3461140D02*
X28494743Y3457403D01*
X28556173Y3478898D02*
X28687767Y3610493D01*
X29876649Y-1169309D02*
X29654449Y-1169309D01*
X29915222Y1844487D02*
X29932078Y1833895D01*
X29174352Y481218D02*
X29184944Y464362D01*
X29218769Y3484905D02*
X29227406Y3466971D01*
X37331018Y18379966D02*
X33807905Y18379965D01*
X29227406Y3466971D02*
X29231837Y3447561D01*
X42556050Y20376259D02*
X41437660Y19257869D01*
X29932078Y1339286D02*
X29915222Y1328694D01*
X29227406Y3408247D02*
X29218768Y3390311D01*
X28766393Y2934785D02*
X28753981Y2919220D01*
X29254449Y430891D02*
X29476649Y430891D01*
X29334180Y2735784D02*
X29353588Y2740214D01*
X29184944Y1531162D02*
X29199020Y1517086D01*
X28740913Y2861969D02*
X28745343Y2842561D01*
X28753981Y2824625D02*
X28766393Y2809061D01*
X29556745Y380563D02*
X29563320Y361773D01*
X28839208Y2783581D02*
X28858616Y2788011D01*
X29234666Y1144319D02*
X29254449Y1142091D01*
X28858616Y2788011D02*
X28876552Y2796649D01*
X29254449Y1142091D02*
X29876649Y1142091D01*
X28876552Y2796649D02*
X28892116Y2809061D01*
X29876649Y1142091D02*
X29896432Y1139862D01*
X29172857Y3521519D02*
X29190793Y3512881D01*
X28892116Y2809061D02*
X29332078Y3249024D01*
X29896432Y1139862D02*
X29915222Y1133287D01*
X29332078Y3249024D02*
X29347642Y3261437D01*
X29199020Y1656095D02*
X29184944Y1642019D01*
X29915222Y1133287D02*
X29932078Y1122695D01*
X29174352Y913963D02*
X29167777Y895173D01*
X29347642Y3261437D02*
X29365578Y3270074D01*
X29167777Y895173D02*
X29165549Y875391D01*
X29365578Y3270074D02*
X29384986Y3274505D01*
X29215876Y-982705D02*
X29234666Y-989280D01*
X29090653Y2532136D02*
X29110061Y2536566D01*
X29696432Y-638137D02*
X29715222Y-644712D01*
X29424302Y3270074D02*
X29442238Y3261436D01*
X29234666Y1673262D02*
X29215876Y1666687D01*
X29234944Y219619D02*
X29224352Y202763D01*
X29215876Y1666687D02*
X29199020Y1656095D01*
X29224352Y202763D02*
X29217777Y183973D01*
X29254449Y786491D02*
X29676649Y786491D01*
X29184944Y1642019D02*
X29174352Y1625163D01*
X29224352Y125618D02*
X29234944Y108762D01*
X29676649Y786491D02*
X29696432Y784262D01*
X29174352Y1625163D02*
X29167777Y1606373D01*
X29234944Y108762D02*
X29249020Y94686D01*
X29316244Y2727147D02*
X29334180Y2735784D01*
X29174352Y1548018D02*
X29184944Y1531162D01*
X29373495Y2740214D02*
X29392903Y2735784D01*
X29215876Y1506494D02*
X29234666Y1499919D01*
X29392903Y2735784D02*
X29410839Y2727147D01*
X29234666Y1499919D02*
X29254449Y1497691D01*
X29410839Y2727147D02*
X29426403Y2714735D01*
X29254449Y1497691D02*
X29876649Y1497691D01*
X29167777Y1211208D02*
X29174352Y1192418D01*
X29174352Y1192418D02*
X29184944Y1175562D01*
X29184944Y1175562D02*
X29199020Y1161486D01*
X29199020Y1161486D02*
X29215876Y1150894D01*
X28412691Y3576360D02*
X28408954Y3559987D01*
X29215876Y1150894D02*
X29234666Y1144319D01*
X29932078Y1122695D02*
X29946154Y1108619D01*
X29963321Y1033408D02*
X29956746Y1014618D01*
X29956746Y1014618D02*
X29946154Y997762D01*
X29946154Y997762D02*
X29932078Y983686D01*
X29915222Y973094D02*
X29896432Y966519D01*
X29896432Y966519D02*
X29876649Y964291D01*
X29876649Y964291D02*
X29254449Y964291D01*
X29254449Y964291D02*
X29234666Y962062D01*
X29234666Y962062D02*
X29215876Y955487D01*
X29174352Y836818D02*
X29184944Y819962D01*
X29184944Y819962D02*
X29199020Y805886D01*
X29199020Y805886D02*
X29215876Y795294D01*
X29515221Y261894D02*
X29496431Y255319D01*
X29215876Y795294D02*
X29234666Y788719D01*
X29496431Y255319D02*
X29476649Y253091D01*
X29234666Y788719D02*
X29254449Y786491D01*
X29476649Y253091D02*
X29304449Y253091D01*
X29732078Y767095D02*
X29746154Y753019D01*
X29556745Y2437018D02*
X29546153Y2420162D01*
X29746154Y753019D02*
X29756746Y736163D01*
X29546153Y2420162D02*
X29532077Y2406086D01*
X29756746Y736163D02*
X29763321Y717373D01*
X29763321Y717373D02*
X29765549Y697591D01*
X29765549Y697591D02*
X29763321Y677808D01*
X29217777Y144408D02*
X29224352Y125618D01*
X29763321Y677808D02*
X29756746Y659018D01*
X29756746Y659018D02*
X29746154Y642162D01*
X29715222Y617494D02*
X29696432Y610919D01*
X29696432Y610919D02*
X29676649Y608691D01*
X29946154Y-1024980D02*
X29956746Y-1041836D01*
X29676649Y608691D02*
X29254449Y608691D01*
X29956746Y-1041836D02*
X29963321Y-1060626D01*
X29334944Y2353219D02*
X29324352Y2336363D01*
X29254449Y608691D02*
X29234666Y606462D01*
X29963321Y-1060626D02*
X29965549Y-1080409D01*
X29324352Y2336363D02*
X29317777Y2317573D01*
X29234666Y606462D02*
X29215876Y599887D01*
X29965549Y-1080409D02*
X29963321Y-1100191D01*
X29317777Y2317573D02*
X29315549Y2297791D01*
X29215876Y599887D02*
X29199020Y589295D01*
X29199020Y1872686D02*
X29215876Y1862094D01*
X29199020Y589295D02*
X29184944Y575219D01*
X29956746Y-1118981D02*
X29946154Y-1135837D01*
X29215876Y1862094D02*
X29234666Y1855519D01*
X29184944Y575219D02*
X29174352Y558363D01*
X29946154Y-1135837D02*
X29932078Y-1149913D01*
X29234666Y1855519D02*
X29254449Y1853291D01*
X29324352Y2259218D02*
X29334944Y2242362D01*
X29174352Y558363D02*
X29167777Y539573D01*
X29896432Y1851062D02*
X29915222Y1844487D01*
X29167777Y1566808D02*
X29174352Y1548018D01*
X29167777Y500008D02*
X29174352Y481218D01*
X29654449Y-1169309D02*
X29634667Y-1171537D01*
X29404449Y2208891D02*
X29876649Y2208891D01*
X29184944Y464362D02*
X29199020Y450286D01*
X29634667Y-1171537D02*
X29615877Y-1178112D01*
X29876649Y2208891D02*
X29896432Y2206662D01*
X29199020Y450286D02*
X29215876Y439694D01*
X29515221Y422087D02*
X29532077Y411495D01*
X29532077Y411495D02*
X29546153Y397419D01*
X29563320Y361773D02*
X29565549Y341991D01*
X29565549Y341991D02*
X29563320Y322208D01*
X29546153Y286562D02*
X29532077Y272486D01*
X29532077Y272486D02*
X29515221Y261894D01*
X29304449Y253091D02*
X29284666Y250862D01*
X28543042Y3468427D02*
X28556173Y3478898D01*
X29284666Y250862D02*
X29265876Y244287D01*
X29265876Y244287D02*
X29249020Y233695D01*
X28567856Y3035026D02*
X28587763Y3035026D01*
X29249020Y233695D02*
X29234944Y219619D01*
X29946154Y1108619D02*
X29956746Y1091763D01*
X29546153Y-313780D02*
X29556745Y-330636D01*
X29217777Y183973D02*
X29215549Y164191D01*
X29215549Y164191D02*
X29217777Y144408D01*
X29249020Y94686D02*
X29265876Y84094D01*
X29190793Y3512881D02*
X29206357Y3500469D01*
X28408954Y3559987D02*
X28408954Y3543192D01*
X29304449Y75291D02*
X29476649Y75290D01*
X29476649Y75290D02*
X29496431Y73062D01*
X29496431Y73062D02*
X29515221Y66487D01*
X29515221Y66487D02*
X29532077Y55895D01*
X29532077Y55895D02*
X29546153Y41819D01*
X28834540Y3518271D02*
X28825902Y3500335D01*
X29546153Y41819D02*
X29556745Y24963D01*
X29384986Y3274505D02*
X29404894Y3274504D01*
X29556745Y24963D02*
X29563320Y6173D01*
X29563320Y6173D02*
X29565549Y-13609D01*
X29565549Y-13609D02*
X29563320Y-33391D01*
X29167777Y-566791D02*
X29174352Y-585581D01*
X29563320Y-33391D02*
X29556745Y-52181D01*
X28740674Y3635973D02*
X28760582Y3635972D01*
X29174352Y-585581D02*
X29184944Y-602437D01*
X29546153Y-69037D02*
X29532077Y-83113D01*
X29532077Y-83113D02*
X29515221Y-93705D01*
X29215876Y-627105D02*
X29234666Y-633680D01*
X29476649Y-102509D02*
X29304449Y-102509D01*
X29304449Y-102509D02*
X29284666Y-104737D01*
X29265876Y-111312D02*
X29249020Y-121904D01*
X29249020Y-121904D02*
X29234944Y-135980D01*
X29234944Y-135980D02*
X29224352Y-152836D01*
X29224352Y-152836D02*
X29217777Y-171626D01*
X29217777Y-171626D02*
X29215549Y-191409D01*
X29215549Y-191409D02*
X29217777Y-211191D01*
X29217777Y-211191D02*
X29224352Y-229981D01*
X29676649Y-813709D02*
X29254449Y-813709D01*
X29224352Y-229981D02*
X29234944Y-246837D01*
X29234944Y-246837D02*
X29249020Y-260913D01*
X29249020Y-260913D02*
X29265876Y-271505D01*
X38208921Y19257869D02*
X37331018Y18379966D01*
X29265876Y-271505D02*
X29284666Y-278080D01*
X29284666Y-278080D02*
X29304449Y-280309D01*
X29304449Y-280309D02*
X29476649Y-280309D01*
X29515221Y-289112D02*
X29532077Y-299704D01*
X29532077Y-299704D02*
X29546153Y-313780D01*
X29956746Y1091763D02*
X29963321Y1072973D01*
X29556745Y-330636D02*
X29563320Y-349426D01*
X29963321Y1072973D02*
X29965549Y1053191D01*
X29563320Y-349426D02*
X29565549Y-369209D01*
X29965549Y1053191D02*
X29963321Y1033408D01*
X29565549Y-369209D02*
X29563320Y-388991D01*
X29184944Y930819D02*
X29174352Y913963D01*
X29563320Y-388991D02*
X29556745Y-407781D01*
X29546153Y-424637D02*
X29532077Y-438713D01*
X29515221Y-449305D02*
X29496431Y-455880D01*
X29199020Y-477504D02*
X29184944Y-491580D01*
X29184944Y-602437D02*
X29199020Y-616513D01*
X29199020Y-616513D02*
X29215876Y-627105D01*
X29715222Y-644712D02*
X29732078Y-655304D01*
X29732078Y-655304D02*
X29746154Y-669380D01*
X29696432Y-811480D02*
X29676649Y-813709D01*
X29254449Y-813709D02*
X29234666Y-815937D01*
X47853600Y24739600D02*
X47327971Y24739600D01*
X47327971Y24739600D02*
X41557332Y18968961D01*
X41557332Y18968961D02*
X38328592Y18968960D01*
X38328592Y18968960D02*
X37450688Y18091056D01*
X33927576Y18091056D02*
X27324140Y11487620D01*
X37450688Y18091056D02*
X33927576Y18091056D01*
X27324140Y11487620D02*
X27324140Y5225580D01*
X27324140Y5225580D02*
X28593580Y3956140D01*
X30657800Y1803400D02*
X30660000Y1801200D01*
X30660000Y1801200D02*
X30660000Y0D01*
X30657800Y1803400D02*
X30657800Y1574800D01*
X29825860Y3956140D02*
X30657800Y3124200D01*
X28593580Y3956140D02*
X29825860Y3956140D01*
X30657800Y3124200D02*
X30657800Y1803400D01*
X46758554Y23761603D02*
X41677002Y18680051D01*
X47853600Y23761603D02*
X46758554Y23761603D01*
X38448263Y18680051D02*
X37570358Y17802146D01*
X41677002Y18680051D02*
X38448263Y18680051D01*
X37570358Y17802146D02*
X35814000Y17802146D01*
X34047245Y17802145D02*
X27613050Y11367950D01*
X35814000Y17802146D02*
X34047245Y17802145D01*
X27613050Y11367950D02*
X27613050Y9194800D01*
X27613051Y5345249D02*
X28713250Y4245050D01*
X27613050Y9194800D02*
X27613051Y5345249D01*
X28713250Y4245050D02*
X33423150Y4245050D01*
X33423150Y4245050D02*
X34442400Y3225800D01*
X34442400Y-584200D02*
X34442400Y-1242400D01*
X34442400Y-584200D02*
X34442400Y-889000D01*
X34442400Y-1242400D02*
X35740000Y-2540000D01*
X34442400Y76200D02*
X34442400Y-1242400D01*
X34442400Y3225800D02*
X34442400Y76200D01*
X34442400Y76200D02*
X34442400Y-584200D01*
X46872498Y21980498D02*
X45447917Y21980497D01*
X47853600Y22961600D02*
X46872498Y21980498D01*
X45447917Y21980497D02*
X40980656Y17513236D01*
X40980656Y17513236D02*
X34166916Y17513236D01*
X34166916Y17513236D02*
X27901960Y11248280D01*
X27901960Y11248280D02*
X27901960Y5464920D01*
X27901960Y5464920D02*
X28832920Y4533960D01*
X28832920Y4533960D02*
X35115440Y4533960D01*
X35115440Y4533960D02*
X35737800Y3911600D01*
X35737800Y3911600D02*
X35737800Y1701800D01*
X35737800Y1701800D02*
X35740000Y1699600D01*
X35737800Y1701800D02*
X35737800Y1651000D01*
X35740000Y1699600D02*
X35740000Y0D01*
X47959552Y21691588D02*
X45567588Y21691588D01*
X42265600Y18389600D02*
X41238307Y17362307D01*
X42265600Y18389600D02*
X41100328Y17224328D01*
X45567588Y21691588D02*
X42265600Y18389600D01*
X41100328Y17224328D02*
X34286587Y17224327D01*
X34286587Y17224327D02*
X28190870Y11128610D01*
X28190870Y11128610D02*
X28190870Y9194800D01*
X28190871Y5584589D02*
X28952590Y4822870D01*
X28190870Y9194800D02*
X28190871Y5584589D01*
X28952590Y4822870D02*
X36325130Y4822870D01*
X36325130Y4822870D02*
X37185549Y3962451D01*
X37185549Y-431749D02*
X37185549Y-1445549D01*
X37185549Y3962451D02*
X37185549Y-431749D01*
X37185549Y-1445549D02*
X38280000Y-2540000D01*
X37185549Y-431749D02*
X37185549Y-1041349D01*
X48759553Y21267389D02*
X48421764Y20929600D01*
X48759553Y21691653D02*
X48759553Y21267389D01*
X48421764Y20929600D02*
X45214180Y20929600D01*
X45214180Y20929600D02*
X41219998Y16935418D01*
X41219998Y16935418D02*
X34406258Y16935418D01*
X34406258Y16935418D02*
X28479780Y11008940D01*
X28479780Y11008940D02*
X28479780Y5704260D01*
X28479780Y5704260D02*
X29072260Y5111780D01*
X37661820Y5111780D02*
X38303200Y4470400D01*
X38303200Y4470400D02*
X38303200Y1422400D01*
X38280000Y4430160D02*
X38280000Y0D01*
X37598380Y5111780D02*
X38280000Y4430160D01*
X29072260Y5111780D02*
X37598380Y5111780D01*
X37598380Y5111780D02*
X37661820Y5111780D01*
X49559554Y21691264D02*
X49559554Y21111554D01*
X49088690Y20640690D02*
X45333850Y20640690D01*
X49559554Y21111554D02*
X49088690Y20640690D01*
X45333850Y20640690D02*
X41339670Y16646510D01*
X41339670Y16646510D02*
X34525929Y16646509D01*
X34525929Y16646509D02*
X28768690Y10889270D01*
X28768690Y10889270D02*
X28768690Y9169400D01*
X28768691Y5823929D02*
X29191930Y5400690D01*
X28768690Y9169400D02*
X28768691Y5823929D01*
X29191930Y5400690D02*
X38693710Y5400690D01*
X38693710Y5400690D02*
X39374451Y4719949D01*
X39374451Y-1094451D02*
X40820000Y-2540000D01*
X39374451Y-55251D02*
X39374451Y-1094451D01*
X39374451Y4719949D02*
X39374451Y-55251D01*
X39374451Y-55251D02*
X39374451Y-537851D01*
X50359548Y21694996D02*
X50359548Y20895548D01*
X49815780Y20351780D02*
X45453520Y20351780D01*
X50359548Y20895548D02*
X49815780Y20351780D01*
X45453520Y20351780D02*
X41459340Y16357600D01*
X41459340Y16357600D02*
X34645600Y16357600D01*
X34645600Y16357600D02*
X29057600Y10769600D01*
X29057600Y10769600D02*
X29057600Y5943600D01*
X29057600Y5943600D02*
X29311600Y5689600D01*
X40820000Y4138000D02*
X40820000Y0D01*
X39268400Y5689600D02*
X40820000Y4138000D01*
X29311600Y5689600D02*
X39268400Y5689600D01*
M02*
