M48
; DRILL file {KiCad 5.1.4-e60b266~84~ubuntu16.04.1} date Thu 28 Nov 2019 04:38:05 PM CET
; FORMAT={-:-/ absolute / inch / decimal}
; #@! TF.CreationDate,2019-11-28T16:38:05+01:00
; #@! TF.GenerationSoftware,Kicad,Pcbnew,5.1.4-e60b266~84~ubuntu16.04.1
FMAT,2
INCH
T1C0.0079
T2C0.0157
T3C0.0197
T4C0.0315
T5C0.0394
T6C0.0472
T7C0.1260
%
G90
G05
T1
X1.454Y1.644
X1.524Y1.6055
X1.524Y1.574
X1.524Y1.5425
X1.524Y1.474
X1.524Y1.4425
X1.524Y1.411
X1.524Y1.3795
X1.524Y1.324
X1.524Y1.2925
X1.524Y1.261
X1.524Y1.164
X1.524Y1.1325
X1.524Y1.064
X1.524Y1.0325
X1.524Y1.001
X1.524Y0.9695
X1.524Y0.914
X1.524Y0.8825
X1.524Y0.851
X1.524Y0.714
X1.5543Y0.8739
X1.5555Y0.714
X1.564Y1.604
X1.5858Y0.874
X1.594Y1.564
X1.6154Y1.604
X1.644Y1.564
X1.6488Y0.874
X1.654Y0.9455
X1.654Y0.914
X1.6654Y1.604
X1.694Y1.564
X1.7154Y1.604
X1.744Y1.564
X1.7654Y1.604
X1.804Y1.564
X1.8442Y1.5838
X1.884Y1.564
X1.884Y0.974
X1.884Y0.9355
X1.884Y0.904
X1.8882Y0.854
X1.906Y1.933
X1.906Y1.366
X1.9197Y0.854
X1.9292Y1.604
X1.944Y1.564
X1.9512Y0.854
X1.9779Y1.592
X1.9825Y0.714
X1.9827Y0.8541
X2.014Y1.574
X2.014Y1.5425
X2.014Y1.484
X2.014Y1.4525
X2.014Y1.421
X2.014Y1.3895
X2.014Y1.324
X2.014Y1.2925
X2.014Y1.2055
X2.014Y1.174
X2.014Y1.1425
X2.014Y1.074
X2.014Y1.0425
X2.014Y1.011
X2.014Y0.9795
X2.014Y0.914
X2.014Y0.8825
X2.014Y0.851
X2.014Y0.714
X2.038Y1.876
X2.054Y1.664
X2.065Y1.8922
X2.0883Y1.9134
X2.094Y1.644
X2.1136Y1.9322
X2.4715Y1.3015
X2.494Y1.3515
X2.514Y1.379
X2.519Y1.789
X2.519Y1.7575
X2.519Y1.726
X2.519Y1.6945
X2.519Y1.663
X2.519Y1.6315
X2.519Y1.6
X2.549Y1.329
X2.5515Y1.429
X2.589Y1.469
X2.6415Y1.3865
X2.6815Y1.3865
X2.76Y0.86
X2.7857Y1.3383
X2.786Y1.3068
X2.836Y1.399
X2.836Y1.214
X2.917Y1.418
X2.917Y1.39
X2.917Y1.364
X2.917Y1.338
X2.943Y1.418
X2.943Y1.338
X2.969Y1.418
X2.969Y1.338
X2.976Y2.052
X2.996Y1.418
X2.996Y1.39
X2.996Y1.364
X2.996Y1.338
X3.05Y0.86
X3.19Y2.056
X3.558Y2.034
X3.719Y1.654
X3.732Y2.03
T2
X-0.066Y1.794
X-0.065Y1.986
X-0.011Y1.114
X0.1265Y2.244
X0.139Y1.134
X0.139Y1.084
X0.139Y1.034
X0.144Y1.284
X0.219Y2.119
X0.227Y1.953
X0.299Y1.309
X0.299Y1.209
X0.567Y0.587
X0.567Y0.485
X0.619Y1.604
X0.631Y0.125
X0.704Y1.139
X0.704Y1.104
X0.709Y1.279
X0.709Y1.244
X0.709Y1.3188
X0.851Y0.379
X0.933Y0.38
X1.099Y1.259
X1.2159Y1.472
X1.2217Y1.1845
X1.222Y0.989
X1.535Y0.561
X1.5515Y1.099
X1.708Y1.877
X1.89Y0.598
X1.938Y1.877
X1.969Y1.274
X2.023Y1.791
X2.149Y2.021
X2.326Y0.975
X2.3331Y1.461
X2.334Y1.179
X2.335Y1.38
X2.349Y1.691
X2.4965Y1.234
X2.5065Y1.5265
X2.812Y1.876
X2.858Y1.485
X2.921Y1.58
X3.016Y1.58
X3.084Y2.234
X3.086Y2.432
X3.126Y0.0
X3.129Y0.382
X3.197Y1.463
X3.223Y1.219
X3.358Y1.872
X3.382Y1.824
X3.383Y1.778
X3.434Y2.23
X3.436Y2.43
X3.558Y2.48
X3.561Y0.051
X3.732Y2.48
X3.777Y0.266
T4
X2.8408Y0.6272
X2.9392Y0.6272
X2.948Y0.139
X2.948Y0.0406
X3.1306Y0.6306
X3.229Y0.6306
T5
X2.1043Y0.2752
X2.2043Y0.2752
X2.3043Y0.2752
X2.4043Y0.2752
X2.5043Y0.2752
X2.6043Y0.2752
X2.542Y1.024
X2.642Y1.024
X2.742Y1.024
X2.842Y1.024
X2.986Y1.024
X0.8445Y2.1752
X0.9445Y2.1752
X1.0445Y2.1752
X1.1445Y2.1752
X1.2445Y2.1752
X1.3445Y2.1752
X1.4445Y2.1752
X1.5445Y2.1752
X1.6445Y2.1752
X1.7445Y2.1752
X0.4215Y2.0465
X0.842Y1.7265
X0.942Y1.7265
X1.042Y1.7265
X1.142Y1.7265
X0.8071Y2.515
X0.8071Y2.415
X0.9071Y2.515
X0.9071Y2.415
X1.0071Y2.515
X1.0071Y2.415
X1.1071Y2.515
X1.1071Y2.415
X1.2071Y2.515
X1.2071Y2.415
X1.3071Y2.515
X1.3071Y2.415
X1.4071Y2.515
X1.4071Y2.415
X1.5071Y2.515
X1.5071Y2.415
X1.6071Y2.515
X1.6071Y2.415
X1.7071Y2.515
X1.7071Y2.415
X1.8071Y2.515
X1.8071Y2.415
X1.9071Y2.515
X1.9071Y2.415
X2.0071Y2.515
X2.0071Y2.415
X2.1071Y2.515
X2.1071Y2.415
X2.2071Y2.515
X2.2071Y2.415
X2.3071Y2.515
X2.3071Y2.415
X2.4071Y2.515
X2.4071Y2.415
X2.5071Y2.515
X2.5071Y2.415
X2.6071Y2.515
X2.6071Y2.415
X2.7071Y2.515
X2.7071Y2.415
X0.8071Y0.0
X0.8071Y-0.1
X0.9071Y0.0
X0.9071Y-0.1
X1.0071Y0.0
X1.0071Y-0.1
X1.1071Y0.0
X1.1071Y-0.1
X1.2071Y0.0
X1.2071Y-0.1
X1.3071Y0.0
X1.3071Y-0.1
X1.4071Y0.0
X1.4071Y-0.1
X1.5071Y0.0
X1.5071Y-0.1
X1.6071Y0.0
X1.6071Y-0.1
X1.7071Y0.0
X1.7071Y-0.1
X1.8071Y0.0
X1.8071Y-0.1
X1.9071Y0.0
X1.9071Y-0.1
X2.0071Y0.0
X2.0071Y-0.1
X2.1071Y0.0
X2.1071Y-0.1
X2.2071Y0.0
X2.2071Y-0.1
X2.3071Y0.0
X2.3071Y-0.1
X2.4071Y0.0
X2.4071Y-0.1
X2.5071Y0.0
X2.5071Y-0.1
X2.6071Y0.0
X2.6071Y-0.1
X2.7071Y0.0
X2.7071Y-0.1
X1.2043Y0.2752
X1.3043Y0.2752
X1.4043Y0.2752
X1.5043Y0.2752
X1.6043Y0.2752
X1.7043Y0.2752
X1.8043Y0.2752
X1.9043Y0.2752
X1.9043Y2.1752
X2.0043Y2.1752
X2.1043Y2.1752
X2.2043Y2.1752
X2.3043Y2.1752
X2.4043Y2.1752
X2.5043Y2.1752
X2.6043Y2.1752
T6
X3.974Y0.8665
X3.974Y0.7665
X3.974Y0.6665
X3.974Y0.5665
X3.974Y0.4665
X3.974Y0.3665
X3.974Y1.794
X3.974Y1.694
X3.974Y1.594
X3.974Y1.494
X3.974Y1.394
X3.974Y1.294
X3.974Y1.194
X3.974Y1.094
X3.974Y0.994
T7
X0.0Y0.0
X0.0Y2.45
X3.9543Y0.0
X3.9543Y2.45
T3
G00X-0.0762Y1.2887
M15
G01X-0.1038Y1.2887
M16
G05
G00X-0.0762Y1.0289
M15
G01X-0.1038Y1.0289
M16
G05
T0
M30
