G04 #@! TF.GenerationSoftware,KiCad,Pcbnew,5.1.4-e60b266~84~ubuntu16.04.1*
G04 #@! TF.CreationDate,2019-11-21T17:23:13+01:00*
G04 #@! TF.ProjectId,SRAM_board,5352414d-5f62-46f6-9172-642e6b696361,rev?*
G04 #@! TF.SameCoordinates,Original*
G04 #@! TF.FileFunction,Copper,L2,Inr*
G04 #@! TF.FilePolarity,Positive*
%FSLAX46Y46*%
G04 Gerber Fmt 4.6, Leading zero omitted, Abs format (unit mm)*
G04 Created by KiCad (PCBNEW 5.1.4-e60b266~84~ubuntu16.04.1) date 2019-11-21 17:23:13*
%MOMM*%
%LPD*%
G04 APERTURE LIST*
%ADD10C,0.050000*%
%ADD11C,6.350000*%
%ADD12R,1.600000X1.600000*%
%ADD13C,1.600000*%
%ADD14R,1.700000X1.700000*%
%ADD15O,1.700000X1.700000*%
%ADD16O,1.600000X0.900000*%
%ADD17C,1.900000*%
%ADD18C,0.600000*%
%ADD19C,0.800000*%
%ADD20C,0.152400*%
%ADD21C,0.088900*%
G04 APERTURE END LIST*
D10*
X104280000Y66110000D02*
X104280000Y66030000D01*
X104280000Y-3885000D02*
X104280000Y-3800000D01*
X-3720000Y-3800000D02*
X-3720000Y-3885000D01*
X-3720000Y66030000D02*
X-3720000Y66110000D01*
X104280000Y-3800000D02*
X104280000Y66030000D01*
X-3720000Y-3885000D02*
X104280000Y-3885000D01*
X-3720000Y66110000D02*
X104280000Y66110000D01*
X-3720000Y-3800000D02*
X-3720000Y66030000D01*
D11*
X100440000Y62230000D03*
X100440000Y0D03*
X0Y62230000D03*
X0Y0D03*
D12*
X74879200Y3530600D03*
D13*
X74879200Y1030600D03*
X79516600Y16017240D03*
D12*
X82016600Y16017240D03*
X74655680Y15930880D03*
D13*
X72155680Y15930880D03*
D14*
X48370000Y55250000D03*
D15*
X50910000Y55250000D03*
X53450000Y55250000D03*
X55990000Y55250000D03*
X58530000Y55250000D03*
X61070000Y55250000D03*
X63610000Y55250000D03*
X66150000Y55250000D03*
D14*
X53450000Y6990000D03*
D15*
X55990000Y6990000D03*
X58530000Y6990000D03*
X61070000Y6990000D03*
X63610000Y6990000D03*
X66150000Y6990000D03*
D14*
X21450000Y55250000D03*
D15*
X23990000Y55250000D03*
X26530000Y55250000D03*
X29070000Y55250000D03*
X31610000Y55250000D03*
X34150000Y55250000D03*
X36690000Y55250000D03*
X39230000Y55250000D03*
X41770000Y55250000D03*
X44310000Y55250000D03*
X48370000Y6990000D03*
X45830000Y6990000D03*
X43290000Y6990000D03*
X40750000Y6990000D03*
X38210000Y6990000D03*
X35670000Y6990000D03*
X33130000Y6990000D03*
D14*
X30590000Y6990000D03*
X10706100Y51981100D03*
X64566800Y26009600D03*
D15*
X67106800Y26009600D03*
X69646800Y26009600D03*
X72186800Y26009600D03*
D14*
X75844400Y26009600D03*
D15*
X68760000Y63880000D03*
X68760000Y61340000D03*
X66220000Y63880000D03*
X66220000Y61340000D03*
X63680000Y63880000D03*
X63680000Y61340000D03*
X61140000Y63880000D03*
X61140000Y61340000D03*
X58600000Y63880000D03*
X58600000Y61340000D03*
X56060000Y63880000D03*
X56060000Y61340000D03*
X53520000Y63880000D03*
X53520000Y61340000D03*
X50980000Y63880000D03*
X50980000Y61340000D03*
X48440000Y63880000D03*
X48440000Y61340000D03*
X45900000Y63880000D03*
X45900000Y61340000D03*
X43360000Y63880000D03*
X43360000Y61340000D03*
X40820000Y63880000D03*
X40820000Y61340000D03*
X38280000Y63880000D03*
X38280000Y61340000D03*
X35740000Y63880000D03*
X35740000Y61340000D03*
X33200000Y63880000D03*
X33200000Y61340000D03*
X30660000Y63880000D03*
X30660000Y61340000D03*
X28120000Y63880000D03*
X28120000Y61340000D03*
X25580000Y63880000D03*
X25580000Y61340000D03*
X23040000Y63880000D03*
X23040000Y61340000D03*
X20500000Y63880000D03*
D14*
X20500000Y61340000D03*
X68760000Y0D03*
D15*
X68760000Y-2540000D03*
X66220000Y0D03*
X66220000Y-2540000D03*
X63680000Y0D03*
X63680000Y-2540000D03*
X61140000Y0D03*
X61140000Y-2540000D03*
X58600000Y0D03*
X58600000Y-2540000D03*
X56060000Y0D03*
X56060000Y-2540000D03*
X53520000Y0D03*
X53520000Y-2540000D03*
X50980000Y0D03*
X50980000Y-2540000D03*
X48440000Y0D03*
X48440000Y-2540000D03*
X45900000Y0D03*
X45900000Y-2540000D03*
X43360000Y0D03*
X43360000Y-2540000D03*
X40820000Y0D03*
X40820000Y-2540000D03*
X38280000Y0D03*
X38280000Y-2540000D03*
X35740000Y0D03*
X35740000Y-2540000D03*
X33200000Y0D03*
X33200000Y-2540000D03*
X30660000Y0D03*
X30660000Y-2540000D03*
X28120000Y0D03*
X28120000Y-2540000D03*
X25580000Y0D03*
X25580000Y-2540000D03*
X23040000Y0D03*
X23040000Y-2540000D03*
X20500000Y0D03*
X20500000Y-2540000D03*
D16*
X-2286000Y32733520D03*
X-2286000Y26133520D03*
D17*
X100939600Y25247600D03*
X100939600Y27787600D03*
X100939600Y30327600D03*
X100939600Y32867600D03*
X100939600Y35407600D03*
X100939600Y37947600D03*
X100939600Y40487600D03*
X100939600Y43027600D03*
X100939600Y45567600D03*
X100939600Y22009100D03*
X100939600Y19469100D03*
X100939600Y16929100D03*
X100939600Y14389100D03*
X100939600Y11849100D03*
X100939600Y9309100D03*
D15*
X29006800Y43853100D03*
X26466800Y43853100D03*
X23926800Y43853100D03*
D14*
X21386800Y43853100D03*
D18*
X76098400Y33985200D03*
X75412600Y33985200D03*
X74752200Y33985200D03*
X74091800Y33985200D03*
X76098400Y34645600D03*
X74091800Y34645600D03*
X74091800Y35306000D03*
X76098400Y35306000D03*
X76098400Y36017200D03*
X75412600Y36017200D03*
X74752200Y36017200D03*
X74091800Y36017200D03*
D19*
X51384200Y45491400D03*
X49225200Y47675800D03*
X43383200Y47675800D03*
X59261150Y37109400D03*
X59309000Y35052000D03*
X59080400Y24765000D03*
X38989000Y14960600D03*
X48006000Y15189200D03*
X30883330Y37388800D03*
X31031959Y30085162D03*
X31038800Y25120600D03*
X59283600Y29946600D03*
X79400400Y0D03*
X79476600Y9702800D03*
X90449400Y1295400D03*
X95935800Y6756400D03*
X7594600Y33248600D03*
X7594600Y30708600D03*
X3657600Y32613600D03*
X3530600Y26263600D03*
X-279400Y28295600D03*
X3530600Y28803600D03*
X3530600Y27533600D03*
X27914600Y31978600D03*
X18008600Y32486600D03*
X18009278Y33497979D03*
X17881600Y28930600D03*
X17881600Y28041600D03*
X15722600Y40741600D03*
D18*
X94462600Y42011600D03*
D19*
X63411100Y31343600D03*
X63665100Y38773100D03*
D18*
X65760600Y37312600D03*
X67094100Y35217100D03*
X68110100Y35217100D03*
X64744600Y33756600D03*
D19*
X-1676400Y45567600D03*
X3213100Y56997600D03*
X5562600Y53822600D03*
D18*
X70104000Y21844000D03*
X77470000Y21844000D03*
D19*
X78333600Y56743600D03*
X78384400Y61772800D03*
X87274400Y61722000D03*
X87223600Y56642000D03*
X90373200Y62992000D03*
X94792800Y62992000D03*
X85293200Y47548800D03*
X71424800Y47650400D03*
X72593200Y37719000D03*
X81864200Y30962600D03*
X81203800Y37160200D03*
X74193400Y40132040D03*
X76606400Y40132040D03*
X18008600Y31597600D03*
X50012600Y32359600D03*
X39408100Y27914600D03*
D18*
X81026000Y52222400D03*
X53043507Y48599742D03*
X75590400Y52120800D03*
X53685545Y49077016D03*
X51155600Y30619603D03*
X63982600Y40640582D03*
X63982600Y41440585D03*
X63982600Y42240588D03*
X63982600Y43040591D03*
X63982600Y43840594D03*
X63982600Y44640597D03*
X63982600Y45440600D03*
D19*
X-1651000Y50444400D03*
X85318600Y43865800D03*
D18*
X71426051Y40169558D03*
X70755685Y33993915D03*
D19*
X5765800Y49606200D03*
X85293200Y42621200D03*
D18*
X71399400Y39370000D03*
X70765368Y33193971D03*
X94792800Y51562000D03*
X51765200Y47650400D03*
X90373200Y51663600D03*
X52451196Y48061997D03*
X62776100Y33058100D03*
X63347600Y34328100D03*
X63855600Y35026600D03*
X64808100Y36296600D03*
X72034400Y35534600D03*
X72034400Y30835600D03*
X38709600Y21615594D03*
X53187600Y41757600D03*
X36931600Y41757600D03*
X51155600Y21615594D03*
X45821600Y39725600D03*
X46843625Y40227575D03*
X38709600Y29565600D03*
X51155600Y39979600D03*
X38709600Y28765597D03*
X51155600Y39179597D03*
X38709600Y27025600D03*
X51155600Y37693600D03*
X38709600Y26225597D03*
X51155600Y36893597D03*
X38709600Y25425594D03*
X51155600Y36093594D03*
X38709600Y24625591D03*
X51155600Y35293591D03*
X38709600Y23215600D03*
X51155600Y33629600D03*
X38709600Y22415597D03*
X51155600Y32829597D03*
X38709600Y32829597D03*
X51155600Y29819600D03*
X38709600Y33629600D03*
X51155600Y29019597D03*
X38709600Y35039591D03*
X51155600Y27279600D03*
X38709600Y35839594D03*
X51155600Y26479597D03*
X38709600Y36639597D03*
X51155600Y25679594D03*
X38709600Y37439600D03*
X51155600Y24879591D03*
X38709600Y39179597D03*
X51155600Y23215600D03*
X38709600Y39979600D03*
X51155600Y22415597D03*
X50237405Y40435539D03*
X49377600Y39725600D03*
X49001250Y40741600D03*
X47853600Y39725600D03*
X44842050Y40741600D03*
X43027600Y39725600D03*
X44297600Y39725600D03*
X41757600Y39725600D03*
X43572050Y40741600D03*
X42302050Y40741600D03*
X41032050Y40741600D03*
X40487600Y39725600D03*
X39725600Y40741600D03*
X38709600Y40779603D03*
X38709600Y18135600D03*
X39509603Y18135600D03*
X50355597Y18135600D03*
X51155600Y18135600D03*
X52171600Y42265600D03*
X38709600Y32029594D03*
X39479278Y22197424D03*
X40279276Y22199731D03*
X41275000Y32385000D03*
X41879278Y22199613D03*
X42011600Y23215600D03*
X42011600Y24015603D03*
X42011600Y24815606D03*
X47853600Y24739600D03*
X47853600Y23761603D03*
X47853600Y22961600D03*
X47959552Y21691588D03*
X48759553Y21691653D03*
X49559554Y21691264D03*
X50359548Y21694996D03*
D20*
X63982600Y40640582D02*
X64897582Y40640582D01*
X65598601Y41341601D02*
X81924599Y41341601D01*
X64897582Y40640582D02*
X65598601Y41341601D01*
X98018600Y25247600D02*
X100939600Y25247600D01*
X81924599Y41341601D02*
X98018600Y25247600D01*
X82081706Y41740584D02*
X96034690Y27787600D01*
X64282599Y41740584D02*
X82081706Y41740584D01*
X96034690Y27787600D02*
X100939600Y27787600D01*
X63982600Y41440585D02*
X64282599Y41740584D01*
X93993072Y30327600D02*
X100939600Y30327600D01*
X82080085Y42240588D02*
X93993072Y30327600D01*
X63982600Y42240588D02*
X82080085Y42240588D01*
X81778463Y43040591D02*
X91951454Y32867600D01*
X91951454Y32867600D02*
X100939600Y32867600D01*
X63982600Y43040591D02*
X81778463Y43040591D01*
X89909836Y35407600D02*
X100939600Y35407600D01*
X81476842Y43840594D02*
X89909836Y35407600D01*
X63982600Y43840594D02*
X81476842Y43840594D01*
X87868218Y37947600D02*
X100939600Y37947600D01*
X81175221Y44640597D02*
X87868218Y37947600D01*
X63982600Y44640597D02*
X81175221Y44640597D01*
X63982600Y45440600D02*
X80873600Y45440600D01*
X85826600Y40487600D02*
X100939600Y40487600D01*
X80873600Y45440600D02*
X85826600Y40487600D01*
D21*
X71426051Y40169558D02*
X70789800Y39533307D01*
X70789800Y34028030D02*
X70755685Y33993915D01*
X70789800Y39533307D02*
X70789800Y34028030D01*
X71399400Y39370000D02*
X71078710Y39049310D01*
X71078710Y39049310D02*
X71078710Y37109400D01*
X71489950Y33918553D02*
X70765368Y33193971D01*
X71489950Y36698160D02*
X71489950Y33918553D01*
X71078710Y37109400D02*
X71489950Y36698160D01*
X72034400Y35534600D02*
X72034400Y30835600D01*
X31527780Y45129420D02*
X29311600Y47345600D01*
X31527780Y30496840D02*
X31527780Y45129420D01*
X37404690Y24619930D02*
X31527780Y30496840D01*
X38709600Y21615594D02*
X37404690Y22920504D01*
X37404690Y22920504D02*
X37404690Y24619930D01*
X29311600Y47345600D02*
X19659600Y47345600D01*
X17285734Y47345606D02*
X12950870Y51680470D01*
X19659600Y47345600D02*
X17285734Y47345606D01*
X12950870Y51680470D02*
X12950870Y55981600D01*
X17285740Y47345600D02*
X12950870Y51680470D01*
X29311600Y47345600D02*
X17285740Y47345600D01*
X19854993Y65263361D02*
X23585839Y65263361D01*
X12950871Y58359239D02*
X19854993Y65263361D01*
X12950870Y55981600D02*
X12950871Y58359239D01*
X24196639Y65263361D02*
X25580000Y63880000D01*
X19854993Y65263361D02*
X24196639Y65263361D01*
X47345600Y56997600D02*
X45900000Y58443200D01*
X67665600Y56997600D02*
X47345600Y56997600D01*
X45900000Y58443200D02*
X45900000Y61340000D01*
X68935600Y55727600D02*
X67665600Y56997600D01*
X68935600Y53695600D02*
X68935600Y55727600D01*
X67497070Y52257070D02*
X68935600Y53695600D01*
X58773210Y52257070D02*
X67497070Y52257070D01*
X53660690Y45059600D02*
X53660696Y47144556D01*
X53660696Y47144556D02*
X58773210Y52257070D01*
X53187600Y41757600D02*
X53660690Y42230690D01*
X53660690Y42230690D02*
X53660690Y45059600D01*
X41503600Y56997600D02*
X43360000Y58854000D01*
X18897600Y56997600D02*
X41503600Y56997600D01*
X19265960Y52311240D02*
X17881600Y53695600D01*
X36931600Y41757600D02*
X36458510Y42230690D01*
X43360000Y58854000D02*
X43360000Y61340000D01*
X36458510Y42230690D02*
X36458510Y47144550D01*
X17881600Y53695600D02*
X17881600Y55981600D01*
X36458510Y47144550D02*
X31291820Y52311240D01*
X17881600Y55981600D02*
X18897600Y56997600D01*
X31291820Y52311240D02*
X19265960Y52311240D01*
X58616700Y29076694D02*
X58616700Y45154700D01*
X51155600Y21615594D02*
X58616700Y29076694D01*
X58616700Y45154700D02*
X60807600Y47345600D01*
X60807600Y47345600D02*
X69531451Y47345600D01*
X69531451Y47345600D02*
X73847058Y51661207D01*
X73847057Y60821311D02*
X69405007Y65263361D01*
X73847058Y51661207D02*
X73847057Y60821311D01*
X65063361Y65263361D02*
X63680000Y63880000D01*
X69405007Y65263361D02*
X65063361Y65263361D01*
X61140000Y0D02*
X61140000Y1958000D01*
X61140000Y1958000D02*
X61569600Y2387600D01*
X45672331Y14463969D02*
X47588700Y12547600D01*
X45672330Y39179122D02*
X45672331Y14463969D01*
X57117271Y12547599D02*
X67996572Y12547579D01*
X67996572Y12547579D02*
X70711362Y9832780D01*
X45821600Y39328392D02*
X45672330Y39179122D01*
X45821600Y39725600D02*
X45821600Y39328392D01*
X47588700Y12547600D02*
X57117271Y12547599D01*
X70711362Y9832780D02*
X70711360Y4815040D01*
X70711360Y4815040D02*
X68283920Y2387600D01*
X68283920Y2387600D02*
X61569600Y2387600D01*
X62234451Y1274451D02*
X62839600Y1879600D01*
X62234451Y-1445549D02*
X62234451Y1274451D01*
X61140000Y-2540000D02*
X62234451Y-1445549D01*
X62839600Y1879600D02*
X62585549Y1625549D01*
X63058690Y2098690D02*
X62839600Y1879600D01*
X71000269Y9952451D02*
X71000269Y4695369D01*
X45961240Y14583640D02*
X47698740Y12846140D01*
X68106591Y12846140D02*
X71000269Y9952451D01*
X45961240Y35447820D02*
X45961240Y14583640D01*
X68403590Y2098690D02*
X63058690Y2098690D01*
X46843625Y36330205D02*
X45961240Y35447820D01*
X71000269Y4695369D02*
X68403590Y2098690D01*
X47698740Y12846140D02*
X68106591Y12846140D01*
X46843625Y40227575D02*
X46843625Y36330205D01*
X38709600Y29565600D02*
X33848690Y34426510D01*
X33848690Y46077150D02*
X30259330Y49666510D01*
X33848690Y34426510D02*
X33848690Y46077150D01*
X30259330Y49666510D02*
X19659600Y49666510D01*
X19659600Y49666510D02*
X18233466Y49666514D01*
X18233466Y49666514D02*
X15271780Y52628200D01*
X15271780Y52628200D02*
X15271780Y55981600D01*
X15271781Y57049001D02*
X17820570Y59597790D01*
X15271780Y55981600D02*
X15271781Y57049001D01*
X29565549Y62785549D02*
X30660000Y63880000D01*
X29565549Y60419929D02*
X29565549Y62785549D01*
X28743410Y59597790D02*
X29565549Y60419929D01*
X17820570Y59597790D02*
X28743410Y59597790D01*
X53949600Y40741600D02*
X53949600Y45059600D01*
X53187600Y39979600D02*
X53949600Y40741600D01*
X51155600Y39979600D02*
X53187600Y39979600D01*
X53949605Y47024885D02*
X58892880Y51968160D01*
X53949600Y45059600D02*
X53949605Y47024885D01*
X58892880Y51968160D02*
X64109600Y51968160D01*
X69224510Y53575930D02*
X69224509Y55847271D01*
X67616741Y51968161D02*
X69224510Y53575930D01*
X69224509Y55847271D02*
X67785270Y57286510D01*
X64109600Y51968160D02*
X67616741Y51968161D01*
X46994451Y62785549D02*
X45900000Y63880000D01*
X46994451Y58942569D02*
X46994451Y62785549D01*
X48650510Y57286510D02*
X46994451Y58942569D01*
X67785270Y57286510D02*
X48650510Y57286510D01*
X38709600Y28765597D02*
X33559780Y33915417D01*
X33559780Y33915417D02*
X33559780Y44805600D01*
X33559779Y45957481D02*
X30139660Y49377600D01*
X33559780Y44805600D02*
X33559779Y45957481D01*
X30139660Y49377600D02*
X19659600Y49377600D01*
X19659600Y49377600D02*
X18113795Y49377605D01*
X18113795Y49377605D02*
X14982870Y52508530D01*
X14982870Y52508530D02*
X14982870Y55981600D01*
X14982872Y57168672D02*
X17700900Y59886700D01*
X14982870Y55981600D02*
X14982872Y57168672D01*
X27882700Y59886700D02*
X28041600Y60045600D01*
X28120000Y60137919D02*
X28120000Y61340000D01*
X27868781Y59886700D02*
X28120000Y60137919D01*
X26866700Y59886700D02*
X27868781Y59886700D01*
X26866700Y59886700D02*
X27882700Y59886700D01*
X17700900Y59886700D02*
X26866700Y59886700D01*
X54238510Y40621930D02*
X54238510Y45059600D01*
X52796177Y39179597D02*
X54238510Y40621930D01*
X51155600Y39179597D02*
X52796177Y39179597D01*
X54238514Y46905214D02*
X59012550Y51679250D01*
X54238510Y45059600D02*
X54238514Y46905214D01*
X59012550Y51679250D02*
X67736410Y51679250D01*
X69513418Y55966942D02*
X67904940Y57575420D01*
X69513419Y53456261D02*
X69513418Y55966942D01*
X67736410Y51679250D02*
X69513419Y53456261D01*
X48440000Y58951200D02*
X48440000Y61340000D01*
X67904940Y57575420D02*
X49815780Y57575420D01*
X49815780Y57575420D02*
X48440000Y58951200D01*
X38709600Y27025600D02*
X33270870Y32464330D01*
X33270870Y32464330D02*
X33270870Y45837810D01*
X33270870Y45837810D02*
X30029620Y49079060D01*
X30029620Y49079060D02*
X18003760Y49079060D01*
X18003760Y49079060D02*
X14693960Y52388860D01*
X14693960Y52388860D02*
X14693960Y55981600D01*
X14693963Y57288343D02*
X17581230Y60175610D01*
X14693960Y55981600D02*
X14693963Y57288343D01*
X17581230Y60175610D02*
X26035398Y60175610D01*
X27025549Y62785549D02*
X28120000Y63880000D01*
X26035398Y60175610D02*
X27025549Y61165761D01*
X27025549Y61165761D02*
X27025549Y62785549D01*
X54527420Y40502260D02*
X54527420Y45059600D01*
X51718760Y37693600D02*
X54527420Y40502260D01*
X51155600Y37693600D02*
X51718760Y37693600D01*
X54527423Y46785543D02*
X59132220Y51390340D01*
X54527420Y45059600D02*
X54527423Y46785543D01*
X59132220Y51390340D02*
X64109600Y51390340D01*
X69802327Y56086613D02*
X68024610Y57864330D01*
X67856081Y51390341D02*
X69802328Y53336592D01*
X69802328Y53336592D02*
X69802327Y56086613D01*
X64109600Y51390340D02*
X67856081Y51390341D01*
X49885549Y62434451D02*
X48440000Y63880000D01*
X49885549Y59029651D02*
X49885549Y62434451D01*
X51050870Y57864330D02*
X49885549Y59029651D01*
X68024610Y57864330D02*
X51050870Y57864330D01*
X38709600Y26225597D02*
X32981960Y31953237D01*
X32981958Y44945242D02*
X32981958Y45718142D01*
X32981960Y44945240D02*
X32981958Y44945242D01*
X32981960Y31953237D02*
X32981960Y44945240D01*
X32981958Y45718142D02*
X29909950Y48790150D01*
X29909950Y48790150D02*
X19739050Y48790150D01*
X19739050Y48790150D02*
X17884089Y48790151D01*
X19739050Y48790150D02*
X19659600Y48790150D01*
X17884089Y48790151D02*
X14405050Y52269190D01*
X14405050Y52269190D02*
X14405050Y55981600D01*
X14405054Y57408014D02*
X18337040Y61340000D01*
X14405050Y55981600D02*
X14405054Y57408014D01*
X18337040Y61340000D02*
X20500000Y61340000D01*
X54816330Y40382590D02*
X54816330Y45059600D01*
X54816329Y40084329D02*
X54816330Y40382590D01*
X51625597Y36893597D02*
X54816329Y40084329D01*
X51155600Y36893597D02*
X51625597Y36893597D01*
X54816332Y46665872D02*
X59251890Y51101430D01*
X54816330Y45059600D02*
X54816332Y46665872D01*
X59251890Y51101430D02*
X67975744Y51101430D01*
X70091236Y56206284D02*
X68144280Y58153240D01*
X67975744Y51101430D02*
X70091237Y53216923D01*
X70091237Y53216923D02*
X70091236Y56206284D01*
X52565240Y58153240D02*
X50980000Y59738480D01*
X50980000Y59738480D02*
X50980000Y61340000D01*
X68144280Y58153240D02*
X52565240Y58153240D01*
X32693050Y31442144D02*
X32693050Y44805600D01*
X38709600Y25425594D02*
X32693050Y31442144D01*
X32693050Y44805600D02*
X32693049Y45598471D01*
X32693049Y45598471D02*
X29790280Y48501240D01*
X29790280Y48501240D02*
X19659600Y48501240D01*
X17764418Y48501242D02*
X14116140Y52149520D01*
X19659600Y48501240D02*
X17764418Y48501242D01*
X14116140Y52149520D02*
X14116140Y55981600D01*
X19022911Y62434451D02*
X21588749Y62434451D01*
X14116145Y57527685D02*
X19022911Y62434451D01*
X14116140Y55981600D02*
X14116145Y57527685D01*
X21945549Y62434451D02*
X23040000Y61340000D01*
X19022911Y62434451D02*
X21945549Y62434451D01*
X55105240Y39611240D02*
X55105240Y45059600D01*
X51587594Y36093594D02*
X55105240Y39611240D01*
X51155600Y36093594D02*
X51587594Y36093594D01*
X55105241Y46546201D02*
X59371560Y50812520D01*
X55105240Y45059600D02*
X55105241Y46546201D01*
X68095415Y50812521D02*
X70380146Y53097254D01*
X64020520Y50812520D02*
X68095415Y50812521D01*
X59371560Y50812520D02*
X64020520Y50812520D01*
X64020520Y50812520D02*
X64109600Y50812520D01*
X70380146Y53097254D02*
X70380145Y56325955D01*
X70380145Y56325955D02*
X68263950Y58442150D01*
X52074451Y62785549D02*
X50980000Y63880000D01*
X52074451Y59729849D02*
X52074451Y62785549D01*
X53362150Y58442150D02*
X52074451Y59729849D01*
X68263950Y58442150D02*
X53362150Y58442150D01*
X38709600Y24625591D02*
X32404140Y30931051D01*
X32404140Y45478800D02*
X29670610Y48212330D01*
X32404140Y30931051D02*
X32404140Y45478800D01*
X29670610Y48212330D02*
X19659600Y48212330D01*
X19659600Y48212330D02*
X17644747Y48212333D01*
X17644747Y48212333D02*
X13817600Y52039480D01*
X13817600Y55727600D02*
X13827230Y55737230D01*
X13817600Y52039480D02*
X13817600Y55727600D01*
X13827230Y55737230D02*
X13827230Y57647350D01*
X18903241Y62723361D02*
X23839839Y62723361D01*
X13827230Y57647350D02*
X18903241Y62723361D01*
X24196639Y62723361D02*
X25580000Y61340000D01*
X18903241Y62723361D02*
X24196639Y62723361D01*
X55394150Y38884150D02*
X55394150Y46426530D01*
X51803591Y35293591D02*
X55394150Y38884150D01*
X51155600Y35293591D02*
X51803591Y35293591D01*
X55394150Y46426530D02*
X59491230Y50523610D01*
X59491230Y50523610D02*
X68215084Y50523610D01*
X68215084Y50523610D02*
X70669055Y52977585D01*
X70669055Y52977585D02*
X70669054Y56445626D01*
X70669054Y56445626D02*
X68383620Y58731060D01*
X53520000Y60137919D02*
X53520000Y61340000D01*
X54926859Y58731060D02*
X53520000Y60137919D01*
X68383620Y58731060D02*
X54926859Y58731060D01*
X38165149Y24761462D02*
X32105600Y30821011D01*
X38165149Y23760051D02*
X38165149Y24761462D01*
X38709600Y23215600D02*
X38165149Y23760051D01*
X32105600Y30821011D02*
X32105600Y45368760D01*
X32105600Y45368760D02*
X29550940Y47923420D01*
X29550940Y47923420D02*
X19659600Y47923420D01*
X13528690Y51919810D02*
X13528690Y55847270D01*
X17525076Y47923424D02*
X13528690Y51919810D01*
X19659600Y47923420D02*
X17525076Y47923424D01*
X13528690Y55847270D02*
X13538320Y55856900D01*
X13538320Y55856900D02*
X13538320Y55981600D01*
X13538320Y55981600D02*
X13538321Y57767021D01*
X19297919Y63880000D02*
X20500000Y63880000D01*
X13538321Y58120402D02*
X19297919Y63880000D01*
X13538321Y57767021D02*
X13538321Y58120402D01*
X51155600Y33629600D02*
X55727600Y38201600D01*
X55727600Y38201600D02*
X55727600Y38963600D01*
X55727600Y38809020D02*
X55727600Y38963600D01*
X55727600Y38963600D02*
X55727600Y46351400D01*
X55727600Y46351400D02*
X59610900Y50234700D01*
X59610900Y50234700D02*
X64109600Y50234700D01*
X70957964Y52857916D02*
X70957963Y56565297D01*
X68334755Y50234701D02*
X70957964Y52857916D01*
X64109600Y50234700D02*
X68334755Y50234701D01*
X70957963Y56565297D02*
X68503290Y59019970D01*
X54965549Y62434451D02*
X53520000Y63880000D01*
X54965549Y60534391D02*
X54965549Y62434451D01*
X56479970Y59019970D02*
X54965549Y60534391D01*
X68503290Y59019970D02*
X56479970Y59019970D01*
X19659600Y47634510D02*
X17405405Y47634515D01*
X17405405Y47634515D02*
X13239780Y51800140D01*
X13239780Y51800140D02*
X13239780Y55966940D01*
X29431270Y47634510D02*
X19659600Y47634510D01*
X31816690Y44805600D02*
X31816689Y45249091D01*
X31816689Y45249091D02*
X29431270Y47634510D01*
X37693600Y24739600D02*
X31816690Y30616510D01*
X31816690Y30616510D02*
X31816690Y44805600D01*
X37693600Y23431597D02*
X37693600Y24739600D01*
X38709600Y22415597D02*
X37693600Y23431597D01*
X13239780Y55966940D02*
X13239782Y55966942D01*
X19974663Y64974451D02*
X21588749Y64974451D01*
X13239780Y58239568D02*
X19974663Y64974451D01*
X13239780Y55966940D02*
X13239780Y58239568D01*
X21945549Y64974451D02*
X23040000Y63880000D01*
X19974663Y64974451D02*
X21945549Y64974451D01*
X56016510Y38689350D02*
X56016510Y45856510D01*
X56016509Y37690506D02*
X56016510Y38689350D01*
X51155600Y32829597D02*
X56016509Y37690506D01*
X56016512Y45856512D02*
X56016514Y46231734D01*
X56016510Y45856510D02*
X56016512Y45856512D01*
X56016514Y46231734D02*
X59730570Y49945790D01*
X68454426Y49945793D02*
X71246873Y52738247D01*
X64049410Y49945790D02*
X64109600Y49945790D01*
X59730570Y49945790D02*
X64049410Y49945790D01*
X64049410Y49945790D02*
X68454422Y49945790D01*
X68454422Y49945790D02*
X68454426Y49945793D01*
X71246873Y52738247D02*
X71246872Y56684968D01*
X71246872Y56684968D02*
X68622960Y59308880D01*
X60578880Y59308880D02*
X59512320Y59308880D01*
X68622960Y59308880D02*
X60578880Y59308880D01*
X60578880Y59308880D02*
X59429039Y59308880D01*
X58600000Y60137919D02*
X58600000Y61340000D01*
X59429039Y59308880D02*
X58600000Y60137919D01*
X38709600Y32829597D02*
X34137600Y37401597D01*
X34137600Y37401597D02*
X34137600Y44805600D01*
X34137599Y46196821D02*
X30379000Y49955420D01*
X34137600Y44805600D02*
X34137599Y46196821D01*
X19729420Y49955420D02*
X18353137Y49955423D01*
X30379000Y49955420D02*
X19729420Y49955420D01*
X19729420Y49955420D02*
X19659600Y49955420D01*
X18353137Y49955423D02*
X15560690Y52747870D01*
X15560690Y52747870D02*
X15560690Y56929330D01*
X15560690Y56929330D02*
X17940240Y59308880D01*
X17940240Y59308880D02*
X29844880Y59308880D01*
X30660000Y60124000D02*
X30660000Y61340000D01*
X29844880Y59308880D02*
X30660000Y60124000D01*
X56305420Y37115780D02*
X56305420Y45567600D01*
X51155600Y29819600D02*
X56305420Y34969420D01*
X56305420Y34969420D02*
X56305420Y37115780D01*
X56305420Y37001420D02*
X56305420Y37115780D01*
X56305423Y46112063D02*
X59850240Y49656880D01*
X56305420Y45567600D02*
X56305423Y46112063D01*
X59850240Y49656880D02*
X68574092Y49656880D01*
X71535782Y52618571D02*
X71535781Y56804639D01*
X68574092Y49656880D02*
X71535782Y52618571D01*
X71535781Y56804639D02*
X68742630Y59597790D01*
X59694451Y60396749D02*
X59694451Y62428749D01*
X60493410Y59597790D02*
X59694451Y60396749D01*
X59694451Y62785549D02*
X58600000Y63880000D01*
X59694451Y61165761D02*
X59694451Y62785549D01*
X68742630Y59597790D02*
X60493410Y59597790D01*
X38709600Y33629600D02*
X34436140Y37903060D01*
X34436140Y46306860D02*
X30498670Y50244330D01*
X34436140Y37903060D02*
X34436140Y46306860D01*
X30498670Y50244330D02*
X19659600Y50244330D01*
X19659600Y50244330D02*
X18472808Y50244332D01*
X18472808Y50244332D02*
X15849600Y52867540D01*
X15849600Y52867540D02*
X15849600Y56809660D01*
X15859236Y56809660D02*
X15859237Y56819297D01*
X15849600Y56809660D02*
X15859236Y56809660D01*
X15859237Y56819297D02*
X18059910Y59019970D01*
X18059910Y59019970D02*
X33873970Y59019970D01*
X34645549Y59791549D02*
X34645549Y62331549D01*
X34645549Y62785549D02*
X35740000Y63880000D01*
X34645549Y59791549D02*
X34645549Y62785549D01*
X33873970Y59019970D02*
X34645549Y59791549D01*
X56594330Y34458327D02*
X56594330Y45567600D01*
X51155600Y29019597D02*
X56594330Y34458327D01*
X56594332Y45992392D02*
X59969910Y49367970D01*
X56594330Y45567600D02*
X56594332Y45992392D01*
X59969910Y49367970D02*
X64109600Y49367970D01*
X68693763Y49367971D02*
X71824691Y52498902D01*
X64109600Y49367970D02*
X68693763Y49367971D01*
X71824691Y52498902D02*
X71824690Y56924310D01*
X71824690Y56924310D02*
X68862300Y59886700D01*
X62593300Y59886700D02*
X61140000Y61340000D01*
X68862300Y59886700D02*
X62593300Y59886700D01*
X16148141Y52977579D02*
X16148141Y55981600D01*
X18592479Y50533241D02*
X16148141Y52977579D01*
X38709600Y35039591D02*
X34725050Y39024141D01*
X34725050Y39024141D02*
X34725049Y46426531D01*
X34725049Y46426531D02*
X30618340Y50533240D01*
X30618340Y50533240D02*
X18592479Y50533241D01*
X16148141Y55981600D02*
X16148146Y56699626D01*
X18179580Y58731060D02*
X35363060Y58731060D01*
X16148146Y56699626D02*
X18179580Y58731060D01*
X35363060Y58731060D02*
X35661600Y59029600D01*
X35740000Y59108000D02*
X35740000Y61340000D01*
X35363060Y58731060D02*
X35740000Y59108000D01*
X56883240Y33007240D02*
X56883240Y45567600D01*
X51155600Y27279600D02*
X56883240Y33007240D01*
X56883241Y45872721D02*
X60089580Y49079060D01*
X56883240Y45567600D02*
X56883241Y45872721D01*
X60089580Y49079060D02*
X65081060Y49079060D01*
X65081062Y49079062D02*
X68813434Y49079062D01*
X65081060Y49079060D02*
X65081062Y49079062D01*
X68813434Y49079062D02*
X72113600Y52379233D01*
X72113600Y52379233D02*
X72113599Y57043981D01*
X72113599Y57043981D02*
X68981970Y60175610D01*
X63224602Y60175610D02*
X62331600Y61068612D01*
X62234451Y62785549D02*
X61140000Y63880000D01*
X68981970Y60175610D02*
X63224602Y60175610D01*
X62234451Y61165761D02*
X62234451Y62785549D01*
X63224602Y60175610D02*
X62234451Y61165761D01*
X18712150Y50822150D02*
X16437051Y53097249D01*
X38709600Y35839594D02*
X35013960Y39535234D01*
X35013960Y39535234D02*
X35013960Y46546200D01*
X16437051Y53097249D02*
X16437051Y55981600D01*
X35013960Y46546200D02*
X30738010Y50822150D01*
X30738010Y50822150D02*
X18712150Y50822150D01*
X16437055Y56579955D02*
X18299250Y58442150D01*
X16437051Y55981600D02*
X16437055Y56579955D01*
X37185549Y59537549D02*
X37185549Y62331549D01*
X36090150Y58442150D02*
X37185549Y59537549D01*
X37185549Y62785549D02*
X38280000Y63880000D01*
X37185549Y59632649D02*
X37185549Y62785549D01*
X18299250Y58442150D02*
X36090150Y58442150D01*
X51155600Y26479597D02*
X57172150Y32496147D01*
X57172150Y45753050D02*
X60209250Y48790150D01*
X57172150Y32496147D02*
X57172150Y45753050D01*
X60209250Y48790150D02*
X68933103Y48790150D01*
X68933103Y48790150D02*
X72402509Y52259564D01*
X72402509Y57697491D02*
X68760000Y61340000D01*
X72402509Y52259564D02*
X72402509Y57697491D01*
X35302870Y40046327D02*
X35302870Y44805600D01*
X38709600Y36639597D02*
X35302870Y40046327D01*
X35302870Y44805600D02*
X35302869Y46665871D01*
X35302869Y46665871D02*
X30813140Y51155600D01*
X30813140Y51155600D02*
X19659600Y51155600D01*
X19659600Y51155600D02*
X18787276Y51155604D01*
X16725960Y53216920D02*
X16725960Y55981600D01*
X18787276Y51155604D02*
X16725960Y53216920D01*
X16725960Y55981600D02*
X16725964Y56460284D01*
X16725964Y56460284D02*
X18418920Y58153240D01*
X18418920Y58153240D02*
X37579240Y58153240D01*
X38280000Y58854000D02*
X38280000Y61340000D01*
X37579240Y58153240D02*
X38280000Y58854000D01*
X57461060Y31985054D02*
X57461060Y45567600D01*
X51155600Y25679594D02*
X57461060Y31985054D01*
X57461061Y45633381D02*
X60328920Y48501240D01*
X57461060Y45567600D02*
X57461061Y45633381D01*
X60328920Y48501240D02*
X69052773Y48501240D01*
X72691419Y59028369D02*
X69285337Y62434451D01*
X69052773Y48501240D02*
X72691419Y52139886D01*
X72691419Y52139886D02*
X72691419Y59028369D01*
X67314451Y62434451D02*
X66220000Y61340000D01*
X68324749Y62434451D02*
X67314451Y62434451D01*
X69285337Y62434451D02*
X68324749Y62434451D01*
X68324749Y62434451D02*
X68022451Y62434451D01*
X38709600Y37439600D02*
X35591780Y40557420D01*
X35591780Y46785540D02*
X30932810Y51444510D01*
X35591780Y40557420D02*
X35591780Y46785540D01*
X30932810Y51444510D02*
X19659600Y51444510D01*
X18906947Y51444513D02*
X17014870Y53336590D01*
X19659600Y51444510D02*
X18906947Y51444513D01*
X17014870Y53336590D02*
X17014870Y55981600D01*
X17014873Y56340613D02*
X18538590Y57864330D01*
X17014870Y55981600D02*
X17014873Y56340613D01*
X18538590Y57864330D02*
X38560330Y57864330D01*
X38560330Y57864330D02*
X39471600Y58775600D01*
X39725549Y62785549D02*
X40820000Y63880000D01*
X39725549Y59029549D02*
X39725549Y62785549D01*
X38560330Y57864330D02*
X39725549Y59029549D01*
X57749970Y45313600D02*
X57749970Y45059600D01*
X57749970Y31473961D02*
X57749970Y45313600D01*
X51155600Y24879591D02*
X57749970Y31473961D01*
X57749970Y45513710D02*
X60448590Y48212330D01*
X57749970Y45313600D02*
X57749970Y45513710D01*
X60448590Y48212330D02*
X64109600Y48212330D01*
X69172444Y48212331D02*
X72980329Y52020216D01*
X64109600Y48212330D02*
X69172444Y48212331D01*
X72980328Y59148040D02*
X69405007Y62723361D01*
X72980329Y52020216D02*
X72980328Y59148040D01*
X66003839Y62723361D02*
X65063361Y62723361D01*
X65063361Y62723361D02*
X63680000Y61340000D01*
X69405007Y62723361D02*
X66003839Y62723361D01*
X66003839Y62723361D02*
X65263361Y62723361D01*
X39740260Y57575420D02*
X40741600Y58576760D01*
X35880690Y46905210D02*
X31052480Y51733420D01*
X18658260Y57575420D02*
X39740260Y57575420D01*
X35880690Y41584243D02*
X35880690Y46905210D01*
X31052480Y51733420D02*
X19659600Y51733420D01*
X19659600Y51733420D02*
X19026618Y51733422D01*
X38709600Y39179597D02*
X38285336Y39179597D01*
X17303780Y53456260D02*
X17303780Y55981600D01*
X19026618Y51733422D02*
X17303780Y53456260D01*
X38285336Y39179597D02*
X35880690Y41584243D01*
X17303782Y56220942D02*
X18658260Y57575420D01*
X17303780Y55981600D02*
X17303782Y56220942D01*
X40820000Y61340000D02*
X40820000Y58655160D01*
X40820000Y58655160D02*
X39740260Y57575420D01*
X66097181Y47923419D02*
X66097179Y47923422D01*
X51155600Y23215600D02*
X58038880Y30098880D01*
X58038882Y45394042D02*
X60568259Y47923419D01*
X58038880Y30098880D02*
X58038882Y45394042D01*
X60568259Y47923419D02*
X66097181Y47923419D01*
X66097181Y47923419D02*
X69292110Y47923419D01*
X73269238Y51900546D02*
X72812746Y51444054D01*
X68760000Y63880000D02*
X73269238Y59370762D01*
X69292110Y47923419D02*
X72812746Y51444054D01*
X73269238Y59370762D02*
X73269238Y51900546D01*
X72812746Y51444054D02*
X73269238Y51900547D01*
X42011600Y62531600D02*
X43360000Y63880000D01*
X42011600Y59438180D02*
X42011600Y62531600D01*
X36169600Y47024880D02*
X31172150Y52022330D01*
X39859930Y57286510D02*
X42011600Y59438180D01*
X37903812Y39979600D02*
X36169600Y41713812D01*
X36169600Y41713812D02*
X36169600Y47024880D01*
X38709600Y39979600D02*
X37903812Y39979600D01*
X18777930Y57286510D02*
X39859930Y57286510D01*
X31172150Y52022330D02*
X19146289Y52022331D01*
X19146289Y52022331D02*
X17592690Y53575930D01*
X17592690Y53575930D02*
X17592691Y56101271D01*
X17592691Y56101271D02*
X18777930Y57286510D01*
X58327790Y45074260D02*
X58327790Y45059600D01*
X58327790Y29587787D02*
X58327790Y45074260D01*
X51155600Y22415597D02*
X58327790Y29587787D01*
X58327790Y45074260D02*
X58327791Y45274371D01*
X58327791Y45274371D02*
X60687930Y47634510D01*
X60687930Y47634510D02*
X64109600Y47634510D01*
X69411782Y47634511D02*
X73558148Y51780877D01*
X64109600Y47634510D02*
X69411782Y47634511D01*
X73558148Y60701640D02*
X69285337Y64974451D01*
X73558148Y51780877D02*
X73558148Y60701640D01*
X68022451Y64974451D02*
X67314451Y64974451D01*
X69285337Y64974451D02*
X68022451Y64974451D01*
X67314451Y64974451D02*
X66220000Y63880000D01*
X68022451Y64974451D02*
X67514451Y64974451D01*
X67314451Y-1094451D02*
X66220000Y0D01*
X50237405Y40435539D02*
X50237405Y38045405D01*
X50237405Y38045405D02*
X47116880Y34924880D01*
X47116880Y34924880D02*
X47116880Y15062320D01*
X47116880Y15062320D02*
X48177420Y14001780D01*
X48177420Y14001780D02*
X68585272Y14001779D01*
X72155907Y10431144D02*
X72155907Y1255895D01*
X68585272Y14001779D02*
X72155907Y10431144D01*
X72155907Y1255895D02*
X69805561Y-1094451D01*
X69805561Y-1094451D02*
X67314451Y-1094451D01*
X49377600Y39725600D02*
X49377600Y37594180D01*
X49377600Y37594180D02*
X46827970Y35044550D01*
X46827970Y35044550D02*
X46827970Y34645600D01*
X68760000Y942000D02*
X68760000Y0D01*
X71866997Y4048997D02*
X68760000Y942000D01*
X71866997Y10311474D02*
X71866997Y4048997D01*
X46827970Y34899600D02*
X46827971Y14942649D01*
X46827971Y14942649D02*
X48057750Y13712870D01*
X48057750Y13712870D02*
X68465601Y13712870D01*
X68465601Y13712870D02*
X71866997Y10311474D01*
X63680000Y-2540000D02*
X64871600Y-1348400D01*
X64871600Y-1348400D02*
X64871600Y-152400D01*
X64871600Y-152400D02*
X64871600Y-1168400D01*
X48701251Y40441601D02*
X49001250Y40741600D01*
X48701251Y37326411D02*
X46539061Y35164220D01*
X48701251Y40441601D02*
X48701251Y37326411D01*
X46539061Y35164220D02*
X46539061Y35019269D01*
X46539061Y35019269D02*
X46539062Y34391599D01*
X48701251Y39457831D02*
X48701251Y40441601D01*
X47938080Y13423960D02*
X46539060Y14822980D01*
X46539060Y14822980D02*
X46539061Y35153600D01*
X68345931Y13423960D02*
X47938080Y13423960D01*
X71578088Y10191790D02*
X68345931Y13423960D01*
X71578087Y4456027D02*
X71578088Y10191790D01*
X64871600Y-152400D02*
X64871600Y908140D01*
X64871600Y908140D02*
X65484330Y1520870D01*
X65484330Y1520870D02*
X68642930Y1520870D01*
X68642930Y1520870D02*
X71578087Y4456027D01*
X68764340Y2050860D02*
X68523260Y1809780D01*
X68523260Y1809780D02*
X64039780Y1809780D01*
X68764340Y2050860D02*
X68681600Y1968120D01*
X63680000Y1450000D02*
X64039780Y1809780D01*
X63680000Y0D02*
X63680000Y1450000D01*
X71289178Y4575698D02*
X68764340Y2050860D01*
X71289179Y10072121D02*
X71289178Y4575698D01*
X68226261Y13135050D02*
X71289179Y10072121D01*
X47853600Y39725600D02*
X47853600Y36931600D01*
X47853600Y36931600D02*
X46250150Y35328150D01*
X47818410Y13135050D02*
X68226261Y13135050D01*
X46250150Y35328150D02*
X46250151Y14703309D01*
X46250151Y14703309D02*
X47818410Y13135050D01*
X44842050Y35694970D02*
X44842050Y40741600D01*
X45383420Y35153600D02*
X44842050Y35694970D01*
X45383420Y14344300D02*
X45383420Y35153600D01*
X45383420Y14344300D02*
X47469030Y12258690D01*
X47469030Y12258690D02*
X56997600Y12258690D01*
X67876901Y12258671D02*
X70422452Y9713110D01*
X56997600Y12258690D02*
X67876901Y12258671D01*
X70422452Y9713110D02*
X70422452Y5181600D01*
X68205279Y2717539D02*
X60629539Y2717539D01*
X70422451Y4934711D02*
X68205279Y2717539D01*
X70422452Y5181600D02*
X70422451Y4934711D01*
X59791600Y1879600D02*
X59791600Y-1168400D01*
X59791600Y1879600D02*
X60629539Y2717539D01*
X59791600Y-1348400D02*
X59791600Y1879600D01*
X58600000Y-2540000D02*
X59791600Y-1348400D01*
X43027600Y36149350D02*
X43027600Y39725600D01*
X44516690Y34660260D02*
X43027600Y36149350D01*
X44516690Y15341600D02*
X44516690Y34660260D01*
X44516691Y13985289D02*
X47110020Y11391960D01*
X44516690Y15341600D02*
X44516691Y13985289D01*
X47110020Y11391960D02*
X56997600Y11391960D01*
X67517888Y11391947D02*
X69555724Y9354102D01*
X56997600Y11391960D02*
X67517888Y11391947D01*
X67812909Y3584269D02*
X54511269Y3584269D01*
X69555723Y5327083D02*
X67812909Y3584269D01*
X53520000Y2593000D02*
X53520000Y0D01*
X54511269Y3584269D02*
X53520000Y2593000D01*
X69555723Y5327083D02*
X69555723Y5928723D01*
X69555724Y5928724D02*
X69555724Y5674724D01*
X69555723Y5928723D02*
X69555724Y5928724D01*
X69555724Y9354102D02*
X69555724Y5928724D01*
X44297600Y35696510D02*
X44297600Y39725600D01*
X45094510Y34899600D02*
X44297600Y35696510D01*
X45094510Y15341600D02*
X45094510Y34899600D01*
X45094511Y14224629D02*
X47349360Y11969780D01*
X45094510Y15341600D02*
X45094511Y14224629D01*
X47349360Y11969780D02*
X56997600Y11969780D01*
X67757230Y11969763D02*
X70133543Y9593441D01*
X56997600Y11969780D02*
X67757230Y11969763D01*
X70133543Y9593441D02*
X70133542Y5054382D01*
X68085609Y3006449D02*
X59902449Y3006449D01*
X70133542Y5054382D02*
X68085609Y3006449D01*
X58600000Y1680519D02*
X59902449Y2982968D01*
X58600000Y0D02*
X58600000Y1680519D01*
X59902449Y2982968D02*
X59902449Y3006449D01*
X41757600Y36602190D02*
X41757600Y39725600D01*
X43938870Y34420920D02*
X41757600Y36602190D01*
X43938870Y15341600D02*
X43938870Y34420920D01*
X43938871Y13745949D02*
X46870680Y10814140D01*
X43938870Y15341600D02*
X43938871Y13745949D01*
X43938870Y13745950D02*
X43938869Y34420921D01*
X46870680Y10814140D02*
X43938870Y13745950D01*
X68977906Y9114764D02*
X68977905Y5566425D01*
X56953060Y10814140D02*
X56997600Y10814140D01*
X46870680Y10814140D02*
X56953060Y10814140D01*
X56953060Y10814140D02*
X67278546Y10814131D01*
X68977905Y5566425D02*
X67573569Y4162089D01*
X67278546Y10814131D02*
X68977906Y9114764D01*
X67573569Y4162089D02*
X52168089Y4162089D01*
X50980000Y2974000D02*
X50980000Y0D01*
X52168089Y4162089D02*
X50980000Y2974000D01*
X43572050Y39645362D02*
X43572050Y40741600D01*
X44805600Y14104960D02*
X44805600Y34779930D01*
X44805600Y34779930D02*
X44008690Y35576840D01*
X44008690Y39208722D02*
X43572050Y39645362D01*
X44008690Y35576840D02*
X44008690Y39208722D01*
X44805600Y14104960D02*
X47229690Y11680870D01*
X47229690Y11680870D02*
X56997600Y11680870D01*
X56997600Y11680870D02*
X67637559Y11680855D01*
X67637559Y11680855D02*
X69844634Y9473772D01*
X69844634Y9473772D02*
X69844633Y5174053D01*
X67965939Y3295359D02*
X58883841Y3295359D01*
X69844633Y5174053D02*
X67965939Y3295359D01*
X58883841Y3295359D02*
X55365359Y3295359D01*
X58883841Y3295359D02*
X58775600Y3295359D01*
X54614451Y2544451D02*
X55219600Y3149600D01*
X54614451Y-1445549D02*
X54614451Y2544451D01*
X53520000Y-2540000D02*
X54614451Y-1445549D01*
X55365359Y3295359D02*
X55219600Y3149600D01*
X55219600Y3149600D02*
X54965549Y2895549D01*
X42302050Y36466320D02*
X42302050Y40741600D01*
X44227780Y34540590D02*
X42302050Y36466320D01*
X46990350Y11103050D02*
X44227780Y13865620D01*
X56997600Y11103050D02*
X46990350Y11103050D01*
X44227780Y13865620D02*
X44227780Y34540590D01*
X67398217Y11103039D02*
X56997600Y11103050D01*
X67693239Y3873179D02*
X69266814Y5446754D01*
X69266814Y5446754D02*
X69266815Y9234433D01*
X69266815Y9234433D02*
X67398217Y11103039D01*
X52074451Y3052451D02*
X52074451Y-1011549D01*
X67693239Y3873179D02*
X52895179Y3873179D01*
X52074451Y-1445549D02*
X50980000Y-2540000D01*
X52074451Y3052451D02*
X52074451Y-1445549D01*
X52895179Y3873179D02*
X52074451Y3052451D01*
X41032050Y36919160D02*
X41032050Y40741600D01*
X43649960Y34301250D02*
X41032050Y36919160D01*
X43649960Y13626280D02*
X43649960Y34301250D01*
X43649960Y13626280D02*
X46751010Y10525230D01*
X46751010Y10525230D02*
X56997600Y10525230D01*
X68688996Y5686096D02*
X67453899Y4450999D01*
X68688997Y8995095D02*
X68688996Y5686096D01*
X67158875Y10525223D02*
X68688997Y8995095D01*
X56997600Y10525230D02*
X67158875Y10525223D01*
X67453899Y4450999D02*
X50932999Y4450999D01*
X49534451Y-1445549D02*
X48440000Y-2540000D01*
X49534451Y3052451D02*
X49534451Y-1445549D01*
X50932999Y4450999D02*
X49534451Y3052451D01*
X40487600Y39725600D02*
X40487600Y37494760D01*
X43361050Y23379250D02*
X43361050Y23295050D01*
X43361050Y23295050D02*
X43361050Y15341600D01*
X40487600Y37055030D02*
X40487600Y39725600D01*
X43361050Y34181580D02*
X40487600Y37055030D01*
X43361050Y23295050D02*
X43361050Y34181580D01*
X43361051Y13506609D02*
X46631340Y10236320D01*
X43361050Y15341600D02*
X43361051Y13506609D01*
X46631340Y10236320D02*
X56997600Y10236320D01*
X68400088Y8875426D02*
X68400087Y5805767D01*
X68400087Y5805767D02*
X67334229Y4739909D01*
X67039204Y10236315D02*
X68400088Y8875426D01*
X56997600Y10236320D02*
X67039204Y10236315D01*
X67334229Y4739909D02*
X51475909Y4739909D01*
X51475909Y4739909D02*
X51409600Y4739909D01*
X48440000Y3614618D02*
X48440000Y0D01*
X49565291Y4739909D02*
X48440000Y3614618D01*
X51475909Y4739909D02*
X49565291Y4739909D01*
X39725600Y40741600D02*
X39725600Y37848180D01*
X43072140Y23259580D02*
X43072140Y23171060D01*
X43072140Y23171060D02*
X43072140Y13386940D01*
X39725600Y37408450D02*
X39725600Y40741600D01*
X43072140Y34061910D02*
X39725600Y37408450D01*
X43072140Y23171060D02*
X43072140Y34061910D01*
X43072140Y13386940D02*
X46511670Y9947410D01*
X68111178Y5925438D02*
X67214559Y5028819D01*
X68111179Y8755757D02*
X68111178Y5925438D01*
X56937410Y9947410D02*
X56997600Y9947410D01*
X66919533Y9947407D02*
X68111179Y8755757D01*
X46511670Y9947410D02*
X56937410Y9947410D01*
X56937410Y9947410D02*
X66919533Y9947407D01*
X67214559Y5028819D02*
X50038381Y5028819D01*
X50038381Y5028819D02*
X49885600Y5028819D01*
X46994451Y3560451D02*
X46994451Y-1011549D01*
X48462819Y5028819D02*
X46994451Y3560451D01*
X46994451Y-1445549D02*
X45900000Y-2540000D01*
X46994451Y3508889D02*
X46994451Y-1445549D01*
X48514381Y5028819D02*
X46994451Y3508889D01*
X48514381Y5028819D02*
X48462819Y5028819D01*
X50038381Y5028819D02*
X48514381Y5028819D01*
X39254051Y40235152D02*
X39254051Y37911149D01*
X42783230Y33942240D02*
X42783230Y15341600D01*
X39254051Y40235152D02*
X38709600Y40779603D01*
X39254051Y37471419D02*
X39254051Y40235152D01*
X42783230Y33942240D02*
X39254051Y37471419D01*
X42783231Y13267269D02*
X46392000Y9658500D01*
X42783230Y15341600D02*
X42783231Y13267269D01*
X46392000Y9658500D02*
X56997600Y9658500D01*
X67822269Y6045109D02*
X67094889Y5317729D01*
X67822270Y8636088D02*
X67822269Y6045109D01*
X66799862Y9658498D02*
X67822270Y8636088D01*
X56997600Y9658500D02*
X66799862Y9658498D01*
X67094889Y5317729D02*
X47636309Y5317729D01*
X45900000Y3581420D02*
X45900000Y0D01*
X47636309Y5317729D02*
X45900000Y3581420D01*
X38709600Y16523740D02*
X46152660Y9080680D01*
X38709600Y18135600D02*
X38709600Y16523740D01*
X46152660Y9080680D02*
X66560520Y9080680D01*
X67244451Y8396749D02*
X67244451Y6284451D01*
X66560520Y9080680D02*
X67244451Y8396749D01*
X67244451Y6284451D02*
X66855549Y5895549D01*
X66855549Y5895549D02*
X47043549Y5895549D01*
X43360000Y2212000D02*
X43360000Y0D01*
X47043549Y5895549D02*
X43360000Y2212000D01*
X39509603Y16132317D02*
X46272330Y9369590D01*
X39509603Y18135600D02*
X39509603Y16132317D01*
X46272330Y9369590D02*
X56997600Y9369590D01*
X67533361Y8516419D02*
X67533360Y6164780D01*
X66680191Y9369589D02*
X67533361Y8516419D01*
X67533360Y6164780D02*
X66975219Y5606639D01*
X56997600Y9369590D02*
X66680191Y9369589D01*
X66975219Y5606639D02*
X47682561Y5606639D01*
X44454451Y2798451D02*
X44454451Y-1445549D01*
X47262639Y5606639D02*
X44454451Y2798451D01*
X47682561Y5606639D02*
X47262639Y5606639D01*
X44454451Y-1445549D02*
X43360000Y-2540000D01*
X47682561Y5606639D02*
X47516639Y5606639D01*
X69886192Y-1422400D02*
X67337600Y-1422400D01*
X67337600Y-1422400D02*
X66220000Y-2540000D01*
X72491600Y1183008D02*
X69886192Y-1422400D01*
X72491600Y10504031D02*
X72491600Y1183008D01*
X56997600Y14290690D02*
X68704943Y14290688D01*
X68704943Y14290688D02*
X72491600Y10504031D01*
X53829930Y14290690D02*
X56997600Y14290690D01*
X50355597Y18135600D02*
X50655596Y17835601D01*
X50655596Y17835601D02*
X50655596Y17465024D01*
X50655596Y17465024D02*
X53829930Y14290690D01*
X51155600Y17373600D02*
X51155600Y18135600D01*
X72780510Y5435600D02*
X72780510Y10623701D01*
X72780510Y10623701D02*
X68824614Y14579597D01*
X68824614Y14579597D02*
X53949600Y14579600D01*
X53949600Y14579600D02*
X51155600Y17373600D01*
X72780510Y5435600D02*
X72780509Y1063337D01*
X69962081Y-2540000D02*
X68760000Y-2540000D01*
X72780509Y278428D02*
X69962081Y-2540000D01*
X72780509Y1063337D02*
X72780509Y278428D01*
M02*
