G04 #@! TF.GenerationSoftware,KiCad,Pcbnew,5.1.4-e60b266~84~ubuntu16.04.1*
G04 #@! TF.CreationDate,2019-11-22T17:57:18+01:00*
G04 #@! TF.ProjectId,SRAM_board,5352414d-5f62-46f6-9172-642e6b696361,rev?*
G04 #@! TF.SameCoordinates,Original*
G04 #@! TF.FileFunction,Legend,Top*
G04 #@! TF.FilePolarity,Positive*
%FSLAX46Y46*%
G04 Gerber Fmt 4.6, Leading zero omitted, Abs format (unit mm)*
G04 Created by KiCad (PCBNEW 5.1.4-e60b266~84~ubuntu16.04.1) date 2019-11-22 17:57:18*
%MOMM*%
%LPD*%
G04 APERTURE LIST*
%ADD10C,0.500000*%
%ADD11C,0.120000*%
%ADD12C,0.250000*%
%ADD13C,0.150000*%
%ADD14C,0.254000*%
%ADD15C,0.762000*%
%ADD16C,0.050000*%
%ADD17C,0.010000*%
%ADD18C,1.000000*%
G04 APERTURE END LIST*
D10*
X75107800Y10718800D02*
X75107800Y14757400D01*
X75107800Y24053800D02*
X75107800Y17043400D01*
X75107800Y51943000D02*
X75107800Y44196000D01*
X67081400Y10718800D02*
X67081400Y23926800D01*
X67081400Y52222400D02*
X67081400Y41579800D01*
X14503400Y35001200D02*
X-3149600Y35001200D01*
D11*
X24892000Y34975800D02*
X24892000Y35001200D01*
D10*
X31953200Y35001200D02*
X24434800Y35001200D01*
X63474600Y35001200D02*
X58166000Y35001200D01*
X97205800Y35001200D02*
X83820000Y35001200D01*
D12*
X-1219052Y4500619D02*
X-1094052Y5500619D01*
X-855957Y5500619D01*
X-719052Y5453000D01*
X-635719Y5357761D01*
X-600004Y5262523D01*
X-576195Y5072047D01*
X-594052Y4929190D01*
X-665480Y4738714D01*
X-725004Y4643476D01*
X-832147Y4548238D01*
X-980957Y4500619D01*
X-1219052Y4500619D01*
X-153576Y5024428D02*
X179757Y5024428D01*
X257138Y4500619D02*
X-219052Y4500619D01*
X-94052Y5500619D01*
X382138Y5500619D01*
X733328Y4881571D02*
X1495233Y4881571D01*
X2447614Y4500619D02*
X1876185Y4500619D01*
X2161900Y4500619D02*
X2286900Y5500619D01*
X2173804Y5357761D01*
X2066661Y5262523D01*
X1965471Y5214904D01*
X3191661Y5500619D02*
X3286899Y5500619D01*
X3376185Y5453000D01*
X3417852Y5405380D01*
X3453566Y5310142D01*
X3477376Y5119666D01*
X3447614Y4881571D01*
X3376185Y4691095D01*
X3316661Y4595857D01*
X3263090Y4548238D01*
X3161899Y4500619D01*
X3066661Y4500619D01*
X2977376Y4548238D01*
X2935709Y4595857D01*
X2899995Y4691095D01*
X2876185Y4881571D01*
X2905947Y5119666D01*
X2977376Y5310142D01*
X3036900Y5405380D01*
X3090471Y5453000D01*
X3191661Y5500619D01*
X4548804Y4548238D02*
X4685709Y4500619D01*
X4923804Y4500619D01*
X5024995Y4548238D01*
X5078566Y4595857D01*
X5138090Y4691095D01*
X5149995Y4786333D01*
X5114280Y4881571D01*
X5072614Y4929190D01*
X4983328Y4976809D01*
X4798804Y5024428D01*
X4709519Y5072047D01*
X4667852Y5119666D01*
X4632138Y5214904D01*
X4644042Y5310142D01*
X4703566Y5405380D01*
X4757138Y5453000D01*
X4858328Y5500619D01*
X5096423Y5500619D01*
X5233328Y5453000D01*
X6114280Y4500619D02*
X5840471Y4976809D01*
X5542852Y4500619D02*
X5667852Y5500619D01*
X6048804Y5500619D01*
X6138090Y5453000D01*
X6179757Y5405380D01*
X6215471Y5310142D01*
X6197614Y5167285D01*
X6138090Y5072047D01*
X6084519Y5024428D01*
X5983328Y4976809D01*
X5602376Y4976809D01*
X6530947Y4786333D02*
X7007138Y4786333D01*
X6399995Y4500619D02*
X6858328Y5500619D01*
X7066661Y4500619D01*
X7399995Y4500619D02*
X7524995Y5500619D01*
X7769042Y4786333D01*
X8191661Y5500619D01*
X8066661Y4500619D01*
X9370233Y5024428D02*
X9703566Y5024428D01*
X9780947Y4500619D02*
X9304757Y4500619D01*
X9429757Y5500619D01*
X9905947Y5500619D01*
X10239280Y5500619D02*
X10780947Y4500619D01*
X10905947Y5500619D02*
X10114280Y4500619D01*
X11161899Y4500619D02*
X11286899Y5500619D01*
X11667852Y5500619D01*
X11757138Y5453000D01*
X11798804Y5405380D01*
X11834519Y5310142D01*
X11816661Y5167285D01*
X11757138Y5072047D01*
X11703566Y5024428D01*
X11602376Y4976809D01*
X11221423Y4976809D01*
X12149995Y4786333D02*
X12626185Y4786333D01*
X12019042Y4500619D02*
X12477376Y5500619D01*
X12685709Y4500619D01*
X13019042Y4500619D02*
X13144042Y5500619D01*
X13590471Y4500619D01*
X13715471Y5500619D01*
X14024995Y4548238D02*
X14161899Y4500619D01*
X14399995Y4500619D01*
X14501185Y4548238D01*
X14554757Y4595857D01*
X14614280Y4691095D01*
X14626185Y4786333D01*
X14590471Y4881571D01*
X14548804Y4929190D01*
X14459519Y4976809D01*
X14274995Y5024428D01*
X14185709Y5072047D01*
X14144042Y5119666D01*
X14108328Y5214904D01*
X14120233Y5310142D01*
X14179757Y5405380D01*
X14233328Y5453000D01*
X14334519Y5500619D01*
X14572614Y5500619D01*
X14709519Y5453000D01*
X15019042Y4500619D02*
X15144042Y5500619D01*
X15810709Y5500619D02*
X16001185Y5500619D01*
X16090471Y5453000D01*
X16173804Y5357761D01*
X16197614Y5167285D01*
X16155947Y4833952D01*
X16084519Y4643476D01*
X15977376Y4548238D01*
X15876185Y4500619D01*
X15685709Y4500619D01*
X15596423Y4548238D01*
X15513090Y4643476D01*
X15489280Y4833952D01*
X15530947Y5167285D01*
X15602376Y5357761D01*
X15709519Y5453000D01*
X15810709Y5500619D01*
X16542852Y4500619D02*
X16667852Y5500619D01*
X17114280Y4500619D01*
X17239280Y5500619D01*
D11*
X97839600Y47067600D02*
X96139000Y47066200D01*
X97828100Y41884600D02*
X95986600Y41884600D01*
D13*
X96566100Y43789695D02*
X96518480Y43694457D01*
X96518480Y43551600D01*
X96566100Y43408742D01*
X96661338Y43313504D01*
X96756576Y43265885D01*
X96947052Y43218266D01*
X97089909Y43218266D01*
X97280385Y43265885D01*
X97375623Y43313504D01*
X97470861Y43408742D01*
X97518480Y43551600D01*
X97518480Y43646838D01*
X97470861Y43789695D01*
X97423242Y43837314D01*
X97089909Y43837314D01*
X97089909Y43646838D01*
X97518480Y44265885D02*
X96518480Y44265885D01*
X97518480Y44837314D01*
X96518480Y44837314D01*
X97518480Y45313504D02*
X96518480Y45313504D01*
X96518480Y45551600D01*
X96566100Y45694457D01*
X96661338Y45789695D01*
X96756576Y45837314D01*
X96947052Y45884933D01*
X97089909Y45884933D01*
X97280385Y45837314D01*
X97375623Y45789695D01*
X97470861Y45694457D01*
X97518480Y45551600D01*
X97518480Y45313504D01*
X13460433Y21239219D02*
X13127100Y21715409D01*
X12889004Y21239219D02*
X12889004Y22239219D01*
X13269957Y22239219D01*
X13365195Y22191600D01*
X13412814Y22143980D01*
X13460433Y22048742D01*
X13460433Y21905885D01*
X13412814Y21810647D01*
X13365195Y21763028D01*
X13269957Y21715409D01*
X12889004Y21715409D01*
X13793766Y22239219D02*
X14460433Y21239219D01*
X14460433Y22239219D02*
X13793766Y21239219D01*
X12992195Y18048219D02*
X13563623Y18048219D01*
X13277909Y17048219D02*
X13277909Y18048219D01*
X13801719Y18048219D02*
X14468385Y17048219D01*
X14468385Y18048219D02*
X13801719Y17048219D01*
X96566100Y29454600D02*
X96518480Y29359361D01*
X96518480Y29216504D01*
X96566100Y29073647D01*
X96661338Y28978409D01*
X96756576Y28930790D01*
X96947052Y28883171D01*
X97089909Y28883171D01*
X97280385Y28930790D01*
X97375623Y28978409D01*
X97470861Y29073647D01*
X97518480Y29216504D01*
X97518480Y29311742D01*
X97470861Y29454600D01*
X97423242Y29502219D01*
X97089909Y29502219D01*
X97089909Y29311742D01*
X97518480Y29930790D02*
X96518480Y29930790D01*
X96518480Y30311742D01*
X96566100Y30406980D01*
X96613719Y30454600D01*
X96708957Y30502219D01*
X96851814Y30502219D01*
X96947052Y30454600D01*
X96994671Y30406980D01*
X97042290Y30311742D01*
X97042290Y29930790D01*
X97518480Y30930790D02*
X96518480Y30930790D01*
X96518480Y31597457D02*
X96518480Y31787933D01*
X96566100Y31883171D01*
X96661338Y31978409D01*
X96851814Y32026028D01*
X97185147Y32026028D01*
X97375623Y31978409D01*
X97470861Y31883171D01*
X97518480Y31787933D01*
X97518480Y31597457D01*
X97470861Y31502219D01*
X97375623Y31406980D01*
X97185147Y31359361D01*
X96851814Y31359361D01*
X96661338Y31406980D01*
X96566100Y31502219D01*
X96518480Y31597457D01*
X97232766Y13143314D02*
X97232766Y13619504D01*
X97518480Y13048076D02*
X96518480Y13381409D01*
X97518480Y13714742D01*
X97518480Y14048076D02*
X96518480Y14048076D01*
X96518480Y14286171D01*
X96566100Y14429028D01*
X96661338Y14524266D01*
X96756576Y14571885D01*
X96947052Y14619504D01*
X97089909Y14619504D01*
X97280385Y14571885D01*
X97375623Y14524266D01*
X97470861Y14429028D01*
X97518480Y14286171D01*
X97518480Y14048076D01*
X97423242Y15619504D02*
X97470861Y15571885D01*
X97518480Y15429028D01*
X97518480Y15333790D01*
X97470861Y15190933D01*
X97375623Y15095695D01*
X97280385Y15048076D01*
X97089909Y15000457D01*
X96947052Y15000457D01*
X96756576Y15048076D01*
X96661338Y15095695D01*
X96566100Y15190933D01*
X96518480Y15333790D01*
X96518480Y15429028D01*
X96566100Y15571885D01*
X96613719Y15619504D01*
X97518480Y16809980D02*
X96518480Y16809980D01*
X96518480Y17190933D01*
X96566100Y17286171D01*
X96613719Y17333790D01*
X96708957Y17381409D01*
X96851814Y17381409D01*
X96947052Y17333790D01*
X96994671Y17286171D01*
X97042290Y17190933D01*
X97042290Y16809980D01*
X97518480Y17809980D02*
X96851814Y17809980D01*
X96518480Y17809980D02*
X96566100Y17762361D01*
X96613719Y17809980D01*
X96566100Y17857600D01*
X96518480Y17809980D01*
X96613719Y17809980D01*
X96851814Y18286171D02*
X97518480Y18286171D01*
X96947052Y18286171D02*
X96899433Y18333790D01*
X96851814Y18429028D01*
X96851814Y18571885D01*
X96899433Y18667123D01*
X96994671Y18714742D01*
X97518480Y18714742D01*
X97470861Y19143314D02*
X97518480Y19238552D01*
X97518480Y19429028D01*
X97470861Y19524266D01*
X97375623Y19571885D01*
X97328004Y19571885D01*
X97232766Y19524266D01*
X97185147Y19429028D01*
X97185147Y19286171D01*
X97137528Y19190933D01*
X97042290Y19143314D01*
X96994671Y19143314D01*
X96899433Y19190933D01*
X96851814Y19286171D01*
X96851814Y19429028D01*
X96899433Y19524266D01*
X68140628Y45794657D02*
X68093009Y45747038D01*
X67950152Y45699419D01*
X67854914Y45699419D01*
X67712057Y45747038D01*
X67616819Y45842276D01*
X67569200Y45937514D01*
X67521580Y46127990D01*
X67521580Y46270847D01*
X67569200Y46461323D01*
X67616819Y46556561D01*
X67712057Y46651800D01*
X67854914Y46699419D01*
X67950152Y46699419D01*
X68093009Y46651800D01*
X68140628Y46604180D01*
X68712057Y45699419D02*
X68616819Y45747038D01*
X68569200Y45794657D01*
X68521580Y45889895D01*
X68521580Y46175609D01*
X68569200Y46270847D01*
X68616819Y46318466D01*
X68712057Y46366085D01*
X68854914Y46366085D01*
X68950152Y46318466D01*
X68997771Y46270847D01*
X69045390Y46175609D01*
X69045390Y45889895D01*
X68997771Y45794657D01*
X68950152Y45747038D01*
X68854914Y45699419D01*
X68712057Y45699419D01*
X69473961Y45699419D02*
X69473961Y46699419D01*
X69807295Y45985133D01*
X70140628Y46699419D01*
X70140628Y45699419D01*
X71331104Y45985133D02*
X71807295Y45985133D01*
X71235866Y45699419D02*
X71569200Y46699419D01*
X71902533Y45699419D01*
X72378723Y45699419D02*
X72283485Y45747038D01*
X72235866Y45842276D01*
X72235866Y46699419D01*
X72759676Y45699419D02*
X72759676Y46366085D01*
X72759676Y46699419D02*
X72712057Y46651800D01*
X72759676Y46604180D01*
X72807295Y46651800D01*
X72759676Y46699419D01*
X72759676Y46604180D01*
X73664438Y46366085D02*
X73664438Y45556561D01*
X73616819Y45461323D01*
X73569200Y45413704D01*
X73473961Y45366085D01*
X73331104Y45366085D01*
X73235866Y45413704D01*
X73664438Y45747038D02*
X73569200Y45699419D01*
X73378723Y45699419D01*
X73283485Y45747038D01*
X73235866Y45794657D01*
X73188247Y45889895D01*
X73188247Y46175609D01*
X73235866Y46270847D01*
X73283485Y46318466D01*
X73378723Y46366085D01*
X73569200Y46366085D01*
X73664438Y46318466D01*
X74140628Y46366085D02*
X74140628Y45699419D01*
X74140628Y46270847D02*
X74188247Y46318466D01*
X74283485Y46366085D01*
X74426342Y46366085D01*
X74521580Y46318466D01*
X74569200Y46223228D01*
X74569200Y45699419D01*
X92097266Y26557219D02*
X92763933Y26557219D01*
X92097266Y25557219D01*
X92763933Y25557219D01*
X91843266Y34304219D02*
X92509933Y33304219D01*
X92509933Y34304219D02*
X91843266Y33304219D01*
X82778600Y27049409D02*
X82778600Y26573219D01*
X82445266Y27573219D02*
X82778600Y27049409D01*
X83111933Y27573219D01*
D14*
X90652600Y34391600D02*
X91033600Y34010600D01*
X90652600Y34391600D02*
X90271600Y34010600D01*
X90652600Y27001502D02*
X90652600Y34264600D01*
X81635600Y26009600D02*
X82143600Y25628600D01*
X81635600Y26009600D02*
X82143600Y26390600D01*
X89660698Y26009600D02*
X81635600Y26009600D01*
D15*
X90652600Y26009600D02*
G75*
G03X90652600Y26009600I0J0D01*
G01*
D14*
X91644502Y26009600D02*
G75*
G03X91644502Y26009600I-991902J0D01*
G01*
D13*
X33058123Y58704219D02*
X32486695Y58704219D01*
X32772409Y58704219D02*
X32772409Y59704219D01*
X32677171Y59561361D01*
X32581933Y59466123D01*
X32486695Y59418504D01*
X34010504Y58704219D02*
X33439076Y58704219D01*
X33724790Y58704219D02*
X33724790Y59704219D01*
X33629552Y59561361D01*
X33534314Y59466123D01*
X33439076Y59418504D01*
X18294314Y60736219D02*
X17722885Y60736219D01*
X18008600Y60736219D02*
X18008600Y61736219D01*
X17913361Y61593361D01*
X17818123Y61498123D01*
X17722885Y61450504D01*
X70935885Y64196885D02*
X70935885Y63530219D01*
X70697790Y64577838D02*
X70459695Y63863552D01*
X71078742Y63863552D01*
X71650171Y64530219D02*
X71745409Y64530219D01*
X71840647Y64482600D01*
X71888266Y64434980D01*
X71935885Y64339742D01*
X71983504Y64149266D01*
X71983504Y63911171D01*
X71935885Y63720695D01*
X71888266Y63625457D01*
X71840647Y63577838D01*
X71745409Y63530219D01*
X71650171Y63530219D01*
X71554933Y63577838D01*
X71507314Y63625457D01*
X71459695Y63720695D01*
X71412076Y63911171D01*
X71412076Y64149266D01*
X71459695Y64339742D01*
X71507314Y64434980D01*
X71554933Y64482600D01*
X71650171Y64530219D01*
X66808361Y57751647D02*
X66713123Y57799266D01*
X66665504Y57846885D01*
X66617885Y57942123D01*
X66617885Y57989742D01*
X66665504Y58084980D01*
X66713123Y58132600D01*
X66808361Y58180219D01*
X66998838Y58180219D01*
X67094076Y58132600D01*
X67141695Y58084980D01*
X67189314Y57989742D01*
X67189314Y57942123D01*
X67141695Y57846885D01*
X67094076Y57799266D01*
X66998838Y57751647D01*
X66808361Y57751647D01*
X66713123Y57704028D01*
X66665504Y57656409D01*
X66617885Y57561171D01*
X66617885Y57370695D01*
X66665504Y57275457D01*
X66713123Y57227838D01*
X66808361Y57180219D01*
X66998838Y57180219D01*
X67094076Y57227838D01*
X67141695Y57275457D01*
X67189314Y57370695D01*
X67189314Y57561171D01*
X67141695Y57656409D01*
X67094076Y57704028D01*
X66998838Y57751647D01*
X49155314Y57180219D02*
X48583885Y57180219D01*
X48869600Y57180219D02*
X48869600Y58180219D01*
X48774361Y58037361D01*
X48679123Y57942123D01*
X48583885Y57894504D01*
X44488123Y57180219D02*
X43916695Y57180219D01*
X44202409Y57180219D02*
X44202409Y58180219D01*
X44107171Y58037361D01*
X44011933Y57942123D01*
X43916695Y57894504D01*
X45107171Y58180219D02*
X45202409Y58180219D01*
X45297647Y58132600D01*
X45345266Y58084980D01*
X45392885Y57989742D01*
X45440504Y57799266D01*
X45440504Y57561171D01*
X45392885Y57370695D01*
X45345266Y57275457D01*
X45297647Y57227838D01*
X45202409Y57180219D01*
X45107171Y57180219D01*
X45011933Y57227838D01*
X44964314Y57275457D01*
X44916695Y57370695D01*
X44869076Y57561171D01*
X44869076Y57799266D01*
X44916695Y57989742D01*
X44964314Y58084980D01*
X45011933Y58132600D01*
X45107171Y58180219D01*
X21723314Y57180219D02*
X21151885Y57180219D01*
X21437600Y57180219D02*
X21437600Y58180219D01*
X21342361Y58037361D01*
X21247123Y57942123D01*
X21151885Y57894504D01*
D11*
X27787600Y45059600D02*
X27787600Y47218600D01*
X25501600Y45059600D02*
X25501600Y47218600D01*
X22580600Y45059600D02*
X22580600Y47218600D01*
D13*
X28763933Y45877219D02*
X28430600Y46353409D01*
X28192504Y45877219D02*
X28192504Y46877219D01*
X28573457Y46877219D01*
X28668695Y46829600D01*
X28716314Y46781980D01*
X28763933Y46686742D01*
X28763933Y46543885D01*
X28716314Y46448647D01*
X28668695Y46401028D01*
X28573457Y46353409D01*
X28192504Y46353409D01*
X29097266Y46877219D02*
X29763933Y45877219D01*
X29763933Y46877219D02*
X29097266Y45877219D01*
X25755695Y46877219D02*
X26327123Y46877219D01*
X26041409Y45877219D02*
X26041409Y46877219D01*
X26565219Y46877219D02*
X27231885Y45877219D01*
X27231885Y46877219D02*
X26565219Y45877219D01*
X22763314Y45924838D02*
X22906171Y45877219D01*
X23144266Y45877219D01*
X23239504Y45924838D01*
X23287123Y45972457D01*
X23334742Y46067695D01*
X23334742Y46162933D01*
X23287123Y46258171D01*
X23239504Y46305790D01*
X23144266Y46353409D01*
X22953790Y46401028D01*
X22858552Y46448647D01*
X22810933Y46496266D01*
X22763314Y46591504D01*
X22763314Y46686742D01*
X22810933Y46781980D01*
X22858552Y46829600D01*
X22953790Y46877219D01*
X23191885Y46877219D01*
X23334742Y46829600D01*
X23763314Y45877219D02*
X23763314Y46877219D01*
X24001409Y46877219D01*
X24144266Y46829600D01*
X24239504Y46734361D01*
X24287123Y46639123D01*
X24334742Y46448647D01*
X24334742Y46305790D01*
X24287123Y46115314D01*
X24239504Y46020076D01*
X24144266Y45924838D01*
X24001409Y45877219D01*
X23763314Y45877219D01*
X24715695Y46162933D02*
X25191885Y46162933D01*
X24620457Y45877219D02*
X24953790Y46877219D01*
X25287123Y45877219D01*
X19739123Y45924838D02*
X19881980Y45877219D01*
X20120076Y45877219D01*
X20215314Y45924838D01*
X20262933Y45972457D01*
X20310552Y46067695D01*
X20310552Y46162933D01*
X20262933Y46258171D01*
X20215314Y46305790D01*
X20120076Y46353409D01*
X19929600Y46401028D01*
X19834361Y46448647D01*
X19786742Y46496266D01*
X19739123Y46591504D01*
X19739123Y46686742D01*
X19786742Y46781980D01*
X19834361Y46829600D01*
X19929600Y46877219D01*
X20167695Y46877219D01*
X20310552Y46829600D01*
X21310552Y45972457D02*
X21262933Y45924838D01*
X21120076Y45877219D01*
X21024838Y45877219D01*
X20881980Y45924838D01*
X20786742Y46020076D01*
X20739123Y46115314D01*
X20691504Y46305790D01*
X20691504Y46448647D01*
X20739123Y46639123D01*
X20786742Y46734361D01*
X20881980Y46829600D01*
X21024838Y46877219D01*
X21120076Y46877219D01*
X21262933Y46829600D01*
X21310552Y46781980D01*
X22215314Y45877219D02*
X21739123Y45877219D01*
X21739123Y46877219D01*
X72428076Y28763885D02*
X72428076Y28097219D01*
X72189980Y29144838D02*
X71951885Y28430552D01*
X72570933Y28430552D01*
X64776314Y28097219D02*
X64204885Y28097219D01*
X64490600Y28097219D02*
X64490600Y29097219D01*
X64395361Y28954361D01*
X64300123Y28859123D01*
X64204885Y28811504D01*
X55918123Y2189219D02*
X55346695Y2189219D01*
X55632409Y2189219D02*
X55632409Y3189219D01*
X55537171Y3046361D01*
X55441933Y2951123D01*
X55346695Y2903504D01*
X56870504Y2189219D02*
X56299076Y2189219D01*
X56584790Y2189219D02*
X56584790Y3189219D01*
X56489552Y3046361D01*
X56394314Y2951123D01*
X56299076Y2903504D01*
X32486695Y3093980D02*
X32534314Y3141600D01*
X32629552Y3189219D01*
X32867647Y3189219D01*
X32962885Y3141600D01*
X33010504Y3093980D01*
X33058123Y2998742D01*
X33058123Y2903504D01*
X33010504Y2760647D01*
X32439076Y2189219D01*
X33058123Y2189219D01*
X33534314Y2189219D02*
X33724790Y2189219D01*
X33820028Y2236838D01*
X33867647Y2284457D01*
X33962885Y2427314D01*
X34010504Y2617790D01*
X34010504Y2998742D01*
X33962885Y3093980D01*
X33915266Y3141600D01*
X33820028Y3189219D01*
X33629552Y3189219D01*
X33534314Y3141600D01*
X33486695Y3093980D01*
X33439076Y2998742D01*
X33439076Y2760647D01*
X33486695Y2665409D01*
X33534314Y2617790D01*
X33629552Y2570171D01*
X33820028Y2570171D01*
X33915266Y2617790D01*
X33962885Y2665409D01*
X34010504Y2760647D01*
X16792676Y674619D02*
X17411723Y674619D01*
X17078390Y293666D01*
X17221247Y293666D01*
X17316485Y246047D01*
X17364104Y198428D01*
X17411723Y103190D01*
X17411723Y-134904D01*
X17364104Y-230142D01*
X17316485Y-277761D01*
X17221247Y-325380D01*
X16935533Y-325380D01*
X16840295Y-277761D01*
X16792676Y-230142D01*
X17887914Y-325380D02*
X18078390Y-325380D01*
X18173628Y-277761D01*
X18221247Y-230142D01*
X18316485Y-87285D01*
X18364104Y103190D01*
X18364104Y484142D01*
X18316485Y579380D01*
X18268866Y627000D01*
X18173628Y674619D01*
X17983152Y674619D01*
X17887914Y627000D01*
X17840295Y579380D01*
X17792676Y484142D01*
X17792676Y246047D01*
X17840295Y150809D01*
X17887914Y103190D01*
X17983152Y55571D01*
X18173628Y55571D01*
X18268866Y103190D01*
X18316485Y150809D01*
X18364104Y246047D01*
X69221314Y2189219D02*
X68649885Y2189219D01*
X68935600Y2189219D02*
X68935600Y3189219D01*
X68840361Y3046361D01*
X68745123Y2951123D01*
X68649885Y2903504D01*
X66332076Y10047219D02*
X66141600Y10047219D01*
X66046361Y9999600D01*
X65998742Y9951980D01*
X65903504Y9809123D01*
X65855885Y9618647D01*
X65855885Y9237695D01*
X65903504Y9142457D01*
X65951123Y9094838D01*
X66046361Y9047219D01*
X66236838Y9047219D01*
X66332076Y9094838D01*
X66379695Y9142457D01*
X66427314Y9237695D01*
X66427314Y9475790D01*
X66379695Y9571028D01*
X66332076Y9618647D01*
X66236838Y9666266D01*
X66046361Y9666266D01*
X65951123Y9618647D01*
X65903504Y9571028D01*
X65855885Y9475790D01*
X53600314Y9301219D02*
X53028885Y9301219D01*
X53314600Y9301219D02*
X53314600Y10301219D01*
X53219361Y10158361D01*
X53124123Y10063123D01*
X53028885Y10015504D01*
X48266361Y9872647D02*
X48171123Y9920266D01*
X48123504Y9967885D01*
X48075885Y10063123D01*
X48075885Y10110742D01*
X48123504Y10205980D01*
X48171123Y10253600D01*
X48266361Y10301219D01*
X48456838Y10301219D01*
X48552076Y10253600D01*
X48599695Y10205980D01*
X48647314Y10110742D01*
X48647314Y10063123D01*
X48599695Y9967885D01*
X48552076Y9920266D01*
X48456838Y9872647D01*
X48266361Y9872647D01*
X48171123Y9825028D01*
X48123504Y9777409D01*
X48075885Y9682171D01*
X48075885Y9491695D01*
X48123504Y9396457D01*
X48171123Y9348838D01*
X48266361Y9301219D01*
X48456838Y9301219D01*
X48552076Y9348838D01*
X48599695Y9396457D01*
X48647314Y9491695D01*
X48647314Y9682171D01*
X48599695Y9777409D01*
X48552076Y9825028D01*
X48456838Y9872647D01*
X30867314Y9301219D02*
X30295885Y9301219D01*
X30581600Y9301219D02*
X30581600Y10301219D01*
X30486361Y10158361D01*
X30391123Y10063123D01*
X30295885Y10015504D01*
X97320076Y10047219D02*
X97129600Y10047219D01*
X97034361Y9999600D01*
X96986742Y9951980D01*
X96891504Y9809123D01*
X96843885Y9618647D01*
X96843885Y9237695D01*
X96891504Y9142457D01*
X96939123Y9094838D01*
X97034361Y9047219D01*
X97224838Y9047219D01*
X97320076Y9094838D01*
X97367695Y9142457D01*
X97415314Y9237695D01*
X97415314Y9475790D01*
X97367695Y9571028D01*
X97320076Y9618647D01*
X97224838Y9666266D01*
X97034361Y9666266D01*
X96939123Y9618647D01*
X96891504Y9571028D01*
X96843885Y9475790D01*
X97288314Y22255219D02*
X96716885Y22255219D01*
X97002600Y22255219D02*
X97002600Y23255219D01*
X96907361Y23112361D01*
X96812123Y23017123D01*
X96716885Y22969504D01*
X96796266Y41162219D02*
X97462933Y41162219D01*
X97034361Y40162219D01*
X97288314Y24287219D02*
X96716885Y24287219D01*
X97002600Y24287219D02*
X97002600Y25287219D01*
X96907361Y25144361D01*
X96812123Y25049123D01*
X96716885Y25001504D01*
X89406552Y63657219D02*
X88930361Y63657219D01*
X88930361Y64657219D01*
X89739885Y64181028D02*
X90073219Y64181028D01*
X90216076Y63657219D02*
X89739885Y63657219D01*
X89739885Y64657219D01*
X90216076Y64657219D01*
X90644647Y63657219D02*
X90644647Y64657219D01*
X90882742Y64657219D01*
X91025600Y64609600D01*
X91120838Y64514361D01*
X91168457Y64419123D01*
X91216076Y64228647D01*
X91216076Y64085790D01*
X91168457Y63895314D01*
X91120838Y63800076D01*
X91025600Y63704838D01*
X90882742Y63657219D01*
X90644647Y63657219D01*
X92168457Y63657219D02*
X91597028Y63657219D01*
X91882742Y63657219D02*
X91882742Y64657219D01*
X91787504Y64514361D01*
X91692266Y64419123D01*
X91597028Y64371504D01*
X93978552Y63657219D02*
X93502361Y63657219D01*
X93502361Y64657219D01*
X94311885Y64181028D02*
X94645219Y64181028D01*
X94788076Y63657219D02*
X94311885Y63657219D01*
X94311885Y64657219D01*
X94788076Y64657219D01*
X95216647Y63657219D02*
X95216647Y64657219D01*
X95454742Y64657219D01*
X95597600Y64609600D01*
X95692838Y64514361D01*
X95740457Y64419123D01*
X95788076Y64228647D01*
X95788076Y64085790D01*
X95740457Y63895314D01*
X95692838Y63800076D01*
X95597600Y63704838D01*
X95454742Y63657219D01*
X95216647Y63657219D01*
X96407123Y64657219D02*
X96502361Y64657219D01*
X96597600Y64609600D01*
X96645219Y64561980D01*
X96692838Y64466742D01*
X96740457Y64276266D01*
X96740457Y64038171D01*
X96692838Y63847695D01*
X96645219Y63752457D01*
X96597600Y63704838D01*
X96502361Y63657219D01*
X96407123Y63657219D01*
X96311885Y63704838D01*
X96264266Y63752457D01*
X96216647Y63847695D01*
X96169028Y64038171D01*
X96169028Y64276266D01*
X96216647Y64466742D01*
X96264266Y64561980D01*
X96311885Y64609600D01*
X96407123Y64657219D01*
D11*
X15595600Y18834100D02*
X15595600Y20485100D01*
X17119600Y20612100D02*
X17119600Y20358100D01*
X15595600Y19723100D02*
X17119600Y20612100D01*
X17119600Y18834100D02*
X15595600Y19723100D01*
X17119600Y20485100D02*
X17119600Y18834100D01*
X91795600Y62077600D02*
X93319600Y62077600D01*
X93319600Y60807600D02*
X93192600Y60807600D01*
X92557600Y62077600D02*
X93319600Y60807600D01*
X91795600Y60807600D02*
X92557600Y62077600D01*
X91795600Y60807600D02*
X93192600Y60807600D01*
X-1295400Y50012600D02*
X-1295400Y49504600D01*
X-1041400Y49758600D02*
X-279400Y49758600D01*
X-1041400Y50266600D02*
X-1041400Y49758600D01*
X54457600Y18389600D02*
X54457600Y19786600D01*
X52679600Y18389600D02*
X54457600Y18389600D01*
X54203600Y18643600D02*
X54203600Y21183600D01*
X51536600Y18643600D02*
X54203600Y18643600D01*
X24866600Y25120600D02*
X24866600Y26390600D01*
X23469600Y25120600D02*
X24866600Y25120600D01*
X24612600Y25374600D02*
X24612600Y26644600D01*
X22453600Y25374600D02*
X24612600Y25374600D01*
D13*
X84725619Y35723533D02*
X85201809Y35723533D01*
X84630380Y35437819D02*
X84963714Y36437819D01*
X85297047Y35437819D01*
X86058952Y35485438D02*
X85963714Y35437819D01*
X85773238Y35437819D01*
X85678000Y35485438D01*
X85630380Y35533057D01*
X85582761Y35628295D01*
X85582761Y35914009D01*
X85630380Y36009247D01*
X85678000Y36056866D01*
X85773238Y36104485D01*
X85963714Y36104485D01*
X86058952Y36056866D01*
X86916095Y35485438D02*
X86820857Y35437819D01*
X86630380Y35437819D01*
X86535142Y35485438D01*
X86487523Y35533057D01*
X86439904Y35628295D01*
X86439904Y35914009D01*
X86487523Y36009247D01*
X86535142Y36056866D01*
X86630380Y36104485D01*
X86820857Y36104485D01*
X86916095Y36056866D01*
X87725619Y35485438D02*
X87630380Y35437819D01*
X87439904Y35437819D01*
X87344666Y35485438D01*
X87297047Y35580676D01*
X87297047Y35961628D01*
X87344666Y36056866D01*
X87439904Y36104485D01*
X87630380Y36104485D01*
X87725619Y36056866D01*
X87773238Y35961628D01*
X87773238Y35866390D01*
X87297047Y35771152D01*
X88344666Y35437819D02*
X88249428Y35485438D01*
X88201809Y35580676D01*
X88201809Y36437819D01*
X90058952Y35533057D02*
X90011333Y35485438D01*
X89868476Y35437819D01*
X89773238Y35437819D01*
X89630380Y35485438D01*
X89535142Y35580676D01*
X89487523Y35675914D01*
X89439904Y35866390D01*
X89439904Y36009247D01*
X89487523Y36199723D01*
X89535142Y36294961D01*
X89630380Y36390200D01*
X89773238Y36437819D01*
X89868476Y36437819D01*
X90011333Y36390200D01*
X90058952Y36342580D01*
X90868476Y35485438D02*
X90773238Y35437819D01*
X90582761Y35437819D01*
X90487523Y35485438D01*
X90439904Y35580676D01*
X90439904Y35961628D01*
X90487523Y36056866D01*
X90582761Y36104485D01*
X90773238Y36104485D01*
X90868476Y36056866D01*
X90916095Y35961628D01*
X90916095Y35866390D01*
X90439904Y35771152D01*
X91344666Y36104485D02*
X91344666Y35437819D01*
X91344666Y36009247D02*
X91392285Y36056866D01*
X91487523Y36104485D01*
X91630380Y36104485D01*
X91725619Y36056866D01*
X91773238Y35961628D01*
X91773238Y35437819D01*
X92106571Y36104485D02*
X92487523Y36104485D01*
X92249428Y36437819D02*
X92249428Y35580676D01*
X92297047Y35485438D01*
X92392285Y35437819D01*
X92487523Y35437819D01*
X93201809Y35485438D02*
X93106571Y35437819D01*
X92916095Y35437819D01*
X92820857Y35485438D01*
X92773238Y35580676D01*
X92773238Y35961628D01*
X92820857Y36056866D01*
X92916095Y36104485D01*
X93106571Y36104485D01*
X93201809Y36056866D01*
X93249428Y35961628D01*
X93249428Y35866390D01*
X92773238Y35771152D01*
X93678000Y35437819D02*
X93678000Y36104485D01*
X93678000Y35914009D02*
X93725619Y36009247D01*
X93773238Y36056866D01*
X93868476Y36104485D01*
X93963714Y36104485D01*
X94439904Y35437819D02*
X94344666Y35485438D01*
X94297047Y35580676D01*
X94297047Y36437819D01*
X94820857Y35437819D02*
X94820857Y36104485D01*
X94820857Y36437819D02*
X94773238Y36390200D01*
X94820857Y36342580D01*
X94868476Y36390200D01*
X94820857Y36437819D01*
X94820857Y36342580D01*
X95297047Y36104485D02*
X95297047Y35437819D01*
X95297047Y36009247D02*
X95344666Y36056866D01*
X95439904Y36104485D01*
X95582761Y36104485D01*
X95678000Y36056866D01*
X95725619Y35961628D01*
X95725619Y35437819D01*
X96582761Y35485438D02*
X96487523Y35437819D01*
X96297047Y35437819D01*
X96201809Y35485438D01*
X96154190Y35580676D01*
X96154190Y35961628D01*
X96201809Y36056866D01*
X96297047Y36104485D01*
X96487523Y36104485D01*
X96582761Y36056866D01*
X96630380Y35961628D01*
X96630380Y35866390D01*
X96154190Y35771152D01*
D11*
X-25400Y58140600D02*
X-1041400Y57886600D01*
X4800600Y58140600D02*
X-25400Y58140600D01*
D16*
X104280000Y66110000D02*
X104280000Y66030000D01*
X104280000Y-3885000D02*
X104280000Y-3800000D01*
X-3720000Y-3800000D02*
X-3720000Y-3885000D01*
X-3720000Y66030000D02*
X-3720000Y66110000D01*
X104280000Y-3800000D02*
X104280000Y66030000D01*
X-3720000Y-3885000D02*
X104280000Y-3885000D01*
X-3720000Y66110000D02*
X104280000Y66110000D01*
X-3720000Y-3800000D02*
X-3720000Y66030000D01*
D17*
G36*
X437588Y7373392D02*
G01*
X592954Y7269775D01*
X698055Y7120456D01*
X747010Y6944562D01*
X733941Y6761220D01*
X652967Y6589555D01*
X528006Y6468258D01*
X373989Y6408246D01*
X186675Y6399908D01*
X8248Y6441685D01*
X-77618Y6490646D01*
X-205867Y6641722D01*
X-261337Y6819141D01*
X-250822Y7003054D01*
X-181116Y7173610D01*
X-59016Y7310957D01*
X108684Y7395247D01*
X237836Y7412181D01*
X437588Y7373392D01*
X437588Y7373392D01*
G37*
X437588Y7373392D02*
X592954Y7269775D01*
X698055Y7120456D01*
X747010Y6944562D01*
X733941Y6761220D01*
X652967Y6589555D01*
X528006Y6468258D01*
X373989Y6408246D01*
X186675Y6399908D01*
X8248Y6441685D01*
X-77618Y6490646D01*
X-205867Y6641722D01*
X-261337Y6819141D01*
X-250822Y7003054D01*
X-181116Y7173610D01*
X-59016Y7310957D01*
X108684Y7395247D01*
X237836Y7412181D01*
X437588Y7373392D01*
G36*
X1668819Y8339370D02*
G01*
X1869285Y8178410D01*
X1894881Y8149206D01*
X1993087Y7967782D01*
X2023200Y7758405D01*
X1990717Y7545367D01*
X1901136Y7352957D01*
X1759955Y7205465D01*
X1669945Y7155402D01*
X1497853Y7109324D01*
X1301593Y7093350D01*
X1129076Y7110322D01*
X1092200Y7121130D01*
X1023551Y7165003D01*
X915646Y7253598D01*
X815109Y7345766D01*
X587608Y7529441D01*
X372399Y7625019D01*
X159374Y7632623D01*
X-61576Y7552375D01*
X-300558Y7384396D01*
X-329498Y7359596D01*
X-518058Y7251101D01*
X-726783Y7230416D01*
X-941312Y7297509D01*
X-1093789Y7421414D01*
X-1180381Y7586281D01*
X-1203229Y7770593D01*
X-1164477Y7952838D01*
X-1066266Y8111500D01*
X-910741Y8225066D01*
X-846523Y8249184D01*
X-683317Y8280376D01*
X-537172Y8260791D01*
X-382546Y8182699D01*
X-218976Y8059276D01*
X-74459Y7950172D01*
X42240Y7893721D01*
X165939Y7874696D01*
X204647Y7874000D01*
X449657Y7910631D01*
X659833Y8026202D01*
X768927Y8128106D01*
X986175Y8308767D01*
X1216049Y8404339D01*
X1447335Y8414609D01*
X1668819Y8339370D01*
X1668819Y8339370D01*
G37*
X1668819Y8339370D02*
X1869285Y8178410D01*
X1894881Y8149206D01*
X1993087Y7967782D01*
X2023200Y7758405D01*
X1990717Y7545367D01*
X1901136Y7352957D01*
X1759955Y7205465D01*
X1669945Y7155402D01*
X1497853Y7109324D01*
X1301593Y7093350D01*
X1129076Y7110322D01*
X1092200Y7121130D01*
X1023551Y7165003D01*
X915646Y7253598D01*
X815109Y7345766D01*
X587608Y7529441D01*
X372399Y7625019D01*
X159374Y7632623D01*
X-61576Y7552375D01*
X-300558Y7384396D01*
X-329498Y7359596D01*
X-518058Y7251101D01*
X-726783Y7230416D01*
X-941312Y7297509D01*
X-1093789Y7421414D01*
X-1180381Y7586281D01*
X-1203229Y7770593D01*
X-1164477Y7952838D01*
X-1066266Y8111500D01*
X-910741Y8225066D01*
X-846523Y8249184D01*
X-683317Y8280376D01*
X-537172Y8260791D01*
X-382546Y8182699D01*
X-218976Y8059276D01*
X-74459Y7950172D01*
X42240Y7893721D01*
X165939Y7874696D01*
X204647Y7874000D01*
X449657Y7910631D01*
X659833Y8026202D01*
X768927Y8128106D01*
X986175Y8308767D01*
X1216049Y8404339D01*
X1447335Y8414609D01*
X1668819Y8339370D01*
G36*
X8309000Y10130815D02*
G01*
X8462365Y10110589D01*
X8476396Y10107869D01*
X8615796Y10051720D01*
X8724623Y9970122D01*
X8811242Y9894190D01*
X8878404Y9860686D01*
X8879996Y9860616D01*
X8929080Y9821479D01*
X8974141Y9733590D01*
X8995331Y9639192D01*
X8994286Y9617363D01*
X9024208Y9583806D01*
X9035473Y9582727D01*
X9072995Y9544047D01*
X9081655Y9490363D01*
X9069497Y9434963D01*
X9017896Y9407333D01*
X8904154Y9398395D01*
X8850746Y9398000D01*
X8713736Y9401701D01*
X8645386Y9420763D01*
X8622058Y9467123D01*
X8619836Y9514597D01*
X8589232Y9617818D01*
X8492836Y9679594D01*
X8310447Y9739929D01*
X8179951Y9753237D01*
X8072416Y9717187D01*
X7967620Y9637295D01*
X7811655Y9497940D01*
X7811655Y8943690D01*
X7812781Y8707199D01*
X7818263Y8544085D01*
X7831258Y8435368D01*
X7854919Y8362070D01*
X7892402Y8305211D01*
X7923614Y8270266D01*
X8027760Y8187507D01*
X8156821Y8154259D01*
X8239508Y8151090D01*
X8387117Y8163931D01*
X8490449Y8215528D01*
X8565015Y8289636D01*
X8665848Y8382648D01*
X8777352Y8421970D01*
X8889127Y8428181D01*
X9013749Y8424820D01*
X9067409Y8404164D01*
X9071499Y8350356D01*
X9060443Y8301181D01*
X8988935Y8118464D01*
X8862913Y7965804D01*
X8675860Y7827719D01*
X8501518Y7736034D01*
X8337381Y7697677D01*
X8227291Y7693796D01*
X8078300Y7700539D01*
X7961472Y7714527D01*
X7927109Y7723194D01*
X7786840Y7803823D01*
X7633525Y7931066D01*
X7503256Y8073329D01*
X7466008Y8126840D01*
X7427072Y8200828D01*
X7400611Y8286638D01*
X7384322Y8403046D01*
X7375901Y8568825D01*
X7373044Y8802752D01*
X7372927Y8885388D01*
X7379116Y9212968D01*
X7399486Y9460648D01*
X7436741Y9640177D01*
X7493586Y9763303D01*
X7572725Y9841773D01*
X7596326Y9855798D01*
X7707646Y9930886D01*
X7761408Y9977805D01*
X7862308Y10040848D01*
X7926646Y10057208D01*
X8002093Y10078130D01*
X8019473Y10100555D01*
X8060620Y10125366D01*
X8166108Y10135597D01*
X8309000Y10130815D01*
X8309000Y10130815D01*
G37*
X8309000Y10130815D02*
X8462365Y10110589D01*
X8476396Y10107869D01*
X8615796Y10051720D01*
X8724623Y9970122D01*
X8811242Y9894190D01*
X8878404Y9860686D01*
X8879996Y9860616D01*
X8929080Y9821479D01*
X8974141Y9733590D01*
X8995331Y9639192D01*
X8994286Y9617363D01*
X9024208Y9583806D01*
X9035473Y9582727D01*
X9072995Y9544047D01*
X9081655Y9490363D01*
X9069497Y9434963D01*
X9017896Y9407333D01*
X8904154Y9398395D01*
X8850746Y9398000D01*
X8713736Y9401701D01*
X8645386Y9420763D01*
X8622058Y9467123D01*
X8619836Y9514597D01*
X8589232Y9617818D01*
X8492836Y9679594D01*
X8310447Y9739929D01*
X8179951Y9753237D01*
X8072416Y9717187D01*
X7967620Y9637295D01*
X7811655Y9497940D01*
X7811655Y8943690D01*
X7812781Y8707199D01*
X7818263Y8544085D01*
X7831258Y8435368D01*
X7854919Y8362070D01*
X7892402Y8305211D01*
X7923614Y8270266D01*
X8027760Y8187507D01*
X8156821Y8154259D01*
X8239508Y8151090D01*
X8387117Y8163931D01*
X8490449Y8215528D01*
X8565015Y8289636D01*
X8665848Y8382648D01*
X8777352Y8421970D01*
X8889127Y8428181D01*
X9013749Y8424820D01*
X9067409Y8404164D01*
X9071499Y8350356D01*
X9060443Y8301181D01*
X8988935Y8118464D01*
X8862913Y7965804D01*
X8675860Y7827719D01*
X8501518Y7736034D01*
X8337381Y7697677D01*
X8227291Y7693796D01*
X8078300Y7700539D01*
X7961472Y7714527D01*
X7927109Y7723194D01*
X7786840Y7803823D01*
X7633525Y7931066D01*
X7503256Y8073329D01*
X7466008Y8126840D01*
X7427072Y8200828D01*
X7400611Y8286638D01*
X7384322Y8403046D01*
X7375901Y8568825D01*
X7373044Y8802752D01*
X7372927Y8885388D01*
X7379116Y9212968D01*
X7399486Y9460648D01*
X7436741Y9640177D01*
X7493586Y9763303D01*
X7572725Y9841773D01*
X7596326Y9855798D01*
X7707646Y9930886D01*
X7761408Y9977805D01*
X7862308Y10040848D01*
X7926646Y10057208D01*
X8002093Y10078130D01*
X8019473Y10100555D01*
X8060620Y10125366D01*
X8166108Y10135597D01*
X8309000Y10130815D01*
G36*
X14200197Y10121091D02*
G01*
X14375190Y10080581D01*
X14542545Y10025078D01*
X14670466Y9964535D01*
X14717081Y9927591D01*
X14746785Y9865796D01*
X14715782Y9797091D01*
X14671726Y9746568D01*
X14578467Y9675250D01*
X14494968Y9654048D01*
X14491765Y9654721D01*
X14400154Y9679103D01*
X14266640Y9716571D01*
X14228137Y9727639D01*
X14031621Y9755203D01*
X13856037Y9727755D01*
X13718734Y9654623D01*
X13637062Y9545135D01*
X13628367Y9408619D01*
X13629089Y9405543D01*
X13677537Y9288941D01*
X13767708Y9211840D01*
X13918000Y9163275D01*
X14075125Y9139668D01*
X14228744Y9114524D01*
X14308605Y9083765D01*
X14315257Y9061728D01*
X14315572Y9036700D01*
X14342034Y9048949D01*
X14434758Y9058030D01*
X14556549Y9010768D01*
X14677454Y8921865D01*
X14736664Y8855260D01*
X14784945Y8755820D01*
X14822840Y8617694D01*
X14847307Y8466847D01*
X14855304Y8329244D01*
X14843789Y8230849D01*
X14813751Y8197272D01*
X14772421Y8174048D01*
X14773205Y8162636D01*
X14754728Y8092557D01*
X14683093Y7995089D01*
X14579991Y7896958D01*
X14525313Y7857219D01*
X14306783Y7760894D01*
X14041136Y7713412D01*
X13762467Y7719628D01*
X13668728Y7735271D01*
X13450933Y7799339D01*
X13267449Y7887876D01*
X13152513Y7981190D01*
X13129282Y8036442D01*
X13164924Y8099557D01*
X13239762Y8168562D01*
X13335480Y8243168D01*
X13403206Y8263064D01*
X13484515Y8234297D01*
X13529722Y8210750D01*
X13668799Y8163221D01*
X13848097Y8136298D01*
X14035917Y8130763D01*
X14200559Y8147395D01*
X14310324Y8186976D01*
X14316057Y8191382D01*
X14373019Y8288834D01*
X14392564Y8426032D01*
X14380661Y8535163D01*
X14334803Y8613336D01*
X14239768Y8670470D01*
X14080332Y8716483D01*
X13890928Y8752861D01*
X13599330Y8829880D01*
X13388532Y8948028D01*
X13255143Y9110456D01*
X13195767Y9320314D01*
X13191836Y9401885D01*
X13234571Y9636424D01*
X13354268Y9838105D01*
X13538165Y9995992D01*
X13773498Y10099151D01*
X14047507Y10136646D01*
X14049363Y10136651D01*
X14200197Y10121091D01*
X14200197Y10121091D01*
G37*
X14200197Y10121091D02*
X14375190Y10080581D01*
X14542545Y10025078D01*
X14670466Y9964535D01*
X14717081Y9927591D01*
X14746785Y9865796D01*
X14715782Y9797091D01*
X14671726Y9746568D01*
X14578467Y9675250D01*
X14494968Y9654048D01*
X14491765Y9654721D01*
X14400154Y9679103D01*
X14266640Y9716571D01*
X14228137Y9727639D01*
X14031621Y9755203D01*
X13856037Y9727755D01*
X13718734Y9654623D01*
X13637062Y9545135D01*
X13628367Y9408619D01*
X13629089Y9405543D01*
X13677537Y9288941D01*
X13767708Y9211840D01*
X13918000Y9163275D01*
X14075125Y9139668D01*
X14228744Y9114524D01*
X14308605Y9083765D01*
X14315257Y9061728D01*
X14315572Y9036700D01*
X14342034Y9048949D01*
X14434758Y9058030D01*
X14556549Y9010768D01*
X14677454Y8921865D01*
X14736664Y8855260D01*
X14784945Y8755820D01*
X14822840Y8617694D01*
X14847307Y8466847D01*
X14855304Y8329244D01*
X14843789Y8230849D01*
X14813751Y8197272D01*
X14772421Y8174048D01*
X14773205Y8162636D01*
X14754728Y8092557D01*
X14683093Y7995089D01*
X14579991Y7896958D01*
X14525313Y7857219D01*
X14306783Y7760894D01*
X14041136Y7713412D01*
X13762467Y7719628D01*
X13668728Y7735271D01*
X13450933Y7799339D01*
X13267449Y7887876D01*
X13152513Y7981190D01*
X13129282Y8036442D01*
X13164924Y8099557D01*
X13239762Y8168562D01*
X13335480Y8243168D01*
X13403206Y8263064D01*
X13484515Y8234297D01*
X13529722Y8210750D01*
X13668799Y8163221D01*
X13848097Y8136298D01*
X14035917Y8130763D01*
X14200559Y8147395D01*
X14310324Y8186976D01*
X14316057Y8191382D01*
X14373019Y8288834D01*
X14392564Y8426032D01*
X14380661Y8535163D01*
X14334803Y8613336D01*
X14239768Y8670470D01*
X14080332Y8716483D01*
X13890928Y8752861D01*
X13599330Y8829880D01*
X13388532Y8948028D01*
X13255143Y9110456D01*
X13195767Y9320314D01*
X13191836Y9401885D01*
X13234571Y9636424D01*
X13354268Y9838105D01*
X13538165Y9995992D01*
X13773498Y10099151D01*
X14047507Y10136646D01*
X14049363Y10136651D01*
X14200197Y10121091D01*
G36*
X5895109Y9721272D02*
G01*
X5294746Y9721272D01*
X5294746Y7735454D01*
X4832927Y7735454D01*
X4832927Y9721272D01*
X4538518Y9721272D01*
X4378811Y9723125D01*
X4288259Y9735590D01*
X4243652Y9769029D01*
X4221783Y9833802D01*
X4215246Y9865590D01*
X4194949Y9978822D01*
X4186383Y10049938D01*
X4186382Y10050318D01*
X4230166Y10063060D01*
X4351934Y10074152D01*
X4537314Y10082914D01*
X4771931Y10088666D01*
X5040746Y10090727D01*
X5895109Y10090727D01*
X5895109Y9721272D01*
X5895109Y9721272D01*
G37*
X5895109Y9721272D02*
X5294746Y9721272D01*
X5294746Y7735454D01*
X4832927Y7735454D01*
X4832927Y9721272D01*
X4538518Y9721272D01*
X4378811Y9723125D01*
X4288259Y9735590D01*
X4243652Y9769029D01*
X4221783Y9833802D01*
X4215246Y9865590D01*
X4194949Y9978822D01*
X4186383Y10049938D01*
X4186382Y10050318D01*
X4230166Y10063060D01*
X4351934Y10074152D01*
X4537314Y10082914D01*
X4771931Y10088666D01*
X5040746Y10090727D01*
X5895109Y10090727D01*
X5895109Y9721272D01*
G36*
X10229758Y10089477D02*
G01*
X10410559Y10084034D01*
X10536533Y10071853D01*
X10626444Y10050394D01*
X10699052Y10017113D01*
X10748916Y9985897D01*
X10909722Y9832812D01*
X11013344Y9639981D01*
X11059205Y9427845D01*
X11046726Y9216848D01*
X10975329Y9027433D01*
X10844436Y8880042D01*
X10781308Y8840510D01*
X10695377Y8793833D01*
X10658163Y8770768D01*
X10671541Y8726729D01*
X10720177Y8616878D01*
X10796588Y8457282D01*
X10893289Y8264008D01*
X10903795Y8243431D01*
X11166191Y7730451D01*
X10905484Y7740998D01*
X10644777Y7751546D01*
X10463579Y8111929D01*
X10370407Y8307727D01*
X10315458Y8458963D01*
X10289273Y8600178D01*
X10282389Y8765913D01*
X10282382Y8773520D01*
X10285621Y8937205D01*
X10299103Y9028609D01*
X10328477Y9067700D01*
X10367588Y9074727D01*
X10479803Y9117043D01*
X10576021Y9228783D01*
X10629571Y9361039D01*
X10634477Y9468999D01*
X10576756Y9567573D01*
X10542904Y9603494D01*
X10464686Y9669165D01*
X10376573Y9704883D01*
X10247809Y9719271D01*
X10122845Y9721272D01*
X9820564Y9721272D01*
X9820564Y7735454D01*
X9358746Y7735454D01*
X9358746Y10090727D01*
X9975371Y10090727D01*
X10229758Y10089477D01*
X10229758Y10089477D01*
G37*
X10229758Y10089477D02*
X10410559Y10084034D01*
X10536533Y10071853D01*
X10626444Y10050394D01*
X10699052Y10017113D01*
X10748916Y9985897D01*
X10909722Y9832812D01*
X11013344Y9639981D01*
X11059205Y9427845D01*
X11046726Y9216848D01*
X10975329Y9027433D01*
X10844436Y8880042D01*
X10781308Y8840510D01*
X10695377Y8793833D01*
X10658163Y8770768D01*
X10671541Y8726729D01*
X10720177Y8616878D01*
X10796588Y8457282D01*
X10893289Y8264008D01*
X10903795Y8243431D01*
X11166191Y7730451D01*
X10905484Y7740998D01*
X10644777Y7751546D01*
X10463579Y8111929D01*
X10370407Y8307727D01*
X10315458Y8458963D01*
X10289273Y8600178D01*
X10282389Y8765913D01*
X10282382Y8773520D01*
X10285621Y8937205D01*
X10299103Y9028609D01*
X10328477Y9067700D01*
X10367588Y9074727D01*
X10479803Y9117043D01*
X10576021Y9228783D01*
X10629571Y9361039D01*
X10634477Y9468999D01*
X10576756Y9567573D01*
X10542904Y9603494D01*
X10464686Y9669165D01*
X10376573Y9704883D01*
X10247809Y9719271D01*
X10122845Y9721272D01*
X9820564Y9721272D01*
X9820564Y7735454D01*
X9358746Y7735454D01*
X9358746Y10090727D01*
X9975371Y10090727D01*
X10229758Y10089477D01*
G36*
X12054189Y10102872D02*
G01*
X12241138Y10100118D01*
X13007109Y10086418D01*
X13007109Y9724115D01*
X11875655Y9698181D01*
X11875655Y9144000D01*
X12349018Y9130839D01*
X12822382Y9117678D01*
X12822382Y8754685D01*
X12349018Y8741524D01*
X11875655Y8728363D01*
X11875655Y8133417D01*
X13003681Y8148265D01*
X12999538Y7941859D01*
X12995395Y7735454D01*
X11436927Y7735454D01*
X11436927Y8905394D01*
X11437651Y9224458D01*
X11439688Y9511893D01*
X11442836Y9755142D01*
X11446894Y9941651D01*
X11451659Y10058865D01*
X11456047Y10094575D01*
X11506287Y10100195D01*
X11633180Y10103525D01*
X11821042Y10104454D01*
X12054189Y10102872D01*
X12054189Y10102872D01*
G37*
X12054189Y10102872D02*
X12241138Y10100118D01*
X13007109Y10086418D01*
X13007109Y9724115D01*
X11875655Y9698181D01*
X11875655Y9144000D01*
X12349018Y9130839D01*
X12822382Y9117678D01*
X12822382Y8754685D01*
X12349018Y8741524D01*
X11875655Y8728363D01*
X11875655Y8133417D01*
X13003681Y8148265D01*
X12999538Y7941859D01*
X12995395Y7735454D01*
X11436927Y7735454D01*
X11436927Y8905394D01*
X11437651Y9224458D01*
X11439688Y9511893D01*
X11442836Y9755142D01*
X11446894Y9941651D01*
X11451659Y10058865D01*
X11456047Y10094575D01*
X11506287Y10100195D01*
X11633180Y10103525D01*
X11821042Y10104454D01*
X12054189Y10102872D01*
G36*
X16701655Y9721272D02*
G01*
X16055109Y9721272D01*
X16047834Y8786090D01*
X16045709Y8499071D01*
X16044013Y8242109D01*
X16042826Y8030062D01*
X16042229Y7877785D01*
X16042304Y7800134D01*
X16042404Y7794976D01*
X16000382Y7756947D01*
X15875815Y7742884D01*
X15842762Y7743088D01*
X15641276Y7747132D01*
X15628829Y8722657D01*
X15616382Y9698181D01*
X15307577Y9711770D01*
X14998773Y9725359D01*
X15001294Y9908043D01*
X15003816Y10090727D01*
X16701655Y10090727D01*
X16701655Y9721272D01*
X16701655Y9721272D01*
G37*
X16701655Y9721272D02*
X16055109Y9721272D01*
X16047834Y8786090D01*
X16045709Y8499071D01*
X16044013Y8242109D01*
X16042826Y8030062D01*
X16042229Y7877785D01*
X16042304Y7800134D01*
X16042404Y7794976D01*
X16000382Y7756947D01*
X15875815Y7742884D01*
X15842762Y7743088D01*
X15641276Y7747132D01*
X15628829Y8722657D01*
X15616382Y9698181D01*
X15307577Y9711770D01*
X14998773Y9725359D01*
X15001294Y9908043D01*
X15003816Y10090727D01*
X16701655Y10090727D01*
X16701655Y9721272D01*
G36*
X393529Y9402172D02*
G01*
X599340Y9299184D01*
X721925Y9191028D01*
X818776Y9078011D01*
X866003Y8972484D01*
X881140Y8830075D01*
X881940Y8786045D01*
X868494Y8598326D01*
X815458Y8453798D01*
X773608Y8388320D01*
X610695Y8230219D01*
X405687Y8134345D01*
X185278Y8109037D01*
X6927Y8148755D01*
X-86479Y8204695D01*
X-200228Y8294789D01*
X-223982Y8316369D01*
X-439083Y8497543D01*
X-625926Y8607474D01*
X-801749Y8655299D01*
X-870527Y8659090D01*
X-980183Y8651190D01*
X-1086033Y8621055D01*
X-1207758Y8559037D01*
X-1365040Y8455486D01*
X-1531069Y8335239D01*
X-1704733Y8259537D01*
X-1893264Y8267198D01*
X-2077858Y8355579D01*
X-2156895Y8423234D01*
X-2255202Y8541938D01*
X-2296175Y8664239D01*
X-2302164Y8774384D01*
X-2265837Y8981072D01*
X-2157625Y9130065D01*
X-1978678Y9220205D01*
X-1832912Y9246011D01*
X-1703766Y9251590D01*
X-1603748Y9232657D01*
X-1499161Y9177240D01*
X-1364513Y9079620D01*
X-1140223Y8934213D01*
X-939082Y8865789D01*
X-745252Y8875583D01*
X-542892Y8964827D01*
X-316163Y9134757D01*
X-282890Y9163887D01*
X-45858Y9334570D01*
X179039Y9413983D01*
X393529Y9402172D01*
X393529Y9402172D01*
G37*
X393529Y9402172D02*
X599340Y9299184D01*
X721925Y9191028D01*
X818776Y9078011D01*
X866003Y8972484D01*
X881140Y8830075D01*
X881940Y8786045D01*
X868494Y8598326D01*
X815458Y8453798D01*
X773608Y8388320D01*
X610695Y8230219D01*
X405687Y8134345D01*
X185278Y8109037D01*
X6927Y8148755D01*
X-86479Y8204695D01*
X-200228Y8294789D01*
X-223982Y8316369D01*
X-439083Y8497543D01*
X-625926Y8607474D01*
X-801749Y8655299D01*
X-870527Y8659090D01*
X-980183Y8651190D01*
X-1086033Y8621055D01*
X-1207758Y8559037D01*
X-1365040Y8455486D01*
X-1531069Y8335239D01*
X-1704733Y8259537D01*
X-1893264Y8267198D01*
X-2077858Y8355579D01*
X-2156895Y8423234D01*
X-2255202Y8541938D01*
X-2296175Y8664239D01*
X-2302164Y8774384D01*
X-2265837Y8981072D01*
X-2157625Y9130065D01*
X-1978678Y9220205D01*
X-1832912Y9246011D01*
X-1703766Y9251590D01*
X-1603748Y9232657D01*
X-1499161Y9177240D01*
X-1364513Y9079620D01*
X-1140223Y8934213D01*
X-939082Y8865789D01*
X-745252Y8875583D01*
X-542892Y8964827D01*
X-316163Y9134757D01*
X-282890Y9163887D01*
X-45858Y9334570D01*
X179039Y9413983D01*
X393529Y9402172D01*
G36*
X2687567Y9353702D02*
G01*
X2864889Y9243423D01*
X3009003Y9061685D01*
X3031059Y9019250D01*
X3096124Y8821982D01*
X3086088Y8634452D01*
X2998779Y8430382D01*
X2979786Y8398205D01*
X2884433Y8291918D01*
X2749834Y8201958D01*
X2600248Y8137322D01*
X2459930Y8107006D01*
X2353138Y8120009D01*
X2315553Y8151844D01*
X2259161Y8177817D01*
X2241881Y8171175D01*
X2187671Y8185959D01*
X2094403Y8252977D01*
X2014163Y8326625D01*
X1905837Y8444771D01*
X1851148Y8543169D01*
X1832466Y8660826D01*
X1831109Y8731618D01*
X1868364Y8968762D01*
X1969358Y9157684D01*
X2117933Y9294513D01*
X2297932Y9375374D01*
X2493195Y9396395D01*
X2687567Y9353702D01*
X2687567Y9353702D01*
G37*
X2687567Y9353702D02*
X2864889Y9243423D01*
X3009003Y9061685D01*
X3031059Y9019250D01*
X3096124Y8821982D01*
X3086088Y8634452D01*
X2998779Y8430382D01*
X2979786Y8398205D01*
X2884433Y8291918D01*
X2749834Y8201958D01*
X2600248Y8137322D01*
X2459930Y8107006D01*
X2353138Y8120009D01*
X2315553Y8151844D01*
X2259161Y8177817D01*
X2241881Y8171175D01*
X2187671Y8185959D01*
X2094403Y8252977D01*
X2014163Y8326625D01*
X1905837Y8444771D01*
X1851148Y8543169D01*
X1832466Y8660826D01*
X1831109Y8731618D01*
X1868364Y8968762D01*
X1969358Y9157684D01*
X2117933Y9294513D01*
X2297932Y9375374D01*
X2493195Y9396395D01*
X2687567Y9353702D01*
G36*
X7142018Y8474363D02*
G01*
X6033655Y8474363D01*
X6033655Y8890000D01*
X7142018Y8890000D01*
X7142018Y8474363D01*
X7142018Y8474363D01*
G37*
X7142018Y8474363D02*
X6033655Y8474363D01*
X6033655Y8890000D01*
X7142018Y8890000D01*
X7142018Y8474363D01*
G36*
X1504945Y10399589D02*
G01*
X1721835Y10294503D01*
X1780534Y10248973D01*
X1929940Y10068771D01*
X1994887Y9857334D01*
X1972154Y9627372D01*
X1952718Y9569323D01*
X1828792Y9358605D01*
X1652971Y9214849D01*
X1442041Y9144957D01*
X1212788Y9155831D01*
X1069109Y9206021D01*
X921571Y9292982D01*
X790560Y9397360D01*
X768927Y9419386D01*
X560368Y9591370D01*
X336382Y9673559D01*
X102964Y9666003D01*
X-133889Y9568752D01*
X-339241Y9410120D01*
X-507983Y9305512D01*
X-698027Y9273818D01*
X-885274Y9310439D01*
X-1045627Y9410775D01*
X-1153019Y9565439D01*
X-1200570Y9780086D01*
X-1166547Y9974112D01*
X-1061360Y10131815D01*
X-895417Y10237494D01*
X-682390Y10275454D01*
X-534823Y10261733D01*
X-415577Y10208061D01*
X-304933Y10119064D01*
X-75737Y9958462D01*
X155708Y9889458D01*
X391310Y9912130D01*
X632979Y10026557D01*
X810955Y10165035D01*
X1048222Y10334744D01*
X1279980Y10412966D01*
X1504945Y10399589D01*
X1504945Y10399589D01*
G37*
X1504945Y10399589D02*
X1721835Y10294503D01*
X1780534Y10248973D01*
X1929940Y10068771D01*
X1994887Y9857334D01*
X1972154Y9627372D01*
X1952718Y9569323D01*
X1828792Y9358605D01*
X1652971Y9214849D01*
X1442041Y9144957D01*
X1212788Y9155831D01*
X1069109Y9206021D01*
X921571Y9292982D01*
X790560Y9397360D01*
X768927Y9419386D01*
X560368Y9591370D01*
X336382Y9673559D01*
X102964Y9666003D01*
X-133889Y9568752D01*
X-339241Y9410120D01*
X-507983Y9305512D01*
X-698027Y9273818D01*
X-885274Y9310439D01*
X-1045627Y9410775D01*
X-1153019Y9565439D01*
X-1200570Y9780086D01*
X-1166547Y9974112D01*
X-1061360Y10131815D01*
X-895417Y10237494D01*
X-682390Y10275454D01*
X-534823Y10261733D01*
X-415577Y10208061D01*
X-304933Y10119064D01*
X-75737Y9958462D01*
X155708Y9889458D01*
X391310Y9912130D01*
X632979Y10026557D01*
X810955Y10165035D01*
X1048222Y10334744D01*
X1279980Y10412966D01*
X1504945Y10399589D01*
G36*
X323748Y11169573D02*
G01*
X455887Y11111443D01*
X575087Y11034440D01*
X653089Y10954715D01*
X691868Y10862171D01*
X715306Y10736064D01*
X721961Y10606791D01*
X710390Y10504753D01*
X679150Y10460349D01*
X676564Y10460181D01*
X633918Y10423569D01*
X630382Y10400866D01*
X589385Y10328905D01*
X485494Y10259039D01*
X347354Y10205657D01*
X203613Y10183147D01*
X196803Y10183090D01*
X20927Y10220491D01*
X-110720Y10310142D01*
X-222121Y10445116D01*
X-245044Y10529454D01*
X630382Y10529454D01*
X653473Y10506363D01*
X676564Y10529454D01*
X653473Y10552545D01*
X630382Y10529454D01*
X-245044Y10529454D01*
X-266353Y10607852D01*
X-267460Y10620497D01*
X-262159Y10791609D01*
X-223054Y10927139D01*
X-158512Y11004511D01*
X-121480Y11014363D01*
X-79656Y11038792D01*
X-85436Y11060545D01*
X-71296Y11096894D01*
X-18889Y11106727D01*
X57622Y11125569D01*
X76200Y11152909D01*
X111255Y11198087D01*
X201321Y11201047D01*
X323748Y11169573D01*
X323748Y11169573D01*
G37*
X323748Y11169573D02*
X455887Y11111443D01*
X575087Y11034440D01*
X653089Y10954715D01*
X691868Y10862171D01*
X715306Y10736064D01*
X721961Y10606791D01*
X710390Y10504753D01*
X679150Y10460349D01*
X676564Y10460181D01*
X633918Y10423569D01*
X630382Y10400866D01*
X589385Y10328905D01*
X485494Y10259039D01*
X347354Y10205657D01*
X203613Y10183147D01*
X196803Y10183090D01*
X20927Y10220491D01*
X-110720Y10310142D01*
X-222121Y10445116D01*
X-245044Y10529454D01*
X630382Y10529454D01*
X653473Y10506363D01*
X676564Y10529454D01*
X653473Y10552545D01*
X630382Y10529454D01*
X-245044Y10529454D01*
X-266353Y10607852D01*
X-267460Y10620497D01*
X-262159Y10791609D01*
X-223054Y10927139D01*
X-158512Y11004511D01*
X-121480Y11014363D01*
X-79656Y11038792D01*
X-85436Y11060545D01*
X-71296Y11096894D01*
X-18889Y11106727D01*
X57622Y11125569D01*
X76200Y11152909D01*
X111255Y11198087D01*
X201321Y11201047D01*
X323748Y11169573D01*
G36*
X3259668Y13808096D02*
G01*
X3306526Y13765417D01*
X3410995Y13698711D01*
X3550427Y13619795D01*
X3702175Y13540485D01*
X3843591Y13472598D01*
X3952028Y13427950D01*
X4004840Y13418358D01*
X4005535Y13418929D01*
X4033520Y13413722D01*
X4036291Y13393081D01*
X4063381Y13358313D01*
X4082472Y13365018D01*
X4124960Y13359824D01*
X4128654Y13341927D01*
X4155510Y13310457D01*
X4170892Y13316399D01*
X4222037Y13314141D01*
X4228619Y13303739D01*
X4273822Y13264299D01*
X4379538Y13194887D01*
X4524819Y13109066D01*
X4558223Y13090323D01*
X4704053Y13006719D01*
X4810025Y12941112D01*
X4857722Y12905053D01*
X4858405Y12902029D01*
X4815124Y12877377D01*
X4702611Y12816636D01*
X4533481Y12726522D01*
X4320347Y12613752D01*
X4075825Y12485041D01*
X4036369Y12464329D01*
X3786125Y12331278D01*
X3563908Y12209837D01*
X3382814Y12107430D01*
X3255939Y12031485D01*
X3196379Y11989426D01*
X3194258Y11986827D01*
X3165025Y11962037D01*
X3159543Y11994958D01*
X3126683Y12039539D01*
X3101521Y12037428D01*
X3024710Y12050420D01*
X2980112Y12082418D01*
X2898059Y12124959D01*
X2852700Y12122214D01*
X2796811Y12121039D01*
X2789381Y12136061D01*
X2747818Y12165344D01*
X2634400Y12214558D01*
X2466040Y12278104D01*
X2259648Y12350380D01*
X2032136Y12425787D01*
X1800414Y12498724D01*
X1581394Y12563592D01*
X1391987Y12614789D01*
X1249103Y12646716D01*
X1245354Y12647380D01*
X949821Y12686988D01*
X665207Y12696546D01*
X372870Y12673597D01*
X54163Y12615683D01*
X-309556Y12520348D01*
X-731982Y12386792D01*
X-956912Y12309004D01*
X-1146813Y12238591D01*
X-1286196Y12181669D01*
X-1359572Y12144354D01*
X-1366982Y12136061D01*
X-1400630Y12115305D01*
X-1430300Y12122214D01*
X-1510680Y12112875D01*
X-1563348Y12076782D01*
X-1631062Y12033640D01*
X-1664177Y12038153D01*
X-1710472Y12033978D01*
X-1733357Y12007637D01*
X-1774069Y11976475D01*
X-1788574Y11993594D01*
X-1833030Y12028744D01*
X-1946897Y12098803D01*
X-2117421Y12196490D01*
X-2331848Y12314524D01*
X-2577426Y12445624D01*
X-2613891Y12464777D01*
X-2862152Y12595209D01*
X-3080949Y12710745D01*
X-3257664Y12804674D01*
X-3379678Y12870284D01*
X-3434374Y12900865D01*
X-3436006Y12902029D01*
X-3405537Y12929012D01*
X-3312246Y12988395D01*
X-3174548Y13068628D01*
X-3135824Y13090323D01*
X-2984922Y13177860D01*
X-2869208Y13251821D01*
X-2809630Y13298644D01*
X-2806220Y13303739D01*
X-2761850Y13322428D01*
X-2748492Y13316399D01*
X-2709950Y13326094D01*
X-2706255Y13346899D01*
X-2688434Y13380604D01*
X-2675906Y13373154D01*
X-2625428Y13381209D01*
X-2511818Y13426286D01*
X-2352775Y13500720D01*
X-2195317Y13581228D01*
X-1745077Y13819651D01*
X-1504735Y13719769D01*
X-1367141Y13668883D01*
X-1264128Y13642317D01*
X-1227268Y13642831D01*
X-1179084Y13634473D01*
X-1174654Y13626162D01*
X-1124309Y13587830D01*
X-1015018Y13536360D01*
X-876336Y13482498D01*
X-737818Y13436987D01*
X-629019Y13410573D01*
X-582435Y13410864D01*
X-534287Y13401535D01*
X-528108Y13389358D01*
X-469184Y13340779D01*
X-336480Y13290803D01*
X-148444Y13243058D01*
X76476Y13201171D01*
X319833Y13168768D01*
X563178Y13149478D01*
X711200Y13145688D01*
X944780Y13154621D01*
X1190245Y13179000D01*
X1429147Y13215198D01*
X1643039Y13259589D01*
X1813472Y13308545D01*
X1921999Y13358439D01*
X1950508Y13389358D01*
X1992886Y13415865D01*
X2004835Y13410864D01*
X2062740Y13414534D01*
X2176644Y13443851D01*
X2317303Y13488892D01*
X2455473Y13539739D01*
X2561912Y13586472D01*
X2604654Y13614337D01*
X2667035Y13644024D01*
X2673927Y13644685D01*
X2788152Y13665427D01*
X2897135Y13706132D01*
X2965753Y13752106D01*
X2974109Y13770267D01*
X2992586Y13797802D01*
X3001948Y13791300D01*
X3061218Y13784572D01*
X3137416Y13804381D01*
X3223483Y13822404D01*
X3259668Y13808096D01*
X3259668Y13808096D01*
G37*
X3259668Y13808096D02*
X3306526Y13765417D01*
X3410995Y13698711D01*
X3550427Y13619795D01*
X3702175Y13540485D01*
X3843591Y13472598D01*
X3952028Y13427950D01*
X4004840Y13418358D01*
X4005535Y13418929D01*
X4033520Y13413722D01*
X4036291Y13393081D01*
X4063381Y13358313D01*
X4082472Y13365018D01*
X4124960Y13359824D01*
X4128654Y13341927D01*
X4155510Y13310457D01*
X4170892Y13316399D01*
X4222037Y13314141D01*
X4228619Y13303739D01*
X4273822Y13264299D01*
X4379538Y13194887D01*
X4524819Y13109066D01*
X4558223Y13090323D01*
X4704053Y13006719D01*
X4810025Y12941112D01*
X4857722Y12905053D01*
X4858405Y12902029D01*
X4815124Y12877377D01*
X4702611Y12816636D01*
X4533481Y12726522D01*
X4320347Y12613752D01*
X4075825Y12485041D01*
X4036369Y12464329D01*
X3786125Y12331278D01*
X3563908Y12209837D01*
X3382814Y12107430D01*
X3255939Y12031485D01*
X3196379Y11989426D01*
X3194258Y11986827D01*
X3165025Y11962037D01*
X3159543Y11994958D01*
X3126683Y12039539D01*
X3101521Y12037428D01*
X3024710Y12050420D01*
X2980112Y12082418D01*
X2898059Y12124959D01*
X2852700Y12122214D01*
X2796811Y12121039D01*
X2789381Y12136061D01*
X2747818Y12165344D01*
X2634400Y12214558D01*
X2466040Y12278104D01*
X2259648Y12350380D01*
X2032136Y12425787D01*
X1800414Y12498724D01*
X1581394Y12563592D01*
X1391987Y12614789D01*
X1249103Y12646716D01*
X1245354Y12647380D01*
X949821Y12686988D01*
X665207Y12696546D01*
X372870Y12673597D01*
X54163Y12615683D01*
X-309556Y12520348D01*
X-731982Y12386792D01*
X-956912Y12309004D01*
X-1146813Y12238591D01*
X-1286196Y12181669D01*
X-1359572Y12144354D01*
X-1366982Y12136061D01*
X-1400630Y12115305D01*
X-1430300Y12122214D01*
X-1510680Y12112875D01*
X-1563348Y12076782D01*
X-1631062Y12033640D01*
X-1664177Y12038153D01*
X-1710472Y12033978D01*
X-1733357Y12007637D01*
X-1774069Y11976475D01*
X-1788574Y11993594D01*
X-1833030Y12028744D01*
X-1946897Y12098803D01*
X-2117421Y12196490D01*
X-2331848Y12314524D01*
X-2577426Y12445624D01*
X-2613891Y12464777D01*
X-2862152Y12595209D01*
X-3080949Y12710745D01*
X-3257664Y12804674D01*
X-3379678Y12870284D01*
X-3434374Y12900865D01*
X-3436006Y12902029D01*
X-3405537Y12929012D01*
X-3312246Y12988395D01*
X-3174548Y13068628D01*
X-3135824Y13090323D01*
X-2984922Y13177860D01*
X-2869208Y13251821D01*
X-2809630Y13298644D01*
X-2806220Y13303739D01*
X-2761850Y13322428D01*
X-2748492Y13316399D01*
X-2709950Y13326094D01*
X-2706255Y13346899D01*
X-2688434Y13380604D01*
X-2675906Y13373154D01*
X-2625428Y13381209D01*
X-2511818Y13426286D01*
X-2352775Y13500720D01*
X-2195317Y13581228D01*
X-1745077Y13819651D01*
X-1504735Y13719769D01*
X-1367141Y13668883D01*
X-1264128Y13642317D01*
X-1227268Y13642831D01*
X-1179084Y13634473D01*
X-1174654Y13626162D01*
X-1124309Y13587830D01*
X-1015018Y13536360D01*
X-876336Y13482498D01*
X-737818Y13436987D01*
X-629019Y13410573D01*
X-582435Y13410864D01*
X-534287Y13401535D01*
X-528108Y13389358D01*
X-469184Y13340779D01*
X-336480Y13290803D01*
X-148444Y13243058D01*
X76476Y13201171D01*
X319833Y13168768D01*
X563178Y13149478D01*
X711200Y13145688D01*
X944780Y13154621D01*
X1190245Y13179000D01*
X1429147Y13215198D01*
X1643039Y13259589D01*
X1813472Y13308545D01*
X1921999Y13358439D01*
X1950508Y13389358D01*
X1992886Y13415865D01*
X2004835Y13410864D01*
X2062740Y13414534D01*
X2176644Y13443851D01*
X2317303Y13488892D01*
X2455473Y13539739D01*
X2561912Y13586472D01*
X2604654Y13614337D01*
X2667035Y13644024D01*
X2673927Y13644685D01*
X2788152Y13665427D01*
X2897135Y13706132D01*
X2965753Y13752106D01*
X2974109Y13770267D01*
X2992586Y13797802D01*
X3001948Y13791300D01*
X3061218Y13784572D01*
X3137416Y13804381D01*
X3223483Y13822404D01*
X3259668Y13808096D01*
G36*
X3165555Y16137501D02*
G01*
X3307902Y16087113D01*
X3513579Y15995945D01*
X3788424Y15861463D01*
X4027423Y15738990D01*
X4278126Y15608257D01*
X4500032Y15491548D01*
X4680360Y15395667D01*
X4806332Y15327415D01*
X4865169Y15293596D01*
X4867563Y15291772D01*
X4854924Y15259179D01*
X4832102Y15248027D01*
X4750220Y15198669D01*
X4710600Y15164185D01*
X4646415Y15124780D01*
X4619061Y15129823D01*
X4593512Y15121344D01*
X4590472Y15096836D01*
X4573566Y15058834D01*
X4559666Y15066067D01*
X4509527Y15058244D01*
X4401042Y15014200D01*
X4255242Y14944937D01*
X4093161Y14861457D01*
X3935832Y14774761D01*
X3804287Y14695850D01*
X3719558Y14635728D01*
X3702179Y14617538D01*
X3671509Y14590801D01*
X3667543Y14601160D01*
X3630247Y14601301D01*
X3534201Y14565606D01*
X3427826Y14515459D01*
X3286049Y14448074D01*
X3187632Y14420670D01*
X3095385Y14428032D01*
X3000644Y14455579D01*
X2870362Y14492721D01*
X2772879Y14511307D01*
X2754745Y14511775D01*
X2701215Y14529515D01*
X2697018Y14542502D01*
X2655675Y14569044D01*
X2541755Y14618445D01*
X2370424Y14684711D01*
X2156846Y14761848D01*
X2038927Y14802629D01*
X1380836Y15026988D01*
X41563Y15026988D01*
X-616528Y14802629D01*
X-845629Y14721780D01*
X-1040035Y14647945D01*
X-1184562Y14587307D01*
X-1264028Y14546049D01*
X-1274619Y14534646D01*
X-1302522Y14510631D01*
X-1315894Y14516532D01*
X-1381488Y14516654D01*
X-1492234Y14484927D01*
X-1522229Y14473075D01*
X-1649499Y14425378D01*
X-1747484Y14412746D01*
X-1850669Y14438574D01*
X-1993540Y14506260D01*
X-2025073Y14522599D01*
X-2146000Y14579574D01*
X-2225977Y14605815D01*
X-2245144Y14601267D01*
X-2264440Y14598059D01*
X-2279780Y14617538D01*
X-2336177Y14665441D01*
X-2448982Y14737148D01*
X-2597162Y14821659D01*
X-2759685Y14907970D01*
X-2915518Y14985081D01*
X-3043628Y15041990D01*
X-3122982Y15067694D01*
X-3137267Y15066067D01*
X-3164738Y15072388D01*
X-3168073Y15096836D01*
X-3183872Y15136066D01*
X-3196662Y15129823D01*
X-3247467Y15133583D01*
X-3288201Y15164185D01*
X-3371694Y15228944D01*
X-3409703Y15248027D01*
X-3449378Y15279970D01*
X-3445164Y15291772D01*
X-3398889Y15319125D01*
X-3283326Y15382055D01*
X-3111256Y15473760D01*
X-2895456Y15587438D01*
X-2648707Y15716286D01*
X-2605024Y15738990D01*
X-2277803Y15905593D01*
X-2023874Y16027094D01*
X-1837398Y16106025D01*
X-1712537Y16144919D01*
X-1658297Y16149641D01*
X-1556063Y16131184D01*
X-1505528Y16109580D01*
X-1444262Y16071831D01*
X-1326250Y16019726D01*
X-1178155Y15962809D01*
X-1026637Y15910622D01*
X-898360Y15872710D01*
X-819986Y15858614D01*
X-809933Y15860609D01*
X-769996Y15852232D01*
X-766619Y15833530D01*
X-733137Y15800326D01*
X-697346Y15806264D01*
X-638000Y15804907D01*
X-628073Y15783173D01*
X-594421Y15753531D01*
X-558800Y15760082D01*
X-499199Y15763738D01*
X-489528Y15747603D01*
X-446672Y15709412D01*
X-330663Y15666614D01*
X-160336Y15622898D01*
X45470Y15581953D01*
X267920Y15547467D01*
X488176Y15523130D01*
X687402Y15512629D01*
X711200Y15512473D01*
X906229Y15520865D01*
X1124783Y15543582D01*
X1348024Y15576936D01*
X1557116Y15617238D01*
X1733222Y15660798D01*
X1857505Y15703930D01*
X1911128Y15742943D01*
X1911927Y15747603D01*
X1946005Y15768134D01*
X1981200Y15760082D01*
X2040546Y15761440D01*
X2050472Y15783173D01*
X2084124Y15812815D01*
X2119745Y15806264D01*
X2178988Y15809557D01*
X2189018Y15833530D01*
X2215610Y15866745D01*
X2232332Y15860609D01*
X2289606Y15865287D01*
X2405128Y15896771D01*
X2552237Y15945515D01*
X2704271Y16001977D01*
X2834566Y16056615D01*
X2916462Y16099884D01*
X2927927Y16109580D01*
X2986291Y16133237D01*
X3080696Y16149641D01*
X3165555Y16137501D01*
X3165555Y16137501D01*
G37*
X3165555Y16137501D02*
X3307902Y16087113D01*
X3513579Y15995945D01*
X3788424Y15861463D01*
X4027423Y15738990D01*
X4278126Y15608257D01*
X4500032Y15491548D01*
X4680360Y15395667D01*
X4806332Y15327415D01*
X4865169Y15293596D01*
X4867563Y15291772D01*
X4854924Y15259179D01*
X4832102Y15248027D01*
X4750220Y15198669D01*
X4710600Y15164185D01*
X4646415Y15124780D01*
X4619061Y15129823D01*
X4593512Y15121344D01*
X4590472Y15096836D01*
X4573566Y15058834D01*
X4559666Y15066067D01*
X4509527Y15058244D01*
X4401042Y15014200D01*
X4255242Y14944937D01*
X4093161Y14861457D01*
X3935832Y14774761D01*
X3804287Y14695850D01*
X3719558Y14635728D01*
X3702179Y14617538D01*
X3671509Y14590801D01*
X3667543Y14601160D01*
X3630247Y14601301D01*
X3534201Y14565606D01*
X3427826Y14515459D01*
X3286049Y14448074D01*
X3187632Y14420670D01*
X3095385Y14428032D01*
X3000644Y14455579D01*
X2870362Y14492721D01*
X2772879Y14511307D01*
X2754745Y14511775D01*
X2701215Y14529515D01*
X2697018Y14542502D01*
X2655675Y14569044D01*
X2541755Y14618445D01*
X2370424Y14684711D01*
X2156846Y14761848D01*
X2038927Y14802629D01*
X1380836Y15026988D01*
X41563Y15026988D01*
X-616528Y14802629D01*
X-845629Y14721780D01*
X-1040035Y14647945D01*
X-1184562Y14587307D01*
X-1264028Y14546049D01*
X-1274619Y14534646D01*
X-1302522Y14510631D01*
X-1315894Y14516532D01*
X-1381488Y14516654D01*
X-1492234Y14484927D01*
X-1522229Y14473075D01*
X-1649499Y14425378D01*
X-1747484Y14412746D01*
X-1850669Y14438574D01*
X-1993540Y14506260D01*
X-2025073Y14522599D01*
X-2146000Y14579574D01*
X-2225977Y14605815D01*
X-2245144Y14601267D01*
X-2264440Y14598059D01*
X-2279780Y14617538D01*
X-2336177Y14665441D01*
X-2448982Y14737148D01*
X-2597162Y14821659D01*
X-2759685Y14907970D01*
X-2915518Y14985081D01*
X-3043628Y15041990D01*
X-3122982Y15067694D01*
X-3137267Y15066067D01*
X-3164738Y15072388D01*
X-3168073Y15096836D01*
X-3183872Y15136066D01*
X-3196662Y15129823D01*
X-3247467Y15133583D01*
X-3288201Y15164185D01*
X-3371694Y15228944D01*
X-3409703Y15248027D01*
X-3449378Y15279970D01*
X-3445164Y15291772D01*
X-3398889Y15319125D01*
X-3283326Y15382055D01*
X-3111256Y15473760D01*
X-2895456Y15587438D01*
X-2648707Y15716286D01*
X-2605024Y15738990D01*
X-2277803Y15905593D01*
X-2023874Y16027094D01*
X-1837398Y16106025D01*
X-1712537Y16144919D01*
X-1658297Y16149641D01*
X-1556063Y16131184D01*
X-1505528Y16109580D01*
X-1444262Y16071831D01*
X-1326250Y16019726D01*
X-1178155Y15962809D01*
X-1026637Y15910622D01*
X-898360Y15872710D01*
X-819986Y15858614D01*
X-809933Y15860609D01*
X-769996Y15852232D01*
X-766619Y15833530D01*
X-733137Y15800326D01*
X-697346Y15806264D01*
X-638000Y15804907D01*
X-628073Y15783173D01*
X-594421Y15753531D01*
X-558800Y15760082D01*
X-499199Y15763738D01*
X-489528Y15747603D01*
X-446672Y15709412D01*
X-330663Y15666614D01*
X-160336Y15622898D01*
X45470Y15581953D01*
X267920Y15547467D01*
X488176Y15523130D01*
X687402Y15512629D01*
X711200Y15512473D01*
X906229Y15520865D01*
X1124783Y15543582D01*
X1348024Y15576936D01*
X1557116Y15617238D01*
X1733222Y15660798D01*
X1857505Y15703930D01*
X1911128Y15742943D01*
X1911927Y15747603D01*
X1946005Y15768134D01*
X1981200Y15760082D01*
X2040546Y15761440D01*
X2050472Y15783173D01*
X2084124Y15812815D01*
X2119745Y15806264D01*
X2178988Y15809557D01*
X2189018Y15833530D01*
X2215610Y15866745D01*
X2232332Y15860609D01*
X2289606Y15865287D01*
X2405128Y15896771D01*
X2552237Y15945515D01*
X2704271Y16001977D01*
X2834566Y16056615D01*
X2916462Y16099884D01*
X2927927Y16109580D01*
X2986291Y16133237D01*
X3080696Y16149641D01*
X3165555Y16137501D01*
G36*
X-1347602Y18396527D02*
G01*
X-1165950Y18331895D01*
X-1016532Y18285743D01*
X-920266Y18264173D01*
X-897329Y18265133D01*
X-861851Y18253593D01*
X-858982Y18234985D01*
X-825500Y18201781D01*
X-789709Y18207719D01*
X-730083Y18211881D01*
X-720437Y18196296D01*
X-679627Y18165038D01*
X-574371Y18121521D01*
X-430429Y18073333D01*
X-273559Y18028066D01*
X-129521Y17993308D01*
X-24075Y17976648D01*
X13427Y17980082D01*
X63919Y17970761D01*
X76104Y17948851D01*
X112446Y17923401D01*
X208257Y17905891D01*
X373436Y17895419D01*
X617882Y17891078D01*
X711200Y17890836D01*
X982199Y17893461D01*
X1170867Y17901938D01*
X1287102Y17917172D01*
X1340802Y17940067D01*
X1346296Y17948851D01*
X1388930Y17985933D01*
X1408972Y17980082D01*
X1470858Y17979080D01*
X1589817Y18001622D01*
X1740090Y18040118D01*
X1895919Y18086980D01*
X2031543Y18134617D01*
X2121203Y18175440D01*
X2142836Y18196296D01*
X2176956Y18215916D01*
X2212109Y18207719D01*
X2271352Y18211012D01*
X2281381Y18234985D01*
X2306470Y18269222D01*
X2321973Y18263746D01*
X2380766Y18266599D01*
X2495911Y18296194D01*
X2641606Y18343259D01*
X2792049Y18398524D01*
X2921437Y18452721D01*
X3003968Y18496578D01*
X3020291Y18514632D01*
X3058023Y18538408D01*
X3152680Y18530337D01*
X3276449Y18495330D01*
X3376818Y18451703D01*
X3478453Y18410648D01*
X3542032Y18405892D01*
X3545526Y18408375D01*
X3572873Y18403608D01*
X3574472Y18389602D01*
X3613327Y18352443D01*
X3720129Y18282711D01*
X3880239Y18189188D01*
X4079015Y18080656D01*
X4163291Y18036449D01*
X4379004Y17923967D01*
X4568251Y17824190D01*
X4714418Y17745959D01*
X4800892Y17698114D01*
X4813952Y17690202D01*
X4822080Y17654572D01*
X4761503Y17596732D01*
X4625259Y17510752D01*
X4559952Y17473771D01*
X4408614Y17386009D01*
X4292420Y17311826D01*
X4232248Y17264732D01*
X4228619Y17259389D01*
X4184249Y17240699D01*
X4170892Y17246729D01*
X4131570Y17238201D01*
X4128654Y17221200D01*
X4100522Y17191084D01*
X4082472Y17198109D01*
X4040446Y17190878D01*
X4036291Y17170047D01*
X4018287Y17136543D01*
X4005594Y17144139D01*
X3956479Y17135891D01*
X3849979Y17093074D01*
X3708780Y17027158D01*
X3555569Y16949612D01*
X3413032Y16871907D01*
X3303854Y16805512D01*
X3251288Y16762770D01*
X3200091Y16760992D01*
X3089361Y16790159D01*
X2957067Y16838511D01*
X2813500Y16892063D01*
X2706827Y16923059D01*
X2662933Y16925418D01*
X2616962Y16934649D01*
X2570111Y16972055D01*
X2487203Y17018474D01*
X2437063Y17017487D01*
X2381158Y17015939D01*
X2373745Y17030610D01*
X2333742Y17059015D01*
X2231804Y17102684D01*
X2095034Y17152328D01*
X1950536Y17198657D01*
X1825416Y17232382D01*
X1750291Y17244291D01*
X1682887Y17273308D01*
X1678734Y17278212D01*
X1625226Y17299652D01*
X1500865Y17330678D01*
X1326050Y17366592D01*
X1182280Y17392519D01*
X960927Y17428385D01*
X795062Y17446962D01*
X649441Y17448249D01*
X488823Y17432246D01*
X277962Y17398953D01*
X240119Y17392519D01*
X41840Y17355986D01*
X-120489Y17321002D01*
X-226470Y17292264D01*
X-256335Y17278212D01*
X-320949Y17244647D01*
X-327891Y17244291D01*
X-417485Y17230681D01*
X-541409Y17196853D01*
X-669019Y17153309D01*
X-769667Y17110554D01*
X-812709Y17079089D01*
X-812800Y17078102D01*
X-846891Y17057856D01*
X-882073Y17065954D01*
X-941419Y17064596D01*
X-951346Y17042863D01*
X-984492Y17011951D01*
X-1014664Y17017487D01*
X-1095044Y17008148D01*
X-1147712Y16972055D01*
X-1211851Y16925245D01*
X-1239326Y16924210D01*
X-1290558Y16920768D01*
X-1401022Y16889475D01*
X-1515230Y16848887D01*
X-1769250Y16751679D01*
X-2160764Y16963367D01*
X-2331354Y17051006D01*
X-2471141Y17114224D01*
X-2561058Y17144856D01*
X-2583085Y17144249D01*
X-2611115Y17149405D01*
X-2613891Y17170047D01*
X-2640982Y17204815D01*
X-2660073Y17198109D01*
X-2702560Y17203303D01*
X-2706255Y17221200D01*
X-2733110Y17252671D01*
X-2748492Y17246729D01*
X-2799638Y17248986D01*
X-2806220Y17259389D01*
X-2851422Y17298824D01*
X-2957142Y17368238D01*
X-3102441Y17454073D01*
X-3135995Y17472900D01*
X-3246647Y17532400D01*
X-3328389Y17578910D01*
X-3374804Y17619563D01*
X-3379472Y17661491D01*
X-3335975Y17711826D01*
X-3237895Y17777699D01*
X-3078814Y17866244D01*
X-2852313Y17984592D01*
X-2551973Y18139874D01*
X-2521528Y18155683D01*
X-1759528Y18551620D01*
X-1347602Y18396527D01*
X-1347602Y18396527D01*
G37*
X-1347602Y18396527D02*
X-1165950Y18331895D01*
X-1016532Y18285743D01*
X-920266Y18264173D01*
X-897329Y18265133D01*
X-861851Y18253593D01*
X-858982Y18234985D01*
X-825500Y18201781D01*
X-789709Y18207719D01*
X-730083Y18211881D01*
X-720437Y18196296D01*
X-679627Y18165038D01*
X-574371Y18121521D01*
X-430429Y18073333D01*
X-273559Y18028066D01*
X-129521Y17993308D01*
X-24075Y17976648D01*
X13427Y17980082D01*
X63919Y17970761D01*
X76104Y17948851D01*
X112446Y17923401D01*
X208257Y17905891D01*
X373436Y17895419D01*
X617882Y17891078D01*
X711200Y17890836D01*
X982199Y17893461D01*
X1170867Y17901938D01*
X1287102Y17917172D01*
X1340802Y17940067D01*
X1346296Y17948851D01*
X1388930Y17985933D01*
X1408972Y17980082D01*
X1470858Y17979080D01*
X1589817Y18001622D01*
X1740090Y18040118D01*
X1895919Y18086980D01*
X2031543Y18134617D01*
X2121203Y18175440D01*
X2142836Y18196296D01*
X2176956Y18215916D01*
X2212109Y18207719D01*
X2271352Y18211012D01*
X2281381Y18234985D01*
X2306470Y18269222D01*
X2321973Y18263746D01*
X2380766Y18266599D01*
X2495911Y18296194D01*
X2641606Y18343259D01*
X2792049Y18398524D01*
X2921437Y18452721D01*
X3003968Y18496578D01*
X3020291Y18514632D01*
X3058023Y18538408D01*
X3152680Y18530337D01*
X3276449Y18495330D01*
X3376818Y18451703D01*
X3478453Y18410648D01*
X3542032Y18405892D01*
X3545526Y18408375D01*
X3572873Y18403608D01*
X3574472Y18389602D01*
X3613327Y18352443D01*
X3720129Y18282711D01*
X3880239Y18189188D01*
X4079015Y18080656D01*
X4163291Y18036449D01*
X4379004Y17923967D01*
X4568251Y17824190D01*
X4714418Y17745959D01*
X4800892Y17698114D01*
X4813952Y17690202D01*
X4822080Y17654572D01*
X4761503Y17596732D01*
X4625259Y17510752D01*
X4559952Y17473771D01*
X4408614Y17386009D01*
X4292420Y17311826D01*
X4232248Y17264732D01*
X4228619Y17259389D01*
X4184249Y17240699D01*
X4170892Y17246729D01*
X4131570Y17238201D01*
X4128654Y17221200D01*
X4100522Y17191084D01*
X4082472Y17198109D01*
X4040446Y17190878D01*
X4036291Y17170047D01*
X4018287Y17136543D01*
X4005594Y17144139D01*
X3956479Y17135891D01*
X3849979Y17093074D01*
X3708780Y17027158D01*
X3555569Y16949612D01*
X3413032Y16871907D01*
X3303854Y16805512D01*
X3251288Y16762770D01*
X3200091Y16760992D01*
X3089361Y16790159D01*
X2957067Y16838511D01*
X2813500Y16892063D01*
X2706827Y16923059D01*
X2662933Y16925418D01*
X2616962Y16934649D01*
X2570111Y16972055D01*
X2487203Y17018474D01*
X2437063Y17017487D01*
X2381158Y17015939D01*
X2373745Y17030610D01*
X2333742Y17059015D01*
X2231804Y17102684D01*
X2095034Y17152328D01*
X1950536Y17198657D01*
X1825416Y17232382D01*
X1750291Y17244291D01*
X1682887Y17273308D01*
X1678734Y17278212D01*
X1625226Y17299652D01*
X1500865Y17330678D01*
X1326050Y17366592D01*
X1182280Y17392519D01*
X960927Y17428385D01*
X795062Y17446962D01*
X649441Y17448249D01*
X488823Y17432246D01*
X277962Y17398953D01*
X240119Y17392519D01*
X41840Y17355986D01*
X-120489Y17321002D01*
X-226470Y17292264D01*
X-256335Y17278212D01*
X-320949Y17244647D01*
X-327891Y17244291D01*
X-417485Y17230681D01*
X-541409Y17196853D01*
X-669019Y17153309D01*
X-769667Y17110554D01*
X-812709Y17079089D01*
X-812800Y17078102D01*
X-846891Y17057856D01*
X-882073Y17065954D01*
X-941419Y17064596D01*
X-951346Y17042863D01*
X-984492Y17011951D01*
X-1014664Y17017487D01*
X-1095044Y17008148D01*
X-1147712Y16972055D01*
X-1211851Y16925245D01*
X-1239326Y16924210D01*
X-1290558Y16920768D01*
X-1401022Y16889475D01*
X-1515230Y16848887D01*
X-1769250Y16751679D01*
X-2160764Y16963367D01*
X-2331354Y17051006D01*
X-2471141Y17114224D01*
X-2561058Y17144856D01*
X-2583085Y17144249D01*
X-2611115Y17149405D01*
X-2613891Y17170047D01*
X-2640982Y17204815D01*
X-2660073Y17198109D01*
X-2702560Y17203303D01*
X-2706255Y17221200D01*
X-2733110Y17252671D01*
X-2748492Y17246729D01*
X-2799638Y17248986D01*
X-2806220Y17259389D01*
X-2851422Y17298824D01*
X-2957142Y17368238D01*
X-3102441Y17454073D01*
X-3135995Y17472900D01*
X-3246647Y17532400D01*
X-3328389Y17578910D01*
X-3374804Y17619563D01*
X-3379472Y17661491D01*
X-3335975Y17711826D01*
X-3237895Y17777699D01*
X-3078814Y17866244D01*
X-2852313Y17984592D01*
X-2551973Y18139874D01*
X-2521528Y18155683D01*
X-1759528Y18551620D01*
X-1347602Y18396527D01*
G36*
X4498109Y22623855D02*
G01*
X4496721Y22058858D01*
X4492533Y21584796D01*
X4485509Y21200283D01*
X4475614Y20903930D01*
X4462811Y20694351D01*
X4447064Y20570159D01*
X4444599Y20559414D01*
X4344894Y20335048D01*
X4178101Y20138457D01*
X3969343Y19995928D01*
X3868188Y19956364D01*
X3697008Y19924560D01*
X3471491Y19908418D01*
X3226396Y19907822D01*
X2996483Y19922652D01*
X2816514Y19952793D01*
X2791560Y19960009D01*
X2663010Y20023979D01*
X2520450Y20127634D01*
X2461008Y20181937D01*
X2395879Y20251345D01*
X2341795Y20323504D01*
X2297819Y20407215D01*
X2263010Y20511279D01*
X2236431Y20644496D01*
X2217143Y20815668D01*
X2204206Y21033594D01*
X2196681Y21307076D01*
X2193630Y21644914D01*
X2194114Y22055908D01*
X2197193Y22548861D01*
X2197956Y22647564D01*
X2212109Y24448655D01*
X2858654Y24448655D01*
X2904836Y20645975D01*
X3013124Y20530768D01*
X3179841Y20410079D01*
X3368634Y20379067D01*
X3498674Y20405592D01*
X3565625Y20428540D01*
X3621114Y20454710D01*
X3666332Y20492446D01*
X3702469Y20550091D01*
X3730716Y20635989D01*
X3752263Y20758485D01*
X3768301Y20925921D01*
X3780019Y21146641D01*
X3788610Y21428989D01*
X3795263Y21781309D01*
X3801168Y22211943D01*
X3805381Y22555200D01*
X3828472Y24448655D01*
X4163291Y24462223D01*
X4498109Y24475791D01*
X4498109Y22623855D01*
X4498109Y22623855D01*
G37*
X4498109Y22623855D02*
X4496721Y22058858D01*
X4492533Y21584796D01*
X4485509Y21200283D01*
X4475614Y20903930D01*
X4462811Y20694351D01*
X4447064Y20570159D01*
X4444599Y20559414D01*
X4344894Y20335048D01*
X4178101Y20138457D01*
X3969343Y19995928D01*
X3868188Y19956364D01*
X3697008Y19924560D01*
X3471491Y19908418D01*
X3226396Y19907822D01*
X2996483Y19922652D01*
X2816514Y19952793D01*
X2791560Y19960009D01*
X2663010Y20023979D01*
X2520450Y20127634D01*
X2461008Y20181937D01*
X2395879Y20251345D01*
X2341795Y20323504D01*
X2297819Y20407215D01*
X2263010Y20511279D01*
X2236431Y20644496D01*
X2217143Y20815668D01*
X2204206Y21033594D01*
X2196681Y21307076D01*
X2193630Y21644914D01*
X2194114Y22055908D01*
X2197193Y22548861D01*
X2197956Y22647564D01*
X2212109Y24448655D01*
X2858654Y24448655D01*
X2904836Y20645975D01*
X3013124Y20530768D01*
X3179841Y20410079D01*
X3368634Y20379067D01*
X3498674Y20405592D01*
X3565625Y20428540D01*
X3621114Y20454710D01*
X3666332Y20492446D01*
X3702469Y20550091D01*
X3730716Y20635989D01*
X3752263Y20758485D01*
X3768301Y20925921D01*
X3780019Y21146641D01*
X3788610Y21428989D01*
X3795263Y21781309D01*
X3801168Y22211943D01*
X3805381Y22555200D01*
X3828472Y24448655D01*
X4163291Y24462223D01*
X4498109Y24475791D01*
X4498109Y22623855D01*
G36*
X-2313709Y24447847D02*
G01*
X-1968760Y24444660D01*
X-1701748Y24433799D01*
X-1498362Y24412115D01*
X-1344286Y24376457D01*
X-1225207Y24323678D01*
X-1126810Y24250626D01*
X-1047961Y24169350D01*
X-980624Y24087389D01*
X-926076Y24003550D01*
X-882979Y23907453D01*
X-849998Y23788719D01*
X-825798Y23636967D01*
X-809042Y23441819D01*
X-798396Y23192894D01*
X-792522Y22879813D01*
X-790085Y22492197D01*
X-789709Y22162655D01*
X-789709Y20707927D01*
X-910742Y20449837D01*
X-1034221Y20240594D01*
X-1182125Y20099278D01*
X-1210923Y20080382D01*
X-1278626Y20041173D01*
X-1347420Y20012064D01*
X-1432358Y19991232D01*
X-1548494Y19976856D01*
X-1710880Y19967115D01*
X-1934570Y19960188D01*
X-2234617Y19954251D01*
X-2256424Y19953869D01*
X-3122774Y19938719D01*
X-3120036Y20453927D01*
X-2430275Y20453927D01*
X-2126502Y20453927D01*
X-1953957Y20461329D01*
X-1808010Y20480604D01*
X-1729491Y20503826D01*
X-1668922Y20543607D01*
X-1620251Y20597769D01*
X-1582202Y20676024D01*
X-1553499Y20788083D01*
X-1532866Y20943658D01*
X-1519028Y21152459D01*
X-1510710Y21424197D01*
X-1506635Y21768585D01*
X-1505528Y22195333D01*
X-1505528Y22208836D01*
X-1506257Y22638853D01*
X-1509591Y22986036D01*
X-1517245Y23259914D01*
X-1530939Y23470012D01*
X-1552389Y23625857D01*
X-1583312Y23736975D01*
X-1625426Y23812894D01*
X-1680449Y23863140D01*
X-1750097Y23897239D01*
X-1813676Y23918160D01*
X-1977788Y23948617D01*
X-2160635Y23957510D01*
X-2198255Y23955722D01*
X-2406073Y23940655D01*
X-2430275Y20453927D01*
X-3120036Y20453927D01*
X-3098800Y24448655D01*
X-2313709Y24447847D01*
X-2313709Y24447847D01*
G37*
X-2313709Y24447847D02*
X-1968760Y24444660D01*
X-1701748Y24433799D01*
X-1498362Y24412115D01*
X-1344286Y24376457D01*
X-1225207Y24323678D01*
X-1126810Y24250626D01*
X-1047961Y24169350D01*
X-980624Y24087389D01*
X-926076Y24003550D01*
X-882979Y23907453D01*
X-849998Y23788719D01*
X-825798Y23636967D01*
X-809042Y23441819D01*
X-798396Y23192894D01*
X-792522Y22879813D01*
X-790085Y22492197D01*
X-789709Y22162655D01*
X-789709Y20707927D01*
X-910742Y20449837D01*
X-1034221Y20240594D01*
X-1182125Y20099278D01*
X-1210923Y20080382D01*
X-1278626Y20041173D01*
X-1347420Y20012064D01*
X-1432358Y19991232D01*
X-1548494Y19976856D01*
X-1710880Y19967115D01*
X-1934570Y19960188D01*
X-2234617Y19954251D01*
X-2256424Y19953869D01*
X-3122774Y19938719D01*
X-3120036Y20453927D01*
X-2430275Y20453927D01*
X-2126502Y20453927D01*
X-1953957Y20461329D01*
X-1808010Y20480604D01*
X-1729491Y20503826D01*
X-1668922Y20543607D01*
X-1620251Y20597769D01*
X-1582202Y20676024D01*
X-1553499Y20788083D01*
X-1532866Y20943658D01*
X-1519028Y21152459D01*
X-1510710Y21424197D01*
X-1506635Y21768585D01*
X-1505528Y22195333D01*
X-1505528Y22208836D01*
X-1506257Y22638853D01*
X-1509591Y22986036D01*
X-1517245Y23259914D01*
X-1530939Y23470012D01*
X-1552389Y23625857D01*
X-1583312Y23736975D01*
X-1625426Y23812894D01*
X-1680449Y23863140D01*
X-1750097Y23897239D01*
X-1813676Y23918160D01*
X-1977788Y23948617D01*
X-2160635Y23957510D01*
X-2198255Y23955722D01*
X-2406073Y23940655D01*
X-2430275Y20453927D01*
X-3120036Y20453927D01*
X-3098800Y24448655D01*
X-2313709Y24447847D01*
G36*
X699654Y24461007D02*
G01*
X1842654Y24448655D01*
X1842654Y23940655D01*
X1461654Y23927241D01*
X1080654Y23913828D01*
X1080654Y19945927D01*
X342737Y19945927D01*
X330695Y21920200D01*
X318654Y23894473D01*
X-443346Y23921299D01*
X-443346Y24473358D01*
X699654Y24461007D01*
X699654Y24461007D01*
G37*
X699654Y24461007D02*
X1842654Y24448655D01*
X1842654Y23940655D01*
X1461654Y23927241D01*
X1080654Y23913828D01*
X1080654Y19945927D01*
X342737Y19945927D01*
X330695Y21920200D01*
X318654Y23894473D01*
X-443346Y23921299D01*
X-443346Y24473358D01*
X699654Y24461007D01*
D11*
X78236400Y35084936D02*
X78236400Y36289064D01*
X80056400Y35084936D02*
X80056400Y36289064D01*
X51566800Y21050720D02*
X51991800Y21050720D01*
X51991800Y21050720D02*
X51991800Y21225720D01*
X38196800Y21050720D02*
X37771800Y21050720D01*
X37771800Y21050720D02*
X37771800Y21225720D01*
X51566800Y41270720D02*
X51991800Y41270720D01*
X51991800Y41270720D02*
X51991800Y41095720D01*
X38196800Y41270720D02*
X37771800Y41270720D01*
X37771800Y41270720D02*
X37771800Y41095720D01*
X51991800Y21225720D02*
X53881800Y21225720D01*
X-592000Y51806400D02*
X-592000Y52306400D01*
X-592000Y52306400D02*
X-92000Y52306400D01*
X-92000Y52306400D02*
X-92000Y52306400D01*
X1108000Y52306400D02*
X1608000Y52306400D01*
X1608000Y52306400D02*
X1608000Y51806400D01*
X1608000Y51806400D02*
X1608000Y51806400D01*
X1608000Y50606400D02*
X1608000Y50106400D01*
X1608000Y50106400D02*
X1108000Y50106400D01*
X1108000Y50106400D02*
X1108000Y50106400D01*
X-592000Y50606400D02*
X-592000Y50106400D01*
X-592000Y50106400D02*
X-592000Y50106400D01*
X48608064Y15854000D02*
X47403936Y15854000D01*
X48608064Y17674000D02*
X47403936Y17674000D01*
X57552000Y39210064D02*
X57552000Y38005936D01*
X55732000Y39210064D02*
X55732000Y38005936D01*
X42512064Y15142800D02*
X41307936Y15142800D01*
X42512064Y16962800D02*
X41307936Y16962800D01*
X32364000Y28099936D02*
X32364000Y29304064D01*
X34184000Y28099936D02*
X34184000Y29304064D01*
X32364000Y39464064D02*
X32364000Y38259936D01*
X34184000Y39464064D02*
X34184000Y38259936D01*
X78149200Y2280600D02*
G75*
G03X78149200Y2280600I-3270000J0D01*
G01*
X78109200Y2280600D02*
X71649200Y2280600D01*
X78109200Y2240600D02*
X71649200Y2240600D01*
X78109200Y2200600D02*
X71649200Y2200600D01*
X78107200Y2160600D02*
X71651200Y2160600D01*
X78106200Y2120600D02*
X71652200Y2120600D01*
X78103200Y2080600D02*
X71655200Y2080600D01*
X78101200Y2040600D02*
X75919200Y2040600D01*
X73839200Y2040600D02*
X71657200Y2040600D01*
X78097200Y2000600D02*
X75919200Y2000600D01*
X73839200Y2000600D02*
X71661200Y2000600D01*
X78094200Y1960600D02*
X75919200Y1960600D01*
X73839200Y1960600D02*
X71664200Y1960600D01*
X78090200Y1920600D02*
X75919200Y1920600D01*
X73839200Y1920600D02*
X71668200Y1920600D01*
X78085200Y1880600D02*
X75919200Y1880600D01*
X73839200Y1880600D02*
X71673200Y1880600D01*
X78080200Y1840600D02*
X75919200Y1840600D01*
X73839200Y1840600D02*
X71678200Y1840600D01*
X78074200Y1800600D02*
X75919200Y1800600D01*
X73839200Y1800600D02*
X71684200Y1800600D01*
X78068200Y1760600D02*
X75919200Y1760600D01*
X73839200Y1760600D02*
X71690200Y1760600D01*
X78061200Y1720600D02*
X75919200Y1720600D01*
X73839200Y1720600D02*
X71697200Y1720600D01*
X78054200Y1680600D02*
X75919200Y1680600D01*
X73839200Y1680600D02*
X71704200Y1680600D01*
X78046200Y1640600D02*
X75919200Y1640600D01*
X73839200Y1640600D02*
X71712200Y1640600D01*
X78038200Y1600600D02*
X75919200Y1600600D01*
X73839200Y1600600D02*
X71720200Y1600600D01*
X78029200Y1559600D02*
X75919200Y1559600D01*
X73839200Y1559600D02*
X71729200Y1559600D01*
X78020200Y1519600D02*
X75919200Y1519600D01*
X73839200Y1519600D02*
X71738200Y1519600D01*
X78010200Y1479600D02*
X75919200Y1479600D01*
X73839200Y1479600D02*
X71748200Y1479600D01*
X78000200Y1439600D02*
X75919200Y1439600D01*
X73839200Y1439600D02*
X71758200Y1439600D01*
X77989200Y1399600D02*
X75919200Y1399600D01*
X73839200Y1399600D02*
X71769200Y1399600D01*
X77977200Y1359600D02*
X75919200Y1359600D01*
X73839200Y1359600D02*
X71781200Y1359600D01*
X77965200Y1319600D02*
X75919200Y1319600D01*
X73839200Y1319600D02*
X71793200Y1319600D01*
X77953200Y1279600D02*
X75919200Y1279600D01*
X73839200Y1279600D02*
X71805200Y1279600D01*
X77940200Y1239600D02*
X75919200Y1239600D01*
X73839200Y1239600D02*
X71818200Y1239600D01*
X77926200Y1199600D02*
X75919200Y1199600D01*
X73839200Y1199600D02*
X71832200Y1199600D01*
X77912200Y1159600D02*
X75919200Y1159600D01*
X73839200Y1159600D02*
X71846200Y1159600D01*
X77897200Y1119600D02*
X75919200Y1119600D01*
X73839200Y1119600D02*
X71861200Y1119600D01*
X77881200Y1079600D02*
X75919200Y1079600D01*
X73839200Y1079600D02*
X71877200Y1079600D01*
X77865200Y1039600D02*
X75919200Y1039600D01*
X73839200Y1039600D02*
X71893200Y1039600D01*
X77849200Y999600D02*
X75919200Y999600D01*
X73839200Y999600D02*
X71909200Y999600D01*
X77831200Y959600D02*
X75919200Y959600D01*
X73839200Y959600D02*
X71927200Y959600D01*
X77813200Y919600D02*
X75919200Y919600D01*
X73839200Y919600D02*
X71945200Y919600D01*
X77795200Y879600D02*
X75919200Y879600D01*
X73839200Y879600D02*
X71963200Y879600D01*
X77775200Y839600D02*
X75919200Y839600D01*
X73839200Y839600D02*
X71983200Y839600D01*
X77755200Y799600D02*
X75919200Y799600D01*
X73839200Y799600D02*
X72003200Y799600D01*
X77735200Y759600D02*
X75919200Y759600D01*
X73839200Y759600D02*
X72023200Y759600D01*
X77713200Y719600D02*
X75919200Y719600D01*
X73839200Y719600D02*
X72045200Y719600D01*
X77691200Y679600D02*
X75919200Y679600D01*
X73839200Y679600D02*
X72067200Y679600D01*
X77669200Y639600D02*
X75919200Y639600D01*
X73839200Y639600D02*
X72089200Y639600D01*
X77645200Y599600D02*
X75919200Y599600D01*
X73839200Y599600D02*
X72113200Y599600D01*
X77621200Y559600D02*
X75919200Y559600D01*
X73839200Y559600D02*
X72137200Y559600D01*
X77595200Y519600D02*
X75919200Y519600D01*
X73839200Y519600D02*
X72163200Y519600D01*
X77569200Y479600D02*
X75919200Y479600D01*
X73839200Y479600D02*
X72189200Y479600D01*
X77543200Y439600D02*
X75919200Y439600D01*
X73839200Y439600D02*
X72215200Y439600D01*
X77515200Y399600D02*
X75919200Y399600D01*
X73839200Y399600D02*
X72243200Y399600D01*
X77486200Y359600D02*
X75919200Y359600D01*
X73839200Y359600D02*
X72272200Y359600D01*
X77457200Y319600D02*
X75919200Y319600D01*
X73839200Y319600D02*
X72301200Y319600D01*
X77427200Y279600D02*
X75919200Y279600D01*
X73839200Y279600D02*
X72331200Y279600D01*
X77395200Y239600D02*
X75919200Y239600D01*
X73839200Y239600D02*
X72363200Y239600D01*
X77363200Y199600D02*
X75919200Y199600D01*
X73839200Y199600D02*
X72395200Y199600D01*
X77329200Y159600D02*
X75919200Y159600D01*
X73839200Y159600D02*
X72429200Y159600D01*
X77295200Y119600D02*
X75919200Y119600D01*
X73839200Y119600D02*
X72463200Y119600D01*
X77259200Y79600D02*
X75919200Y79600D01*
X73839200Y79600D02*
X72499200Y79600D01*
X77222200Y39600D02*
X75919200Y39600D01*
X73839200Y39600D02*
X72536200Y39600D01*
X77184200Y-400D02*
X75919200Y-400D01*
X73839200Y-400D02*
X72574200Y-400D01*
X77144200Y-40400D02*
X72614200Y-40400D01*
X77103200Y-80400D02*
X72655200Y-80400D01*
X77061200Y-120400D02*
X72697200Y-120400D01*
X77016200Y-160400D02*
X72742200Y-160400D01*
X76971200Y-200400D02*
X72787200Y-200400D01*
X76923200Y-240400D02*
X72835200Y-240400D01*
X76874200Y-280400D02*
X72884200Y-280400D01*
X76823200Y-320400D02*
X72935200Y-320400D01*
X76769200Y-360400D02*
X72989200Y-360400D01*
X76713200Y-400400D02*
X73045200Y-400400D01*
X76655200Y-440400D02*
X73103200Y-440400D01*
X76593200Y-480400D02*
X73165200Y-480400D01*
X76529200Y-520400D02*
X73229200Y-520400D01*
X76460200Y-560400D02*
X73298200Y-560400D01*
X76388200Y-600400D02*
X73370200Y-600400D01*
X76311200Y-640400D02*
X73447200Y-640400D01*
X76229200Y-680400D02*
X73529200Y-680400D01*
X76141200Y-720400D02*
X73617200Y-720400D01*
X76044200Y-760400D02*
X73714200Y-760400D01*
X75938200Y-800400D02*
X73820200Y-800400D01*
X75819200Y-840400D02*
X73939200Y-840400D01*
X75681200Y-880400D02*
X74077200Y-880400D01*
X75512200Y-920400D02*
X74246200Y-920400D01*
X75281200Y-960400D02*
X74477200Y-960400D01*
X76718200Y5780841D02*
X76718200Y5150841D01*
X77033200Y5465841D02*
X76403200Y5465841D01*
X84383200Y51325864D02*
X84383200Y50121736D01*
X86203200Y51325864D02*
X86203200Y50121736D01*
X57552000Y27845936D02*
X57552000Y29050064D01*
X55732000Y27845936D02*
X55732000Y29050064D01*
X55732000Y22765936D02*
X55732000Y23970064D01*
X57552000Y22765936D02*
X57552000Y23970064D01*
X72309400Y51224264D02*
X72309400Y50020136D01*
X70489400Y51224264D02*
X70489400Y50020136D01*
X80198560Y-461680D02*
X81398560Y-461680D01*
X84718560Y-461680D02*
X83518560Y-461680D01*
X84718560Y2993883D02*
X84718560Y-461680D01*
X80198560Y2993883D02*
X80198560Y-461680D01*
X81262997Y4058320D02*
X81398560Y4058320D01*
X83654123Y4058320D02*
X83518560Y4058320D01*
X83654123Y4058320D02*
X84718560Y2993883D01*
X81262997Y4058320D02*
X80198560Y2993883D01*
X84018560Y4798320D02*
X84018560Y4298320D01*
X84268560Y4548320D02*
X83768560Y4548320D01*
X34184000Y33179936D02*
X34184000Y34384064D01*
X32364000Y33179936D02*
X32364000Y34384064D01*
X41307936Y46376000D02*
X42512064Y46376000D01*
X41307936Y44556000D02*
X42512064Y44556000D01*
X47149936Y46376000D02*
X48354064Y46376000D01*
X47149936Y44556000D02*
X48354064Y44556000D01*
X83378720Y7617376D02*
X83378720Y8821504D01*
X81558720Y7617376D02*
X81558720Y8821504D01*
X34184000Y23019936D02*
X34184000Y24224064D01*
X32364000Y23019936D02*
X32364000Y24224064D01*
X207600Y54871536D02*
X207600Y56075664D01*
X2027600Y54871536D02*
X2027600Y56075664D01*
X57552000Y32925936D02*
X57552000Y34130064D01*
X55732000Y32925936D02*
X55732000Y34130064D01*
X-2078400Y54871536D02*
X-2078400Y56075664D01*
X-258400Y54871536D02*
X-258400Y56075664D01*
X424264Y49093800D02*
X-779864Y49093800D01*
X424264Y47273800D02*
X-779864Y47273800D01*
X93552600Y45852164D02*
X93552600Y44648036D01*
X95372600Y45852164D02*
X95372600Y44648036D01*
X89514000Y5682064D02*
X89514000Y4477936D01*
X91334000Y5682064D02*
X91334000Y4477936D01*
X4491400Y51747336D02*
X4491400Y52951464D01*
X2671400Y51747336D02*
X2671400Y52951464D01*
X83951841Y13863240D02*
X83951841Y14493240D01*
X84266841Y14178240D02*
X83636841Y14178240D01*
X77525600Y15615240D02*
X77525600Y16419240D01*
X77565600Y15384240D02*
X77565600Y16650240D01*
X77605600Y15215240D02*
X77605600Y16819240D01*
X77645600Y15077240D02*
X77645600Y16957240D01*
X77685600Y14958240D02*
X77685600Y17076240D01*
X77725600Y14852240D02*
X77725600Y17182240D01*
X77765600Y14755240D02*
X77765600Y17279240D01*
X77805600Y14667240D02*
X77805600Y17367240D01*
X77845600Y14585240D02*
X77845600Y17449240D01*
X77885600Y14508240D02*
X77885600Y17526240D01*
X77925600Y14436240D02*
X77925600Y17598240D01*
X77965600Y14367240D02*
X77965600Y17667240D01*
X78005600Y14303240D02*
X78005600Y17731240D01*
X78045600Y14241240D02*
X78045600Y17793240D01*
X78085600Y14183240D02*
X78085600Y17851240D01*
X78125600Y14127240D02*
X78125600Y17907240D01*
X78165600Y14073240D02*
X78165600Y17961240D01*
X78205600Y14022240D02*
X78205600Y18012240D01*
X78245600Y13973240D02*
X78245600Y18061240D01*
X78285600Y13925240D02*
X78285600Y18109240D01*
X78325600Y13880240D02*
X78325600Y18154240D01*
X78365600Y13835240D02*
X78365600Y18199240D01*
X78405600Y13793240D02*
X78405600Y18241240D01*
X78445600Y13752240D02*
X78445600Y18282240D01*
X78485600Y17057240D02*
X78485600Y18322240D01*
X78485600Y13712240D02*
X78485600Y14977240D01*
X78525600Y17057240D02*
X78525600Y18360240D01*
X78525600Y13674240D02*
X78525600Y14977240D01*
X78565600Y17057240D02*
X78565600Y18397240D01*
X78565600Y13637240D02*
X78565600Y14977240D01*
X78605600Y17057240D02*
X78605600Y18433240D01*
X78605600Y13601240D02*
X78605600Y14977240D01*
X78645600Y17057240D02*
X78645600Y18467240D01*
X78645600Y13567240D02*
X78645600Y14977240D01*
X78685600Y17057240D02*
X78685600Y18501240D01*
X78685600Y13533240D02*
X78685600Y14977240D01*
X78725600Y17057240D02*
X78725600Y18533240D01*
X78725600Y13501240D02*
X78725600Y14977240D01*
X78765600Y17057240D02*
X78765600Y18565240D01*
X78765600Y13469240D02*
X78765600Y14977240D01*
X78805600Y17057240D02*
X78805600Y18595240D01*
X78805600Y13439240D02*
X78805600Y14977240D01*
X78845600Y17057240D02*
X78845600Y18624240D01*
X78845600Y13410240D02*
X78845600Y14977240D01*
X78885600Y17057240D02*
X78885600Y18653240D01*
X78885600Y13381240D02*
X78885600Y14977240D01*
X78925600Y17057240D02*
X78925600Y18681240D01*
X78925600Y13353240D02*
X78925600Y14977240D01*
X78965600Y17057240D02*
X78965600Y18707240D01*
X78965600Y13327240D02*
X78965600Y14977240D01*
X79005600Y17057240D02*
X79005600Y18733240D01*
X79005600Y13301240D02*
X79005600Y14977240D01*
X79045600Y17057240D02*
X79045600Y18759240D01*
X79045600Y13275240D02*
X79045600Y14977240D01*
X79085600Y17057240D02*
X79085600Y18783240D01*
X79085600Y13251240D02*
X79085600Y14977240D01*
X79125600Y17057240D02*
X79125600Y18807240D01*
X79125600Y13227240D02*
X79125600Y14977240D01*
X79165600Y17057240D02*
X79165600Y18829240D01*
X79165600Y13205240D02*
X79165600Y14977240D01*
X79205600Y17057240D02*
X79205600Y18851240D01*
X79205600Y13183240D02*
X79205600Y14977240D01*
X79245600Y17057240D02*
X79245600Y18873240D01*
X79245600Y13161240D02*
X79245600Y14977240D01*
X79285600Y17057240D02*
X79285600Y18893240D01*
X79285600Y13141240D02*
X79285600Y14977240D01*
X79325600Y17057240D02*
X79325600Y18913240D01*
X79325600Y13121240D02*
X79325600Y14977240D01*
X79365600Y17057240D02*
X79365600Y18933240D01*
X79365600Y13101240D02*
X79365600Y14977240D01*
X79405600Y17057240D02*
X79405600Y18951240D01*
X79405600Y13083240D02*
X79405600Y14977240D01*
X79445600Y17057240D02*
X79445600Y18969240D01*
X79445600Y13065240D02*
X79445600Y14977240D01*
X79485600Y17057240D02*
X79485600Y18987240D01*
X79485600Y13047240D02*
X79485600Y14977240D01*
X79525600Y17057240D02*
X79525600Y19003240D01*
X79525600Y13031240D02*
X79525600Y14977240D01*
X79565600Y17057240D02*
X79565600Y19019240D01*
X79565600Y13015240D02*
X79565600Y14977240D01*
X79605600Y17057240D02*
X79605600Y19035240D01*
X79605600Y12999240D02*
X79605600Y14977240D01*
X79645600Y17057240D02*
X79645600Y19050240D01*
X79645600Y12984240D02*
X79645600Y14977240D01*
X79685600Y17057240D02*
X79685600Y19064240D01*
X79685600Y12970240D02*
X79685600Y14977240D01*
X79725600Y17057240D02*
X79725600Y19078240D01*
X79725600Y12956240D02*
X79725600Y14977240D01*
X79765600Y17057240D02*
X79765600Y19091240D01*
X79765600Y12943240D02*
X79765600Y14977240D01*
X79805600Y17057240D02*
X79805600Y19103240D01*
X79805600Y12931240D02*
X79805600Y14977240D01*
X79845600Y17057240D02*
X79845600Y19115240D01*
X79845600Y12919240D02*
X79845600Y14977240D01*
X79885600Y17057240D02*
X79885600Y19127240D01*
X79885600Y12907240D02*
X79885600Y14977240D01*
X79925600Y17057240D02*
X79925600Y19138240D01*
X79925600Y12896240D02*
X79925600Y14977240D01*
X79965600Y17057240D02*
X79965600Y19148240D01*
X79965600Y12886240D02*
X79965600Y14977240D01*
X80005600Y17057240D02*
X80005600Y19158240D01*
X80005600Y12876240D02*
X80005600Y14977240D01*
X80045600Y17057240D02*
X80045600Y19167240D01*
X80045600Y12867240D02*
X80045600Y14977240D01*
X80086600Y17057240D02*
X80086600Y19176240D01*
X80086600Y12858240D02*
X80086600Y14977240D01*
X80126600Y17057240D02*
X80126600Y19184240D01*
X80126600Y12850240D02*
X80126600Y14977240D01*
X80166600Y17057240D02*
X80166600Y19192240D01*
X80166600Y12842240D02*
X80166600Y14977240D01*
X80206600Y17057240D02*
X80206600Y19199240D01*
X80206600Y12835240D02*
X80206600Y14977240D01*
X80246600Y17057240D02*
X80246600Y19206240D01*
X80246600Y12828240D02*
X80246600Y14977240D01*
X80286600Y17057240D02*
X80286600Y19212240D01*
X80286600Y12822240D02*
X80286600Y14977240D01*
X80326600Y17057240D02*
X80326600Y19218240D01*
X80326600Y12816240D02*
X80326600Y14977240D01*
X80366600Y17057240D02*
X80366600Y19223240D01*
X80366600Y12811240D02*
X80366600Y14977240D01*
X80406600Y17057240D02*
X80406600Y19228240D01*
X80406600Y12806240D02*
X80406600Y14977240D01*
X80446600Y17057240D02*
X80446600Y19232240D01*
X80446600Y12802240D02*
X80446600Y14977240D01*
X80486600Y17057240D02*
X80486600Y19235240D01*
X80486600Y12799240D02*
X80486600Y14977240D01*
X80526600Y17057240D02*
X80526600Y19239240D01*
X80526600Y12795240D02*
X80526600Y14977240D01*
X80566600Y12793240D02*
X80566600Y19241240D01*
X80606600Y12790240D02*
X80606600Y19244240D01*
X80646600Y12789240D02*
X80646600Y19245240D01*
X80686600Y12787240D02*
X80686600Y19247240D01*
X80726600Y12787240D02*
X80726600Y19247240D01*
X80766600Y12787240D02*
X80766600Y19247240D01*
X84036600Y16017240D02*
G75*
G03X84036600Y16017240I-3270000J0D01*
G01*
X76675680Y15930880D02*
G75*
G03X76675680Y15930880I-3270000J0D01*
G01*
X73405680Y12700880D02*
X73405680Y19160880D01*
X73365680Y12700880D02*
X73365680Y19160880D01*
X73325680Y12700880D02*
X73325680Y19160880D01*
X73285680Y12702880D02*
X73285680Y19158880D01*
X73245680Y12703880D02*
X73245680Y19157880D01*
X73205680Y12706880D02*
X73205680Y19154880D01*
X73165680Y12708880D02*
X73165680Y14890880D01*
X73165680Y16970880D02*
X73165680Y19152880D01*
X73125680Y12712880D02*
X73125680Y14890880D01*
X73125680Y16970880D02*
X73125680Y19148880D01*
X73085680Y12715880D02*
X73085680Y14890880D01*
X73085680Y16970880D02*
X73085680Y19145880D01*
X73045680Y12719880D02*
X73045680Y14890880D01*
X73045680Y16970880D02*
X73045680Y19141880D01*
X73005680Y12724880D02*
X73005680Y14890880D01*
X73005680Y16970880D02*
X73005680Y19136880D01*
X72965680Y12729880D02*
X72965680Y14890880D01*
X72965680Y16970880D02*
X72965680Y19131880D01*
X72925680Y12735880D02*
X72925680Y14890880D01*
X72925680Y16970880D02*
X72925680Y19125880D01*
X72885680Y12741880D02*
X72885680Y14890880D01*
X72885680Y16970880D02*
X72885680Y19119880D01*
X72845680Y12748880D02*
X72845680Y14890880D01*
X72845680Y16970880D02*
X72845680Y19112880D01*
X72805680Y12755880D02*
X72805680Y14890880D01*
X72805680Y16970880D02*
X72805680Y19105880D01*
X72765680Y12763880D02*
X72765680Y14890880D01*
X72765680Y16970880D02*
X72765680Y19097880D01*
X72725680Y12771880D02*
X72725680Y14890880D01*
X72725680Y16970880D02*
X72725680Y19089880D01*
X72684680Y12780880D02*
X72684680Y14890880D01*
X72684680Y16970880D02*
X72684680Y19080880D01*
X72644680Y12789880D02*
X72644680Y14890880D01*
X72644680Y16970880D02*
X72644680Y19071880D01*
X72604680Y12799880D02*
X72604680Y14890880D01*
X72604680Y16970880D02*
X72604680Y19061880D01*
X72564680Y12809880D02*
X72564680Y14890880D01*
X72564680Y16970880D02*
X72564680Y19051880D01*
X72524680Y12820880D02*
X72524680Y14890880D01*
X72524680Y16970880D02*
X72524680Y19040880D01*
X72484680Y12832880D02*
X72484680Y14890880D01*
X72484680Y16970880D02*
X72484680Y19028880D01*
X72444680Y12844880D02*
X72444680Y14890880D01*
X72444680Y16970880D02*
X72444680Y19016880D01*
X72404680Y12856880D02*
X72404680Y14890880D01*
X72404680Y16970880D02*
X72404680Y19004880D01*
X72364680Y12869880D02*
X72364680Y14890880D01*
X72364680Y16970880D02*
X72364680Y18991880D01*
X72324680Y12883880D02*
X72324680Y14890880D01*
X72324680Y16970880D02*
X72324680Y18977880D01*
X72284680Y12897880D02*
X72284680Y14890880D01*
X72284680Y16970880D02*
X72284680Y18963880D01*
X72244680Y12912880D02*
X72244680Y14890880D01*
X72244680Y16970880D02*
X72244680Y18948880D01*
X72204680Y12928880D02*
X72204680Y14890880D01*
X72204680Y16970880D02*
X72204680Y18932880D01*
X72164680Y12944880D02*
X72164680Y14890880D01*
X72164680Y16970880D02*
X72164680Y18916880D01*
X72124680Y12960880D02*
X72124680Y14890880D01*
X72124680Y16970880D02*
X72124680Y18900880D01*
X72084680Y12978880D02*
X72084680Y14890880D01*
X72084680Y16970880D02*
X72084680Y18882880D01*
X72044680Y12996880D02*
X72044680Y14890880D01*
X72044680Y16970880D02*
X72044680Y18864880D01*
X72004680Y13014880D02*
X72004680Y14890880D01*
X72004680Y16970880D02*
X72004680Y18846880D01*
X71964680Y13034880D02*
X71964680Y14890880D01*
X71964680Y16970880D02*
X71964680Y18826880D01*
X71924680Y13054880D02*
X71924680Y14890880D01*
X71924680Y16970880D02*
X71924680Y18806880D01*
X71884680Y13074880D02*
X71884680Y14890880D01*
X71884680Y16970880D02*
X71884680Y18786880D01*
X71844680Y13096880D02*
X71844680Y14890880D01*
X71844680Y16970880D02*
X71844680Y18764880D01*
X71804680Y13118880D02*
X71804680Y14890880D01*
X71804680Y16970880D02*
X71804680Y18742880D01*
X71764680Y13140880D02*
X71764680Y14890880D01*
X71764680Y16970880D02*
X71764680Y18720880D01*
X71724680Y13164880D02*
X71724680Y14890880D01*
X71724680Y16970880D02*
X71724680Y18696880D01*
X71684680Y13188880D02*
X71684680Y14890880D01*
X71684680Y16970880D02*
X71684680Y18672880D01*
X71644680Y13214880D02*
X71644680Y14890880D01*
X71644680Y16970880D02*
X71644680Y18646880D01*
X71604680Y13240880D02*
X71604680Y14890880D01*
X71604680Y16970880D02*
X71604680Y18620880D01*
X71564680Y13266880D02*
X71564680Y14890880D01*
X71564680Y16970880D02*
X71564680Y18594880D01*
X71524680Y13294880D02*
X71524680Y14890880D01*
X71524680Y16970880D02*
X71524680Y18566880D01*
X71484680Y13323880D02*
X71484680Y14890880D01*
X71484680Y16970880D02*
X71484680Y18537880D01*
X71444680Y13352880D02*
X71444680Y14890880D01*
X71444680Y16970880D02*
X71444680Y18508880D01*
X71404680Y13382880D02*
X71404680Y14890880D01*
X71404680Y16970880D02*
X71404680Y18478880D01*
X71364680Y13414880D02*
X71364680Y14890880D01*
X71364680Y16970880D02*
X71364680Y18446880D01*
X71324680Y13446880D02*
X71324680Y14890880D01*
X71324680Y16970880D02*
X71324680Y18414880D01*
X71284680Y13480880D02*
X71284680Y14890880D01*
X71284680Y16970880D02*
X71284680Y18380880D01*
X71244680Y13514880D02*
X71244680Y14890880D01*
X71244680Y16970880D02*
X71244680Y18346880D01*
X71204680Y13550880D02*
X71204680Y14890880D01*
X71204680Y16970880D02*
X71204680Y18310880D01*
X71164680Y13587880D02*
X71164680Y14890880D01*
X71164680Y16970880D02*
X71164680Y18273880D01*
X71124680Y13625880D02*
X71124680Y14890880D01*
X71124680Y16970880D02*
X71124680Y18235880D01*
X71084680Y13665880D02*
X71084680Y18195880D01*
X71044680Y13706880D02*
X71044680Y18154880D01*
X71004680Y13748880D02*
X71004680Y18112880D01*
X70964680Y13793880D02*
X70964680Y18067880D01*
X70924680Y13838880D02*
X70924680Y18022880D01*
X70884680Y13886880D02*
X70884680Y17974880D01*
X70844680Y13935880D02*
X70844680Y17925880D01*
X70804680Y13986880D02*
X70804680Y17874880D01*
X70764680Y14040880D02*
X70764680Y17820880D01*
X70724680Y14096880D02*
X70724680Y17764880D01*
X70684680Y14154880D02*
X70684680Y17706880D01*
X70644680Y14216880D02*
X70644680Y17644880D01*
X70604680Y14280880D02*
X70604680Y17580880D01*
X70564680Y14349880D02*
X70564680Y17511880D01*
X70524680Y14421880D02*
X70524680Y17439880D01*
X70484680Y14498880D02*
X70484680Y17362880D01*
X70444680Y14580880D02*
X70444680Y17280880D01*
X70404680Y14668880D02*
X70404680Y17192880D01*
X70364680Y14765880D02*
X70364680Y17095880D01*
X70324680Y14871880D02*
X70324680Y16989880D01*
X70284680Y14990880D02*
X70284680Y16870880D01*
X70244680Y15128880D02*
X70244680Y16732880D01*
X70204680Y15297880D02*
X70204680Y16563880D01*
X70164680Y15528880D02*
X70164680Y16332880D01*
X76905921Y14091880D02*
X76275921Y14091880D01*
X76590921Y13776880D02*
X76590921Y14406880D01*
X74008064Y20934000D02*
X72803936Y20934000D01*
X74008064Y22754000D02*
X72803936Y22754000D01*
X81374064Y22754000D02*
X80169936Y22754000D01*
X81374064Y20934000D02*
X80169936Y20934000D01*
X75696400Y39606136D02*
X75696400Y40810264D01*
X77516400Y39606136D02*
X77516400Y40810264D01*
X67886664Y37863100D02*
X66682536Y37863100D01*
X67886664Y39683100D02*
X66682536Y39683100D01*
X75103400Y39606136D02*
X75103400Y40810264D01*
X73283400Y39606136D02*
X73283400Y40810264D01*
X67378664Y30433600D02*
X66174536Y30433600D01*
X67378664Y32253600D02*
X66174536Y32253600D01*
X80954200Y34536464D02*
X80954200Y33332336D01*
X82774200Y34536464D02*
X82774200Y33332336D01*
X12082864Y32338600D02*
X10878736Y32338600D01*
X12082864Y34158600D02*
X10878736Y34158600D01*
X12082864Y31618600D02*
X10878736Y31618600D01*
X12082864Y29798600D02*
X10878736Y29798600D01*
X26792600Y29852536D02*
X26792600Y31056664D01*
X24972600Y29852536D02*
X24972600Y31056664D01*
X17848664Y37545600D02*
X16644536Y37545600D01*
X17848664Y39365600D02*
X16644536Y39365600D01*
X93657800Y62150000D02*
X93657800Y58090000D01*
X95927800Y62150000D02*
X93657800Y62150000D01*
X95927800Y58090000D02*
X95927800Y62150000D01*
X91508200Y58090000D02*
X91508200Y62150000D01*
X91508200Y62150000D02*
X89238200Y62150000D01*
X89238200Y62150000D02*
X89238200Y58090000D01*
X19456200Y18597500D02*
X15396200Y18597500D01*
X15396200Y18597500D02*
X15396200Y16327500D01*
X15396200Y16327500D02*
X19456200Y16327500D01*
X15396200Y20645500D02*
X19456200Y20645500D01*
X15396200Y22915500D02*
X15396200Y20645500D01*
X19456200Y22915500D02*
X15396200Y22915500D01*
X10878736Y26614800D02*
X12082864Y26614800D01*
X10878736Y24794800D02*
X12082864Y24794800D01*
X67480000Y53920000D02*
X67480000Y56580000D01*
X49640000Y53920000D02*
X67480000Y53920000D01*
X49640000Y56580000D02*
X67480000Y56580000D01*
X49640000Y53920000D02*
X49640000Y56580000D01*
X48370000Y53920000D02*
X47040000Y53920000D01*
X47040000Y53920000D02*
X47040000Y55250000D01*
X67480000Y5660000D02*
X67480000Y8320000D01*
X54720000Y5660000D02*
X67480000Y5660000D01*
X54720000Y8320000D02*
X67480000Y8320000D01*
X54720000Y5660000D02*
X54720000Y8320000D01*
X53450000Y5660000D02*
X52120000Y5660000D01*
X52120000Y5660000D02*
X52120000Y6990000D01*
X45640000Y53920000D02*
X45640000Y56580000D01*
X22720000Y53920000D02*
X45640000Y53920000D01*
X22720000Y56580000D02*
X45640000Y56580000D01*
X22720000Y53920000D02*
X22720000Y56580000D01*
X21450000Y53920000D02*
X20120000Y53920000D01*
X20120000Y53920000D02*
X20120000Y55250000D01*
X29260000Y5660000D02*
X29260000Y6990000D01*
X30590000Y5660000D02*
X29260000Y5660000D01*
X31860000Y5660000D02*
X31860000Y8320000D01*
X31860000Y8320000D02*
X49700000Y8320000D01*
X31860000Y5660000D02*
X49700000Y5660000D01*
X49700000Y5660000D02*
X49700000Y8320000D01*
X9376100Y53311100D02*
X10706100Y53311100D01*
X9376100Y51981100D02*
X9376100Y53311100D01*
X9376100Y50711100D02*
X12036100Y50711100D01*
X12036100Y50711100D02*
X12036100Y50651100D01*
X9376100Y50711100D02*
X9376100Y50651100D01*
X9376100Y50651100D02*
X12036100Y50651100D01*
X73516800Y24679600D02*
X73516800Y27339600D01*
X65836800Y24679600D02*
X73516800Y24679600D01*
X65836800Y27339600D02*
X73516800Y27339600D01*
X65836800Y24679600D02*
X65836800Y27339600D01*
X64566800Y24679600D02*
X63236800Y24679600D01*
X63236800Y24679600D02*
X63236800Y26009600D01*
X74514400Y24679600D02*
X77174400Y24679600D01*
X74514400Y24739600D02*
X74514400Y24679600D01*
X77174400Y24739600D02*
X77174400Y24679600D01*
X74514400Y24739600D02*
X77174400Y24739600D01*
X74514400Y26009600D02*
X74514400Y27339600D01*
X74514400Y27339600D02*
X75844400Y27339600D01*
X19170000Y60010000D02*
X19170000Y61340000D01*
X20500000Y60010000D02*
X19170000Y60010000D01*
X19170000Y62610000D02*
X19170000Y65210000D01*
X21770000Y62610000D02*
X19170000Y62610000D01*
X21770000Y60010000D02*
X21770000Y62610000D01*
X19170000Y65210000D02*
X70090000Y65210000D01*
X21770000Y60010000D02*
X70090000Y60010000D01*
X70090000Y60010000D02*
X70090000Y65210000D01*
X19170000Y1330000D02*
X19170000Y-3870000D01*
X67490000Y1330000D02*
X19170000Y1330000D01*
X70090000Y-3870000D02*
X19170000Y-3870000D01*
X67490000Y1330000D02*
X67490000Y-1270000D01*
X67490000Y-1270000D02*
X70090000Y-1270000D01*
X70090000Y-1270000D02*
X70090000Y-3870000D01*
X68760000Y1330000D02*
X70090000Y1330000D01*
X70090000Y1330000D02*
X70090000Y0D01*
D13*
X3214000Y33933520D02*
X-3736000Y33933520D01*
X3214000Y24933520D02*
X3214000Y33933520D01*
X-3736000Y24933520D02*
X3214000Y24933520D01*
X-3736000Y33933520D02*
X-3736000Y24933520D01*
D11*
X10878736Y29154800D02*
X12082864Y29154800D01*
X10878736Y27334800D02*
X12082864Y27334800D01*
X20426000Y49943936D02*
X20426000Y51148064D01*
X22246000Y49943936D02*
X22246000Y51148064D01*
X24786000Y49943936D02*
X24786000Y51148064D01*
X22966000Y49943936D02*
X22966000Y51148064D01*
X95702800Y55186664D02*
X95702800Y53982536D01*
X93882800Y55186664D02*
X93882800Y53982536D01*
X89463200Y55186664D02*
X89463200Y53982536D01*
X91283200Y55186664D02*
X91283200Y53982536D01*
X74824000Y51224264D02*
X74824000Y50020136D01*
X73004000Y51224264D02*
X73004000Y50020136D01*
X81868600Y51325864D02*
X81868600Y50121736D01*
X83688600Y51325864D02*
X83688600Y50121736D01*
X76167064Y31745600D02*
X74962936Y31745600D01*
X76167064Y29925600D02*
X74962936Y29925600D01*
X22588136Y18372500D02*
X23792264Y18372500D01*
X22588136Y16552500D02*
X23792264Y16552500D01*
X22588136Y20870500D02*
X23792264Y20870500D01*
X22588136Y22690500D02*
X23792264Y22690500D01*
X23817664Y39895100D02*
X22613536Y39895100D01*
X23817664Y41715100D02*
X22613536Y41715100D01*
X23817664Y37545600D02*
X22613536Y37545600D01*
X23817664Y39365600D02*
X22613536Y39365600D01*
X7830736Y39594200D02*
X9034864Y39594200D01*
X7830736Y37774200D02*
X9034864Y37774200D01*
X7830736Y35259600D02*
X9034864Y35259600D01*
X7830736Y37079600D02*
X9034864Y37079600D01*
X77923800Y59156600D02*
G75*
G03X77923800Y59156600I-1800000J0D01*
G01*
X73123800Y62159400D02*
X73123800Y56159400D01*
X79123800Y62159400D02*
X73123800Y62159400D01*
X79123800Y56159400D02*
X73123800Y56159400D01*
X79123800Y62159400D02*
X79123800Y56159400D01*
X88013800Y62159400D02*
X88013800Y56159400D01*
X88013800Y56159400D02*
X82013800Y56159400D01*
X88013800Y62159400D02*
X82013800Y62159400D01*
X82013800Y62159400D02*
X82013800Y56159400D01*
X86813800Y59156600D02*
G75*
G03X86813800Y59156600I-1800000J0D01*
G01*
X84475320Y20858480D02*
X84475320Y4170680D01*
X85237320Y20858480D02*
X85237320Y19458480D01*
X85237320Y19458480D02*
X85237320Y19436080D01*
X85237320Y19436080D02*
X84957920Y19436080D01*
X84957920Y19436080D02*
X84957920Y10086080D01*
X84957920Y10086080D02*
X89047320Y10086080D01*
X91587320Y10086080D02*
X95651320Y10086080D01*
X95397320Y20934680D02*
X95397320Y19410680D01*
X95397320Y19410680D02*
X95651320Y19410680D01*
X95651320Y19410680D02*
X95651320Y10086080D01*
X85237320Y20858480D02*
X85237320Y20934680D01*
X84475320Y20858480D02*
X84475320Y20934680D01*
X84475320Y20934680D02*
X84475320Y22712680D01*
X84475320Y22712680D02*
X96159320Y22712680D01*
X96159320Y22712680D02*
X96159320Y3916680D01*
X96159320Y3916680D02*
X84475320Y3916680D01*
X84475320Y3916680D02*
X84475320Y4170680D01*
X93000200Y48438700D02*
X93000200Y48938700D01*
X93000200Y48938700D02*
X88000200Y48938700D01*
X88000200Y48938700D02*
X88000200Y47813700D01*
X93000200Y43143700D02*
X93000200Y42018700D01*
X93000200Y42018700D02*
X88000200Y42018700D01*
X88000200Y42018700D02*
X88000200Y42518700D01*
D18*
X94487521Y48993581D02*
G75*
G03X94487521Y48993581I-969801J0D01*
G01*
D11*
X64820800Y32969200D02*
X69900800Y32969200D01*
X69900800Y32969200D02*
X69900800Y37033200D01*
X69900800Y37033200D02*
X64312800Y37033200D01*
X64312800Y37033200D02*
X64312800Y32969200D01*
X64312800Y32969200D02*
X64820800Y32969200D01*
D10*
X64118761Y37855161D02*
G75*
G03X64118761Y37855161I-567961J0D01*
G01*
D11*
X72882401Y36751200D02*
X72882401Y37201199D01*
X72882401Y37201199D02*
X73332400Y37201199D01*
X77282399Y36751200D02*
X77282399Y37201199D01*
X77282399Y37201199D02*
X76832400Y37201199D01*
X77282399Y33251200D02*
X77282399Y32801201D01*
X77282399Y32801201D02*
X76832400Y32801201D01*
X72882401Y33251200D02*
X72882401Y32601201D01*
D10*
X72646160Y32080200D02*
G75*
G03X72646160Y32080200I-500000J0D01*
G01*
D13*
X22433000Y25917000D02*
X22433000Y26492000D01*
X16683000Y25917000D02*
X16683000Y26567000D01*
X16683000Y36567000D02*
X16683000Y35917000D01*
X22433000Y36567000D02*
X22433000Y35917000D01*
X22433000Y25917000D02*
X16683000Y25917000D01*
X22433000Y36567000D02*
X16683000Y36567000D01*
X22433000Y26492000D02*
X24033000Y26492000D01*
D11*
X99439600Y23747600D02*
X103479600Y23747600D01*
X104039600Y23747600D02*
X104039600Y28803600D01*
X97839600Y23747600D02*
X97839600Y28803600D01*
X103479600Y23747600D02*
X104039600Y23747600D01*
X99439600Y23747600D02*
X97839600Y23747600D01*
X97839600Y47067600D02*
X104039600Y47067600D01*
X97839600Y28803600D02*
X97839600Y47067600D01*
X104039600Y28803600D02*
X104039600Y47067600D01*
X102439600Y23509100D02*
X98399600Y23509100D01*
X97839600Y23509100D02*
X97839600Y18453100D01*
X104039600Y23509100D02*
X104039600Y18453100D01*
X98399600Y23509100D02*
X97839600Y23509100D01*
X102439600Y23509100D02*
X104039600Y23509100D01*
X104039600Y7809100D02*
X97839600Y7809100D01*
X104039600Y18453100D02*
X104039600Y7809100D01*
X97839600Y18453100D02*
X97839600Y7809100D01*
X20056800Y42523100D02*
X20056800Y43853100D01*
X21386800Y42523100D02*
X20056800Y42523100D01*
X22656800Y42523100D02*
X22656800Y45183100D01*
X22656800Y45183100D02*
X30336800Y45183100D01*
X22656800Y42523100D02*
X30336800Y42523100D01*
X30336800Y42523100D02*
X30336800Y45183100D01*
X18432864Y13203600D02*
X17228736Y13203600D01*
X18432864Y11383600D02*
X17228736Y11383600D01*
X18422863Y13989801D02*
X17218735Y13989801D01*
X18422863Y15809801D02*
X17218735Y15809801D01*
X27312536Y4110400D02*
X28516664Y4110400D01*
X27312536Y2290400D02*
X28516664Y2290400D01*
X21597536Y2290400D02*
X22801664Y2290400D01*
X21597536Y4110400D02*
X22801664Y4110400D01*
X27856264Y10291400D02*
X26652136Y10291400D01*
X27856264Y12111400D02*
X26652136Y12111400D01*
X21477400Y6289400D02*
X20677400Y7089400D01*
X20677400Y7089400D02*
X20677400Y14589400D01*
X20677400Y14589400D02*
X24077400Y14589400D01*
X24077400Y14589400D02*
X24077400Y6289400D01*
X24077400Y6289400D02*
X21477400Y6289400D01*
D13*
X78605142Y38403257D02*
X78557523Y38355638D01*
X78414666Y38308019D01*
X78319428Y38308019D01*
X78176571Y38355638D01*
X78081333Y38450876D01*
X78033714Y38546114D01*
X77986095Y38736590D01*
X77986095Y38879447D01*
X78033714Y39069923D01*
X78081333Y39165161D01*
X78176571Y39260400D01*
X78319428Y39308019D01*
X78414666Y39308019D01*
X78557523Y39260400D01*
X78605142Y39212780D01*
X78938476Y39308019D02*
X79557523Y39308019D01*
X79224190Y38927066D01*
X79367047Y38927066D01*
X79462285Y38879447D01*
X79509904Y38831828D01*
X79557523Y38736590D01*
X79557523Y38498495D01*
X79509904Y38403257D01*
X79462285Y38355638D01*
X79367047Y38308019D01*
X79081333Y38308019D01*
X78986095Y38355638D01*
X78938476Y38403257D01*
X79938476Y39212780D02*
X79986095Y39260400D01*
X80081333Y39308019D01*
X80319428Y39308019D01*
X80414666Y39260400D01*
X80462285Y39212780D01*
X80509904Y39117542D01*
X80509904Y39022304D01*
X80462285Y38879447D01*
X79890857Y38308019D01*
X80509904Y38308019D01*
X52171695Y20207219D02*
X52171695Y19397695D01*
X52219314Y19302457D01*
X52266933Y19254838D01*
X52362171Y19207219D01*
X52552647Y19207219D01*
X52647885Y19254838D01*
X52695504Y19302457D01*
X52743123Y19397695D01*
X52743123Y20207219D01*
X53647885Y19873885D02*
X53647885Y19207219D01*
X53409790Y20254838D02*
X53171695Y19540552D01*
X53790742Y19540552D01*
X-2844704Y51931819D02*
X-2844704Y51122295D01*
X-2797085Y51027057D01*
X-2749466Y50979438D01*
X-2654228Y50931819D01*
X-2463752Y50931819D01*
X-2368514Y50979438D01*
X-2320895Y51027057D01*
X-2273276Y51122295D01*
X-2273276Y51931819D01*
X-1892323Y51931819D02*
X-1273276Y51931819D01*
X-1606609Y51550866D01*
X-1463752Y51550866D01*
X-1368514Y51503247D01*
X-1320895Y51455628D01*
X-1273276Y51360390D01*
X-1273276Y51122295D01*
X-1320895Y51027057D01*
X-1368514Y50979438D01*
X-1463752Y50931819D01*
X-1749466Y50931819D01*
X-1844704Y50979438D01*
X-1892323Y51027057D01*
X47839333Y14586857D02*
X47791714Y14539238D01*
X47648857Y14491619D01*
X47553619Y14491619D01*
X47410761Y14539238D01*
X47315523Y14634476D01*
X47267904Y14729714D01*
X47220285Y14920190D01*
X47220285Y15063047D01*
X47267904Y15253523D01*
X47315523Y15348761D01*
X47410761Y15444000D01*
X47553619Y15491619D01*
X47648857Y15491619D01*
X47791714Y15444000D01*
X47839333Y15396380D01*
X48791714Y14491619D02*
X48220285Y14491619D01*
X48506000Y14491619D02*
X48506000Y15491619D01*
X48410761Y15348761D01*
X48315523Y15253523D01*
X48220285Y15205904D01*
X58608933Y38250857D02*
X58561314Y38203238D01*
X58418457Y38155619D01*
X58323219Y38155619D01*
X58180361Y38203238D01*
X58085123Y38298476D01*
X58037504Y38393714D01*
X57989885Y38584190D01*
X57989885Y38727047D01*
X58037504Y38917523D01*
X58085123Y39012761D01*
X58180361Y39108000D01*
X58323219Y39155619D01*
X58418457Y39155619D01*
X58561314Y39108000D01*
X58608933Y39060380D01*
X58989885Y39060380D02*
X59037504Y39108000D01*
X59132742Y39155619D01*
X59370838Y39155619D01*
X59466076Y39108000D01*
X59513695Y39060380D01*
X59561314Y38965142D01*
X59561314Y38869904D01*
X59513695Y38727047D01*
X58942266Y38155619D01*
X59561314Y38155619D01*
X41743333Y13875657D02*
X41695714Y13828038D01*
X41552857Y13780419D01*
X41457619Y13780419D01*
X41314761Y13828038D01*
X41219523Y13923276D01*
X41171904Y14018514D01*
X41124285Y14208990D01*
X41124285Y14351847D01*
X41171904Y14542323D01*
X41219523Y14637561D01*
X41314761Y14732800D01*
X41457619Y14780419D01*
X41552857Y14780419D01*
X41695714Y14732800D01*
X41743333Y14685180D01*
X42076666Y14780419D02*
X42695714Y14780419D01*
X42362380Y14399466D01*
X42505238Y14399466D01*
X42600476Y14351847D01*
X42648095Y14304228D01*
X42695714Y14208990D01*
X42695714Y13970895D01*
X42648095Y13875657D01*
X42600476Y13828038D01*
X42505238Y13780419D01*
X42219523Y13780419D01*
X42124285Y13828038D01*
X42076666Y13875657D01*
X30973733Y28319457D02*
X30926114Y28271838D01*
X30783257Y28224219D01*
X30688019Y28224219D01*
X30545161Y28271838D01*
X30449923Y28367076D01*
X30402304Y28462314D01*
X30354685Y28652790D01*
X30354685Y28795647D01*
X30402304Y28986123D01*
X30449923Y29081361D01*
X30545161Y29176600D01*
X30688019Y29224219D01*
X30783257Y29224219D01*
X30926114Y29176600D01*
X30973733Y29128980D01*
X31830876Y28890885D02*
X31830876Y28224219D01*
X31592780Y29271838D02*
X31354685Y28557552D01*
X31973733Y28557552D01*
X33031133Y41552857D02*
X32983514Y41505238D01*
X32840657Y41457619D01*
X32745419Y41457619D01*
X32602561Y41505238D01*
X32507323Y41600476D01*
X32459704Y41695714D01*
X32412085Y41886190D01*
X32412085Y42029047D01*
X32459704Y42219523D01*
X32507323Y42314761D01*
X32602561Y42410000D01*
X32745419Y42457619D01*
X32840657Y42457619D01*
X32983514Y42410000D01*
X33031133Y42362380D01*
X33935895Y42457619D02*
X33459704Y42457619D01*
X33412085Y41981428D01*
X33459704Y42029047D01*
X33554942Y42076666D01*
X33793038Y42076666D01*
X33888276Y42029047D01*
X33935895Y41981428D01*
X33983514Y41886190D01*
X33983514Y41648095D01*
X33935895Y41552857D01*
X33888276Y41505238D01*
X33793038Y41457619D01*
X33554942Y41457619D01*
X33459704Y41505238D01*
X33412085Y41552857D01*
X74687133Y6119857D02*
X74639514Y6072238D01*
X74496657Y6024619D01*
X74401419Y6024619D01*
X74258561Y6072238D01*
X74163323Y6167476D01*
X74115704Y6262714D01*
X74068085Y6453190D01*
X74068085Y6596047D01*
X74115704Y6786523D01*
X74163323Y6881761D01*
X74258561Y6977000D01*
X74401419Y7024619D01*
X74496657Y7024619D01*
X74639514Y6977000D01*
X74687133Y6929380D01*
X75544276Y7024619D02*
X75353800Y7024619D01*
X75258561Y6977000D01*
X75210942Y6929380D01*
X75115704Y6786523D01*
X75068085Y6596047D01*
X75068085Y6215095D01*
X75115704Y6119857D01*
X75163323Y6072238D01*
X75258561Y6024619D01*
X75449038Y6024619D01*
X75544276Y6072238D01*
X75591895Y6119857D01*
X75639514Y6215095D01*
X75639514Y6453190D01*
X75591895Y6548428D01*
X75544276Y6596047D01*
X75449038Y6643666D01*
X75258561Y6643666D01*
X75163323Y6596047D01*
X75115704Y6548428D01*
X75068085Y6453190D01*
X85151933Y53567057D02*
X85104314Y53519438D01*
X84961457Y53471819D01*
X84866219Y53471819D01*
X84723361Y53519438D01*
X84628123Y53614676D01*
X84580504Y53709914D01*
X84532885Y53900390D01*
X84532885Y54043247D01*
X84580504Y54233723D01*
X84628123Y54328961D01*
X84723361Y54424200D01*
X84866219Y54471819D01*
X84961457Y54471819D01*
X85104314Y54424200D01*
X85151933Y54376580D01*
X85485266Y54471819D02*
X86151933Y54471819D01*
X85723361Y53471819D01*
X58634333Y27938457D02*
X58586714Y27890838D01*
X58443857Y27843219D01*
X58348619Y27843219D01*
X58205761Y27890838D01*
X58110523Y27986076D01*
X58062904Y28081314D01*
X58015285Y28271790D01*
X58015285Y28414647D01*
X58062904Y28605123D01*
X58110523Y28700361D01*
X58205761Y28795600D01*
X58348619Y28843219D01*
X58443857Y28843219D01*
X58586714Y28795600D01*
X58634333Y28747980D01*
X59205761Y28414647D02*
X59110523Y28462266D01*
X59062904Y28509885D01*
X59015285Y28605123D01*
X59015285Y28652742D01*
X59062904Y28747980D01*
X59110523Y28795600D01*
X59205761Y28843219D01*
X59396238Y28843219D01*
X59491476Y28795600D01*
X59539095Y28747980D01*
X59586714Y28652742D01*
X59586714Y28605123D01*
X59539095Y28509885D01*
X59491476Y28462266D01*
X59396238Y28414647D01*
X59205761Y28414647D01*
X59110523Y28367028D01*
X59062904Y28319409D01*
X59015285Y28224171D01*
X59015285Y28033695D01*
X59062904Y27938457D01*
X59110523Y27890838D01*
X59205761Y27843219D01*
X59396238Y27843219D01*
X59491476Y27890838D01*
X59539095Y27938457D01*
X59586714Y28033695D01*
X59586714Y28224171D01*
X59539095Y28319409D01*
X59491476Y28367028D01*
X59396238Y28414647D01*
X56322933Y19708857D02*
X56275314Y19661238D01*
X56132457Y19613619D01*
X56037219Y19613619D01*
X55894361Y19661238D01*
X55799123Y19756476D01*
X55751504Y19851714D01*
X55703885Y20042190D01*
X55703885Y20185047D01*
X55751504Y20375523D01*
X55799123Y20470761D01*
X55894361Y20566000D01*
X56037219Y20613619D01*
X56132457Y20613619D01*
X56275314Y20566000D01*
X56322933Y20518380D01*
X56799123Y19613619D02*
X56989600Y19613619D01*
X57084838Y19661238D01*
X57132457Y19708857D01*
X57227695Y19851714D01*
X57275314Y20042190D01*
X57275314Y20423142D01*
X57227695Y20518380D01*
X57180076Y20566000D01*
X57084838Y20613619D01*
X56894361Y20613619D01*
X56799123Y20566000D01*
X56751504Y20518380D01*
X56703885Y20423142D01*
X56703885Y20185047D01*
X56751504Y20089809D01*
X56799123Y20042190D01*
X56894361Y19994571D01*
X57084838Y19994571D01*
X57180076Y20042190D01*
X57227695Y20089809D01*
X57275314Y20185047D01*
X70731142Y53490857D02*
X70683523Y53443238D01*
X70540666Y53395619D01*
X70445428Y53395619D01*
X70302571Y53443238D01*
X70207333Y53538476D01*
X70159714Y53633714D01*
X70112095Y53824190D01*
X70112095Y53967047D01*
X70159714Y54157523D01*
X70207333Y54252761D01*
X70302571Y54348000D01*
X70445428Y54395619D01*
X70540666Y54395619D01*
X70683523Y54348000D01*
X70731142Y54300380D01*
X71683523Y53395619D02*
X71112095Y53395619D01*
X71397809Y53395619D02*
X71397809Y54395619D01*
X71302571Y54252761D01*
X71207333Y54157523D01*
X71112095Y54109904D01*
X72302571Y54395619D02*
X72397809Y54395619D01*
X72493047Y54348000D01*
X72540666Y54300380D01*
X72588285Y54205142D01*
X72635904Y54014666D01*
X72635904Y53776571D01*
X72588285Y53586095D01*
X72540666Y53490857D01*
X72493047Y53443238D01*
X72397809Y53395619D01*
X72302571Y53395619D01*
X72207333Y53443238D01*
X72159714Y53490857D01*
X72112095Y53586095D01*
X72064476Y53776571D01*
X72064476Y54014666D01*
X72112095Y54205142D01*
X72159714Y54300380D01*
X72207333Y54348000D01*
X72302571Y54395619D01*
X81830942Y-2668542D02*
X81783323Y-2716161D01*
X81640466Y-2763780D01*
X81545228Y-2763780D01*
X81402371Y-2716161D01*
X81307133Y-2620923D01*
X81259514Y-2525685D01*
X81211895Y-2335209D01*
X81211895Y-2192352D01*
X81259514Y-2001876D01*
X81307133Y-1906638D01*
X81402371Y-1811400D01*
X81545228Y-1763780D01*
X81640466Y-1763780D01*
X81783323Y-1811400D01*
X81830942Y-1859019D01*
X82783323Y-2763780D02*
X82211895Y-2763780D01*
X82497609Y-2763780D02*
X82497609Y-1763780D01*
X82402371Y-1906638D01*
X82307133Y-2001876D01*
X82211895Y-2049495D01*
X83735704Y-2763780D02*
X83164276Y-2763780D01*
X83449990Y-2763780D02*
X83449990Y-1763780D01*
X83354752Y-1906638D01*
X83259514Y-2001876D01*
X83164276Y-2049495D01*
X29938742Y33424857D02*
X29891123Y33377238D01*
X29748266Y33329619D01*
X29653028Y33329619D01*
X29510171Y33377238D01*
X29414933Y33472476D01*
X29367314Y33567714D01*
X29319695Y33758190D01*
X29319695Y33901047D01*
X29367314Y34091523D01*
X29414933Y34186761D01*
X29510171Y34282000D01*
X29653028Y34329619D01*
X29748266Y34329619D01*
X29891123Y34282000D01*
X29938742Y34234380D01*
X30891123Y33329619D02*
X30319695Y33329619D01*
X30605409Y33329619D02*
X30605409Y34329619D01*
X30510171Y34186761D01*
X30414933Y34091523D01*
X30319695Y34043904D01*
X31272076Y34234380D02*
X31319695Y34282000D01*
X31414933Y34329619D01*
X31653028Y34329619D01*
X31748266Y34282000D01*
X31795885Y34234380D01*
X31843504Y34139142D01*
X31843504Y34043904D01*
X31795885Y33901047D01*
X31224457Y33329619D01*
X31843504Y33329619D01*
X41267142Y46928857D02*
X41219523Y46881238D01*
X41076666Y46833619D01*
X40981428Y46833619D01*
X40838571Y46881238D01*
X40743333Y46976476D01*
X40695714Y47071714D01*
X40648095Y47262190D01*
X40648095Y47405047D01*
X40695714Y47595523D01*
X40743333Y47690761D01*
X40838571Y47786000D01*
X40981428Y47833619D01*
X41076666Y47833619D01*
X41219523Y47786000D01*
X41267142Y47738380D01*
X42219523Y46833619D02*
X41648095Y46833619D01*
X41933809Y46833619D02*
X41933809Y47833619D01*
X41838571Y47690761D01*
X41743333Y47595523D01*
X41648095Y47547904D01*
X42552857Y47833619D02*
X43171904Y47833619D01*
X42838571Y47452666D01*
X42981428Y47452666D01*
X43076666Y47405047D01*
X43124285Y47357428D01*
X43171904Y47262190D01*
X43171904Y47024095D01*
X43124285Y46928857D01*
X43076666Y46881238D01*
X42981428Y46833619D01*
X42695714Y46833619D01*
X42600476Y46881238D01*
X42552857Y46928857D01*
X47109142Y46928857D02*
X47061523Y46881238D01*
X46918666Y46833619D01*
X46823428Y46833619D01*
X46680571Y46881238D01*
X46585333Y46976476D01*
X46537714Y47071714D01*
X46490095Y47262190D01*
X46490095Y47405047D01*
X46537714Y47595523D01*
X46585333Y47690761D01*
X46680571Y47786000D01*
X46823428Y47833619D01*
X46918666Y47833619D01*
X47061523Y47786000D01*
X47109142Y47738380D01*
X48061523Y46833619D02*
X47490095Y46833619D01*
X47775809Y46833619D02*
X47775809Y47833619D01*
X47680571Y47690761D01*
X47585333Y47595523D01*
X47490095Y47547904D01*
X48918666Y47500285D02*
X48918666Y46833619D01*
X48680571Y47881238D02*
X48442476Y47166952D01*
X49061523Y47166952D01*
X79214742Y7821657D02*
X79167123Y7774038D01*
X79024266Y7726419D01*
X78929028Y7726419D01*
X78786171Y7774038D01*
X78690933Y7869276D01*
X78643314Y7964514D01*
X78595695Y8154990D01*
X78595695Y8297847D01*
X78643314Y8488323D01*
X78690933Y8583561D01*
X78786171Y8678800D01*
X78929028Y8726419D01*
X79024266Y8726419D01*
X79167123Y8678800D01*
X79214742Y8631180D01*
X80167123Y7726419D02*
X79595695Y7726419D01*
X79881409Y7726419D02*
X79881409Y8726419D01*
X79786171Y8583561D01*
X79690933Y8488323D01*
X79595695Y8440704D01*
X81071885Y8726419D02*
X80595695Y8726419D01*
X80548076Y8250228D01*
X80595695Y8297847D01*
X80690933Y8345466D01*
X80929028Y8345466D01*
X81024266Y8297847D01*
X81071885Y8250228D01*
X81119504Y8154990D01*
X81119504Y7916895D01*
X81071885Y7821657D01*
X81024266Y7774038D01*
X80929028Y7726419D01*
X80690933Y7726419D01*
X80595695Y7774038D01*
X80548076Y7821657D01*
X29913342Y23366457D02*
X29865723Y23318838D01*
X29722866Y23271219D01*
X29627628Y23271219D01*
X29484771Y23318838D01*
X29389533Y23414076D01*
X29341914Y23509314D01*
X29294295Y23699790D01*
X29294295Y23842647D01*
X29341914Y24033123D01*
X29389533Y24128361D01*
X29484771Y24223600D01*
X29627628Y24271219D01*
X29722866Y24271219D01*
X29865723Y24223600D01*
X29913342Y24175980D01*
X30865723Y23271219D02*
X30294295Y23271219D01*
X30580009Y23271219D02*
X30580009Y24271219D01*
X30484771Y24128361D01*
X30389533Y24033123D01*
X30294295Y23985504D01*
X31722866Y24271219D02*
X31532390Y24271219D01*
X31437152Y24223600D01*
X31389533Y24175980D01*
X31294295Y24033123D01*
X31246676Y23842647D01*
X31246676Y23461695D01*
X31294295Y23366457D01*
X31341914Y23318838D01*
X31437152Y23271219D01*
X31627628Y23271219D01*
X31722866Y23318838D01*
X31770485Y23366457D01*
X31818104Y23461695D01*
X31818104Y23699790D01*
X31770485Y23795028D01*
X31722866Y23842647D01*
X31627628Y23890266D01*
X31437152Y23890266D01*
X31341914Y23842647D01*
X31294295Y23795028D01*
X31246676Y23699790D01*
X3192542Y55624457D02*
X3144923Y55576838D01*
X3002066Y55529219D01*
X2906828Y55529219D01*
X2763971Y55576838D01*
X2668733Y55672076D01*
X2621114Y55767314D01*
X2573495Y55957790D01*
X2573495Y56100647D01*
X2621114Y56291123D01*
X2668733Y56386361D01*
X2763971Y56481600D01*
X2906828Y56529219D01*
X3002066Y56529219D01*
X3144923Y56481600D01*
X3192542Y56433980D01*
X4144923Y55529219D02*
X3573495Y55529219D01*
X3859209Y55529219D02*
X3859209Y56529219D01*
X3763971Y56386361D01*
X3668733Y56291123D01*
X3573495Y56243504D01*
X4478257Y56529219D02*
X5144923Y56529219D01*
X4716352Y55529219D01*
X58539142Y33145457D02*
X58491523Y33097838D01*
X58348666Y33050219D01*
X58253428Y33050219D01*
X58110571Y33097838D01*
X58015333Y33193076D01*
X57967714Y33288314D01*
X57920095Y33478790D01*
X57920095Y33621647D01*
X57967714Y33812123D01*
X58015333Y33907361D01*
X58110571Y34002600D01*
X58253428Y34050219D01*
X58348666Y34050219D01*
X58491523Y34002600D01*
X58539142Y33954980D01*
X59491523Y33050219D02*
X58920095Y33050219D01*
X59205809Y33050219D02*
X59205809Y34050219D01*
X59110571Y33907361D01*
X59015333Y33812123D01*
X58920095Y33764504D01*
X60062952Y33621647D02*
X59967714Y33669266D01*
X59920095Y33716885D01*
X59872476Y33812123D01*
X59872476Y33859742D01*
X59920095Y33954980D01*
X59967714Y34002600D01*
X60062952Y34050219D01*
X60253428Y34050219D01*
X60348666Y34002600D01*
X60396285Y33954980D01*
X60443904Y33859742D01*
X60443904Y33812123D01*
X60396285Y33716885D01*
X60348666Y33669266D01*
X60253428Y33621647D01*
X60062952Y33621647D01*
X59967714Y33574028D01*
X59920095Y33526409D01*
X59872476Y33431171D01*
X59872476Y33240695D01*
X59920095Y33145457D01*
X59967714Y33097838D01*
X60062952Y33050219D01*
X60253428Y33050219D01*
X60348666Y33097838D01*
X60396285Y33145457D01*
X60443904Y33240695D01*
X60443904Y33431171D01*
X60396285Y33526409D01*
X60348666Y33574028D01*
X60253428Y33621647D01*
X3090942Y58367657D02*
X3043323Y58320038D01*
X2900466Y58272419D01*
X2805228Y58272419D01*
X2662371Y58320038D01*
X2567133Y58415276D01*
X2519514Y58510514D01*
X2471895Y58700990D01*
X2471895Y58843847D01*
X2519514Y59034323D01*
X2567133Y59129561D01*
X2662371Y59224800D01*
X2805228Y59272419D01*
X2900466Y59272419D01*
X3043323Y59224800D01*
X3090942Y59177180D01*
X4043323Y58272419D02*
X3471895Y58272419D01*
X3757609Y58272419D02*
X3757609Y59272419D01*
X3662371Y59129561D01*
X3567133Y59034323D01*
X3471895Y58986704D01*
X4519514Y58272419D02*
X4709990Y58272419D01*
X4805228Y58320038D01*
X4852847Y58367657D01*
X4948085Y58510514D01*
X4995704Y58700990D01*
X4995704Y59081942D01*
X4948085Y59177180D01*
X4900466Y59224800D01*
X4805228Y59272419D01*
X4614752Y59272419D01*
X4519514Y59224800D01*
X4471895Y59177180D01*
X4424276Y59081942D01*
X4424276Y58843847D01*
X4471895Y58748609D01*
X4519514Y58700990D01*
X4614752Y58653371D01*
X4805228Y58653371D01*
X4900466Y58700990D01*
X4948085Y58748609D01*
X4995704Y58843847D01*
X-287257Y46006657D02*
X-334876Y45959038D01*
X-477733Y45911419D01*
X-572971Y45911419D01*
X-715828Y45959038D01*
X-811066Y46054276D01*
X-858685Y46149514D01*
X-906304Y46339990D01*
X-906304Y46482847D01*
X-858685Y46673323D01*
X-811066Y46768561D01*
X-715828Y46863800D01*
X-572971Y46911419D01*
X-477733Y46911419D01*
X-334876Y46863800D01*
X-287257Y46816180D01*
X93695Y46816180D02*
X141314Y46863800D01*
X236552Y46911419D01*
X474647Y46911419D01*
X569885Y46863800D01*
X617504Y46816180D01*
X665123Y46720942D01*
X665123Y46625704D01*
X617504Y46482847D01*
X46076Y45911419D01*
X665123Y45911419D01*
X1284171Y46911419D02*
X1379409Y46911419D01*
X1474647Y46863800D01*
X1522266Y46816180D01*
X1569885Y46720942D01*
X1617504Y46530466D01*
X1617504Y46292371D01*
X1569885Y46101895D01*
X1522266Y46006657D01*
X1474647Y45959038D01*
X1379409Y45911419D01*
X1284171Y45911419D01*
X1188933Y45959038D01*
X1141314Y46006657D01*
X1093695Y46101895D01*
X1046076Y46292371D01*
X1046076Y46530466D01*
X1093695Y46720942D01*
X1141314Y46816180D01*
X1188933Y46863800D01*
X1284171Y46911419D01*
X95826342Y48029857D02*
X95778723Y47982238D01*
X95635866Y47934619D01*
X95540628Y47934619D01*
X95397771Y47982238D01*
X95302533Y48077476D01*
X95254914Y48172714D01*
X95207295Y48363190D01*
X95207295Y48506047D01*
X95254914Y48696523D01*
X95302533Y48791761D01*
X95397771Y48887000D01*
X95540628Y48934619D01*
X95635866Y48934619D01*
X95778723Y48887000D01*
X95826342Y48839380D01*
X96207295Y48839380D02*
X96254914Y48887000D01*
X96350152Y48934619D01*
X96588247Y48934619D01*
X96683485Y48887000D01*
X96731104Y48839380D01*
X96778723Y48744142D01*
X96778723Y48648904D01*
X96731104Y48506047D01*
X96159676Y47934619D01*
X96778723Y47934619D01*
X97731104Y47934619D02*
X97159676Y47934619D01*
X97445390Y47934619D02*
X97445390Y48934619D01*
X97350152Y48791761D01*
X97254914Y48696523D01*
X97159676Y48648904D01*
X91457542Y1547857D02*
X91409923Y1500238D01*
X91267066Y1452619D01*
X91171828Y1452619D01*
X91028971Y1500238D01*
X90933733Y1595476D01*
X90886114Y1690714D01*
X90838495Y1881190D01*
X90838495Y2024047D01*
X90886114Y2214523D01*
X90933733Y2309761D01*
X91028971Y2405000D01*
X91171828Y2452619D01*
X91267066Y2452619D01*
X91409923Y2405000D01*
X91457542Y2357380D01*
X91838495Y2357380D02*
X91886114Y2405000D01*
X91981352Y2452619D01*
X92219447Y2452619D01*
X92314685Y2405000D01*
X92362304Y2357380D01*
X92409923Y2262142D01*
X92409923Y2166904D01*
X92362304Y2024047D01*
X91790876Y1452619D01*
X92409923Y1452619D01*
X92790876Y2357380D02*
X92838495Y2405000D01*
X92933733Y2452619D01*
X93171828Y2452619D01*
X93267066Y2405000D01*
X93314685Y2357380D01*
X93362304Y2262142D01*
X93362304Y2166904D01*
X93314685Y2024047D01*
X92743257Y1452619D01*
X93362304Y1452619D01*
X5453142Y52246257D02*
X5405523Y52198638D01*
X5262666Y52151019D01*
X5167428Y52151019D01*
X5024571Y52198638D01*
X4929333Y52293876D01*
X4881714Y52389114D01*
X4834095Y52579590D01*
X4834095Y52722447D01*
X4881714Y52912923D01*
X4929333Y53008161D01*
X5024571Y53103400D01*
X5167428Y53151019D01*
X5262666Y53151019D01*
X5405523Y53103400D01*
X5453142Y53055780D01*
X5834095Y53055780D02*
X5881714Y53103400D01*
X5976952Y53151019D01*
X6215047Y53151019D01*
X6310285Y53103400D01*
X6357904Y53055780D01*
X6405523Y52960542D01*
X6405523Y52865304D01*
X6357904Y52722447D01*
X5786476Y52151019D01*
X6405523Y52151019D01*
X6738857Y53151019D02*
X7357904Y53151019D01*
X7024571Y52770066D01*
X7167428Y52770066D01*
X7262666Y52722447D01*
X7310285Y52674828D01*
X7357904Y52579590D01*
X7357904Y52341495D01*
X7310285Y52246257D01*
X7262666Y52198638D01*
X7167428Y52151019D01*
X6881714Y52151019D01*
X6786476Y52198638D01*
X6738857Y52246257D01*
X80123742Y11260097D02*
X80076123Y11212478D01*
X79933266Y11164859D01*
X79838028Y11164859D01*
X79695171Y11212478D01*
X79599933Y11307716D01*
X79552314Y11402954D01*
X79504695Y11593430D01*
X79504695Y11736287D01*
X79552314Y11926763D01*
X79599933Y12022001D01*
X79695171Y12117240D01*
X79838028Y12164859D01*
X79933266Y12164859D01*
X80076123Y12117240D01*
X80123742Y12069620D01*
X80504695Y12069620D02*
X80552314Y12117240D01*
X80647552Y12164859D01*
X80885647Y12164859D01*
X80980885Y12117240D01*
X81028504Y12069620D01*
X81076123Y11974382D01*
X81076123Y11879144D01*
X81028504Y11736287D01*
X80457076Y11164859D01*
X81076123Y11164859D01*
X81933266Y11831525D02*
X81933266Y11164859D01*
X81695171Y12212478D02*
X81457076Y11498192D01*
X82076123Y11498192D01*
X72762822Y11173737D02*
X72715203Y11126118D01*
X72572346Y11078499D01*
X72477108Y11078499D01*
X72334251Y11126118D01*
X72239013Y11221356D01*
X72191394Y11316594D01*
X72143775Y11507070D01*
X72143775Y11649927D01*
X72191394Y11840403D01*
X72239013Y11935641D01*
X72334251Y12030880D01*
X72477108Y12078499D01*
X72572346Y12078499D01*
X72715203Y12030880D01*
X72762822Y11983260D01*
X73143775Y11983260D02*
X73191394Y12030880D01*
X73286632Y12078499D01*
X73524727Y12078499D01*
X73619965Y12030880D01*
X73667584Y11983260D01*
X73715203Y11888022D01*
X73715203Y11792784D01*
X73667584Y11649927D01*
X73096156Y11078499D01*
X73715203Y11078499D01*
X74619965Y12078499D02*
X74143775Y12078499D01*
X74096156Y11602308D01*
X74143775Y11649927D01*
X74239013Y11697546D01*
X74477108Y11697546D01*
X74572346Y11649927D01*
X74619965Y11602308D01*
X74667584Y11507070D01*
X74667584Y11268975D01*
X74619965Y11173737D01*
X74572346Y11126118D01*
X74477108Y11078499D01*
X74239013Y11078499D01*
X74143775Y11126118D01*
X74096156Y11173737D01*
X72763142Y19666857D02*
X72715523Y19619238D01*
X72572666Y19571619D01*
X72477428Y19571619D01*
X72334571Y19619238D01*
X72239333Y19714476D01*
X72191714Y19809714D01*
X72144095Y20000190D01*
X72144095Y20143047D01*
X72191714Y20333523D01*
X72239333Y20428761D01*
X72334571Y20524000D01*
X72477428Y20571619D01*
X72572666Y20571619D01*
X72715523Y20524000D01*
X72763142Y20476380D01*
X73144095Y20476380D02*
X73191714Y20524000D01*
X73286952Y20571619D01*
X73525047Y20571619D01*
X73620285Y20524000D01*
X73667904Y20476380D01*
X73715523Y20381142D01*
X73715523Y20285904D01*
X73667904Y20143047D01*
X73096476Y19571619D01*
X73715523Y19571619D01*
X74572666Y20571619D02*
X74382190Y20571619D01*
X74286952Y20524000D01*
X74239333Y20476380D01*
X74144095Y20333523D01*
X74096476Y20143047D01*
X74096476Y19762095D01*
X74144095Y19666857D01*
X74191714Y19619238D01*
X74286952Y19571619D01*
X74477428Y19571619D01*
X74572666Y19619238D01*
X74620285Y19666857D01*
X74667904Y19762095D01*
X74667904Y20000190D01*
X74620285Y20095428D01*
X74572666Y20143047D01*
X74477428Y20190666D01*
X74286952Y20190666D01*
X74191714Y20143047D01*
X74144095Y20095428D01*
X74096476Y20000190D01*
X80129142Y19666857D02*
X80081523Y19619238D01*
X79938666Y19571619D01*
X79843428Y19571619D01*
X79700571Y19619238D01*
X79605333Y19714476D01*
X79557714Y19809714D01*
X79510095Y20000190D01*
X79510095Y20143047D01*
X79557714Y20333523D01*
X79605333Y20428761D01*
X79700571Y20524000D01*
X79843428Y20571619D01*
X79938666Y20571619D01*
X80081523Y20524000D01*
X80129142Y20476380D01*
X80510095Y20476380D02*
X80557714Y20524000D01*
X80652952Y20571619D01*
X80891047Y20571619D01*
X80986285Y20524000D01*
X81033904Y20476380D01*
X81081523Y20381142D01*
X81081523Y20285904D01*
X81033904Y20143047D01*
X80462476Y19571619D01*
X81081523Y19571619D01*
X81414857Y20571619D02*
X82081523Y20571619D01*
X81652952Y19571619D01*
X76344542Y42949857D02*
X76296923Y42902238D01*
X76154066Y42854619D01*
X76058828Y42854619D01*
X75915971Y42902238D01*
X75820733Y42997476D01*
X75773114Y43092714D01*
X75725495Y43283190D01*
X75725495Y43426047D01*
X75773114Y43616523D01*
X75820733Y43711761D01*
X75915971Y43807000D01*
X76058828Y43854619D01*
X76154066Y43854619D01*
X76296923Y43807000D01*
X76344542Y43759380D01*
X76725495Y43759380D02*
X76773114Y43807000D01*
X76868352Y43854619D01*
X77106447Y43854619D01*
X77201685Y43807000D01*
X77249304Y43759380D01*
X77296923Y43664142D01*
X77296923Y43568904D01*
X77249304Y43426047D01*
X76677876Y42854619D01*
X77296923Y42854619D01*
X77868352Y43426047D02*
X77773114Y43473666D01*
X77725495Y43521285D01*
X77677876Y43616523D01*
X77677876Y43664142D01*
X77725495Y43759380D01*
X77773114Y43807000D01*
X77868352Y43854619D01*
X78058828Y43854619D01*
X78154066Y43807000D01*
X78201685Y43759380D01*
X78249304Y43664142D01*
X78249304Y43616523D01*
X78201685Y43521285D01*
X78154066Y43473666D01*
X78058828Y43426047D01*
X77868352Y43426047D01*
X77773114Y43378428D01*
X77725495Y43330809D01*
X77677876Y43235571D01*
X77677876Y43045095D01*
X77725495Y42949857D01*
X77773114Y42902238D01*
X77868352Y42854619D01*
X78058828Y42854619D01*
X78154066Y42902238D01*
X78201685Y42949857D01*
X78249304Y43045095D01*
X78249304Y43235571D01*
X78201685Y43330809D01*
X78154066Y43378428D01*
X78058828Y43426047D01*
X66616342Y40308257D02*
X66568723Y40260638D01*
X66425866Y40213019D01*
X66330628Y40213019D01*
X66187771Y40260638D01*
X66092533Y40355876D01*
X66044914Y40451114D01*
X65997295Y40641590D01*
X65997295Y40784447D01*
X66044914Y40974923D01*
X66092533Y41070161D01*
X66187771Y41165400D01*
X66330628Y41213019D01*
X66425866Y41213019D01*
X66568723Y41165400D01*
X66616342Y41117780D01*
X66997295Y41117780D02*
X67044914Y41165400D01*
X67140152Y41213019D01*
X67378247Y41213019D01*
X67473485Y41165400D01*
X67521104Y41117780D01*
X67568723Y41022542D01*
X67568723Y40927304D01*
X67521104Y40784447D01*
X66949676Y40213019D01*
X67568723Y40213019D01*
X68044914Y40213019D02*
X68235390Y40213019D01*
X68330628Y40260638D01*
X68378247Y40308257D01*
X68473485Y40451114D01*
X68521104Y40641590D01*
X68521104Y41022542D01*
X68473485Y41117780D01*
X68425866Y41165400D01*
X68330628Y41213019D01*
X68140152Y41213019D01*
X68044914Y41165400D01*
X67997295Y41117780D01*
X67949676Y41022542D01*
X67949676Y40784447D01*
X67997295Y40689209D01*
X68044914Y40641590D01*
X68140152Y40593971D01*
X68330628Y40593971D01*
X68425866Y40641590D01*
X68473485Y40689209D01*
X68521104Y40784447D01*
X73321942Y42949857D02*
X73274323Y42902238D01*
X73131466Y42854619D01*
X73036228Y42854619D01*
X72893371Y42902238D01*
X72798133Y42997476D01*
X72750514Y43092714D01*
X72702895Y43283190D01*
X72702895Y43426047D01*
X72750514Y43616523D01*
X72798133Y43711761D01*
X72893371Y43807000D01*
X73036228Y43854619D01*
X73131466Y43854619D01*
X73274323Y43807000D01*
X73321942Y43759380D01*
X73655276Y43854619D02*
X74274323Y43854619D01*
X73940990Y43473666D01*
X74083847Y43473666D01*
X74179085Y43426047D01*
X74226704Y43378428D01*
X74274323Y43283190D01*
X74274323Y43045095D01*
X74226704Y42949857D01*
X74179085Y42902238D01*
X74083847Y42854619D01*
X73798133Y42854619D01*
X73702895Y42902238D01*
X73655276Y42949857D01*
X74893371Y43854619D02*
X74988609Y43854619D01*
X75083847Y43807000D01*
X75131466Y43759380D01*
X75179085Y43664142D01*
X75226704Y43473666D01*
X75226704Y43235571D01*
X75179085Y43045095D01*
X75131466Y42949857D01*
X75083847Y42902238D01*
X74988609Y42854619D01*
X74893371Y42854619D01*
X74798133Y42902238D01*
X74750514Y42949857D01*
X74702895Y43045095D01*
X74655276Y43235571D01*
X74655276Y43473666D01*
X74702895Y43664142D01*
X74750514Y43759380D01*
X74798133Y43807000D01*
X74893371Y43854619D01*
X66133742Y29166457D02*
X66086123Y29118838D01*
X65943266Y29071219D01*
X65848028Y29071219D01*
X65705171Y29118838D01*
X65609933Y29214076D01*
X65562314Y29309314D01*
X65514695Y29499790D01*
X65514695Y29642647D01*
X65562314Y29833123D01*
X65609933Y29928361D01*
X65705171Y30023600D01*
X65848028Y30071219D01*
X65943266Y30071219D01*
X66086123Y30023600D01*
X66133742Y29975980D01*
X66467076Y30071219D02*
X67086123Y30071219D01*
X66752790Y29690266D01*
X66895647Y29690266D01*
X66990885Y29642647D01*
X67038504Y29595028D01*
X67086123Y29499790D01*
X67086123Y29261695D01*
X67038504Y29166457D01*
X66990885Y29118838D01*
X66895647Y29071219D01*
X66609933Y29071219D01*
X66514695Y29118838D01*
X66467076Y29166457D01*
X68038504Y29071219D02*
X67467076Y29071219D01*
X67752790Y29071219D02*
X67752790Y30071219D01*
X67657552Y29928361D01*
X67562314Y29833123D01*
X67467076Y29785504D01*
X81399142Y36752257D02*
X81351523Y36704638D01*
X81208666Y36657019D01*
X81113428Y36657019D01*
X80970571Y36704638D01*
X80875333Y36799876D01*
X80827714Y36895114D01*
X80780095Y37085590D01*
X80780095Y37228447D01*
X80827714Y37418923D01*
X80875333Y37514161D01*
X80970571Y37609400D01*
X81113428Y37657019D01*
X81208666Y37657019D01*
X81351523Y37609400D01*
X81399142Y37561780D01*
X81732476Y37657019D02*
X82351523Y37657019D01*
X82018190Y37276066D01*
X82161047Y37276066D01*
X82256285Y37228447D01*
X82303904Y37180828D01*
X82351523Y37085590D01*
X82351523Y36847495D01*
X82303904Y36752257D01*
X82256285Y36704638D01*
X82161047Y36657019D01*
X81875333Y36657019D01*
X81780095Y36704638D01*
X81732476Y36752257D01*
X82684857Y37657019D02*
X83303904Y37657019D01*
X82970571Y37276066D01*
X83113428Y37276066D01*
X83208666Y37228447D01*
X83256285Y37180828D01*
X83303904Y37085590D01*
X83303904Y36847495D01*
X83256285Y36752257D01*
X83208666Y36704638D01*
X83113428Y36657019D01*
X82827714Y36657019D01*
X82732476Y36704638D01*
X82684857Y36752257D01*
X6900942Y33856657D02*
X6853323Y33809038D01*
X6710466Y33761419D01*
X6615228Y33761419D01*
X6472371Y33809038D01*
X6377133Y33904276D01*
X6329514Y33999514D01*
X6281895Y34189990D01*
X6281895Y34332847D01*
X6329514Y34523323D01*
X6377133Y34618561D01*
X6472371Y34713800D01*
X6615228Y34761419D01*
X6710466Y34761419D01*
X6853323Y34713800D01*
X6900942Y34666180D01*
X7234276Y34761419D02*
X7853323Y34761419D01*
X7519990Y34380466D01*
X7662847Y34380466D01*
X7758085Y34332847D01*
X7805704Y34285228D01*
X7853323Y34189990D01*
X7853323Y33951895D01*
X7805704Y33856657D01*
X7758085Y33809038D01*
X7662847Y33761419D01*
X7377133Y33761419D01*
X7281895Y33809038D01*
X7234276Y33856657D01*
X8710466Y34428085D02*
X8710466Y33761419D01*
X8472371Y34809038D02*
X8234276Y34094752D01*
X8853323Y34094752D01*
X6773942Y31392857D02*
X6726323Y31345238D01*
X6583466Y31297619D01*
X6488228Y31297619D01*
X6345371Y31345238D01*
X6250133Y31440476D01*
X6202514Y31535714D01*
X6154895Y31726190D01*
X6154895Y31869047D01*
X6202514Y32059523D01*
X6250133Y32154761D01*
X6345371Y32250000D01*
X6488228Y32297619D01*
X6583466Y32297619D01*
X6726323Y32250000D01*
X6773942Y32202380D01*
X7107276Y32297619D02*
X7726323Y32297619D01*
X7392990Y31916666D01*
X7535847Y31916666D01*
X7631085Y31869047D01*
X7678704Y31821428D01*
X7726323Y31726190D01*
X7726323Y31488095D01*
X7678704Y31392857D01*
X7631085Y31345238D01*
X7535847Y31297619D01*
X7250133Y31297619D01*
X7154895Y31345238D01*
X7107276Y31392857D01*
X8631085Y32297619D02*
X8154895Y32297619D01*
X8107276Y31821428D01*
X8154895Y31869047D01*
X8250133Y31916666D01*
X8488228Y31916666D01*
X8583466Y31869047D01*
X8631085Y31821428D01*
X8678704Y31726190D01*
X8678704Y31488095D01*
X8631085Y31392857D01*
X8583466Y31345238D01*
X8488228Y31297619D01*
X8250133Y31297619D01*
X8154895Y31345238D01*
X8107276Y31392857D01*
X25265142Y26897057D02*
X25217523Y26849438D01*
X25074666Y26801819D01*
X24979428Y26801819D01*
X24836571Y26849438D01*
X24741333Y26944676D01*
X24693714Y27039914D01*
X24646095Y27230390D01*
X24646095Y27373247D01*
X24693714Y27563723D01*
X24741333Y27658961D01*
X24836571Y27754200D01*
X24979428Y27801819D01*
X25074666Y27801819D01*
X25217523Y27754200D01*
X25265142Y27706580D01*
X25598476Y27801819D02*
X26217523Y27801819D01*
X25884190Y27420866D01*
X26027047Y27420866D01*
X26122285Y27373247D01*
X26169904Y27325628D01*
X26217523Y27230390D01*
X26217523Y26992295D01*
X26169904Y26897057D01*
X26122285Y26849438D01*
X26027047Y26801819D01*
X25741333Y26801819D01*
X25646095Y26849438D01*
X25598476Y26897057D01*
X27074666Y27801819D02*
X26884190Y27801819D01*
X26788952Y27754200D01*
X26741333Y27706580D01*
X26646095Y27563723D01*
X26598476Y27373247D01*
X26598476Y26992295D01*
X26646095Y26897057D01*
X26693714Y26849438D01*
X26788952Y26801819D01*
X26979428Y26801819D01*
X27074666Y26849438D01*
X27122285Y26897057D01*
X27169904Y26992295D01*
X27169904Y27230390D01*
X27122285Y27325628D01*
X27074666Y27373247D01*
X26979428Y27420866D01*
X26788952Y27420866D01*
X26693714Y27373247D01*
X26646095Y27325628D01*
X26598476Y27230390D01*
X16933942Y40003457D02*
X16886323Y39955838D01*
X16743466Y39908219D01*
X16648228Y39908219D01*
X16505371Y39955838D01*
X16410133Y40051076D01*
X16362514Y40146314D01*
X16314895Y40336790D01*
X16314895Y40479647D01*
X16362514Y40670123D01*
X16410133Y40765361D01*
X16505371Y40860600D01*
X16648228Y40908219D01*
X16743466Y40908219D01*
X16886323Y40860600D01*
X16933942Y40812980D01*
X17267276Y40908219D02*
X17886323Y40908219D01*
X17552990Y40527266D01*
X17695847Y40527266D01*
X17791085Y40479647D01*
X17838704Y40432028D01*
X17886323Y40336790D01*
X17886323Y40098695D01*
X17838704Y40003457D01*
X17791085Y39955838D01*
X17695847Y39908219D01*
X17410133Y39908219D01*
X17314895Y39955838D01*
X17267276Y40003457D01*
X18219657Y40908219D02*
X18886323Y40908219D01*
X18457752Y39908219D01*
X96188304Y59237619D02*
X96188304Y60237619D01*
X96426400Y60237619D01*
X96569257Y60190000D01*
X96664495Y60094761D01*
X96712114Y59999523D01*
X96759733Y59809047D01*
X96759733Y59666190D01*
X96712114Y59475714D01*
X96664495Y59380476D01*
X96569257Y59285238D01*
X96426400Y59237619D01*
X96188304Y59237619D01*
X97712114Y59237619D02*
X97140685Y59237619D01*
X97426400Y59237619D02*
X97426400Y60237619D01*
X97331161Y60094761D01*
X97235923Y59999523D01*
X97140685Y59951904D01*
X91768704Y59186819D02*
X91768704Y60186819D01*
X92006800Y60186819D01*
X92149657Y60139200D01*
X92244895Y60043961D01*
X92292514Y59948723D01*
X92340133Y59758247D01*
X92340133Y59615390D01*
X92292514Y59424914D01*
X92244895Y59329676D01*
X92149657Y59234438D01*
X92006800Y59186819D01*
X91768704Y59186819D01*
X92721085Y60091580D02*
X92768704Y60139200D01*
X92863942Y60186819D01*
X93102038Y60186819D01*
X93197276Y60139200D01*
X93244895Y60091580D01*
X93292514Y59996342D01*
X93292514Y59901104D01*
X93244895Y59758247D01*
X92673466Y59186819D01*
X93292514Y59186819D01*
X18540504Y18864319D02*
X18540504Y19864319D01*
X18778600Y19864319D01*
X18921457Y19816700D01*
X19016695Y19721461D01*
X19064314Y19626223D01*
X19111933Y19435747D01*
X19111933Y19292890D01*
X19064314Y19102414D01*
X19016695Y19007176D01*
X18921457Y18911938D01*
X18778600Y18864319D01*
X18540504Y18864319D01*
X19445266Y19864319D02*
X20064314Y19864319D01*
X19730980Y19483366D01*
X19873838Y19483366D01*
X19969076Y19435747D01*
X20016695Y19388128D01*
X20064314Y19292890D01*
X20064314Y19054795D01*
X20016695Y18959557D01*
X19969076Y18911938D01*
X19873838Y18864319D01*
X19588123Y18864319D01*
X19492885Y18911938D01*
X19445266Y18959557D01*
X18540504Y23144219D02*
X18540504Y24144219D01*
X18778600Y24144219D01*
X18921457Y24096600D01*
X19016695Y24001361D01*
X19064314Y23906123D01*
X19111933Y23715647D01*
X19111933Y23572790D01*
X19064314Y23382314D01*
X19016695Y23287076D01*
X18921457Y23191838D01*
X18778600Y23144219D01*
X18540504Y23144219D01*
X19969076Y23810885D02*
X19969076Y23144219D01*
X19730980Y24191838D02*
X19492885Y23477552D01*
X20111933Y23477552D01*
X7794666Y26665228D02*
X7461333Y26665228D01*
X7461333Y26141419D02*
X7461333Y27141419D01*
X7937523Y27141419D01*
X8842285Y26141419D02*
X8270857Y26141419D01*
X8556571Y26141419D02*
X8556571Y27141419D01*
X8461333Y26998561D01*
X8366095Y26903323D01*
X8270857Y26855704D01*
X46834466Y58231019D02*
X46834466Y57516733D01*
X46786847Y57373876D01*
X46691609Y57278638D01*
X46548752Y57231019D01*
X46453514Y57231019D01*
X47834466Y57231019D02*
X47263038Y57231019D01*
X47548752Y57231019D02*
X47548752Y58231019D01*
X47453514Y58088161D01*
X47358276Y57992923D01*
X47263038Y57945304D01*
X50593666Y7583419D02*
X50593666Y6869133D01*
X50546047Y6726276D01*
X50450809Y6631038D01*
X50307952Y6583419D01*
X50212714Y6583419D01*
X51022238Y7488180D02*
X51069857Y7535800D01*
X51165095Y7583419D01*
X51403190Y7583419D01*
X51498428Y7535800D01*
X51546047Y7488180D01*
X51593666Y7392942D01*
X51593666Y7297704D01*
X51546047Y7154847D01*
X50974619Y6583419D01*
X51593666Y6583419D01*
X18564266Y55797619D02*
X18564266Y55083333D01*
X18516647Y54940476D01*
X18421409Y54845238D01*
X18278552Y54797619D01*
X18183314Y54797619D01*
X18945219Y55797619D02*
X19564266Y55797619D01*
X19230933Y55416666D01*
X19373790Y55416666D01*
X19469028Y55369047D01*
X19516647Y55321428D01*
X19564266Y55226190D01*
X19564266Y54988095D01*
X19516647Y54892857D01*
X19469028Y54845238D01*
X19373790Y54797619D01*
X19088076Y54797619D01*
X18992838Y54845238D01*
X18945219Y54892857D01*
X27454266Y7735819D02*
X27454266Y7021533D01*
X27406647Y6878676D01*
X27311409Y6783438D01*
X27168552Y6735819D01*
X27073314Y6735819D01*
X28359028Y7402485D02*
X28359028Y6735819D01*
X28120933Y7783438D02*
X27882838Y7069152D01*
X28501885Y7069152D01*
X10372766Y54858719D02*
X10372766Y54144433D01*
X10325147Y54001576D01*
X10229909Y53906338D01*
X10087052Y53858719D01*
X9991814Y53858719D01*
X10896576Y53858719D02*
X11087052Y53858719D01*
X11182290Y53906338D01*
X11229909Y53953957D01*
X11325147Y54096814D01*
X11372766Y54287290D01*
X11372766Y54668242D01*
X11325147Y54763480D01*
X11277528Y54811100D01*
X11182290Y54858719D01*
X10991814Y54858719D01*
X10896576Y54811100D01*
X10848957Y54763480D01*
X10801338Y54668242D01*
X10801338Y54430147D01*
X10848957Y54334909D01*
X10896576Y54287290D01*
X10991814Y54239671D01*
X11182290Y54239671D01*
X11277528Y54287290D01*
X11325147Y54334909D01*
X11372766Y54430147D01*
X62944476Y23941019D02*
X62944476Y23226733D01*
X62896857Y23083876D01*
X62801619Y22988638D01*
X62658761Y22941019D01*
X62563523Y22941019D01*
X63944476Y22941019D02*
X63373047Y22941019D01*
X63658761Y22941019D02*
X63658761Y23941019D01*
X63563523Y23798161D01*
X63468285Y23702923D01*
X63373047Y23655304D01*
X64563523Y23941019D02*
X64658761Y23941019D01*
X64754000Y23893400D01*
X64801619Y23845780D01*
X64849238Y23750542D01*
X64896857Y23560066D01*
X64896857Y23321971D01*
X64849238Y23131495D01*
X64801619Y23036257D01*
X64754000Y22988638D01*
X64658761Y22941019D01*
X64563523Y22941019D01*
X64468285Y22988638D01*
X64420666Y23036257D01*
X64373047Y23131495D01*
X64325428Y23321971D01*
X64325428Y23560066D01*
X64373047Y23750542D01*
X64420666Y23845780D01*
X64468285Y23893400D01*
X64563523Y23941019D01*
X78311476Y26582619D02*
X78311476Y25868333D01*
X78263857Y25725476D01*
X78168619Y25630238D01*
X78025761Y25582619D01*
X77930523Y25582619D01*
X79311476Y25582619D02*
X78740047Y25582619D01*
X79025761Y25582619D02*
X79025761Y26582619D01*
X78930523Y26439761D01*
X78835285Y26344523D01*
X78740047Y26296904D01*
X80263857Y25582619D02*
X79692428Y25582619D01*
X79978142Y25582619D02*
X79978142Y26582619D01*
X79882904Y26439761D01*
X79787666Y26344523D01*
X79692428Y26296904D01*
X16462476Y65317619D02*
X16462476Y64603333D01*
X16414857Y64460476D01*
X16319619Y64365238D01*
X16176761Y64317619D01*
X16081523Y64317619D01*
X17462476Y64317619D02*
X16891047Y64317619D01*
X17176761Y64317619D02*
X17176761Y65317619D01*
X17081523Y65174761D01*
X16986285Y65079523D01*
X16891047Y65031904D01*
X17843428Y65222380D02*
X17891047Y65270000D01*
X17986285Y65317619D01*
X18224380Y65317619D01*
X18319619Y65270000D01*
X18367238Y65222380D01*
X18414857Y65127142D01*
X18414857Y65031904D01*
X18367238Y64889047D01*
X17795809Y64317619D01*
X18414857Y64317619D01*
X71199476Y-1941580D02*
X71199476Y-2655866D01*
X71151857Y-2798723D01*
X71056619Y-2893961D01*
X70913761Y-2941580D01*
X70818523Y-2941580D01*
X72199476Y-2941580D02*
X71628047Y-2941580D01*
X71913761Y-2941580D02*
X71913761Y-1941580D01*
X71818523Y-2084438D01*
X71723285Y-2179676D01*
X71628047Y-2227295D01*
X72532809Y-1941580D02*
X73151857Y-1941580D01*
X72818523Y-2322533D01*
X72961380Y-2322533D01*
X73056619Y-2370152D01*
X73104238Y-2417771D01*
X73151857Y-2513009D01*
X73151857Y-2751104D01*
X73104238Y-2846342D01*
X73056619Y-2893961D01*
X72961380Y-2941580D01*
X72675666Y-2941580D01*
X72580428Y-2893961D01*
X72532809Y-2846342D01*
X-1876323Y36437819D02*
X-1876323Y35723533D01*
X-1923942Y35580676D01*
X-2019180Y35485438D01*
X-2162038Y35437819D01*
X-2257276Y35437819D01*
X-876323Y35437819D02*
X-1447752Y35437819D01*
X-1162038Y35437819D02*
X-1162038Y36437819D01*
X-1257276Y36294961D01*
X-1352514Y36199723D01*
X-1447752Y36152104D01*
X-19180Y36104485D02*
X-19180Y35437819D01*
X-257276Y36485438D02*
X-495371Y35771152D01*
X123676Y35771152D01*
X7834333Y27868619D02*
X7358142Y27868619D01*
X7358142Y28868619D01*
X8691476Y27868619D02*
X8120047Y27868619D01*
X8405761Y27868619D02*
X8405761Y28868619D01*
X8310523Y28725761D01*
X8215285Y28630523D01*
X8120047Y28582904D01*
X18959533Y50119019D02*
X18626200Y50595209D01*
X18388104Y50119019D02*
X18388104Y51119019D01*
X18769057Y51119019D01*
X18864295Y51071400D01*
X18911914Y51023780D01*
X18959533Y50928542D01*
X18959533Y50785685D01*
X18911914Y50690447D01*
X18864295Y50642828D01*
X18769057Y50595209D01*
X18388104Y50595209D01*
X19911914Y50119019D02*
X19340485Y50119019D01*
X19626200Y50119019D02*
X19626200Y51119019D01*
X19530961Y50976161D01*
X19435723Y50880923D01*
X19340485Y50833304D01*
X25842933Y50093619D02*
X25509600Y50569809D01*
X25271504Y50093619D02*
X25271504Y51093619D01*
X25652457Y51093619D01*
X25747695Y51046000D01*
X25795314Y50998380D01*
X25842933Y50903142D01*
X25842933Y50760285D01*
X25795314Y50665047D01*
X25747695Y50617428D01*
X25652457Y50569809D01*
X25271504Y50569809D01*
X26223885Y50998380D02*
X26271504Y51046000D01*
X26366742Y51093619D01*
X26604838Y51093619D01*
X26700076Y51046000D01*
X26747695Y50998380D01*
X26795314Y50903142D01*
X26795314Y50807904D01*
X26747695Y50665047D01*
X26176266Y50093619D01*
X26795314Y50093619D01*
X96810533Y54106819D02*
X96477200Y54583009D01*
X96239104Y54106819D02*
X96239104Y55106819D01*
X96620057Y55106819D01*
X96715295Y55059200D01*
X96762914Y55011580D01*
X96810533Y54916342D01*
X96810533Y54773485D01*
X96762914Y54678247D01*
X96715295Y54630628D01*
X96620057Y54583009D01*
X96239104Y54583009D01*
X97143866Y55106819D02*
X97762914Y55106819D01*
X97429580Y54725866D01*
X97572438Y54725866D01*
X97667676Y54678247D01*
X97715295Y54630628D01*
X97762914Y54535390D01*
X97762914Y54297295D01*
X97715295Y54202057D01*
X97667676Y54154438D01*
X97572438Y54106819D01*
X97286723Y54106819D01*
X97191485Y54154438D01*
X97143866Y54202057D01*
X92390933Y54056019D02*
X92057600Y54532209D01*
X91819504Y54056019D02*
X91819504Y55056019D01*
X92200457Y55056019D01*
X92295695Y55008400D01*
X92343314Y54960780D01*
X92390933Y54865542D01*
X92390933Y54722685D01*
X92343314Y54627447D01*
X92295695Y54579828D01*
X92200457Y54532209D01*
X91819504Y54532209D01*
X93248076Y54722685D02*
X93248076Y54056019D01*
X93009980Y55103638D02*
X92771885Y54389352D01*
X93390933Y54389352D01*
X75957133Y52760619D02*
X75623800Y53236809D01*
X75385704Y52760619D02*
X75385704Y53760619D01*
X75766657Y53760619D01*
X75861895Y53713000D01*
X75909514Y53665380D01*
X75957133Y53570142D01*
X75957133Y53427285D01*
X75909514Y53332047D01*
X75861895Y53284428D01*
X75766657Y53236809D01*
X75385704Y53236809D01*
X76861895Y53760619D02*
X76385704Y53760619D01*
X76338085Y53284428D01*
X76385704Y53332047D01*
X76480942Y53379666D01*
X76719038Y53379666D01*
X76814276Y53332047D01*
X76861895Y53284428D01*
X76909514Y53189190D01*
X76909514Y52951095D01*
X76861895Y52855857D01*
X76814276Y52808238D01*
X76719038Y52760619D01*
X76480942Y52760619D01*
X76385704Y52808238D01*
X76338085Y52855857D01*
X80503733Y52709819D02*
X80170400Y53186009D01*
X79932304Y52709819D02*
X79932304Y53709819D01*
X80313257Y53709819D01*
X80408495Y53662200D01*
X80456114Y53614580D01*
X80503733Y53519342D01*
X80503733Y53376485D01*
X80456114Y53281247D01*
X80408495Y53233628D01*
X80313257Y53186009D01*
X79932304Y53186009D01*
X81360876Y53709819D02*
X81170400Y53709819D01*
X81075161Y53662200D01*
X81027542Y53614580D01*
X80932304Y53471723D01*
X80884685Y53281247D01*
X80884685Y52900295D01*
X80932304Y52805057D01*
X80979923Y52757438D01*
X81075161Y52709819D01*
X81265638Y52709819D01*
X81360876Y52757438D01*
X81408495Y52805057D01*
X81456114Y52900295D01*
X81456114Y53138390D01*
X81408495Y53233628D01*
X81360876Y53281247D01*
X81265638Y53328866D01*
X81075161Y53328866D01*
X80979923Y53281247D01*
X80932304Y53233628D01*
X80884685Y53138390D01*
X75398333Y32237419D02*
X75065000Y32713609D01*
X74826904Y32237419D02*
X74826904Y33237419D01*
X75207857Y33237419D01*
X75303095Y33189800D01*
X75350714Y33142180D01*
X75398333Y33046942D01*
X75398333Y32904085D01*
X75350714Y32808847D01*
X75303095Y32761228D01*
X75207857Y32713609D01*
X74826904Y32713609D01*
X75731666Y33237419D02*
X76398333Y33237419D01*
X75969761Y32237419D01*
X23023533Y18830119D02*
X22690200Y19306309D01*
X22452104Y18830119D02*
X22452104Y19830119D01*
X22833057Y19830119D01*
X22928295Y19782500D01*
X22975914Y19734880D01*
X23023533Y19639642D01*
X23023533Y19496785D01*
X22975914Y19401547D01*
X22928295Y19353928D01*
X22833057Y19306309D01*
X22452104Y19306309D01*
X23594961Y19401547D02*
X23499723Y19449166D01*
X23452104Y19496785D01*
X23404485Y19592023D01*
X23404485Y19639642D01*
X23452104Y19734880D01*
X23499723Y19782500D01*
X23594961Y19830119D01*
X23785438Y19830119D01*
X23880676Y19782500D01*
X23928295Y19734880D01*
X23975914Y19639642D01*
X23975914Y19592023D01*
X23928295Y19496785D01*
X23880676Y19449166D01*
X23785438Y19401547D01*
X23594961Y19401547D01*
X23499723Y19353928D01*
X23452104Y19306309D01*
X23404485Y19211071D01*
X23404485Y19020595D01*
X23452104Y18925357D01*
X23499723Y18877738D01*
X23594961Y18830119D01*
X23785438Y18830119D01*
X23880676Y18877738D01*
X23928295Y18925357D01*
X23975914Y19020595D01*
X23975914Y19211071D01*
X23928295Y19306309D01*
X23880676Y19353928D01*
X23785438Y19401547D01*
X22985433Y23080719D02*
X22652100Y23556909D01*
X22414004Y23080719D02*
X22414004Y24080719D01*
X22794957Y24080719D01*
X22890195Y24033100D01*
X22937814Y23985480D01*
X22985433Y23890242D01*
X22985433Y23747385D01*
X22937814Y23652147D01*
X22890195Y23604528D01*
X22794957Y23556909D01*
X22414004Y23556909D01*
X23461623Y23080719D02*
X23652100Y23080719D01*
X23747338Y23128338D01*
X23794957Y23175957D01*
X23890195Y23318814D01*
X23937814Y23509290D01*
X23937814Y23890242D01*
X23890195Y23985480D01*
X23842576Y24033100D01*
X23747338Y24080719D01*
X23556861Y24080719D01*
X23461623Y24033100D01*
X23414004Y23985480D01*
X23366385Y23890242D01*
X23366385Y23652147D01*
X23414004Y23556909D01*
X23461623Y23509290D01*
X23556861Y23461671D01*
X23747338Y23461671D01*
X23842576Y23509290D01*
X23890195Y23556909D01*
X23937814Y23652147D01*
X26712942Y39717719D02*
X26379609Y40193909D01*
X26141514Y39717719D02*
X26141514Y40717719D01*
X26522466Y40717719D01*
X26617704Y40670100D01*
X26665323Y40622480D01*
X26712942Y40527242D01*
X26712942Y40384385D01*
X26665323Y40289147D01*
X26617704Y40241528D01*
X26522466Y40193909D01*
X26141514Y40193909D01*
X27665323Y39717719D02*
X27093895Y39717719D01*
X27379609Y39717719D02*
X27379609Y40717719D01*
X27284371Y40574861D01*
X27189133Y40479623D01*
X27093895Y40432004D01*
X28284371Y40717719D02*
X28379609Y40717719D01*
X28474847Y40670100D01*
X28522466Y40622480D01*
X28570085Y40527242D01*
X28617704Y40336766D01*
X28617704Y40098671D01*
X28570085Y39908195D01*
X28522466Y39812957D01*
X28474847Y39765338D01*
X28379609Y39717719D01*
X28284371Y39717719D01*
X28189133Y39765338D01*
X28141514Y39812957D01*
X28093895Y39908195D01*
X28046276Y40098671D01*
X28046276Y40336766D01*
X28093895Y40527242D01*
X28141514Y40622480D01*
X28189133Y40670100D01*
X28284371Y40717719D01*
X26458942Y37241219D02*
X26125609Y37717409D01*
X25887514Y37241219D02*
X25887514Y38241219D01*
X26268466Y38241219D01*
X26363704Y38193600D01*
X26411323Y38145980D01*
X26458942Y38050742D01*
X26458942Y37907885D01*
X26411323Y37812647D01*
X26363704Y37765028D01*
X26268466Y37717409D01*
X25887514Y37717409D01*
X27411323Y37241219D02*
X26839895Y37241219D01*
X27125609Y37241219D02*
X27125609Y38241219D01*
X27030371Y38098361D01*
X26935133Y38003123D01*
X26839895Y37955504D01*
X28363704Y37241219D02*
X27792276Y37241219D01*
X28077990Y37241219D02*
X28077990Y38241219D01*
X27982752Y38098361D01*
X27887514Y38003123D01*
X27792276Y37955504D01*
X3802142Y38409619D02*
X3468809Y38885809D01*
X3230714Y38409619D02*
X3230714Y39409619D01*
X3611666Y39409619D01*
X3706904Y39362000D01*
X3754523Y39314380D01*
X3802142Y39219142D01*
X3802142Y39076285D01*
X3754523Y38981047D01*
X3706904Y38933428D01*
X3611666Y38885809D01*
X3230714Y38885809D01*
X4754523Y38409619D02*
X4183095Y38409619D01*
X4468809Y38409619D02*
X4468809Y39409619D01*
X4373571Y39266761D01*
X4278333Y39171523D01*
X4183095Y39123904D01*
X5135476Y39314380D02*
X5183095Y39362000D01*
X5278333Y39409619D01*
X5516428Y39409619D01*
X5611666Y39362000D01*
X5659285Y39314380D01*
X5706904Y39219142D01*
X5706904Y39123904D01*
X5659285Y38981047D01*
X5087857Y38409619D01*
X5706904Y38409619D01*
X3598942Y35590219D02*
X3265609Y36066409D01*
X3027514Y35590219D02*
X3027514Y36590219D01*
X3408466Y36590219D01*
X3503704Y36542600D01*
X3551323Y36494980D01*
X3598942Y36399742D01*
X3598942Y36256885D01*
X3551323Y36161647D01*
X3503704Y36114028D01*
X3408466Y36066409D01*
X3027514Y36066409D01*
X4551323Y35590219D02*
X3979895Y35590219D01*
X4265609Y35590219D02*
X4265609Y36590219D01*
X4170371Y36447361D01*
X4075133Y36352123D01*
X3979895Y36304504D01*
X4884657Y36590219D02*
X5503704Y36590219D01*
X5170371Y36209266D01*
X5313228Y36209266D01*
X5408466Y36161647D01*
X5456085Y36114028D01*
X5503704Y36018790D01*
X5503704Y35780695D01*
X5456085Y35685457D01*
X5408466Y35637838D01*
X5313228Y35590219D01*
X5027514Y35590219D01*
X4932276Y35637838D01*
X4884657Y35685457D01*
X74841266Y64974838D02*
X74984123Y64927219D01*
X75222219Y64927219D01*
X75317457Y64974838D01*
X75365076Y65022457D01*
X75412695Y65117695D01*
X75412695Y65212933D01*
X75365076Y65308171D01*
X75317457Y65355790D01*
X75222219Y65403409D01*
X75031742Y65451028D01*
X74936504Y65498647D01*
X74888885Y65546266D01*
X74841266Y65641504D01*
X74841266Y65736742D01*
X74888885Y65831980D01*
X74936504Y65879600D01*
X75031742Y65927219D01*
X75269838Y65927219D01*
X75412695Y65879600D01*
X75746028Y65927219D02*
X75984123Y64927219D01*
X76174600Y65641504D01*
X76365076Y64927219D01*
X76603171Y65927219D01*
X77507933Y64927219D02*
X76936504Y64927219D01*
X77222219Y64927219D02*
X77222219Y65927219D01*
X77126980Y65784361D01*
X77031742Y65689123D01*
X76936504Y65641504D01*
X83858266Y64974838D02*
X84001123Y64927219D01*
X84239219Y64927219D01*
X84334457Y64974838D01*
X84382076Y65022457D01*
X84429695Y65117695D01*
X84429695Y65212933D01*
X84382076Y65308171D01*
X84334457Y65355790D01*
X84239219Y65403409D01*
X84048742Y65451028D01*
X83953504Y65498647D01*
X83905885Y65546266D01*
X83858266Y65641504D01*
X83858266Y65736742D01*
X83905885Y65831980D01*
X83953504Y65879600D01*
X84048742Y65927219D01*
X84286838Y65927219D01*
X84429695Y65879600D01*
X84763028Y65927219D02*
X85001123Y64927219D01*
X85191600Y65641504D01*
X85382076Y64927219D01*
X85620171Y65927219D01*
X85953504Y65831980D02*
X86001123Y65879600D01*
X86096361Y65927219D01*
X86334457Y65927219D01*
X86429695Y65879600D01*
X86477314Y65831980D01*
X86524933Y65736742D01*
X86524933Y65641504D01*
X86477314Y65498647D01*
X85905885Y64927219D01*
X86524933Y64927219D01*
X85745415Y24276299D02*
X85745415Y23466775D01*
X85793034Y23371537D01*
X85840653Y23323918D01*
X85935891Y23276299D01*
X86126367Y23276299D01*
X86221605Y23323918D01*
X86269224Y23371537D01*
X86316843Y23466775D01*
X86316843Y24276299D01*
X87316843Y23276299D02*
X86745415Y23276299D01*
X87031129Y23276299D02*
X87031129Y24276299D01*
X86935891Y24133441D01*
X86840653Y24038203D01*
X86745415Y23990584D01*
X89763695Y50306219D02*
X89763695Y49496695D01*
X89811314Y49401457D01*
X89858933Y49353838D01*
X89954171Y49306219D01*
X90144647Y49306219D01*
X90239885Y49353838D01*
X90287504Y49401457D01*
X90335123Y49496695D01*
X90335123Y50306219D01*
X90763695Y50210980D02*
X90811314Y50258600D01*
X90906552Y50306219D01*
X91144647Y50306219D01*
X91239885Y50258600D01*
X91287504Y50210980D01*
X91335123Y50115742D01*
X91335123Y50020504D01*
X91287504Y49877647D01*
X90716076Y49306219D01*
X91335123Y49306219D01*
X62407895Y36615619D02*
X62407895Y35806095D01*
X62455514Y35710857D01*
X62503133Y35663238D01*
X62598371Y35615619D01*
X62788847Y35615619D01*
X62884085Y35663238D01*
X62931704Y35710857D01*
X62979323Y35806095D01*
X62979323Y36615619D01*
X63931704Y36615619D02*
X63455514Y36615619D01*
X63407895Y36139428D01*
X63455514Y36187047D01*
X63550752Y36234666D01*
X63788847Y36234666D01*
X63884085Y36187047D01*
X63931704Y36139428D01*
X63979323Y36044190D01*
X63979323Y35806095D01*
X63931704Y35710857D01*
X63884085Y35663238D01*
X63788847Y35615619D01*
X63550752Y35615619D01*
X63455514Y35663238D01*
X63407895Y35710857D01*
X70688295Y37072819D02*
X70688295Y36263295D01*
X70735914Y36168057D01*
X70783533Y36120438D01*
X70878771Y36072819D01*
X71069247Y36072819D01*
X71164485Y36120438D01*
X71212104Y36168057D01*
X71259723Y36263295D01*
X71259723Y37072819D01*
X72164485Y37072819D02*
X71974009Y37072819D01*
X71878771Y37025200D01*
X71831152Y36977580D01*
X71735914Y36834723D01*
X71688295Y36644247D01*
X71688295Y36263295D01*
X71735914Y36168057D01*
X71783533Y36120438D01*
X71878771Y36072819D01*
X72069247Y36072819D01*
X72164485Y36120438D01*
X72212104Y36168057D01*
X72259723Y36263295D01*
X72259723Y36501390D01*
X72212104Y36596628D01*
X72164485Y36644247D01*
X72069247Y36691866D01*
X71878771Y36691866D01*
X71783533Y36644247D01*
X71735914Y36596628D01*
X71688295Y36501390D01*
X19659695Y25490419D02*
X19659695Y24680895D01*
X19707314Y24585657D01*
X19754933Y24538038D01*
X19850171Y24490419D01*
X20040647Y24490419D01*
X20135885Y24538038D01*
X20183504Y24585657D01*
X20231123Y24680895D01*
X20231123Y25490419D01*
X20612076Y25490419D02*
X21278742Y25490419D01*
X20850171Y24490419D01*
X100606266Y49315619D02*
X100606266Y48601333D01*
X100558647Y48458476D01*
X100463409Y48363238D01*
X100320552Y48315619D01*
X100225314Y48315619D01*
X101558647Y49315619D02*
X101082457Y49315619D01*
X101034838Y48839428D01*
X101082457Y48887047D01*
X101177695Y48934666D01*
X101415790Y48934666D01*
X101511028Y48887047D01*
X101558647Y48839428D01*
X101606266Y48744190D01*
X101606266Y48506095D01*
X101558647Y48410857D01*
X101511028Y48363238D01*
X101415790Y48315619D01*
X101177695Y48315619D01*
X101082457Y48363238D01*
X101034838Y48410857D01*
X100657066Y6999219D02*
X100657066Y6284933D01*
X100609447Y6142076D01*
X100514209Y6046838D01*
X100371352Y5999219D01*
X100276114Y5999219D01*
X101561828Y6999219D02*
X101371352Y6999219D01*
X101276114Y6951600D01*
X101228495Y6903980D01*
X101133257Y6761123D01*
X101085638Y6570647D01*
X101085638Y6189695D01*
X101133257Y6094457D01*
X101180876Y6046838D01*
X101276114Y5999219D01*
X101466590Y5999219D01*
X101561828Y6046838D01*
X101609447Y6094457D01*
X101657066Y6189695D01*
X101657066Y6427790D01*
X101609447Y6523028D01*
X101561828Y6570647D01*
X101466590Y6618266D01*
X101276114Y6618266D01*
X101180876Y6570647D01*
X101133257Y6523028D01*
X101085638Y6427790D01*
X18509180Y43519766D02*
X19223466Y43519766D01*
X19366323Y43472147D01*
X19461561Y43376909D01*
X19509180Y43234052D01*
X19509180Y43138814D01*
X18509180Y43900719D02*
X18509180Y44567385D01*
X19509180Y44138814D01*
X12956143Y11858256D02*
X12908524Y11810637D01*
X12765667Y11763018D01*
X12670429Y11763018D01*
X12527572Y11810637D01*
X12432334Y11905875D01*
X12384715Y12001113D01*
X12337096Y12191589D01*
X12337096Y12334446D01*
X12384715Y12524922D01*
X12432334Y12620160D01*
X12527572Y12715399D01*
X12670429Y12763018D01*
X12765667Y12763018D01*
X12908524Y12715399D01*
X12956143Y12667779D01*
X13289477Y12763018D02*
X13908524Y12763018D01*
X13575191Y12382065D01*
X13718048Y12382065D01*
X13813286Y12334446D01*
X13860905Y12286827D01*
X13908524Y12191589D01*
X13908524Y11953494D01*
X13860905Y11858256D01*
X13813286Y11810637D01*
X13718048Y11763018D01*
X13432334Y11763018D01*
X13337096Y11810637D01*
X13289477Y11858256D01*
X14479953Y12334446D02*
X14384715Y12382065D01*
X14337096Y12429684D01*
X14289477Y12524922D01*
X14289477Y12572541D01*
X14337096Y12667779D01*
X14384715Y12715399D01*
X14479953Y12763018D01*
X14670429Y12763018D01*
X14765667Y12715399D01*
X14813286Y12667779D01*
X14860905Y12572541D01*
X14860905Y12524922D01*
X14813286Y12429684D01*
X14765667Y12382065D01*
X14670429Y12334446D01*
X14479953Y12334446D01*
X14384715Y12286827D01*
X14337096Y12239208D01*
X14289477Y12143970D01*
X14289477Y11953494D01*
X14337096Y11858256D01*
X14384715Y11810637D01*
X14479953Y11763018D01*
X14670429Y11763018D01*
X14765667Y11810637D01*
X14813286Y11858256D01*
X14860905Y11953494D01*
X14860905Y12143970D01*
X14813286Y12239208D01*
X14765667Y12286827D01*
X14670429Y12334446D01*
X12971542Y14374857D02*
X12923923Y14327238D01*
X12781066Y14279619D01*
X12685828Y14279619D01*
X12542971Y14327238D01*
X12447733Y14422476D01*
X12400114Y14517714D01*
X12352495Y14708190D01*
X12352495Y14851047D01*
X12400114Y15041523D01*
X12447733Y15136761D01*
X12542971Y15232000D01*
X12685828Y15279619D01*
X12781066Y15279619D01*
X12923923Y15232000D01*
X12971542Y15184380D01*
X13304876Y15279619D02*
X13923923Y15279619D01*
X13590590Y14898666D01*
X13733447Y14898666D01*
X13828685Y14851047D01*
X13876304Y14803428D01*
X13923923Y14708190D01*
X13923923Y14470095D01*
X13876304Y14374857D01*
X13828685Y14327238D01*
X13733447Y14279619D01*
X13447733Y14279619D01*
X13352495Y14327238D01*
X13304876Y14374857D01*
X14400114Y14279619D02*
X14590590Y14279619D01*
X14685828Y14327238D01*
X14733447Y14374857D01*
X14828685Y14517714D01*
X14876304Y14708190D01*
X14876304Y15089142D01*
X14828685Y15184380D01*
X14781066Y15232000D01*
X14685828Y15279619D01*
X14495352Y15279619D01*
X14400114Y15232000D01*
X14352495Y15184380D01*
X14304876Y15089142D01*
X14304876Y14851047D01*
X14352495Y14755809D01*
X14400114Y14708190D01*
X14495352Y14660571D01*
X14685828Y14660571D01*
X14781066Y14708190D01*
X14828685Y14755809D01*
X14876304Y14851047D01*
X26281142Y4576819D02*
X25947809Y5053009D01*
X25709714Y4576819D02*
X25709714Y5576819D01*
X26090666Y5576819D01*
X26185904Y5529200D01*
X26233523Y5481580D01*
X26281142Y5386342D01*
X26281142Y5243485D01*
X26233523Y5148247D01*
X26185904Y5100628D01*
X26090666Y5053009D01*
X25709714Y5053009D01*
X27233523Y4576819D02*
X26662095Y4576819D01*
X26947809Y4576819D02*
X26947809Y5576819D01*
X26852571Y5433961D01*
X26757333Y5338723D01*
X26662095Y5291104D01*
X28090666Y5243485D02*
X28090666Y4576819D01*
X27852571Y5624438D02*
X27614476Y4910152D01*
X28233523Y4910152D01*
X20362942Y4551419D02*
X20029609Y5027609D01*
X19791514Y4551419D02*
X19791514Y5551419D01*
X20172466Y5551419D01*
X20267704Y5503800D01*
X20315323Y5456180D01*
X20362942Y5360942D01*
X20362942Y5218085D01*
X20315323Y5122847D01*
X20267704Y5075228D01*
X20172466Y5027609D01*
X19791514Y5027609D01*
X21315323Y4551419D02*
X20743895Y4551419D01*
X21029609Y4551419D02*
X21029609Y5551419D01*
X20934371Y5408561D01*
X20839133Y5313323D01*
X20743895Y5265704D01*
X22220085Y5551419D02*
X21743895Y5551419D01*
X21696276Y5075228D01*
X21743895Y5122847D01*
X21839133Y5170466D01*
X22077228Y5170466D01*
X22172466Y5122847D01*
X22220085Y5075228D01*
X22267704Y4979990D01*
X22267704Y4741895D01*
X22220085Y4646657D01*
X22172466Y4599038D01*
X22077228Y4551419D01*
X21839133Y4551419D01*
X21743895Y4599038D01*
X21696276Y4646657D01*
X26611342Y8929019D02*
X26278009Y9405209D01*
X26039914Y8929019D02*
X26039914Y9929019D01*
X26420866Y9929019D01*
X26516104Y9881400D01*
X26563723Y9833780D01*
X26611342Y9738542D01*
X26611342Y9595685D01*
X26563723Y9500447D01*
X26516104Y9452828D01*
X26420866Y9405209D01*
X26039914Y9405209D01*
X27563723Y8929019D02*
X26992295Y8929019D01*
X27278009Y8929019D02*
X27278009Y9929019D01*
X27182771Y9786161D01*
X27087533Y9690923D01*
X26992295Y9643304D01*
X28420866Y9929019D02*
X28230390Y9929019D01*
X28135152Y9881400D01*
X28087533Y9833780D01*
X27992295Y9690923D01*
X27944676Y9500447D01*
X27944676Y9119495D01*
X27992295Y9024257D01*
X28039914Y8976638D01*
X28135152Y8929019D01*
X28325628Y8929019D01*
X28420866Y8976638D01*
X28468485Y9024257D01*
X28516104Y9119495D01*
X28516104Y9357590D01*
X28468485Y9452828D01*
X28420866Y9500447D01*
X28325628Y9548066D01*
X28135152Y9548066D01*
X28039914Y9500447D01*
X27992295Y9452828D01*
X27944676Y9357590D01*
X18745295Y9463019D02*
X18745295Y8653495D01*
X18792914Y8558257D01*
X18840533Y8510638D01*
X18935771Y8463019D01*
X19126247Y8463019D01*
X19221485Y8510638D01*
X19269104Y8558257D01*
X19316723Y8653495D01*
X19316723Y9463019D01*
X19935771Y9034447D02*
X19840533Y9082066D01*
X19792914Y9129685D01*
X19745295Y9224923D01*
X19745295Y9272542D01*
X19792914Y9367780D01*
X19840533Y9415400D01*
X19935771Y9463019D01*
X20126247Y9463019D01*
X20221485Y9415400D01*
X20269104Y9367780D01*
X20316723Y9272542D01*
X20316723Y9224923D01*
X20269104Y9129685D01*
X20221485Y9082066D01*
X20126247Y9034447D01*
X19935771Y9034447D01*
X19840533Y8986828D01*
X19792914Y8939209D01*
X19745295Y8843971D01*
X19745295Y8653495D01*
X19792914Y8558257D01*
X19840533Y8510638D01*
X19935771Y8463019D01*
X20126247Y8463019D01*
X20221485Y8510638D01*
X20269104Y8558257D01*
X20316723Y8653495D01*
X20316723Y8843971D01*
X20269104Y8939209D01*
X20221485Y8986828D01*
X20126247Y9034447D01*
M02*
